%TF.GenerationSoftware,KiCad,Pcbnew,9.0.7*%
%TF.CreationDate,2026-05-09T02:02:29+02:00*%
%TF.ProjectId,twn4_access_system_rev_d_compact_routed,74776e34-5f61-4636-9365-73735f737973,rev?*%
%TF.SameCoordinates,Original*%
%TF.FileFunction,Legend,Top*%
%TF.FilePolarity,Positive*%
%FSLAX46Y46*%
G04 Gerber Fmt 4.6, Leading zero omitted, Abs format (unit mm)*
G04 Created by KiCad (PCBNEW 9.0.7) date 2026-05-09 02:02:29*
%MOMM*%
%LPD*%
G01*
G04 APERTURE LIST*
%ADD10C,0.150000*%
%ADD11C,0.120000*%
G04 APERTURE END LIST*
D10*
X54523808Y-84454819D02*
X54190475Y-83978628D01*
X53952380Y-84454819D02*
X53952380Y-83454819D01*
X53952380Y-83454819D02*
X54333332Y-83454819D01*
X54333332Y-83454819D02*
X54428570Y-83502438D01*
X54428570Y-83502438D02*
X54476189Y-83550057D01*
X54476189Y-83550057D02*
X54523808Y-83645295D01*
X54523808Y-83645295D02*
X54523808Y-83788152D01*
X54523808Y-83788152D02*
X54476189Y-83883390D01*
X54476189Y-83883390D02*
X54428570Y-83931009D01*
X54428570Y-83931009D02*
X54333332Y-83978628D01*
X54333332Y-83978628D02*
X53952380Y-83978628D01*
X54952380Y-83931009D02*
X55285713Y-83931009D01*
X55428570Y-84454819D02*
X54952380Y-84454819D01*
X54952380Y-84454819D02*
X54952380Y-83454819D01*
X54952380Y-83454819D02*
X55428570Y-83454819D01*
X55714285Y-83454819D02*
X56047618Y-84454819D01*
X56047618Y-84454819D02*
X56380951Y-83454819D01*
X57476190Y-84454819D02*
X57476190Y-83454819D01*
X57476190Y-83454819D02*
X57714285Y-83454819D01*
X57714285Y-83454819D02*
X57857142Y-83502438D01*
X57857142Y-83502438D02*
X57952380Y-83597676D01*
X57952380Y-83597676D02*
X57999999Y-83692914D01*
X57999999Y-83692914D02*
X58047618Y-83883390D01*
X58047618Y-83883390D02*
X58047618Y-84026247D01*
X58047618Y-84026247D02*
X57999999Y-84216723D01*
X57999999Y-84216723D02*
X57952380Y-84311961D01*
X57952380Y-84311961D02*
X57857142Y-84407200D01*
X57857142Y-84407200D02*
X57714285Y-84454819D01*
X57714285Y-84454819D02*
X57476190Y-84454819D01*
X59809523Y-84359580D02*
X59761904Y-84407200D01*
X59761904Y-84407200D02*
X59619047Y-84454819D01*
X59619047Y-84454819D02*
X59523809Y-84454819D01*
X59523809Y-84454819D02*
X59380952Y-84407200D01*
X59380952Y-84407200D02*
X59285714Y-84311961D01*
X59285714Y-84311961D02*
X59238095Y-84216723D01*
X59238095Y-84216723D02*
X59190476Y-84026247D01*
X59190476Y-84026247D02*
X59190476Y-83883390D01*
X59190476Y-83883390D02*
X59238095Y-83692914D01*
X59238095Y-83692914D02*
X59285714Y-83597676D01*
X59285714Y-83597676D02*
X59380952Y-83502438D01*
X59380952Y-83502438D02*
X59523809Y-83454819D01*
X59523809Y-83454819D02*
X59619047Y-83454819D01*
X59619047Y-83454819D02*
X59761904Y-83502438D01*
X59761904Y-83502438D02*
X59809523Y-83550057D01*
X60428571Y-83454819D02*
X60619047Y-83454819D01*
X60619047Y-83454819D02*
X60714285Y-83502438D01*
X60714285Y-83502438D02*
X60809523Y-83597676D01*
X60809523Y-83597676D02*
X60857142Y-83788152D01*
X60857142Y-83788152D02*
X60857142Y-84121485D01*
X60857142Y-84121485D02*
X60809523Y-84311961D01*
X60809523Y-84311961D02*
X60714285Y-84407200D01*
X60714285Y-84407200D02*
X60619047Y-84454819D01*
X60619047Y-84454819D02*
X60428571Y-84454819D01*
X60428571Y-84454819D02*
X60333333Y-84407200D01*
X60333333Y-84407200D02*
X60238095Y-84311961D01*
X60238095Y-84311961D02*
X60190476Y-84121485D01*
X60190476Y-84121485D02*
X60190476Y-83788152D01*
X60190476Y-83788152D02*
X60238095Y-83597676D01*
X60238095Y-83597676D02*
X60333333Y-83502438D01*
X60333333Y-83502438D02*
X60428571Y-83454819D01*
X61285714Y-84454819D02*
X61285714Y-83454819D01*
X61285714Y-83454819D02*
X61619047Y-84169104D01*
X61619047Y-84169104D02*
X61952380Y-83454819D01*
X61952380Y-83454819D02*
X61952380Y-84454819D01*
X62428571Y-84454819D02*
X62428571Y-83454819D01*
X62428571Y-83454819D02*
X62809523Y-83454819D01*
X62809523Y-83454819D02*
X62904761Y-83502438D01*
X62904761Y-83502438D02*
X62952380Y-83550057D01*
X62952380Y-83550057D02*
X62999999Y-83645295D01*
X62999999Y-83645295D02*
X62999999Y-83788152D01*
X62999999Y-83788152D02*
X62952380Y-83883390D01*
X62952380Y-83883390D02*
X62904761Y-83931009D01*
X62904761Y-83931009D02*
X62809523Y-83978628D01*
X62809523Y-83978628D02*
X62428571Y-83978628D01*
X63380952Y-84169104D02*
X63857142Y-84169104D01*
X63285714Y-84454819D02*
X63619047Y-83454819D01*
X63619047Y-83454819D02*
X63952380Y-84454819D01*
X64857142Y-84359580D02*
X64809523Y-84407200D01*
X64809523Y-84407200D02*
X64666666Y-84454819D01*
X64666666Y-84454819D02*
X64571428Y-84454819D01*
X64571428Y-84454819D02*
X64428571Y-84407200D01*
X64428571Y-84407200D02*
X64333333Y-84311961D01*
X64333333Y-84311961D02*
X64285714Y-84216723D01*
X64285714Y-84216723D02*
X64238095Y-84026247D01*
X64238095Y-84026247D02*
X64238095Y-83883390D01*
X64238095Y-83883390D02*
X64285714Y-83692914D01*
X64285714Y-83692914D02*
X64333333Y-83597676D01*
X64333333Y-83597676D02*
X64428571Y-83502438D01*
X64428571Y-83502438D02*
X64571428Y-83454819D01*
X64571428Y-83454819D02*
X64666666Y-83454819D01*
X64666666Y-83454819D02*
X64809523Y-83502438D01*
X64809523Y-83502438D02*
X64857142Y-83550057D01*
X65142857Y-83454819D02*
X65714285Y-83454819D01*
X65428571Y-84454819D02*
X65428571Y-83454819D01*
X67380952Y-84454819D02*
X67047619Y-83978628D01*
X66809524Y-84454819D02*
X66809524Y-83454819D01*
X66809524Y-83454819D02*
X67190476Y-83454819D01*
X67190476Y-83454819D02*
X67285714Y-83502438D01*
X67285714Y-83502438D02*
X67333333Y-83550057D01*
X67333333Y-83550057D02*
X67380952Y-83645295D01*
X67380952Y-83645295D02*
X67380952Y-83788152D01*
X67380952Y-83788152D02*
X67333333Y-83883390D01*
X67333333Y-83883390D02*
X67285714Y-83931009D01*
X67285714Y-83931009D02*
X67190476Y-83978628D01*
X67190476Y-83978628D02*
X66809524Y-83978628D01*
X68000000Y-83454819D02*
X68190476Y-83454819D01*
X68190476Y-83454819D02*
X68285714Y-83502438D01*
X68285714Y-83502438D02*
X68380952Y-83597676D01*
X68380952Y-83597676D02*
X68428571Y-83788152D01*
X68428571Y-83788152D02*
X68428571Y-84121485D01*
X68428571Y-84121485D02*
X68380952Y-84311961D01*
X68380952Y-84311961D02*
X68285714Y-84407200D01*
X68285714Y-84407200D02*
X68190476Y-84454819D01*
X68190476Y-84454819D02*
X68000000Y-84454819D01*
X68000000Y-84454819D02*
X67904762Y-84407200D01*
X67904762Y-84407200D02*
X67809524Y-84311961D01*
X67809524Y-84311961D02*
X67761905Y-84121485D01*
X67761905Y-84121485D02*
X67761905Y-83788152D01*
X67761905Y-83788152D02*
X67809524Y-83597676D01*
X67809524Y-83597676D02*
X67904762Y-83502438D01*
X67904762Y-83502438D02*
X68000000Y-83454819D01*
X68857143Y-83454819D02*
X68857143Y-84264342D01*
X68857143Y-84264342D02*
X68904762Y-84359580D01*
X68904762Y-84359580D02*
X68952381Y-84407200D01*
X68952381Y-84407200D02*
X69047619Y-84454819D01*
X69047619Y-84454819D02*
X69238095Y-84454819D01*
X69238095Y-84454819D02*
X69333333Y-84407200D01*
X69333333Y-84407200D02*
X69380952Y-84359580D01*
X69380952Y-84359580D02*
X69428571Y-84264342D01*
X69428571Y-84264342D02*
X69428571Y-83454819D01*
X69761905Y-83454819D02*
X70333333Y-83454819D01*
X70047619Y-84454819D02*
X70047619Y-83454819D01*
X70666667Y-83931009D02*
X71000000Y-83931009D01*
X71142857Y-84454819D02*
X70666667Y-84454819D01*
X70666667Y-84454819D02*
X70666667Y-83454819D01*
X70666667Y-83454819D02*
X71142857Y-83454819D01*
X71571429Y-84454819D02*
X71571429Y-83454819D01*
X71571429Y-83454819D02*
X71809524Y-83454819D01*
X71809524Y-83454819D02*
X71952381Y-83502438D01*
X71952381Y-83502438D02*
X72047619Y-83597676D01*
X72047619Y-83597676D02*
X72095238Y-83692914D01*
X72095238Y-83692914D02*
X72142857Y-83883390D01*
X72142857Y-83883390D02*
X72142857Y-84026247D01*
X72142857Y-84026247D02*
X72095238Y-84216723D01*
X72095238Y-84216723D02*
X72047619Y-84311961D01*
X72047619Y-84311961D02*
X71952381Y-84407200D01*
X71952381Y-84407200D02*
X71809524Y-84454819D01*
X71809524Y-84454819D02*
X71571429Y-84454819D01*
X73238096Y-83454819D02*
X73476191Y-84454819D01*
X73476191Y-84454819D02*
X73666667Y-83740533D01*
X73666667Y-83740533D02*
X73857143Y-84454819D01*
X73857143Y-84454819D02*
X74095239Y-83454819D01*
X74666667Y-83454819D02*
X74857143Y-83454819D01*
X74857143Y-83454819D02*
X74952381Y-83502438D01*
X74952381Y-83502438D02*
X75047619Y-83597676D01*
X75047619Y-83597676D02*
X75095238Y-83788152D01*
X75095238Y-83788152D02*
X75095238Y-84121485D01*
X75095238Y-84121485D02*
X75047619Y-84311961D01*
X75047619Y-84311961D02*
X74952381Y-84407200D01*
X74952381Y-84407200D02*
X74857143Y-84454819D01*
X74857143Y-84454819D02*
X74666667Y-84454819D01*
X74666667Y-84454819D02*
X74571429Y-84407200D01*
X74571429Y-84407200D02*
X74476191Y-84311961D01*
X74476191Y-84311961D02*
X74428572Y-84121485D01*
X74428572Y-84121485D02*
X74428572Y-83788152D01*
X74428572Y-83788152D02*
X74476191Y-83597676D01*
X74476191Y-83597676D02*
X74571429Y-83502438D01*
X74571429Y-83502438D02*
X74666667Y-83454819D01*
X76095238Y-84454819D02*
X75761905Y-83978628D01*
X75523810Y-84454819D02*
X75523810Y-83454819D01*
X75523810Y-83454819D02*
X75904762Y-83454819D01*
X75904762Y-83454819D02*
X76000000Y-83502438D01*
X76000000Y-83502438D02*
X76047619Y-83550057D01*
X76047619Y-83550057D02*
X76095238Y-83645295D01*
X76095238Y-83645295D02*
X76095238Y-83788152D01*
X76095238Y-83788152D02*
X76047619Y-83883390D01*
X76047619Y-83883390D02*
X76000000Y-83931009D01*
X76000000Y-83931009D02*
X75904762Y-83978628D01*
X75904762Y-83978628D02*
X75523810Y-83978628D01*
X76523810Y-84454819D02*
X76523810Y-83454819D01*
X77095238Y-84454819D02*
X76666667Y-83883390D01*
X77095238Y-83454819D02*
X76523810Y-84026247D01*
X77857143Y-83931009D02*
X77523810Y-83931009D01*
X77523810Y-84454819D02*
X77523810Y-83454819D01*
X77523810Y-83454819D02*
X78000000Y-83454819D01*
X78857143Y-84454819D02*
X78380953Y-84454819D01*
X78380953Y-84454819D02*
X78380953Y-83454819D01*
X79380953Y-83454819D02*
X79571429Y-83454819D01*
X79571429Y-83454819D02*
X79666667Y-83502438D01*
X79666667Y-83502438D02*
X79761905Y-83597676D01*
X79761905Y-83597676D02*
X79809524Y-83788152D01*
X79809524Y-83788152D02*
X79809524Y-84121485D01*
X79809524Y-84121485D02*
X79761905Y-84311961D01*
X79761905Y-84311961D02*
X79666667Y-84407200D01*
X79666667Y-84407200D02*
X79571429Y-84454819D01*
X79571429Y-84454819D02*
X79380953Y-84454819D01*
X79380953Y-84454819D02*
X79285715Y-84407200D01*
X79285715Y-84407200D02*
X79190477Y-84311961D01*
X79190477Y-84311961D02*
X79142858Y-84121485D01*
X79142858Y-84121485D02*
X79142858Y-83788152D01*
X79142858Y-83788152D02*
X79190477Y-83597676D01*
X79190477Y-83597676D02*
X79285715Y-83502438D01*
X79285715Y-83502438D02*
X79380953Y-83454819D01*
X80142858Y-83454819D02*
X80380953Y-84454819D01*
X80380953Y-84454819D02*
X80571429Y-83740533D01*
X80571429Y-83740533D02*
X80761905Y-84454819D01*
X80761905Y-84454819D02*
X81000001Y-83454819D01*
X82142858Y-84454819D02*
X82142858Y-83454819D01*
X82142858Y-83454819D02*
X82523810Y-83454819D01*
X82523810Y-83454819D02*
X82619048Y-83502438D01*
X82619048Y-83502438D02*
X82666667Y-83550057D01*
X82666667Y-83550057D02*
X82714286Y-83645295D01*
X82714286Y-83645295D02*
X82714286Y-83788152D01*
X82714286Y-83788152D02*
X82666667Y-83883390D01*
X82666667Y-83883390D02*
X82619048Y-83931009D01*
X82619048Y-83931009D02*
X82523810Y-83978628D01*
X82523810Y-83978628D02*
X82142858Y-83978628D01*
X83714286Y-84454819D02*
X83380953Y-83978628D01*
X83142858Y-84454819D02*
X83142858Y-83454819D01*
X83142858Y-83454819D02*
X83523810Y-83454819D01*
X83523810Y-83454819D02*
X83619048Y-83502438D01*
X83619048Y-83502438D02*
X83666667Y-83550057D01*
X83666667Y-83550057D02*
X83714286Y-83645295D01*
X83714286Y-83645295D02*
X83714286Y-83788152D01*
X83714286Y-83788152D02*
X83666667Y-83883390D01*
X83666667Y-83883390D02*
X83619048Y-83931009D01*
X83619048Y-83931009D02*
X83523810Y-83978628D01*
X83523810Y-83978628D02*
X83142858Y-83978628D01*
X84333334Y-83454819D02*
X84523810Y-83454819D01*
X84523810Y-83454819D02*
X84619048Y-83502438D01*
X84619048Y-83502438D02*
X84714286Y-83597676D01*
X84714286Y-83597676D02*
X84761905Y-83788152D01*
X84761905Y-83788152D02*
X84761905Y-84121485D01*
X84761905Y-84121485D02*
X84714286Y-84311961D01*
X84714286Y-84311961D02*
X84619048Y-84407200D01*
X84619048Y-84407200D02*
X84523810Y-84454819D01*
X84523810Y-84454819D02*
X84333334Y-84454819D01*
X84333334Y-84454819D02*
X84238096Y-84407200D01*
X84238096Y-84407200D02*
X84142858Y-84311961D01*
X84142858Y-84311961D02*
X84095239Y-84121485D01*
X84095239Y-84121485D02*
X84095239Y-83788152D01*
X84095239Y-83788152D02*
X84142858Y-83597676D01*
X84142858Y-83597676D02*
X84238096Y-83502438D01*
X84238096Y-83502438D02*
X84333334Y-83454819D01*
X85047620Y-83454819D02*
X85619048Y-83454819D01*
X85333334Y-84454819D02*
X85333334Y-83454819D01*
X86142858Y-83454819D02*
X86333334Y-83454819D01*
X86333334Y-83454819D02*
X86428572Y-83502438D01*
X86428572Y-83502438D02*
X86523810Y-83597676D01*
X86523810Y-83597676D02*
X86571429Y-83788152D01*
X86571429Y-83788152D02*
X86571429Y-84121485D01*
X86571429Y-84121485D02*
X86523810Y-84311961D01*
X86523810Y-84311961D02*
X86428572Y-84407200D01*
X86428572Y-84407200D02*
X86333334Y-84454819D01*
X86333334Y-84454819D02*
X86142858Y-84454819D01*
X86142858Y-84454819D02*
X86047620Y-84407200D01*
X86047620Y-84407200D02*
X85952382Y-84311961D01*
X85952382Y-84311961D02*
X85904763Y-84121485D01*
X85904763Y-84121485D02*
X85904763Y-83788152D01*
X85904763Y-83788152D02*
X85952382Y-83597676D01*
X85952382Y-83597676D02*
X86047620Y-83502438D01*
X86047620Y-83502438D02*
X86142858Y-83454819D01*
X86857144Y-83454819D02*
X87428572Y-83454819D01*
X87142858Y-84454819D02*
X87142858Y-83454819D01*
X87952382Y-83978628D02*
X87952382Y-84454819D01*
X87619049Y-83454819D02*
X87952382Y-83978628D01*
X87952382Y-83978628D02*
X88285715Y-83454819D01*
X88619049Y-84454819D02*
X88619049Y-83454819D01*
X88619049Y-83454819D02*
X89000001Y-83454819D01*
X89000001Y-83454819D02*
X89095239Y-83502438D01*
X89095239Y-83502438D02*
X89142858Y-83550057D01*
X89142858Y-83550057D02*
X89190477Y-83645295D01*
X89190477Y-83645295D02*
X89190477Y-83788152D01*
X89190477Y-83788152D02*
X89142858Y-83883390D01*
X89142858Y-83883390D02*
X89095239Y-83931009D01*
X89095239Y-83931009D02*
X89000001Y-83978628D01*
X89000001Y-83978628D02*
X88619049Y-83978628D01*
X89619049Y-83931009D02*
X89952382Y-83931009D01*
X90095239Y-84454819D02*
X89619049Y-84454819D01*
X89619049Y-84454819D02*
X89619049Y-83454819D01*
X89619049Y-83454819D02*
X90095239Y-83454819D01*
X57833333Y-24059580D02*
X57785714Y-24107200D01*
X57785714Y-24107200D02*
X57642857Y-24154819D01*
X57642857Y-24154819D02*
X57547619Y-24154819D01*
X57547619Y-24154819D02*
X57404762Y-24107200D01*
X57404762Y-24107200D02*
X57309524Y-24011961D01*
X57309524Y-24011961D02*
X57261905Y-23916723D01*
X57261905Y-23916723D02*
X57214286Y-23726247D01*
X57214286Y-23726247D02*
X57214286Y-23583390D01*
X57214286Y-23583390D02*
X57261905Y-23392914D01*
X57261905Y-23392914D02*
X57309524Y-23297676D01*
X57309524Y-23297676D02*
X57404762Y-23202438D01*
X57404762Y-23202438D02*
X57547619Y-23154819D01*
X57547619Y-23154819D02*
X57642857Y-23154819D01*
X57642857Y-23154819D02*
X57785714Y-23202438D01*
X57785714Y-23202438D02*
X57833333Y-23250057D01*
X58690476Y-23488152D02*
X58690476Y-24154819D01*
X58452381Y-23107200D02*
X58214286Y-23821485D01*
X58214286Y-23821485D02*
X58833333Y-23821485D01*
X16833333Y-13024819D02*
X16500000Y-12548628D01*
X16261905Y-13024819D02*
X16261905Y-12024819D01*
X16261905Y-12024819D02*
X16642857Y-12024819D01*
X16642857Y-12024819D02*
X16738095Y-12072438D01*
X16738095Y-12072438D02*
X16785714Y-12120057D01*
X16785714Y-12120057D02*
X16833333Y-12215295D01*
X16833333Y-12215295D02*
X16833333Y-12358152D01*
X16833333Y-12358152D02*
X16785714Y-12453390D01*
X16785714Y-12453390D02*
X16738095Y-12501009D01*
X16738095Y-12501009D02*
X16642857Y-12548628D01*
X16642857Y-12548628D02*
X16261905Y-12548628D01*
X17690476Y-12358152D02*
X17690476Y-13024819D01*
X17452381Y-11977200D02*
X17214286Y-12691485D01*
X17214286Y-12691485D02*
X17833333Y-12691485D01*
X83833333Y-41024819D02*
X83500000Y-40548628D01*
X83261905Y-41024819D02*
X83261905Y-40024819D01*
X83261905Y-40024819D02*
X83642857Y-40024819D01*
X83642857Y-40024819D02*
X83738095Y-40072438D01*
X83738095Y-40072438D02*
X83785714Y-40120057D01*
X83785714Y-40120057D02*
X83833333Y-40215295D01*
X83833333Y-40215295D02*
X83833333Y-40358152D01*
X83833333Y-40358152D02*
X83785714Y-40453390D01*
X83785714Y-40453390D02*
X83738095Y-40501009D01*
X83738095Y-40501009D02*
X83642857Y-40548628D01*
X83642857Y-40548628D02*
X83261905Y-40548628D01*
X84404762Y-40453390D02*
X84309524Y-40405771D01*
X84309524Y-40405771D02*
X84261905Y-40358152D01*
X84261905Y-40358152D02*
X84214286Y-40262914D01*
X84214286Y-40262914D02*
X84214286Y-40215295D01*
X84214286Y-40215295D02*
X84261905Y-40120057D01*
X84261905Y-40120057D02*
X84309524Y-40072438D01*
X84309524Y-40072438D02*
X84404762Y-40024819D01*
X84404762Y-40024819D02*
X84595238Y-40024819D01*
X84595238Y-40024819D02*
X84690476Y-40072438D01*
X84690476Y-40072438D02*
X84738095Y-40120057D01*
X84738095Y-40120057D02*
X84785714Y-40215295D01*
X84785714Y-40215295D02*
X84785714Y-40262914D01*
X84785714Y-40262914D02*
X84738095Y-40358152D01*
X84738095Y-40358152D02*
X84690476Y-40405771D01*
X84690476Y-40405771D02*
X84595238Y-40453390D01*
X84595238Y-40453390D02*
X84404762Y-40453390D01*
X84404762Y-40453390D02*
X84309524Y-40501009D01*
X84309524Y-40501009D02*
X84261905Y-40548628D01*
X84261905Y-40548628D02*
X84214286Y-40643866D01*
X84214286Y-40643866D02*
X84214286Y-40834342D01*
X84214286Y-40834342D02*
X84261905Y-40929580D01*
X84261905Y-40929580D02*
X84309524Y-40977200D01*
X84309524Y-40977200D02*
X84404762Y-41024819D01*
X84404762Y-41024819D02*
X84595238Y-41024819D01*
X84595238Y-41024819D02*
X84690476Y-40977200D01*
X84690476Y-40977200D02*
X84738095Y-40929580D01*
X84738095Y-40929580D02*
X84785714Y-40834342D01*
X84785714Y-40834342D02*
X84785714Y-40643866D01*
X84785714Y-40643866D02*
X84738095Y-40548628D01*
X84738095Y-40548628D02*
X84690476Y-40501009D01*
X84690476Y-40501009D02*
X84595238Y-40453390D01*
X91357142Y-41024819D02*
X91023809Y-40548628D01*
X90785714Y-41024819D02*
X90785714Y-40024819D01*
X90785714Y-40024819D02*
X91166666Y-40024819D01*
X91166666Y-40024819D02*
X91261904Y-40072438D01*
X91261904Y-40072438D02*
X91309523Y-40120057D01*
X91309523Y-40120057D02*
X91357142Y-40215295D01*
X91357142Y-40215295D02*
X91357142Y-40358152D01*
X91357142Y-40358152D02*
X91309523Y-40453390D01*
X91309523Y-40453390D02*
X91261904Y-40501009D01*
X91261904Y-40501009D02*
X91166666Y-40548628D01*
X91166666Y-40548628D02*
X90785714Y-40548628D01*
X92309523Y-41024819D02*
X91738095Y-41024819D01*
X92023809Y-41024819D02*
X92023809Y-40024819D01*
X92023809Y-40024819D02*
X91928571Y-40167676D01*
X91928571Y-40167676D02*
X91833333Y-40262914D01*
X91833333Y-40262914D02*
X91738095Y-40310533D01*
X92928571Y-40024819D02*
X93023809Y-40024819D01*
X93023809Y-40024819D02*
X93119047Y-40072438D01*
X93119047Y-40072438D02*
X93166666Y-40120057D01*
X93166666Y-40120057D02*
X93214285Y-40215295D01*
X93214285Y-40215295D02*
X93261904Y-40405771D01*
X93261904Y-40405771D02*
X93261904Y-40643866D01*
X93261904Y-40643866D02*
X93214285Y-40834342D01*
X93214285Y-40834342D02*
X93166666Y-40929580D01*
X93166666Y-40929580D02*
X93119047Y-40977200D01*
X93119047Y-40977200D02*
X93023809Y-41024819D01*
X93023809Y-41024819D02*
X92928571Y-41024819D01*
X92928571Y-41024819D02*
X92833333Y-40977200D01*
X92833333Y-40977200D02*
X92785714Y-40929580D01*
X92785714Y-40929580D02*
X92738095Y-40834342D01*
X92738095Y-40834342D02*
X92690476Y-40643866D01*
X92690476Y-40643866D02*
X92690476Y-40405771D01*
X92690476Y-40405771D02*
X92738095Y-40215295D01*
X92738095Y-40215295D02*
X92785714Y-40120057D01*
X92785714Y-40120057D02*
X92833333Y-40072438D01*
X92833333Y-40072438D02*
X92928571Y-40024819D01*
X34506666Y-65434819D02*
X34506666Y-66149104D01*
X34506666Y-66149104D02*
X34459047Y-66291961D01*
X34459047Y-66291961D02*
X34363809Y-66387200D01*
X34363809Y-66387200D02*
X34220952Y-66434819D01*
X34220952Y-66434819D02*
X34125714Y-66434819D01*
X35459047Y-65434819D02*
X34982857Y-65434819D01*
X34982857Y-65434819D02*
X34935238Y-65911009D01*
X34935238Y-65911009D02*
X34982857Y-65863390D01*
X34982857Y-65863390D02*
X35078095Y-65815771D01*
X35078095Y-65815771D02*
X35316190Y-65815771D01*
X35316190Y-65815771D02*
X35411428Y-65863390D01*
X35411428Y-65863390D02*
X35459047Y-65911009D01*
X35459047Y-65911009D02*
X35506666Y-66006247D01*
X35506666Y-66006247D02*
X35506666Y-66244342D01*
X35506666Y-66244342D02*
X35459047Y-66339580D01*
X35459047Y-66339580D02*
X35411428Y-66387200D01*
X35411428Y-66387200D02*
X35316190Y-66434819D01*
X35316190Y-66434819D02*
X35078095Y-66434819D01*
X35078095Y-66434819D02*
X34982857Y-66387200D01*
X34982857Y-66387200D02*
X34935238Y-66339580D01*
X49357142Y-64024819D02*
X49023809Y-63548628D01*
X48785714Y-64024819D02*
X48785714Y-63024819D01*
X48785714Y-63024819D02*
X49166666Y-63024819D01*
X49166666Y-63024819D02*
X49261904Y-63072438D01*
X49261904Y-63072438D02*
X49309523Y-63120057D01*
X49309523Y-63120057D02*
X49357142Y-63215295D01*
X49357142Y-63215295D02*
X49357142Y-63358152D01*
X49357142Y-63358152D02*
X49309523Y-63453390D01*
X49309523Y-63453390D02*
X49261904Y-63501009D01*
X49261904Y-63501009D02*
X49166666Y-63548628D01*
X49166666Y-63548628D02*
X48785714Y-63548628D01*
X50309523Y-64024819D02*
X49738095Y-64024819D01*
X50023809Y-64024819D02*
X50023809Y-63024819D01*
X50023809Y-63024819D02*
X49928571Y-63167676D01*
X49928571Y-63167676D02*
X49833333Y-63262914D01*
X49833333Y-63262914D02*
X49738095Y-63310533D01*
X50785714Y-64024819D02*
X50976190Y-64024819D01*
X50976190Y-64024819D02*
X51071428Y-63977200D01*
X51071428Y-63977200D02*
X51119047Y-63929580D01*
X51119047Y-63929580D02*
X51214285Y-63786723D01*
X51214285Y-63786723D02*
X51261904Y-63596247D01*
X51261904Y-63596247D02*
X51261904Y-63215295D01*
X51261904Y-63215295D02*
X51214285Y-63120057D01*
X51214285Y-63120057D02*
X51166666Y-63072438D01*
X51166666Y-63072438D02*
X51071428Y-63024819D01*
X51071428Y-63024819D02*
X50880952Y-63024819D01*
X50880952Y-63024819D02*
X50785714Y-63072438D01*
X50785714Y-63072438D02*
X50738095Y-63120057D01*
X50738095Y-63120057D02*
X50690476Y-63215295D01*
X50690476Y-63215295D02*
X50690476Y-63453390D01*
X50690476Y-63453390D02*
X50738095Y-63548628D01*
X50738095Y-63548628D02*
X50785714Y-63596247D01*
X50785714Y-63596247D02*
X50880952Y-63643866D01*
X50880952Y-63643866D02*
X51071428Y-63643866D01*
X51071428Y-63643866D02*
X51166666Y-63596247D01*
X51166666Y-63596247D02*
X51214285Y-63548628D01*
X51214285Y-63548628D02*
X51261904Y-63453390D01*
X58166666Y-35654819D02*
X58166666Y-36369104D01*
X58166666Y-36369104D02*
X58119047Y-36511961D01*
X58119047Y-36511961D02*
X58023809Y-36607200D01*
X58023809Y-36607200D02*
X57880952Y-36654819D01*
X57880952Y-36654819D02*
X57785714Y-36654819D01*
X58642857Y-36654819D02*
X58642857Y-35654819D01*
X58642857Y-35654819D02*
X59023809Y-35654819D01*
X59023809Y-35654819D02*
X59119047Y-35702438D01*
X59119047Y-35702438D02*
X59166666Y-35750057D01*
X59166666Y-35750057D02*
X59214285Y-35845295D01*
X59214285Y-35845295D02*
X59214285Y-35988152D01*
X59214285Y-35988152D02*
X59166666Y-36083390D01*
X59166666Y-36083390D02*
X59119047Y-36131009D01*
X59119047Y-36131009D02*
X59023809Y-36178628D01*
X59023809Y-36178628D02*
X58642857Y-36178628D01*
X60166666Y-36654819D02*
X59595238Y-36654819D01*
X59880952Y-36654819D02*
X59880952Y-35654819D01*
X59880952Y-35654819D02*
X59785714Y-35797676D01*
X59785714Y-35797676D02*
X59690476Y-35892914D01*
X59690476Y-35892914D02*
X59595238Y-35940533D01*
X15738095Y-1806819D02*
X16309523Y-1806819D01*
X16023809Y-2806819D02*
X16023809Y-1806819D01*
X16642857Y-2806819D02*
X16642857Y-1806819D01*
X16642857Y-1806819D02*
X17023809Y-1806819D01*
X17023809Y-1806819D02*
X17119047Y-1854438D01*
X17119047Y-1854438D02*
X17166666Y-1902057D01*
X17166666Y-1902057D02*
X17214285Y-1997295D01*
X17214285Y-1997295D02*
X17214285Y-2140152D01*
X17214285Y-2140152D02*
X17166666Y-2235390D01*
X17166666Y-2235390D02*
X17119047Y-2283009D01*
X17119047Y-2283009D02*
X17023809Y-2330628D01*
X17023809Y-2330628D02*
X16642857Y-2330628D01*
X18071428Y-2140152D02*
X18071428Y-2806819D01*
X17833333Y-1759200D02*
X17595238Y-2473485D01*
X17595238Y-2473485D02*
X18214285Y-2473485D01*
X103261905Y-63954819D02*
X103261905Y-62954819D01*
X103261905Y-62954819D02*
X103500000Y-62954819D01*
X103500000Y-62954819D02*
X103642857Y-63002438D01*
X103642857Y-63002438D02*
X103738095Y-63097676D01*
X103738095Y-63097676D02*
X103785714Y-63192914D01*
X103785714Y-63192914D02*
X103833333Y-63383390D01*
X103833333Y-63383390D02*
X103833333Y-63526247D01*
X103833333Y-63526247D02*
X103785714Y-63716723D01*
X103785714Y-63716723D02*
X103738095Y-63811961D01*
X103738095Y-63811961D02*
X103642857Y-63907200D01*
X103642857Y-63907200D02*
X103500000Y-63954819D01*
X103500000Y-63954819D02*
X103261905Y-63954819D01*
X104214286Y-63050057D02*
X104261905Y-63002438D01*
X104261905Y-63002438D02*
X104357143Y-62954819D01*
X104357143Y-62954819D02*
X104595238Y-62954819D01*
X104595238Y-62954819D02*
X104690476Y-63002438D01*
X104690476Y-63002438D02*
X104738095Y-63050057D01*
X104738095Y-63050057D02*
X104785714Y-63145295D01*
X104785714Y-63145295D02*
X104785714Y-63240533D01*
X104785714Y-63240533D02*
X104738095Y-63383390D01*
X104738095Y-63383390D02*
X104166667Y-63954819D01*
X104166667Y-63954819D02*
X104785714Y-63954819D01*
X49357142Y-52024819D02*
X49023809Y-51548628D01*
X48785714Y-52024819D02*
X48785714Y-51024819D01*
X48785714Y-51024819D02*
X49166666Y-51024819D01*
X49166666Y-51024819D02*
X49261904Y-51072438D01*
X49261904Y-51072438D02*
X49309523Y-51120057D01*
X49309523Y-51120057D02*
X49357142Y-51215295D01*
X49357142Y-51215295D02*
X49357142Y-51358152D01*
X49357142Y-51358152D02*
X49309523Y-51453390D01*
X49309523Y-51453390D02*
X49261904Y-51501009D01*
X49261904Y-51501009D02*
X49166666Y-51548628D01*
X49166666Y-51548628D02*
X48785714Y-51548628D01*
X50309523Y-52024819D02*
X49738095Y-52024819D01*
X50023809Y-52024819D02*
X50023809Y-51024819D01*
X50023809Y-51024819D02*
X49928571Y-51167676D01*
X49928571Y-51167676D02*
X49833333Y-51262914D01*
X49833333Y-51262914D02*
X49738095Y-51310533D01*
X51166666Y-51024819D02*
X50976190Y-51024819D01*
X50976190Y-51024819D02*
X50880952Y-51072438D01*
X50880952Y-51072438D02*
X50833333Y-51120057D01*
X50833333Y-51120057D02*
X50738095Y-51262914D01*
X50738095Y-51262914D02*
X50690476Y-51453390D01*
X50690476Y-51453390D02*
X50690476Y-51834342D01*
X50690476Y-51834342D02*
X50738095Y-51929580D01*
X50738095Y-51929580D02*
X50785714Y-51977200D01*
X50785714Y-51977200D02*
X50880952Y-52024819D01*
X50880952Y-52024819D02*
X51071428Y-52024819D01*
X51071428Y-52024819D02*
X51166666Y-51977200D01*
X51166666Y-51977200D02*
X51214285Y-51929580D01*
X51214285Y-51929580D02*
X51261904Y-51834342D01*
X51261904Y-51834342D02*
X51261904Y-51596247D01*
X51261904Y-51596247D02*
X51214285Y-51501009D01*
X51214285Y-51501009D02*
X51166666Y-51453390D01*
X51166666Y-51453390D02*
X51071428Y-51405771D01*
X51071428Y-51405771D02*
X50880952Y-51405771D01*
X50880952Y-51405771D02*
X50785714Y-51453390D01*
X50785714Y-51453390D02*
X50738095Y-51501009D01*
X50738095Y-51501009D02*
X50690476Y-51596247D01*
X20833333Y-13024819D02*
X20500000Y-12548628D01*
X20261905Y-13024819D02*
X20261905Y-12024819D01*
X20261905Y-12024819D02*
X20642857Y-12024819D01*
X20642857Y-12024819D02*
X20738095Y-12072438D01*
X20738095Y-12072438D02*
X20785714Y-12120057D01*
X20785714Y-12120057D02*
X20833333Y-12215295D01*
X20833333Y-12215295D02*
X20833333Y-12358152D01*
X20833333Y-12358152D02*
X20785714Y-12453390D01*
X20785714Y-12453390D02*
X20738095Y-12501009D01*
X20738095Y-12501009D02*
X20642857Y-12548628D01*
X20642857Y-12548628D02*
X20261905Y-12548628D01*
X21738095Y-12024819D02*
X21261905Y-12024819D01*
X21261905Y-12024819D02*
X21214286Y-12501009D01*
X21214286Y-12501009D02*
X21261905Y-12453390D01*
X21261905Y-12453390D02*
X21357143Y-12405771D01*
X21357143Y-12405771D02*
X21595238Y-12405771D01*
X21595238Y-12405771D02*
X21690476Y-12453390D01*
X21690476Y-12453390D02*
X21738095Y-12501009D01*
X21738095Y-12501009D02*
X21785714Y-12596247D01*
X21785714Y-12596247D02*
X21785714Y-12834342D01*
X21785714Y-12834342D02*
X21738095Y-12929580D01*
X21738095Y-12929580D02*
X21690476Y-12977200D01*
X21690476Y-12977200D02*
X21595238Y-13024819D01*
X21595238Y-13024819D02*
X21357143Y-13024819D01*
X21357143Y-13024819D02*
X21261905Y-12977200D01*
X21261905Y-12977200D02*
X21214286Y-12929580D01*
X49357142Y-60024819D02*
X49023809Y-59548628D01*
X48785714Y-60024819D02*
X48785714Y-59024819D01*
X48785714Y-59024819D02*
X49166666Y-59024819D01*
X49166666Y-59024819D02*
X49261904Y-59072438D01*
X49261904Y-59072438D02*
X49309523Y-59120057D01*
X49309523Y-59120057D02*
X49357142Y-59215295D01*
X49357142Y-59215295D02*
X49357142Y-59358152D01*
X49357142Y-59358152D02*
X49309523Y-59453390D01*
X49309523Y-59453390D02*
X49261904Y-59501009D01*
X49261904Y-59501009D02*
X49166666Y-59548628D01*
X49166666Y-59548628D02*
X48785714Y-59548628D01*
X50309523Y-60024819D02*
X49738095Y-60024819D01*
X50023809Y-60024819D02*
X50023809Y-59024819D01*
X50023809Y-59024819D02*
X49928571Y-59167676D01*
X49928571Y-59167676D02*
X49833333Y-59262914D01*
X49833333Y-59262914D02*
X49738095Y-59310533D01*
X50880952Y-59453390D02*
X50785714Y-59405771D01*
X50785714Y-59405771D02*
X50738095Y-59358152D01*
X50738095Y-59358152D02*
X50690476Y-59262914D01*
X50690476Y-59262914D02*
X50690476Y-59215295D01*
X50690476Y-59215295D02*
X50738095Y-59120057D01*
X50738095Y-59120057D02*
X50785714Y-59072438D01*
X50785714Y-59072438D02*
X50880952Y-59024819D01*
X50880952Y-59024819D02*
X51071428Y-59024819D01*
X51071428Y-59024819D02*
X51166666Y-59072438D01*
X51166666Y-59072438D02*
X51214285Y-59120057D01*
X51214285Y-59120057D02*
X51261904Y-59215295D01*
X51261904Y-59215295D02*
X51261904Y-59262914D01*
X51261904Y-59262914D02*
X51214285Y-59358152D01*
X51214285Y-59358152D02*
X51166666Y-59405771D01*
X51166666Y-59405771D02*
X51071428Y-59453390D01*
X51071428Y-59453390D02*
X50880952Y-59453390D01*
X50880952Y-59453390D02*
X50785714Y-59501009D01*
X50785714Y-59501009D02*
X50738095Y-59548628D01*
X50738095Y-59548628D02*
X50690476Y-59643866D01*
X50690476Y-59643866D02*
X50690476Y-59834342D01*
X50690476Y-59834342D02*
X50738095Y-59929580D01*
X50738095Y-59929580D02*
X50785714Y-59977200D01*
X50785714Y-59977200D02*
X50880952Y-60024819D01*
X50880952Y-60024819D02*
X51071428Y-60024819D01*
X51071428Y-60024819D02*
X51166666Y-59977200D01*
X51166666Y-59977200D02*
X51214285Y-59929580D01*
X51214285Y-59929580D02*
X51261904Y-59834342D01*
X51261904Y-59834342D02*
X51261904Y-59643866D01*
X51261904Y-59643866D02*
X51214285Y-59548628D01*
X51214285Y-59548628D02*
X51166666Y-59501009D01*
X51166666Y-59501009D02*
X51071428Y-59453390D01*
X93261905Y-18054819D02*
X93261905Y-17054819D01*
X93261905Y-17054819D02*
X93500000Y-17054819D01*
X93500000Y-17054819D02*
X93642857Y-17102438D01*
X93642857Y-17102438D02*
X93738095Y-17197676D01*
X93738095Y-17197676D02*
X93785714Y-17292914D01*
X93785714Y-17292914D02*
X93833333Y-17483390D01*
X93833333Y-17483390D02*
X93833333Y-17626247D01*
X93833333Y-17626247D02*
X93785714Y-17816723D01*
X93785714Y-17816723D02*
X93738095Y-17911961D01*
X93738095Y-17911961D02*
X93642857Y-18007200D01*
X93642857Y-18007200D02*
X93500000Y-18054819D01*
X93500000Y-18054819D02*
X93261905Y-18054819D01*
X94785714Y-18054819D02*
X94214286Y-18054819D01*
X94500000Y-18054819D02*
X94500000Y-17054819D01*
X94500000Y-17054819D02*
X94404762Y-17197676D01*
X94404762Y-17197676D02*
X94309524Y-17292914D01*
X94309524Y-17292914D02*
X94214286Y-17340533D01*
X24833333Y-13024819D02*
X24500000Y-12548628D01*
X24261905Y-13024819D02*
X24261905Y-12024819D01*
X24261905Y-12024819D02*
X24642857Y-12024819D01*
X24642857Y-12024819D02*
X24738095Y-12072438D01*
X24738095Y-12072438D02*
X24785714Y-12120057D01*
X24785714Y-12120057D02*
X24833333Y-12215295D01*
X24833333Y-12215295D02*
X24833333Y-12358152D01*
X24833333Y-12358152D02*
X24785714Y-12453390D01*
X24785714Y-12453390D02*
X24738095Y-12501009D01*
X24738095Y-12501009D02*
X24642857Y-12548628D01*
X24642857Y-12548628D02*
X24261905Y-12548628D01*
X25690476Y-12024819D02*
X25500000Y-12024819D01*
X25500000Y-12024819D02*
X25404762Y-12072438D01*
X25404762Y-12072438D02*
X25357143Y-12120057D01*
X25357143Y-12120057D02*
X25261905Y-12262914D01*
X25261905Y-12262914D02*
X25214286Y-12453390D01*
X25214286Y-12453390D02*
X25214286Y-12834342D01*
X25214286Y-12834342D02*
X25261905Y-12929580D01*
X25261905Y-12929580D02*
X25309524Y-12977200D01*
X25309524Y-12977200D02*
X25404762Y-13024819D01*
X25404762Y-13024819D02*
X25595238Y-13024819D01*
X25595238Y-13024819D02*
X25690476Y-12977200D01*
X25690476Y-12977200D02*
X25738095Y-12929580D01*
X25738095Y-12929580D02*
X25785714Y-12834342D01*
X25785714Y-12834342D02*
X25785714Y-12596247D01*
X25785714Y-12596247D02*
X25738095Y-12501009D01*
X25738095Y-12501009D02*
X25690476Y-12453390D01*
X25690476Y-12453390D02*
X25595238Y-12405771D01*
X25595238Y-12405771D02*
X25404762Y-12405771D01*
X25404762Y-12405771D02*
X25309524Y-12453390D01*
X25309524Y-12453390D02*
X25261905Y-12501009D01*
X25261905Y-12501009D02*
X25214286Y-12596247D01*
X43261905Y-1806819D02*
X43833333Y-1806819D01*
X43547619Y-2806819D02*
X43547619Y-1806819D01*
X44166667Y-2806819D02*
X44166667Y-1806819D01*
X44166667Y-1806819D02*
X44547619Y-1806819D01*
X44547619Y-1806819D02*
X44642857Y-1854438D01*
X44642857Y-1854438D02*
X44690476Y-1902057D01*
X44690476Y-1902057D02*
X44738095Y-1997295D01*
X44738095Y-1997295D02*
X44738095Y-2140152D01*
X44738095Y-2140152D02*
X44690476Y-2235390D01*
X44690476Y-2235390D02*
X44642857Y-2283009D01*
X44642857Y-2283009D02*
X44547619Y-2330628D01*
X44547619Y-2330628D02*
X44166667Y-2330628D01*
X45690476Y-2806819D02*
X45119048Y-2806819D01*
X45404762Y-2806819D02*
X45404762Y-1806819D01*
X45404762Y-1806819D02*
X45309524Y-1949676D01*
X45309524Y-1949676D02*
X45214286Y-2044914D01*
X45214286Y-2044914D02*
X45119048Y-2092533D01*
X46642857Y-2806819D02*
X46071429Y-2806819D01*
X46357143Y-2806819D02*
X46357143Y-1806819D01*
X46357143Y-1806819D02*
X46261905Y-1949676D01*
X46261905Y-1949676D02*
X46166667Y-2044914D01*
X46166667Y-2044914D02*
X46071429Y-2092533D01*
X7261905Y-52806819D02*
X7833333Y-52806819D01*
X7547619Y-53806819D02*
X7547619Y-52806819D01*
X8166667Y-53806819D02*
X8166667Y-52806819D01*
X8166667Y-52806819D02*
X8547619Y-52806819D01*
X8547619Y-52806819D02*
X8642857Y-52854438D01*
X8642857Y-52854438D02*
X8690476Y-52902057D01*
X8690476Y-52902057D02*
X8738095Y-52997295D01*
X8738095Y-52997295D02*
X8738095Y-53140152D01*
X8738095Y-53140152D02*
X8690476Y-53235390D01*
X8690476Y-53235390D02*
X8642857Y-53283009D01*
X8642857Y-53283009D02*
X8547619Y-53330628D01*
X8547619Y-53330628D02*
X8166667Y-53330628D01*
X9690476Y-53806819D02*
X9119048Y-53806819D01*
X9404762Y-53806819D02*
X9404762Y-52806819D01*
X9404762Y-52806819D02*
X9309524Y-52949676D01*
X9309524Y-52949676D02*
X9214286Y-53044914D01*
X9214286Y-53044914D02*
X9119048Y-53092533D01*
X10547619Y-53140152D02*
X10547619Y-53806819D01*
X10309524Y-52759200D02*
X10071429Y-53473485D01*
X10071429Y-53473485D02*
X10690476Y-53473485D01*
X11261905Y-52806819D02*
X11833333Y-52806819D01*
X11547619Y-53806819D02*
X11547619Y-52806819D01*
X12166667Y-53806819D02*
X12166667Y-52806819D01*
X12166667Y-52806819D02*
X12547619Y-52806819D01*
X12547619Y-52806819D02*
X12642857Y-52854438D01*
X12642857Y-52854438D02*
X12690476Y-52902057D01*
X12690476Y-52902057D02*
X12738095Y-52997295D01*
X12738095Y-52997295D02*
X12738095Y-53140152D01*
X12738095Y-53140152D02*
X12690476Y-53235390D01*
X12690476Y-53235390D02*
X12642857Y-53283009D01*
X12642857Y-53283009D02*
X12547619Y-53330628D01*
X12547619Y-53330628D02*
X12166667Y-53330628D01*
X13690476Y-53806819D02*
X13119048Y-53806819D01*
X13404762Y-53806819D02*
X13404762Y-52806819D01*
X13404762Y-52806819D02*
X13309524Y-52949676D01*
X13309524Y-52949676D02*
X13214286Y-53044914D01*
X13214286Y-53044914D02*
X13119048Y-53092533D01*
X14595238Y-52806819D02*
X14119048Y-52806819D01*
X14119048Y-52806819D02*
X14071429Y-53283009D01*
X14071429Y-53283009D02*
X14119048Y-53235390D01*
X14119048Y-53235390D02*
X14214286Y-53187771D01*
X14214286Y-53187771D02*
X14452381Y-53187771D01*
X14452381Y-53187771D02*
X14547619Y-53235390D01*
X14547619Y-53235390D02*
X14595238Y-53283009D01*
X14595238Y-53283009D02*
X14642857Y-53378247D01*
X14642857Y-53378247D02*
X14642857Y-53616342D01*
X14642857Y-53616342D02*
X14595238Y-53711580D01*
X14595238Y-53711580D02*
X14547619Y-53759200D01*
X14547619Y-53759200D02*
X14452381Y-53806819D01*
X14452381Y-53806819D02*
X14214286Y-53806819D01*
X14214286Y-53806819D02*
X14119048Y-53759200D01*
X14119048Y-53759200D02*
X14071429Y-53711580D01*
X93833333Y-29929580D02*
X93785714Y-29977200D01*
X93785714Y-29977200D02*
X93642857Y-30024819D01*
X93642857Y-30024819D02*
X93547619Y-30024819D01*
X93547619Y-30024819D02*
X93404762Y-29977200D01*
X93404762Y-29977200D02*
X93309524Y-29881961D01*
X93309524Y-29881961D02*
X93261905Y-29786723D01*
X93261905Y-29786723D02*
X93214286Y-29596247D01*
X93214286Y-29596247D02*
X93214286Y-29453390D01*
X93214286Y-29453390D02*
X93261905Y-29262914D01*
X93261905Y-29262914D02*
X93309524Y-29167676D01*
X93309524Y-29167676D02*
X93404762Y-29072438D01*
X93404762Y-29072438D02*
X93547619Y-29024819D01*
X93547619Y-29024819D02*
X93642857Y-29024819D01*
X93642857Y-29024819D02*
X93785714Y-29072438D01*
X93785714Y-29072438D02*
X93833333Y-29120057D01*
X94690476Y-29024819D02*
X94500000Y-29024819D01*
X94500000Y-29024819D02*
X94404762Y-29072438D01*
X94404762Y-29072438D02*
X94357143Y-29120057D01*
X94357143Y-29120057D02*
X94261905Y-29262914D01*
X94261905Y-29262914D02*
X94214286Y-29453390D01*
X94214286Y-29453390D02*
X94214286Y-29834342D01*
X94214286Y-29834342D02*
X94261905Y-29929580D01*
X94261905Y-29929580D02*
X94309524Y-29977200D01*
X94309524Y-29977200D02*
X94404762Y-30024819D01*
X94404762Y-30024819D02*
X94595238Y-30024819D01*
X94595238Y-30024819D02*
X94690476Y-29977200D01*
X94690476Y-29977200D02*
X94738095Y-29929580D01*
X94738095Y-29929580D02*
X94785714Y-29834342D01*
X94785714Y-29834342D02*
X94785714Y-29596247D01*
X94785714Y-29596247D02*
X94738095Y-29501009D01*
X94738095Y-29501009D02*
X94690476Y-29453390D01*
X94690476Y-29453390D02*
X94595238Y-29405771D01*
X94595238Y-29405771D02*
X94404762Y-29405771D01*
X94404762Y-29405771D02*
X94309524Y-29453390D01*
X94309524Y-29453390D02*
X94261905Y-29501009D01*
X94261905Y-29501009D02*
X94214286Y-29596247D01*
X6666666Y-22454819D02*
X6666666Y-23169104D01*
X6666666Y-23169104D02*
X6619047Y-23311961D01*
X6619047Y-23311961D02*
X6523809Y-23407200D01*
X6523809Y-23407200D02*
X6380952Y-23454819D01*
X6380952Y-23454819D02*
X6285714Y-23454819D01*
X7095238Y-22550057D02*
X7142857Y-22502438D01*
X7142857Y-22502438D02*
X7238095Y-22454819D01*
X7238095Y-22454819D02*
X7476190Y-22454819D01*
X7476190Y-22454819D02*
X7571428Y-22502438D01*
X7571428Y-22502438D02*
X7619047Y-22550057D01*
X7619047Y-22550057D02*
X7666666Y-22645295D01*
X7666666Y-22645295D02*
X7666666Y-22740533D01*
X7666666Y-22740533D02*
X7619047Y-22883390D01*
X7619047Y-22883390D02*
X7047619Y-23454819D01*
X7047619Y-23454819D02*
X7666666Y-23454819D01*
X95904761Y-3150057D02*
X95809523Y-3102438D01*
X95809523Y-3102438D02*
X95714285Y-3007200D01*
X95714285Y-3007200D02*
X95571428Y-2864342D01*
X95571428Y-2864342D02*
X95476190Y-2816723D01*
X95476190Y-2816723D02*
X95380952Y-2816723D01*
X95428571Y-3054819D02*
X95333333Y-3007200D01*
X95333333Y-3007200D02*
X95238095Y-2911961D01*
X95238095Y-2911961D02*
X95190476Y-2721485D01*
X95190476Y-2721485D02*
X95190476Y-2388152D01*
X95190476Y-2388152D02*
X95238095Y-2197676D01*
X95238095Y-2197676D02*
X95333333Y-2102438D01*
X95333333Y-2102438D02*
X95428571Y-2054819D01*
X95428571Y-2054819D02*
X95619047Y-2054819D01*
X95619047Y-2054819D02*
X95714285Y-2102438D01*
X95714285Y-2102438D02*
X95809523Y-2197676D01*
X95809523Y-2197676D02*
X95857142Y-2388152D01*
X95857142Y-2388152D02*
X95857142Y-2721485D01*
X95857142Y-2721485D02*
X95809523Y-2911961D01*
X95809523Y-2911961D02*
X95714285Y-3007200D01*
X95714285Y-3007200D02*
X95619047Y-3054819D01*
X95619047Y-3054819D02*
X95428571Y-3054819D01*
X96238095Y-2150057D02*
X96285714Y-2102438D01*
X96285714Y-2102438D02*
X96380952Y-2054819D01*
X96380952Y-2054819D02*
X96619047Y-2054819D01*
X96619047Y-2054819D02*
X96714285Y-2102438D01*
X96714285Y-2102438D02*
X96761904Y-2150057D01*
X96761904Y-2150057D02*
X96809523Y-2245295D01*
X96809523Y-2245295D02*
X96809523Y-2340533D01*
X96809523Y-2340533D02*
X96761904Y-2483390D01*
X96761904Y-2483390D02*
X96190476Y-3054819D01*
X96190476Y-3054819D02*
X96809523Y-3054819D01*
X23738095Y-1806819D02*
X24309523Y-1806819D01*
X24023809Y-2806819D02*
X24023809Y-1806819D01*
X24642857Y-2806819D02*
X24642857Y-1806819D01*
X24642857Y-1806819D02*
X25023809Y-1806819D01*
X25023809Y-1806819D02*
X25119047Y-1854438D01*
X25119047Y-1854438D02*
X25166666Y-1902057D01*
X25166666Y-1902057D02*
X25214285Y-1997295D01*
X25214285Y-1997295D02*
X25214285Y-2140152D01*
X25214285Y-2140152D02*
X25166666Y-2235390D01*
X25166666Y-2235390D02*
X25119047Y-2283009D01*
X25119047Y-2283009D02*
X25023809Y-2330628D01*
X25023809Y-2330628D02*
X24642857Y-2330628D01*
X26071428Y-1806819D02*
X25880952Y-1806819D01*
X25880952Y-1806819D02*
X25785714Y-1854438D01*
X25785714Y-1854438D02*
X25738095Y-1902057D01*
X25738095Y-1902057D02*
X25642857Y-2044914D01*
X25642857Y-2044914D02*
X25595238Y-2235390D01*
X25595238Y-2235390D02*
X25595238Y-2616342D01*
X25595238Y-2616342D02*
X25642857Y-2711580D01*
X25642857Y-2711580D02*
X25690476Y-2759200D01*
X25690476Y-2759200D02*
X25785714Y-2806819D01*
X25785714Y-2806819D02*
X25976190Y-2806819D01*
X25976190Y-2806819D02*
X26071428Y-2759200D01*
X26071428Y-2759200D02*
X26119047Y-2711580D01*
X26119047Y-2711580D02*
X26166666Y-2616342D01*
X26166666Y-2616342D02*
X26166666Y-2378247D01*
X26166666Y-2378247D02*
X26119047Y-2283009D01*
X26119047Y-2283009D02*
X26071428Y-2235390D01*
X26071428Y-2235390D02*
X25976190Y-2187771D01*
X25976190Y-2187771D02*
X25785714Y-2187771D01*
X25785714Y-2187771D02*
X25690476Y-2235390D01*
X25690476Y-2235390D02*
X25642857Y-2283009D01*
X25642857Y-2283009D02*
X25595238Y-2378247D01*
X55666666Y-8101009D02*
X55333333Y-8101009D01*
X55333333Y-8624819D02*
X55333333Y-7624819D01*
X55333333Y-7624819D02*
X55809523Y-7624819D01*
X56714285Y-8624819D02*
X56142857Y-8624819D01*
X56428571Y-8624819D02*
X56428571Y-7624819D01*
X56428571Y-7624819D02*
X56333333Y-7767676D01*
X56333333Y-7767676D02*
X56238095Y-7862914D01*
X56238095Y-7862914D02*
X56142857Y-7910533D01*
X35738095Y-1806819D02*
X36309523Y-1806819D01*
X36023809Y-2806819D02*
X36023809Y-1806819D01*
X36642857Y-2806819D02*
X36642857Y-1806819D01*
X36642857Y-1806819D02*
X37023809Y-1806819D01*
X37023809Y-1806819D02*
X37119047Y-1854438D01*
X37119047Y-1854438D02*
X37166666Y-1902057D01*
X37166666Y-1902057D02*
X37214285Y-1997295D01*
X37214285Y-1997295D02*
X37214285Y-2140152D01*
X37214285Y-2140152D02*
X37166666Y-2235390D01*
X37166666Y-2235390D02*
X37119047Y-2283009D01*
X37119047Y-2283009D02*
X37023809Y-2330628D01*
X37023809Y-2330628D02*
X36642857Y-2330628D01*
X37690476Y-2806819D02*
X37880952Y-2806819D01*
X37880952Y-2806819D02*
X37976190Y-2759200D01*
X37976190Y-2759200D02*
X38023809Y-2711580D01*
X38023809Y-2711580D02*
X38119047Y-2568723D01*
X38119047Y-2568723D02*
X38166666Y-2378247D01*
X38166666Y-2378247D02*
X38166666Y-1997295D01*
X38166666Y-1997295D02*
X38119047Y-1902057D01*
X38119047Y-1902057D02*
X38071428Y-1854438D01*
X38071428Y-1854438D02*
X37976190Y-1806819D01*
X37976190Y-1806819D02*
X37785714Y-1806819D01*
X37785714Y-1806819D02*
X37690476Y-1854438D01*
X37690476Y-1854438D02*
X37642857Y-1902057D01*
X37642857Y-1902057D02*
X37595238Y-1997295D01*
X37595238Y-1997295D02*
X37595238Y-2235390D01*
X37595238Y-2235390D02*
X37642857Y-2330628D01*
X37642857Y-2330628D02*
X37690476Y-2378247D01*
X37690476Y-2378247D02*
X37785714Y-2425866D01*
X37785714Y-2425866D02*
X37976190Y-2425866D01*
X37976190Y-2425866D02*
X38071428Y-2378247D01*
X38071428Y-2378247D02*
X38119047Y-2330628D01*
X38119047Y-2330628D02*
X38166666Y-2235390D01*
X23357142Y-37024819D02*
X23023809Y-36548628D01*
X22785714Y-37024819D02*
X22785714Y-36024819D01*
X22785714Y-36024819D02*
X23166666Y-36024819D01*
X23166666Y-36024819D02*
X23261904Y-36072438D01*
X23261904Y-36072438D02*
X23309523Y-36120057D01*
X23309523Y-36120057D02*
X23357142Y-36215295D01*
X23357142Y-36215295D02*
X23357142Y-36358152D01*
X23357142Y-36358152D02*
X23309523Y-36453390D01*
X23309523Y-36453390D02*
X23261904Y-36501009D01*
X23261904Y-36501009D02*
X23166666Y-36548628D01*
X23166666Y-36548628D02*
X22785714Y-36548628D01*
X24309523Y-37024819D02*
X23738095Y-37024819D01*
X24023809Y-37024819D02*
X24023809Y-36024819D01*
X24023809Y-36024819D02*
X23928571Y-36167676D01*
X23928571Y-36167676D02*
X23833333Y-36262914D01*
X23833333Y-36262914D02*
X23738095Y-36310533D01*
X25214285Y-36024819D02*
X24738095Y-36024819D01*
X24738095Y-36024819D02*
X24690476Y-36501009D01*
X24690476Y-36501009D02*
X24738095Y-36453390D01*
X24738095Y-36453390D02*
X24833333Y-36405771D01*
X24833333Y-36405771D02*
X25071428Y-36405771D01*
X25071428Y-36405771D02*
X25166666Y-36453390D01*
X25166666Y-36453390D02*
X25214285Y-36501009D01*
X25214285Y-36501009D02*
X25261904Y-36596247D01*
X25261904Y-36596247D02*
X25261904Y-36834342D01*
X25261904Y-36834342D02*
X25214285Y-36929580D01*
X25214285Y-36929580D02*
X25166666Y-36977200D01*
X25166666Y-36977200D02*
X25071428Y-37024819D01*
X25071428Y-37024819D02*
X24833333Y-37024819D01*
X24833333Y-37024819D02*
X24738095Y-36977200D01*
X24738095Y-36977200D02*
X24690476Y-36929580D01*
X49357142Y-44024819D02*
X49023809Y-43548628D01*
X48785714Y-44024819D02*
X48785714Y-43024819D01*
X48785714Y-43024819D02*
X49166666Y-43024819D01*
X49166666Y-43024819D02*
X49261904Y-43072438D01*
X49261904Y-43072438D02*
X49309523Y-43120057D01*
X49309523Y-43120057D02*
X49357142Y-43215295D01*
X49357142Y-43215295D02*
X49357142Y-43358152D01*
X49357142Y-43358152D02*
X49309523Y-43453390D01*
X49309523Y-43453390D02*
X49261904Y-43501009D01*
X49261904Y-43501009D02*
X49166666Y-43548628D01*
X49166666Y-43548628D02*
X48785714Y-43548628D01*
X50309523Y-44024819D02*
X49738095Y-44024819D01*
X50023809Y-44024819D02*
X50023809Y-43024819D01*
X50023809Y-43024819D02*
X49928571Y-43167676D01*
X49928571Y-43167676D02*
X49833333Y-43262914D01*
X49833333Y-43262914D02*
X49738095Y-43310533D01*
X50690476Y-43120057D02*
X50738095Y-43072438D01*
X50738095Y-43072438D02*
X50833333Y-43024819D01*
X50833333Y-43024819D02*
X51071428Y-43024819D01*
X51071428Y-43024819D02*
X51166666Y-43072438D01*
X51166666Y-43072438D02*
X51214285Y-43120057D01*
X51214285Y-43120057D02*
X51261904Y-43215295D01*
X51261904Y-43215295D02*
X51261904Y-43310533D01*
X51261904Y-43310533D02*
X51214285Y-43453390D01*
X51214285Y-43453390D02*
X50642857Y-44024819D01*
X50642857Y-44024819D02*
X51261904Y-44024819D01*
X27738095Y-1806819D02*
X28309523Y-1806819D01*
X28023809Y-2806819D02*
X28023809Y-1806819D01*
X28642857Y-2806819D02*
X28642857Y-1806819D01*
X28642857Y-1806819D02*
X29023809Y-1806819D01*
X29023809Y-1806819D02*
X29119047Y-1854438D01*
X29119047Y-1854438D02*
X29166666Y-1902057D01*
X29166666Y-1902057D02*
X29214285Y-1997295D01*
X29214285Y-1997295D02*
X29214285Y-2140152D01*
X29214285Y-2140152D02*
X29166666Y-2235390D01*
X29166666Y-2235390D02*
X29119047Y-2283009D01*
X29119047Y-2283009D02*
X29023809Y-2330628D01*
X29023809Y-2330628D02*
X28642857Y-2330628D01*
X29547619Y-1806819D02*
X30214285Y-1806819D01*
X30214285Y-1806819D02*
X29785714Y-2806819D01*
X42357142Y-43929580D02*
X42309523Y-43977200D01*
X42309523Y-43977200D02*
X42166666Y-44024819D01*
X42166666Y-44024819D02*
X42071428Y-44024819D01*
X42071428Y-44024819D02*
X41928571Y-43977200D01*
X41928571Y-43977200D02*
X41833333Y-43881961D01*
X41833333Y-43881961D02*
X41785714Y-43786723D01*
X41785714Y-43786723D02*
X41738095Y-43596247D01*
X41738095Y-43596247D02*
X41738095Y-43453390D01*
X41738095Y-43453390D02*
X41785714Y-43262914D01*
X41785714Y-43262914D02*
X41833333Y-43167676D01*
X41833333Y-43167676D02*
X41928571Y-43072438D01*
X41928571Y-43072438D02*
X42071428Y-43024819D01*
X42071428Y-43024819D02*
X42166666Y-43024819D01*
X42166666Y-43024819D02*
X42309523Y-43072438D01*
X42309523Y-43072438D02*
X42357142Y-43120057D01*
X42690476Y-43024819D02*
X43309523Y-43024819D01*
X43309523Y-43024819D02*
X42976190Y-43405771D01*
X42976190Y-43405771D02*
X43119047Y-43405771D01*
X43119047Y-43405771D02*
X43214285Y-43453390D01*
X43214285Y-43453390D02*
X43261904Y-43501009D01*
X43261904Y-43501009D02*
X43309523Y-43596247D01*
X43309523Y-43596247D02*
X43309523Y-43834342D01*
X43309523Y-43834342D02*
X43261904Y-43929580D01*
X43261904Y-43929580D02*
X43214285Y-43977200D01*
X43214285Y-43977200D02*
X43119047Y-44024819D01*
X43119047Y-44024819D02*
X42833333Y-44024819D01*
X42833333Y-44024819D02*
X42738095Y-43977200D01*
X42738095Y-43977200D02*
X42690476Y-43929580D01*
X44166666Y-43024819D02*
X43976190Y-43024819D01*
X43976190Y-43024819D02*
X43880952Y-43072438D01*
X43880952Y-43072438D02*
X43833333Y-43120057D01*
X43833333Y-43120057D02*
X43738095Y-43262914D01*
X43738095Y-43262914D02*
X43690476Y-43453390D01*
X43690476Y-43453390D02*
X43690476Y-43834342D01*
X43690476Y-43834342D02*
X43738095Y-43929580D01*
X43738095Y-43929580D02*
X43785714Y-43977200D01*
X43785714Y-43977200D02*
X43880952Y-44024819D01*
X43880952Y-44024819D02*
X44071428Y-44024819D01*
X44071428Y-44024819D02*
X44166666Y-43977200D01*
X44166666Y-43977200D02*
X44214285Y-43929580D01*
X44214285Y-43929580D02*
X44261904Y-43834342D01*
X44261904Y-43834342D02*
X44261904Y-43596247D01*
X44261904Y-43596247D02*
X44214285Y-43501009D01*
X44214285Y-43501009D02*
X44166666Y-43453390D01*
X44166666Y-43453390D02*
X44071428Y-43405771D01*
X44071428Y-43405771D02*
X43880952Y-43405771D01*
X43880952Y-43405771D02*
X43785714Y-43453390D01*
X43785714Y-43453390D02*
X43738095Y-43501009D01*
X43738095Y-43501009D02*
X43690476Y-43596247D01*
X51261905Y-18454819D02*
X51261905Y-17454819D01*
X51261905Y-17454819D02*
X51500000Y-17454819D01*
X51500000Y-17454819D02*
X51642857Y-17502438D01*
X51642857Y-17502438D02*
X51738095Y-17597676D01*
X51738095Y-17597676D02*
X51785714Y-17692914D01*
X51785714Y-17692914D02*
X51833333Y-17883390D01*
X51833333Y-17883390D02*
X51833333Y-18026247D01*
X51833333Y-18026247D02*
X51785714Y-18216723D01*
X51785714Y-18216723D02*
X51738095Y-18311961D01*
X51738095Y-18311961D02*
X51642857Y-18407200D01*
X51642857Y-18407200D02*
X51500000Y-18454819D01*
X51500000Y-18454819D02*
X51261905Y-18454819D01*
X52690476Y-17788152D02*
X52690476Y-18454819D01*
X52452381Y-17407200D02*
X52214286Y-18121485D01*
X52214286Y-18121485D02*
X52833333Y-18121485D01*
X99646666Y-37534819D02*
X99646666Y-38249104D01*
X99646666Y-38249104D02*
X99599047Y-38391961D01*
X99599047Y-38391961D02*
X99503809Y-38487200D01*
X99503809Y-38487200D02*
X99360952Y-38534819D01*
X99360952Y-38534819D02*
X99265714Y-38534819D01*
X100027619Y-37534819D02*
X100646666Y-37534819D01*
X100646666Y-37534819D02*
X100313333Y-37915771D01*
X100313333Y-37915771D02*
X100456190Y-37915771D01*
X100456190Y-37915771D02*
X100551428Y-37963390D01*
X100551428Y-37963390D02*
X100599047Y-38011009D01*
X100599047Y-38011009D02*
X100646666Y-38106247D01*
X100646666Y-38106247D02*
X100646666Y-38344342D01*
X100646666Y-38344342D02*
X100599047Y-38439580D01*
X100599047Y-38439580D02*
X100551428Y-38487200D01*
X100551428Y-38487200D02*
X100456190Y-38534819D01*
X100456190Y-38534819D02*
X100170476Y-38534819D01*
X100170476Y-38534819D02*
X100075238Y-38487200D01*
X100075238Y-38487200D02*
X100027619Y-38439580D01*
X57238095Y-39724819D02*
X57238095Y-40534342D01*
X57238095Y-40534342D02*
X57285714Y-40629580D01*
X57285714Y-40629580D02*
X57333333Y-40677200D01*
X57333333Y-40677200D02*
X57428571Y-40724819D01*
X57428571Y-40724819D02*
X57619047Y-40724819D01*
X57619047Y-40724819D02*
X57714285Y-40677200D01*
X57714285Y-40677200D02*
X57761904Y-40629580D01*
X57761904Y-40629580D02*
X57809523Y-40534342D01*
X57809523Y-40534342D02*
X57809523Y-39724819D01*
X58714285Y-39724819D02*
X58523809Y-39724819D01*
X58523809Y-39724819D02*
X58428571Y-39772438D01*
X58428571Y-39772438D02*
X58380952Y-39820057D01*
X58380952Y-39820057D02*
X58285714Y-39962914D01*
X58285714Y-39962914D02*
X58238095Y-40153390D01*
X58238095Y-40153390D02*
X58238095Y-40534342D01*
X58238095Y-40534342D02*
X58285714Y-40629580D01*
X58285714Y-40629580D02*
X58333333Y-40677200D01*
X58333333Y-40677200D02*
X58428571Y-40724819D01*
X58428571Y-40724819D02*
X58619047Y-40724819D01*
X58619047Y-40724819D02*
X58714285Y-40677200D01*
X58714285Y-40677200D02*
X58761904Y-40629580D01*
X58761904Y-40629580D02*
X58809523Y-40534342D01*
X58809523Y-40534342D02*
X58809523Y-40296247D01*
X58809523Y-40296247D02*
X58761904Y-40201009D01*
X58761904Y-40201009D02*
X58714285Y-40153390D01*
X58714285Y-40153390D02*
X58619047Y-40105771D01*
X58619047Y-40105771D02*
X58428571Y-40105771D01*
X58428571Y-40105771D02*
X58333333Y-40153390D01*
X58333333Y-40153390D02*
X58285714Y-40201009D01*
X58285714Y-40201009D02*
X58238095Y-40296247D01*
X63833333Y-17024819D02*
X63500000Y-16548628D01*
X63261905Y-17024819D02*
X63261905Y-16024819D01*
X63261905Y-16024819D02*
X63642857Y-16024819D01*
X63642857Y-16024819D02*
X63738095Y-16072438D01*
X63738095Y-16072438D02*
X63785714Y-16120057D01*
X63785714Y-16120057D02*
X63833333Y-16215295D01*
X63833333Y-16215295D02*
X63833333Y-16358152D01*
X63833333Y-16358152D02*
X63785714Y-16453390D01*
X63785714Y-16453390D02*
X63738095Y-16501009D01*
X63738095Y-16501009D02*
X63642857Y-16548628D01*
X63642857Y-16548628D02*
X63261905Y-16548628D01*
X64785714Y-17024819D02*
X64214286Y-17024819D01*
X64500000Y-17024819D02*
X64500000Y-16024819D01*
X64500000Y-16024819D02*
X64404762Y-16167676D01*
X64404762Y-16167676D02*
X64309524Y-16262914D01*
X64309524Y-16262914D02*
X64214286Y-16310533D01*
X81833333Y-12679580D02*
X81785714Y-12727200D01*
X81785714Y-12727200D02*
X81642857Y-12774819D01*
X81642857Y-12774819D02*
X81547619Y-12774819D01*
X81547619Y-12774819D02*
X81404762Y-12727200D01*
X81404762Y-12727200D02*
X81309524Y-12631961D01*
X81309524Y-12631961D02*
X81261905Y-12536723D01*
X81261905Y-12536723D02*
X81214286Y-12346247D01*
X81214286Y-12346247D02*
X81214286Y-12203390D01*
X81214286Y-12203390D02*
X81261905Y-12012914D01*
X81261905Y-12012914D02*
X81309524Y-11917676D01*
X81309524Y-11917676D02*
X81404762Y-11822438D01*
X81404762Y-11822438D02*
X81547619Y-11774819D01*
X81547619Y-11774819D02*
X81642857Y-11774819D01*
X81642857Y-11774819D02*
X81785714Y-11822438D01*
X81785714Y-11822438D02*
X81833333Y-11870057D01*
X82214286Y-11870057D02*
X82261905Y-11822438D01*
X82261905Y-11822438D02*
X82357143Y-11774819D01*
X82357143Y-11774819D02*
X82595238Y-11774819D01*
X82595238Y-11774819D02*
X82690476Y-11822438D01*
X82690476Y-11822438D02*
X82738095Y-11870057D01*
X82738095Y-11870057D02*
X82785714Y-11965295D01*
X82785714Y-11965295D02*
X82785714Y-12060533D01*
X82785714Y-12060533D02*
X82738095Y-12203390D01*
X82738095Y-12203390D02*
X82166667Y-12774819D01*
X82166667Y-12774819D02*
X82785714Y-12774819D01*
X21238095Y-7054819D02*
X21238095Y-7864342D01*
X21238095Y-7864342D02*
X21285714Y-7959580D01*
X21285714Y-7959580D02*
X21333333Y-8007200D01*
X21333333Y-8007200D02*
X21428571Y-8054819D01*
X21428571Y-8054819D02*
X21619047Y-8054819D01*
X21619047Y-8054819D02*
X21714285Y-8007200D01*
X21714285Y-8007200D02*
X21761904Y-7959580D01*
X21761904Y-7959580D02*
X21809523Y-7864342D01*
X21809523Y-7864342D02*
X21809523Y-7054819D01*
X22761904Y-7054819D02*
X22285714Y-7054819D01*
X22285714Y-7054819D02*
X22238095Y-7531009D01*
X22238095Y-7531009D02*
X22285714Y-7483390D01*
X22285714Y-7483390D02*
X22380952Y-7435771D01*
X22380952Y-7435771D02*
X22619047Y-7435771D01*
X22619047Y-7435771D02*
X22714285Y-7483390D01*
X22714285Y-7483390D02*
X22761904Y-7531009D01*
X22761904Y-7531009D02*
X22809523Y-7626247D01*
X22809523Y-7626247D02*
X22809523Y-7864342D01*
X22809523Y-7864342D02*
X22761904Y-7959580D01*
X22761904Y-7959580D02*
X22714285Y-8007200D01*
X22714285Y-8007200D02*
X22619047Y-8054819D01*
X22619047Y-8054819D02*
X22380952Y-8054819D01*
X22380952Y-8054819D02*
X22285714Y-8007200D01*
X22285714Y-8007200D02*
X22238095Y-7959580D01*
X79833333Y-25254819D02*
X79357143Y-25254819D01*
X79357143Y-25254819D02*
X79357143Y-24254819D01*
X80690476Y-25254819D02*
X80119048Y-25254819D01*
X80404762Y-25254819D02*
X80404762Y-24254819D01*
X80404762Y-24254819D02*
X80309524Y-24397676D01*
X80309524Y-24397676D02*
X80214286Y-24492914D01*
X80214286Y-24492914D02*
X80119048Y-24540533D01*
X42357142Y-47929580D02*
X42309523Y-47977200D01*
X42309523Y-47977200D02*
X42166666Y-48024819D01*
X42166666Y-48024819D02*
X42071428Y-48024819D01*
X42071428Y-48024819D02*
X41928571Y-47977200D01*
X41928571Y-47977200D02*
X41833333Y-47881961D01*
X41833333Y-47881961D02*
X41785714Y-47786723D01*
X41785714Y-47786723D02*
X41738095Y-47596247D01*
X41738095Y-47596247D02*
X41738095Y-47453390D01*
X41738095Y-47453390D02*
X41785714Y-47262914D01*
X41785714Y-47262914D02*
X41833333Y-47167676D01*
X41833333Y-47167676D02*
X41928571Y-47072438D01*
X41928571Y-47072438D02*
X42071428Y-47024819D01*
X42071428Y-47024819D02*
X42166666Y-47024819D01*
X42166666Y-47024819D02*
X42309523Y-47072438D01*
X42309523Y-47072438D02*
X42357142Y-47120057D01*
X42690476Y-47024819D02*
X43309523Y-47024819D01*
X43309523Y-47024819D02*
X42976190Y-47405771D01*
X42976190Y-47405771D02*
X43119047Y-47405771D01*
X43119047Y-47405771D02*
X43214285Y-47453390D01*
X43214285Y-47453390D02*
X43261904Y-47501009D01*
X43261904Y-47501009D02*
X43309523Y-47596247D01*
X43309523Y-47596247D02*
X43309523Y-47834342D01*
X43309523Y-47834342D02*
X43261904Y-47929580D01*
X43261904Y-47929580D02*
X43214285Y-47977200D01*
X43214285Y-47977200D02*
X43119047Y-48024819D01*
X43119047Y-48024819D02*
X42833333Y-48024819D01*
X42833333Y-48024819D02*
X42738095Y-47977200D01*
X42738095Y-47977200D02*
X42690476Y-47929580D01*
X43642857Y-47024819D02*
X44309523Y-47024819D01*
X44309523Y-47024819D02*
X43880952Y-48024819D01*
X103261905Y-72454819D02*
X103261905Y-71454819D01*
X103261905Y-71454819D02*
X103500000Y-71454819D01*
X103500000Y-71454819D02*
X103642857Y-71502438D01*
X103642857Y-71502438D02*
X103738095Y-71597676D01*
X103738095Y-71597676D02*
X103785714Y-71692914D01*
X103785714Y-71692914D02*
X103833333Y-71883390D01*
X103833333Y-71883390D02*
X103833333Y-72026247D01*
X103833333Y-72026247D02*
X103785714Y-72216723D01*
X103785714Y-72216723D02*
X103738095Y-72311961D01*
X103738095Y-72311961D02*
X103642857Y-72407200D01*
X103642857Y-72407200D02*
X103500000Y-72454819D01*
X103500000Y-72454819D02*
X103261905Y-72454819D01*
X104738095Y-71454819D02*
X104261905Y-71454819D01*
X104261905Y-71454819D02*
X104214286Y-71931009D01*
X104214286Y-71931009D02*
X104261905Y-71883390D01*
X104261905Y-71883390D02*
X104357143Y-71835771D01*
X104357143Y-71835771D02*
X104595238Y-71835771D01*
X104595238Y-71835771D02*
X104690476Y-71883390D01*
X104690476Y-71883390D02*
X104738095Y-71931009D01*
X104738095Y-71931009D02*
X104785714Y-72026247D01*
X104785714Y-72026247D02*
X104785714Y-72264342D01*
X104785714Y-72264342D02*
X104738095Y-72359580D01*
X104738095Y-72359580D02*
X104690476Y-72407200D01*
X104690476Y-72407200D02*
X104595238Y-72454819D01*
X104595238Y-72454819D02*
X104357143Y-72454819D01*
X104357143Y-72454819D02*
X104261905Y-72407200D01*
X104261905Y-72407200D02*
X104214286Y-72359580D01*
X47261905Y-1806819D02*
X47833333Y-1806819D01*
X47547619Y-2806819D02*
X47547619Y-1806819D01*
X48166667Y-2806819D02*
X48166667Y-1806819D01*
X48166667Y-1806819D02*
X48547619Y-1806819D01*
X48547619Y-1806819D02*
X48642857Y-1854438D01*
X48642857Y-1854438D02*
X48690476Y-1902057D01*
X48690476Y-1902057D02*
X48738095Y-1997295D01*
X48738095Y-1997295D02*
X48738095Y-2140152D01*
X48738095Y-2140152D02*
X48690476Y-2235390D01*
X48690476Y-2235390D02*
X48642857Y-2283009D01*
X48642857Y-2283009D02*
X48547619Y-2330628D01*
X48547619Y-2330628D02*
X48166667Y-2330628D01*
X49690476Y-2806819D02*
X49119048Y-2806819D01*
X49404762Y-2806819D02*
X49404762Y-1806819D01*
X49404762Y-1806819D02*
X49309524Y-1949676D01*
X49309524Y-1949676D02*
X49214286Y-2044914D01*
X49214286Y-2044914D02*
X49119048Y-2092533D01*
X50071429Y-1902057D02*
X50119048Y-1854438D01*
X50119048Y-1854438D02*
X50214286Y-1806819D01*
X50214286Y-1806819D02*
X50452381Y-1806819D01*
X50452381Y-1806819D02*
X50547619Y-1854438D01*
X50547619Y-1854438D02*
X50595238Y-1902057D01*
X50595238Y-1902057D02*
X50642857Y-1997295D01*
X50642857Y-1997295D02*
X50642857Y-2092533D01*
X50642857Y-2092533D02*
X50595238Y-2235390D01*
X50595238Y-2235390D02*
X50023810Y-2806819D01*
X50023810Y-2806819D02*
X50642857Y-2806819D01*
X105238095Y-50054819D02*
X105238095Y-50864342D01*
X105238095Y-50864342D02*
X105285714Y-50959580D01*
X105285714Y-50959580D02*
X105333333Y-51007200D01*
X105333333Y-51007200D02*
X105428571Y-51054819D01*
X105428571Y-51054819D02*
X105619047Y-51054819D01*
X105619047Y-51054819D02*
X105714285Y-51007200D01*
X105714285Y-51007200D02*
X105761904Y-50959580D01*
X105761904Y-50959580D02*
X105809523Y-50864342D01*
X105809523Y-50864342D02*
X105809523Y-50054819D01*
X106190476Y-50054819D02*
X106809523Y-50054819D01*
X106809523Y-50054819D02*
X106476190Y-50435771D01*
X106476190Y-50435771D02*
X106619047Y-50435771D01*
X106619047Y-50435771D02*
X106714285Y-50483390D01*
X106714285Y-50483390D02*
X106761904Y-50531009D01*
X106761904Y-50531009D02*
X106809523Y-50626247D01*
X106809523Y-50626247D02*
X106809523Y-50864342D01*
X106809523Y-50864342D02*
X106761904Y-50959580D01*
X106761904Y-50959580D02*
X106714285Y-51007200D01*
X106714285Y-51007200D02*
X106619047Y-51054819D01*
X106619047Y-51054819D02*
X106333333Y-51054819D01*
X106333333Y-51054819D02*
X106238095Y-51007200D01*
X106238095Y-51007200D02*
X106190476Y-50959580D01*
X49357142Y-48024819D02*
X49023809Y-47548628D01*
X48785714Y-48024819D02*
X48785714Y-47024819D01*
X48785714Y-47024819D02*
X49166666Y-47024819D01*
X49166666Y-47024819D02*
X49261904Y-47072438D01*
X49261904Y-47072438D02*
X49309523Y-47120057D01*
X49309523Y-47120057D02*
X49357142Y-47215295D01*
X49357142Y-47215295D02*
X49357142Y-47358152D01*
X49357142Y-47358152D02*
X49309523Y-47453390D01*
X49309523Y-47453390D02*
X49261904Y-47501009D01*
X49261904Y-47501009D02*
X49166666Y-47548628D01*
X49166666Y-47548628D02*
X48785714Y-47548628D01*
X50309523Y-48024819D02*
X49738095Y-48024819D01*
X50023809Y-48024819D02*
X50023809Y-47024819D01*
X50023809Y-47024819D02*
X49928571Y-47167676D01*
X49928571Y-47167676D02*
X49833333Y-47262914D01*
X49833333Y-47262914D02*
X49738095Y-47310533D01*
X50642857Y-47024819D02*
X51261904Y-47024819D01*
X51261904Y-47024819D02*
X50928571Y-47405771D01*
X50928571Y-47405771D02*
X51071428Y-47405771D01*
X51071428Y-47405771D02*
X51166666Y-47453390D01*
X51166666Y-47453390D02*
X51214285Y-47501009D01*
X51214285Y-47501009D02*
X51261904Y-47596247D01*
X51261904Y-47596247D02*
X51261904Y-47834342D01*
X51261904Y-47834342D02*
X51214285Y-47929580D01*
X51214285Y-47929580D02*
X51166666Y-47977200D01*
X51166666Y-47977200D02*
X51071428Y-48024819D01*
X51071428Y-48024819D02*
X50785714Y-48024819D01*
X50785714Y-48024819D02*
X50690476Y-47977200D01*
X50690476Y-47977200D02*
X50642857Y-47929580D01*
X99646666Y-4614819D02*
X99646666Y-5329104D01*
X99646666Y-5329104D02*
X99599047Y-5471961D01*
X99599047Y-5471961D02*
X99503809Y-5567200D01*
X99503809Y-5567200D02*
X99360952Y-5614819D01*
X99360952Y-5614819D02*
X99265714Y-5614819D01*
X100646666Y-5614819D02*
X100075238Y-5614819D01*
X100360952Y-5614819D02*
X100360952Y-4614819D01*
X100360952Y-4614819D02*
X100265714Y-4757676D01*
X100265714Y-4757676D02*
X100170476Y-4852914D01*
X100170476Y-4852914D02*
X100075238Y-4900533D01*
X87904761Y-55150057D02*
X87809523Y-55102438D01*
X87809523Y-55102438D02*
X87714285Y-55007200D01*
X87714285Y-55007200D02*
X87571428Y-54864342D01*
X87571428Y-54864342D02*
X87476190Y-54816723D01*
X87476190Y-54816723D02*
X87380952Y-54816723D01*
X87428571Y-55054819D02*
X87333333Y-55007200D01*
X87333333Y-55007200D02*
X87238095Y-54911961D01*
X87238095Y-54911961D02*
X87190476Y-54721485D01*
X87190476Y-54721485D02*
X87190476Y-54388152D01*
X87190476Y-54388152D02*
X87238095Y-54197676D01*
X87238095Y-54197676D02*
X87333333Y-54102438D01*
X87333333Y-54102438D02*
X87428571Y-54054819D01*
X87428571Y-54054819D02*
X87619047Y-54054819D01*
X87619047Y-54054819D02*
X87714285Y-54102438D01*
X87714285Y-54102438D02*
X87809523Y-54197676D01*
X87809523Y-54197676D02*
X87857142Y-54388152D01*
X87857142Y-54388152D02*
X87857142Y-54721485D01*
X87857142Y-54721485D02*
X87809523Y-54911961D01*
X87809523Y-54911961D02*
X87714285Y-55007200D01*
X87714285Y-55007200D02*
X87619047Y-55054819D01*
X87619047Y-55054819D02*
X87428571Y-55054819D01*
X88190476Y-54054819D02*
X88809523Y-54054819D01*
X88809523Y-54054819D02*
X88476190Y-54435771D01*
X88476190Y-54435771D02*
X88619047Y-54435771D01*
X88619047Y-54435771D02*
X88714285Y-54483390D01*
X88714285Y-54483390D02*
X88761904Y-54531009D01*
X88761904Y-54531009D02*
X88809523Y-54626247D01*
X88809523Y-54626247D02*
X88809523Y-54864342D01*
X88809523Y-54864342D02*
X88761904Y-54959580D01*
X88761904Y-54959580D02*
X88714285Y-55007200D01*
X88714285Y-55007200D02*
X88619047Y-55054819D01*
X88619047Y-55054819D02*
X88333333Y-55054819D01*
X88333333Y-55054819D02*
X88238095Y-55007200D01*
X88238095Y-55007200D02*
X88190476Y-54959580D01*
X19261905Y-52806819D02*
X19833333Y-52806819D01*
X19547619Y-53806819D02*
X19547619Y-52806819D01*
X20166667Y-53806819D02*
X20166667Y-52806819D01*
X20166667Y-52806819D02*
X20547619Y-52806819D01*
X20547619Y-52806819D02*
X20642857Y-52854438D01*
X20642857Y-52854438D02*
X20690476Y-52902057D01*
X20690476Y-52902057D02*
X20738095Y-52997295D01*
X20738095Y-52997295D02*
X20738095Y-53140152D01*
X20738095Y-53140152D02*
X20690476Y-53235390D01*
X20690476Y-53235390D02*
X20642857Y-53283009D01*
X20642857Y-53283009D02*
X20547619Y-53330628D01*
X20547619Y-53330628D02*
X20166667Y-53330628D01*
X21690476Y-53806819D02*
X21119048Y-53806819D01*
X21404762Y-53806819D02*
X21404762Y-52806819D01*
X21404762Y-52806819D02*
X21309524Y-52949676D01*
X21309524Y-52949676D02*
X21214286Y-53044914D01*
X21214286Y-53044914D02*
X21119048Y-53092533D01*
X22023810Y-52806819D02*
X22690476Y-52806819D01*
X22690476Y-52806819D02*
X22261905Y-53806819D01*
X39261905Y-1806819D02*
X39833333Y-1806819D01*
X39547619Y-2806819D02*
X39547619Y-1806819D01*
X40166667Y-2806819D02*
X40166667Y-1806819D01*
X40166667Y-1806819D02*
X40547619Y-1806819D01*
X40547619Y-1806819D02*
X40642857Y-1854438D01*
X40642857Y-1854438D02*
X40690476Y-1902057D01*
X40690476Y-1902057D02*
X40738095Y-1997295D01*
X40738095Y-1997295D02*
X40738095Y-2140152D01*
X40738095Y-2140152D02*
X40690476Y-2235390D01*
X40690476Y-2235390D02*
X40642857Y-2283009D01*
X40642857Y-2283009D02*
X40547619Y-2330628D01*
X40547619Y-2330628D02*
X40166667Y-2330628D01*
X41690476Y-2806819D02*
X41119048Y-2806819D01*
X41404762Y-2806819D02*
X41404762Y-1806819D01*
X41404762Y-1806819D02*
X41309524Y-1949676D01*
X41309524Y-1949676D02*
X41214286Y-2044914D01*
X41214286Y-2044914D02*
X41119048Y-2092533D01*
X42309524Y-1806819D02*
X42404762Y-1806819D01*
X42404762Y-1806819D02*
X42500000Y-1854438D01*
X42500000Y-1854438D02*
X42547619Y-1902057D01*
X42547619Y-1902057D02*
X42595238Y-1997295D01*
X42595238Y-1997295D02*
X42642857Y-2187771D01*
X42642857Y-2187771D02*
X42642857Y-2425866D01*
X42642857Y-2425866D02*
X42595238Y-2616342D01*
X42595238Y-2616342D02*
X42547619Y-2711580D01*
X42547619Y-2711580D02*
X42500000Y-2759200D01*
X42500000Y-2759200D02*
X42404762Y-2806819D01*
X42404762Y-2806819D02*
X42309524Y-2806819D01*
X42309524Y-2806819D02*
X42214286Y-2759200D01*
X42214286Y-2759200D02*
X42166667Y-2711580D01*
X42166667Y-2711580D02*
X42119048Y-2616342D01*
X42119048Y-2616342D02*
X42071429Y-2425866D01*
X42071429Y-2425866D02*
X42071429Y-2187771D01*
X42071429Y-2187771D02*
X42119048Y-1997295D01*
X42119048Y-1997295D02*
X42166667Y-1902057D01*
X42166667Y-1902057D02*
X42214286Y-1854438D01*
X42214286Y-1854438D02*
X42309524Y-1806819D01*
X74666666Y-65434819D02*
X74666666Y-66149104D01*
X74666666Y-66149104D02*
X74619047Y-66291961D01*
X74619047Y-66291961D02*
X74523809Y-66387200D01*
X74523809Y-66387200D02*
X74380952Y-66434819D01*
X74380952Y-66434819D02*
X74285714Y-66434819D01*
X75571428Y-65434819D02*
X75380952Y-65434819D01*
X75380952Y-65434819D02*
X75285714Y-65482438D01*
X75285714Y-65482438D02*
X75238095Y-65530057D01*
X75238095Y-65530057D02*
X75142857Y-65672914D01*
X75142857Y-65672914D02*
X75095238Y-65863390D01*
X75095238Y-65863390D02*
X75095238Y-66244342D01*
X75095238Y-66244342D02*
X75142857Y-66339580D01*
X75142857Y-66339580D02*
X75190476Y-66387200D01*
X75190476Y-66387200D02*
X75285714Y-66434819D01*
X75285714Y-66434819D02*
X75476190Y-66434819D01*
X75476190Y-66434819D02*
X75571428Y-66387200D01*
X75571428Y-66387200D02*
X75619047Y-66339580D01*
X75619047Y-66339580D02*
X75666666Y-66244342D01*
X75666666Y-66244342D02*
X75666666Y-66006247D01*
X75666666Y-66006247D02*
X75619047Y-65911009D01*
X75619047Y-65911009D02*
X75571428Y-65863390D01*
X75571428Y-65863390D02*
X75476190Y-65815771D01*
X75476190Y-65815771D02*
X75285714Y-65815771D01*
X75285714Y-65815771D02*
X75190476Y-65863390D01*
X75190476Y-65863390D02*
X75142857Y-65911009D01*
X75142857Y-65911009D02*
X75095238Y-66006247D01*
X42357142Y-55929580D02*
X42309523Y-55977200D01*
X42309523Y-55977200D02*
X42166666Y-56024819D01*
X42166666Y-56024819D02*
X42071428Y-56024819D01*
X42071428Y-56024819D02*
X41928571Y-55977200D01*
X41928571Y-55977200D02*
X41833333Y-55881961D01*
X41833333Y-55881961D02*
X41785714Y-55786723D01*
X41785714Y-55786723D02*
X41738095Y-55596247D01*
X41738095Y-55596247D02*
X41738095Y-55453390D01*
X41738095Y-55453390D02*
X41785714Y-55262914D01*
X41785714Y-55262914D02*
X41833333Y-55167676D01*
X41833333Y-55167676D02*
X41928571Y-55072438D01*
X41928571Y-55072438D02*
X42071428Y-55024819D01*
X42071428Y-55024819D02*
X42166666Y-55024819D01*
X42166666Y-55024819D02*
X42309523Y-55072438D01*
X42309523Y-55072438D02*
X42357142Y-55120057D01*
X42690476Y-55024819D02*
X43309523Y-55024819D01*
X43309523Y-55024819D02*
X42976190Y-55405771D01*
X42976190Y-55405771D02*
X43119047Y-55405771D01*
X43119047Y-55405771D02*
X43214285Y-55453390D01*
X43214285Y-55453390D02*
X43261904Y-55501009D01*
X43261904Y-55501009D02*
X43309523Y-55596247D01*
X43309523Y-55596247D02*
X43309523Y-55834342D01*
X43309523Y-55834342D02*
X43261904Y-55929580D01*
X43261904Y-55929580D02*
X43214285Y-55977200D01*
X43214285Y-55977200D02*
X43119047Y-56024819D01*
X43119047Y-56024819D02*
X42833333Y-56024819D01*
X42833333Y-56024819D02*
X42738095Y-55977200D01*
X42738095Y-55977200D02*
X42690476Y-55929580D01*
X43785714Y-56024819D02*
X43976190Y-56024819D01*
X43976190Y-56024819D02*
X44071428Y-55977200D01*
X44071428Y-55977200D02*
X44119047Y-55929580D01*
X44119047Y-55929580D02*
X44214285Y-55786723D01*
X44214285Y-55786723D02*
X44261904Y-55596247D01*
X44261904Y-55596247D02*
X44261904Y-55215295D01*
X44261904Y-55215295D02*
X44214285Y-55120057D01*
X44214285Y-55120057D02*
X44166666Y-55072438D01*
X44166666Y-55072438D02*
X44071428Y-55024819D01*
X44071428Y-55024819D02*
X43880952Y-55024819D01*
X43880952Y-55024819D02*
X43785714Y-55072438D01*
X43785714Y-55072438D02*
X43738095Y-55120057D01*
X43738095Y-55120057D02*
X43690476Y-55215295D01*
X43690476Y-55215295D02*
X43690476Y-55453390D01*
X43690476Y-55453390D02*
X43738095Y-55548628D01*
X43738095Y-55548628D02*
X43785714Y-55596247D01*
X43785714Y-55596247D02*
X43880952Y-55643866D01*
X43880952Y-55643866D02*
X44071428Y-55643866D01*
X44071428Y-55643866D02*
X44166666Y-55596247D01*
X44166666Y-55596247D02*
X44214285Y-55548628D01*
X44214285Y-55548628D02*
X44261904Y-55453390D01*
X81833333Y-8059580D02*
X81785714Y-8107200D01*
X81785714Y-8107200D02*
X81642857Y-8154819D01*
X81642857Y-8154819D02*
X81547619Y-8154819D01*
X81547619Y-8154819D02*
X81404762Y-8107200D01*
X81404762Y-8107200D02*
X81309524Y-8011961D01*
X81309524Y-8011961D02*
X81261905Y-7916723D01*
X81261905Y-7916723D02*
X81214286Y-7726247D01*
X81214286Y-7726247D02*
X81214286Y-7583390D01*
X81214286Y-7583390D02*
X81261905Y-7392914D01*
X81261905Y-7392914D02*
X81309524Y-7297676D01*
X81309524Y-7297676D02*
X81404762Y-7202438D01*
X81404762Y-7202438D02*
X81547619Y-7154819D01*
X81547619Y-7154819D02*
X81642857Y-7154819D01*
X81642857Y-7154819D02*
X81785714Y-7202438D01*
X81785714Y-7202438D02*
X81833333Y-7250057D01*
X82785714Y-8154819D02*
X82214286Y-8154819D01*
X82500000Y-8154819D02*
X82500000Y-7154819D01*
X82500000Y-7154819D02*
X82404762Y-7297676D01*
X82404762Y-7297676D02*
X82309524Y-7392914D01*
X82309524Y-7392914D02*
X82214286Y-7440533D01*
X79833333Y-41024819D02*
X79500000Y-40548628D01*
X79261905Y-41024819D02*
X79261905Y-40024819D01*
X79261905Y-40024819D02*
X79642857Y-40024819D01*
X79642857Y-40024819D02*
X79738095Y-40072438D01*
X79738095Y-40072438D02*
X79785714Y-40120057D01*
X79785714Y-40120057D02*
X79833333Y-40215295D01*
X79833333Y-40215295D02*
X79833333Y-40358152D01*
X79833333Y-40358152D02*
X79785714Y-40453390D01*
X79785714Y-40453390D02*
X79738095Y-40501009D01*
X79738095Y-40501009D02*
X79642857Y-40548628D01*
X79642857Y-40548628D02*
X79261905Y-40548628D01*
X80166667Y-40024819D02*
X80833333Y-40024819D01*
X80833333Y-40024819D02*
X80404762Y-41024819D01*
X65238095Y-22954819D02*
X65238095Y-23764342D01*
X65238095Y-23764342D02*
X65285714Y-23859580D01*
X65285714Y-23859580D02*
X65333333Y-23907200D01*
X65333333Y-23907200D02*
X65428571Y-23954819D01*
X65428571Y-23954819D02*
X65619047Y-23954819D01*
X65619047Y-23954819D02*
X65714285Y-23907200D01*
X65714285Y-23907200D02*
X65761904Y-23859580D01*
X65761904Y-23859580D02*
X65809523Y-23764342D01*
X65809523Y-23764342D02*
X65809523Y-22954819D01*
X66238095Y-23050057D02*
X66285714Y-23002438D01*
X66285714Y-23002438D02*
X66380952Y-22954819D01*
X66380952Y-22954819D02*
X66619047Y-22954819D01*
X66619047Y-22954819D02*
X66714285Y-23002438D01*
X66714285Y-23002438D02*
X66761904Y-23050057D01*
X66761904Y-23050057D02*
X66809523Y-23145295D01*
X66809523Y-23145295D02*
X66809523Y-23240533D01*
X66809523Y-23240533D02*
X66761904Y-23383390D01*
X66761904Y-23383390D02*
X66190476Y-23954819D01*
X66190476Y-23954819D02*
X66809523Y-23954819D01*
X15046666Y-65434819D02*
X15046666Y-66149104D01*
X15046666Y-66149104D02*
X14999047Y-66291961D01*
X14999047Y-66291961D02*
X14903809Y-66387200D01*
X14903809Y-66387200D02*
X14760952Y-66434819D01*
X14760952Y-66434819D02*
X14665714Y-66434819D01*
X15951428Y-65768152D02*
X15951428Y-66434819D01*
X15713333Y-65387200D02*
X15475238Y-66101485D01*
X15475238Y-66101485D02*
X16094285Y-66101485D01*
X98904761Y-51150057D02*
X98809523Y-51102438D01*
X98809523Y-51102438D02*
X98714285Y-51007200D01*
X98714285Y-51007200D02*
X98571428Y-50864342D01*
X98571428Y-50864342D02*
X98476190Y-50816723D01*
X98476190Y-50816723D02*
X98380952Y-50816723D01*
X98428571Y-51054819D02*
X98333333Y-51007200D01*
X98333333Y-51007200D02*
X98238095Y-50911961D01*
X98238095Y-50911961D02*
X98190476Y-50721485D01*
X98190476Y-50721485D02*
X98190476Y-50388152D01*
X98190476Y-50388152D02*
X98238095Y-50197676D01*
X98238095Y-50197676D02*
X98333333Y-50102438D01*
X98333333Y-50102438D02*
X98428571Y-50054819D01*
X98428571Y-50054819D02*
X98619047Y-50054819D01*
X98619047Y-50054819D02*
X98714285Y-50102438D01*
X98714285Y-50102438D02*
X98809523Y-50197676D01*
X98809523Y-50197676D02*
X98857142Y-50388152D01*
X98857142Y-50388152D02*
X98857142Y-50721485D01*
X98857142Y-50721485D02*
X98809523Y-50911961D01*
X98809523Y-50911961D02*
X98714285Y-51007200D01*
X98714285Y-51007200D02*
X98619047Y-51054819D01*
X98619047Y-51054819D02*
X98428571Y-51054819D01*
X99714285Y-50388152D02*
X99714285Y-51054819D01*
X99476190Y-50007200D02*
X99238095Y-50721485D01*
X99238095Y-50721485D02*
X99857142Y-50721485D01*
X19738095Y-1806819D02*
X20309523Y-1806819D01*
X20023809Y-2806819D02*
X20023809Y-1806819D01*
X20642857Y-2806819D02*
X20642857Y-1806819D01*
X20642857Y-1806819D02*
X21023809Y-1806819D01*
X21023809Y-1806819D02*
X21119047Y-1854438D01*
X21119047Y-1854438D02*
X21166666Y-1902057D01*
X21166666Y-1902057D02*
X21214285Y-1997295D01*
X21214285Y-1997295D02*
X21214285Y-2140152D01*
X21214285Y-2140152D02*
X21166666Y-2235390D01*
X21166666Y-2235390D02*
X21119047Y-2283009D01*
X21119047Y-2283009D02*
X21023809Y-2330628D01*
X21023809Y-2330628D02*
X20642857Y-2330628D01*
X22119047Y-1806819D02*
X21642857Y-1806819D01*
X21642857Y-1806819D02*
X21595238Y-2283009D01*
X21595238Y-2283009D02*
X21642857Y-2235390D01*
X21642857Y-2235390D02*
X21738095Y-2187771D01*
X21738095Y-2187771D02*
X21976190Y-2187771D01*
X21976190Y-2187771D02*
X22071428Y-2235390D01*
X22071428Y-2235390D02*
X22119047Y-2283009D01*
X22119047Y-2283009D02*
X22166666Y-2378247D01*
X22166666Y-2378247D02*
X22166666Y-2616342D01*
X22166666Y-2616342D02*
X22119047Y-2711580D01*
X22119047Y-2711580D02*
X22071428Y-2759200D01*
X22071428Y-2759200D02*
X21976190Y-2806819D01*
X21976190Y-2806819D02*
X21738095Y-2806819D01*
X21738095Y-2806819D02*
X21642857Y-2759200D01*
X21642857Y-2759200D02*
X21595238Y-2711580D01*
X69833333Y-18024819D02*
X69500000Y-17548628D01*
X69261905Y-18024819D02*
X69261905Y-17024819D01*
X69261905Y-17024819D02*
X69642857Y-17024819D01*
X69642857Y-17024819D02*
X69738095Y-17072438D01*
X69738095Y-17072438D02*
X69785714Y-17120057D01*
X69785714Y-17120057D02*
X69833333Y-17215295D01*
X69833333Y-17215295D02*
X69833333Y-17358152D01*
X69833333Y-17358152D02*
X69785714Y-17453390D01*
X69785714Y-17453390D02*
X69738095Y-17501009D01*
X69738095Y-17501009D02*
X69642857Y-17548628D01*
X69642857Y-17548628D02*
X69261905Y-17548628D01*
X70214286Y-17120057D02*
X70261905Y-17072438D01*
X70261905Y-17072438D02*
X70357143Y-17024819D01*
X70357143Y-17024819D02*
X70595238Y-17024819D01*
X70595238Y-17024819D02*
X70690476Y-17072438D01*
X70690476Y-17072438D02*
X70738095Y-17120057D01*
X70738095Y-17120057D02*
X70785714Y-17215295D01*
X70785714Y-17215295D02*
X70785714Y-17310533D01*
X70785714Y-17310533D02*
X70738095Y-17453390D01*
X70738095Y-17453390D02*
X70166667Y-18024819D01*
X70166667Y-18024819D02*
X70785714Y-18024819D01*
X89904761Y-11150057D02*
X89809523Y-11102438D01*
X89809523Y-11102438D02*
X89714285Y-11007200D01*
X89714285Y-11007200D02*
X89571428Y-10864342D01*
X89571428Y-10864342D02*
X89476190Y-10816723D01*
X89476190Y-10816723D02*
X89380952Y-10816723D01*
X89428571Y-11054819D02*
X89333333Y-11007200D01*
X89333333Y-11007200D02*
X89238095Y-10911961D01*
X89238095Y-10911961D02*
X89190476Y-10721485D01*
X89190476Y-10721485D02*
X89190476Y-10388152D01*
X89190476Y-10388152D02*
X89238095Y-10197676D01*
X89238095Y-10197676D02*
X89333333Y-10102438D01*
X89333333Y-10102438D02*
X89428571Y-10054819D01*
X89428571Y-10054819D02*
X89619047Y-10054819D01*
X89619047Y-10054819D02*
X89714285Y-10102438D01*
X89714285Y-10102438D02*
X89809523Y-10197676D01*
X89809523Y-10197676D02*
X89857142Y-10388152D01*
X89857142Y-10388152D02*
X89857142Y-10721485D01*
X89857142Y-10721485D02*
X89809523Y-10911961D01*
X89809523Y-10911961D02*
X89714285Y-11007200D01*
X89714285Y-11007200D02*
X89619047Y-11054819D01*
X89619047Y-11054819D02*
X89428571Y-11054819D01*
X90809523Y-11054819D02*
X90238095Y-11054819D01*
X90523809Y-11054819D02*
X90523809Y-10054819D01*
X90523809Y-10054819D02*
X90428571Y-10197676D01*
X90428571Y-10197676D02*
X90333333Y-10292914D01*
X90333333Y-10292914D02*
X90238095Y-10340533D01*
X79761905Y-48254819D02*
X79761905Y-47254819D01*
X80333333Y-48254819D02*
X79904762Y-47683390D01*
X80333333Y-47254819D02*
X79761905Y-47826247D01*
X81285714Y-48254819D02*
X80714286Y-48254819D01*
X81000000Y-48254819D02*
X81000000Y-47254819D01*
X81000000Y-47254819D02*
X80904762Y-47397676D01*
X80904762Y-47397676D02*
X80809524Y-47492914D01*
X80809524Y-47492914D02*
X80714286Y-47540533D01*
X3261905Y-52806819D02*
X3833333Y-52806819D01*
X3547619Y-53806819D02*
X3547619Y-52806819D01*
X4166667Y-53806819D02*
X4166667Y-52806819D01*
X4166667Y-52806819D02*
X4547619Y-52806819D01*
X4547619Y-52806819D02*
X4642857Y-52854438D01*
X4642857Y-52854438D02*
X4690476Y-52902057D01*
X4690476Y-52902057D02*
X4738095Y-52997295D01*
X4738095Y-52997295D02*
X4738095Y-53140152D01*
X4738095Y-53140152D02*
X4690476Y-53235390D01*
X4690476Y-53235390D02*
X4642857Y-53283009D01*
X4642857Y-53283009D02*
X4547619Y-53330628D01*
X4547619Y-53330628D02*
X4166667Y-53330628D01*
X5690476Y-53806819D02*
X5119048Y-53806819D01*
X5404762Y-53806819D02*
X5404762Y-52806819D01*
X5404762Y-52806819D02*
X5309524Y-52949676D01*
X5309524Y-52949676D02*
X5214286Y-53044914D01*
X5214286Y-53044914D02*
X5119048Y-53092533D01*
X6023810Y-52806819D02*
X6642857Y-52806819D01*
X6642857Y-52806819D02*
X6309524Y-53187771D01*
X6309524Y-53187771D02*
X6452381Y-53187771D01*
X6452381Y-53187771D02*
X6547619Y-53235390D01*
X6547619Y-53235390D02*
X6595238Y-53283009D01*
X6595238Y-53283009D02*
X6642857Y-53378247D01*
X6642857Y-53378247D02*
X6642857Y-53616342D01*
X6642857Y-53616342D02*
X6595238Y-53711580D01*
X6595238Y-53711580D02*
X6547619Y-53759200D01*
X6547619Y-53759200D02*
X6452381Y-53806819D01*
X6452381Y-53806819D02*
X6166667Y-53806819D01*
X6166667Y-53806819D02*
X6071429Y-53759200D01*
X6071429Y-53759200D02*
X6023810Y-53711580D01*
X11738095Y-1806819D02*
X12309523Y-1806819D01*
X12023809Y-2806819D02*
X12023809Y-1806819D01*
X12642857Y-2806819D02*
X12642857Y-1806819D01*
X12642857Y-1806819D02*
X13023809Y-1806819D01*
X13023809Y-1806819D02*
X13119047Y-1854438D01*
X13119047Y-1854438D02*
X13166666Y-1902057D01*
X13166666Y-1902057D02*
X13214285Y-1997295D01*
X13214285Y-1997295D02*
X13214285Y-2140152D01*
X13214285Y-2140152D02*
X13166666Y-2235390D01*
X13166666Y-2235390D02*
X13119047Y-2283009D01*
X13119047Y-2283009D02*
X13023809Y-2330628D01*
X13023809Y-2330628D02*
X12642857Y-2330628D01*
X13547619Y-1806819D02*
X14166666Y-1806819D01*
X14166666Y-1806819D02*
X13833333Y-2187771D01*
X13833333Y-2187771D02*
X13976190Y-2187771D01*
X13976190Y-2187771D02*
X14071428Y-2235390D01*
X14071428Y-2235390D02*
X14119047Y-2283009D01*
X14119047Y-2283009D02*
X14166666Y-2378247D01*
X14166666Y-2378247D02*
X14166666Y-2616342D01*
X14166666Y-2616342D02*
X14119047Y-2711580D01*
X14119047Y-2711580D02*
X14071428Y-2759200D01*
X14071428Y-2759200D02*
X13976190Y-2806819D01*
X13976190Y-2806819D02*
X13690476Y-2806819D01*
X13690476Y-2806819D02*
X13595238Y-2759200D01*
X13595238Y-2759200D02*
X13547619Y-2711580D01*
X71238095Y-7004819D02*
X71238095Y-7814342D01*
X71238095Y-7814342D02*
X71285714Y-7909580D01*
X71285714Y-7909580D02*
X71333333Y-7957200D01*
X71333333Y-7957200D02*
X71428571Y-8004819D01*
X71428571Y-8004819D02*
X71619047Y-8004819D01*
X71619047Y-8004819D02*
X71714285Y-7957200D01*
X71714285Y-7957200D02*
X71761904Y-7909580D01*
X71761904Y-7909580D02*
X71809523Y-7814342D01*
X71809523Y-7814342D02*
X71809523Y-7004819D01*
X72809523Y-8004819D02*
X72238095Y-8004819D01*
X72523809Y-8004819D02*
X72523809Y-7004819D01*
X72523809Y-7004819D02*
X72428571Y-7147676D01*
X72428571Y-7147676D02*
X72333333Y-7242914D01*
X72333333Y-7242914D02*
X72238095Y-7290533D01*
X103833333Y-59929580D02*
X103785714Y-59977200D01*
X103785714Y-59977200D02*
X103642857Y-60024819D01*
X103642857Y-60024819D02*
X103547619Y-60024819D01*
X103547619Y-60024819D02*
X103404762Y-59977200D01*
X103404762Y-59977200D02*
X103309524Y-59881961D01*
X103309524Y-59881961D02*
X103261905Y-59786723D01*
X103261905Y-59786723D02*
X103214286Y-59596247D01*
X103214286Y-59596247D02*
X103214286Y-59453390D01*
X103214286Y-59453390D02*
X103261905Y-59262914D01*
X103261905Y-59262914D02*
X103309524Y-59167676D01*
X103309524Y-59167676D02*
X103404762Y-59072438D01*
X103404762Y-59072438D02*
X103547619Y-59024819D01*
X103547619Y-59024819D02*
X103642857Y-59024819D01*
X103642857Y-59024819D02*
X103785714Y-59072438D01*
X103785714Y-59072438D02*
X103833333Y-59120057D01*
X104166667Y-59024819D02*
X104833333Y-59024819D01*
X104833333Y-59024819D02*
X104404762Y-60024819D01*
X42357142Y-51929580D02*
X42309523Y-51977200D01*
X42309523Y-51977200D02*
X42166666Y-52024819D01*
X42166666Y-52024819D02*
X42071428Y-52024819D01*
X42071428Y-52024819D02*
X41928571Y-51977200D01*
X41928571Y-51977200D02*
X41833333Y-51881961D01*
X41833333Y-51881961D02*
X41785714Y-51786723D01*
X41785714Y-51786723D02*
X41738095Y-51596247D01*
X41738095Y-51596247D02*
X41738095Y-51453390D01*
X41738095Y-51453390D02*
X41785714Y-51262914D01*
X41785714Y-51262914D02*
X41833333Y-51167676D01*
X41833333Y-51167676D02*
X41928571Y-51072438D01*
X41928571Y-51072438D02*
X42071428Y-51024819D01*
X42071428Y-51024819D02*
X42166666Y-51024819D01*
X42166666Y-51024819D02*
X42309523Y-51072438D01*
X42309523Y-51072438D02*
X42357142Y-51120057D01*
X42690476Y-51024819D02*
X43309523Y-51024819D01*
X43309523Y-51024819D02*
X42976190Y-51405771D01*
X42976190Y-51405771D02*
X43119047Y-51405771D01*
X43119047Y-51405771D02*
X43214285Y-51453390D01*
X43214285Y-51453390D02*
X43261904Y-51501009D01*
X43261904Y-51501009D02*
X43309523Y-51596247D01*
X43309523Y-51596247D02*
X43309523Y-51834342D01*
X43309523Y-51834342D02*
X43261904Y-51929580D01*
X43261904Y-51929580D02*
X43214285Y-51977200D01*
X43214285Y-51977200D02*
X43119047Y-52024819D01*
X43119047Y-52024819D02*
X42833333Y-52024819D01*
X42833333Y-52024819D02*
X42738095Y-51977200D01*
X42738095Y-51977200D02*
X42690476Y-51929580D01*
X43880952Y-51453390D02*
X43785714Y-51405771D01*
X43785714Y-51405771D02*
X43738095Y-51358152D01*
X43738095Y-51358152D02*
X43690476Y-51262914D01*
X43690476Y-51262914D02*
X43690476Y-51215295D01*
X43690476Y-51215295D02*
X43738095Y-51120057D01*
X43738095Y-51120057D02*
X43785714Y-51072438D01*
X43785714Y-51072438D02*
X43880952Y-51024819D01*
X43880952Y-51024819D02*
X44071428Y-51024819D01*
X44071428Y-51024819D02*
X44166666Y-51072438D01*
X44166666Y-51072438D02*
X44214285Y-51120057D01*
X44214285Y-51120057D02*
X44261904Y-51215295D01*
X44261904Y-51215295D02*
X44261904Y-51262914D01*
X44261904Y-51262914D02*
X44214285Y-51358152D01*
X44214285Y-51358152D02*
X44166666Y-51405771D01*
X44166666Y-51405771D02*
X44071428Y-51453390D01*
X44071428Y-51453390D02*
X43880952Y-51453390D01*
X43880952Y-51453390D02*
X43785714Y-51501009D01*
X43785714Y-51501009D02*
X43738095Y-51548628D01*
X43738095Y-51548628D02*
X43690476Y-51643866D01*
X43690476Y-51643866D02*
X43690476Y-51834342D01*
X43690476Y-51834342D02*
X43738095Y-51929580D01*
X43738095Y-51929580D02*
X43785714Y-51977200D01*
X43785714Y-51977200D02*
X43880952Y-52024819D01*
X43880952Y-52024819D02*
X44071428Y-52024819D01*
X44071428Y-52024819D02*
X44166666Y-51977200D01*
X44166666Y-51977200D02*
X44214285Y-51929580D01*
X44214285Y-51929580D02*
X44261904Y-51834342D01*
X44261904Y-51834342D02*
X44261904Y-51643866D01*
X44261904Y-51643866D02*
X44214285Y-51548628D01*
X44214285Y-51548628D02*
X44166666Y-51501009D01*
X44166666Y-51501009D02*
X44071428Y-51453390D01*
X77833333Y-19024819D02*
X77500000Y-18548628D01*
X77261905Y-19024819D02*
X77261905Y-18024819D01*
X77261905Y-18024819D02*
X77642857Y-18024819D01*
X77642857Y-18024819D02*
X77738095Y-18072438D01*
X77738095Y-18072438D02*
X77785714Y-18120057D01*
X77785714Y-18120057D02*
X77833333Y-18215295D01*
X77833333Y-18215295D02*
X77833333Y-18358152D01*
X77833333Y-18358152D02*
X77785714Y-18453390D01*
X77785714Y-18453390D02*
X77738095Y-18501009D01*
X77738095Y-18501009D02*
X77642857Y-18548628D01*
X77642857Y-18548628D02*
X77261905Y-18548628D01*
X78166667Y-18024819D02*
X78785714Y-18024819D01*
X78785714Y-18024819D02*
X78452381Y-18405771D01*
X78452381Y-18405771D02*
X78595238Y-18405771D01*
X78595238Y-18405771D02*
X78690476Y-18453390D01*
X78690476Y-18453390D02*
X78738095Y-18501009D01*
X78738095Y-18501009D02*
X78785714Y-18596247D01*
X78785714Y-18596247D02*
X78785714Y-18834342D01*
X78785714Y-18834342D02*
X78738095Y-18929580D01*
X78738095Y-18929580D02*
X78690476Y-18977200D01*
X78690476Y-18977200D02*
X78595238Y-19024819D01*
X78595238Y-19024819D02*
X78309524Y-19024819D01*
X78309524Y-19024819D02*
X78214286Y-18977200D01*
X78214286Y-18977200D02*
X78166667Y-18929580D01*
X88238095Y-22054819D02*
X88238095Y-22864342D01*
X88238095Y-22864342D02*
X88285714Y-22959580D01*
X88285714Y-22959580D02*
X88333333Y-23007200D01*
X88333333Y-23007200D02*
X88428571Y-23054819D01*
X88428571Y-23054819D02*
X88619047Y-23054819D01*
X88619047Y-23054819D02*
X88714285Y-23007200D01*
X88714285Y-23007200D02*
X88761904Y-22959580D01*
X88761904Y-22959580D02*
X88809523Y-22864342D01*
X88809523Y-22864342D02*
X88809523Y-22054819D01*
X89714285Y-22388152D02*
X89714285Y-23054819D01*
X89476190Y-22007200D02*
X89238095Y-22721485D01*
X89238095Y-22721485D02*
X89857142Y-22721485D01*
X7738095Y-1806819D02*
X8309523Y-1806819D01*
X8023809Y-2806819D02*
X8023809Y-1806819D01*
X8642857Y-2806819D02*
X8642857Y-1806819D01*
X8642857Y-1806819D02*
X9023809Y-1806819D01*
X9023809Y-1806819D02*
X9119047Y-1854438D01*
X9119047Y-1854438D02*
X9166666Y-1902057D01*
X9166666Y-1902057D02*
X9214285Y-1997295D01*
X9214285Y-1997295D02*
X9214285Y-2140152D01*
X9214285Y-2140152D02*
X9166666Y-2235390D01*
X9166666Y-2235390D02*
X9119047Y-2283009D01*
X9119047Y-2283009D02*
X9023809Y-2330628D01*
X9023809Y-2330628D02*
X8642857Y-2330628D01*
X9595238Y-1902057D02*
X9642857Y-1854438D01*
X9642857Y-1854438D02*
X9738095Y-1806819D01*
X9738095Y-1806819D02*
X9976190Y-1806819D01*
X9976190Y-1806819D02*
X10071428Y-1854438D01*
X10071428Y-1854438D02*
X10119047Y-1902057D01*
X10119047Y-1902057D02*
X10166666Y-1997295D01*
X10166666Y-1997295D02*
X10166666Y-2092533D01*
X10166666Y-2092533D02*
X10119047Y-2235390D01*
X10119047Y-2235390D02*
X9547619Y-2806819D01*
X9547619Y-2806819D02*
X10166666Y-2806819D01*
X95357142Y-41024819D02*
X95023809Y-40548628D01*
X94785714Y-41024819D02*
X94785714Y-40024819D01*
X94785714Y-40024819D02*
X95166666Y-40024819D01*
X95166666Y-40024819D02*
X95261904Y-40072438D01*
X95261904Y-40072438D02*
X95309523Y-40120057D01*
X95309523Y-40120057D02*
X95357142Y-40215295D01*
X95357142Y-40215295D02*
X95357142Y-40358152D01*
X95357142Y-40358152D02*
X95309523Y-40453390D01*
X95309523Y-40453390D02*
X95261904Y-40501009D01*
X95261904Y-40501009D02*
X95166666Y-40548628D01*
X95166666Y-40548628D02*
X94785714Y-40548628D01*
X96309523Y-41024819D02*
X95738095Y-41024819D01*
X96023809Y-41024819D02*
X96023809Y-40024819D01*
X96023809Y-40024819D02*
X95928571Y-40167676D01*
X95928571Y-40167676D02*
X95833333Y-40262914D01*
X95833333Y-40262914D02*
X95738095Y-40310533D01*
X97261904Y-41024819D02*
X96690476Y-41024819D01*
X96976190Y-41024819D02*
X96976190Y-40024819D01*
X96976190Y-40024819D02*
X96880952Y-40167676D01*
X96880952Y-40167676D02*
X96785714Y-40262914D01*
X96785714Y-40262914D02*
X96690476Y-40310533D01*
X15261905Y-52806819D02*
X15833333Y-52806819D01*
X15547619Y-53806819D02*
X15547619Y-52806819D01*
X16166667Y-53806819D02*
X16166667Y-52806819D01*
X16166667Y-52806819D02*
X16547619Y-52806819D01*
X16547619Y-52806819D02*
X16642857Y-52854438D01*
X16642857Y-52854438D02*
X16690476Y-52902057D01*
X16690476Y-52902057D02*
X16738095Y-52997295D01*
X16738095Y-52997295D02*
X16738095Y-53140152D01*
X16738095Y-53140152D02*
X16690476Y-53235390D01*
X16690476Y-53235390D02*
X16642857Y-53283009D01*
X16642857Y-53283009D02*
X16547619Y-53330628D01*
X16547619Y-53330628D02*
X16166667Y-53330628D01*
X17690476Y-53806819D02*
X17119048Y-53806819D01*
X17404762Y-53806819D02*
X17404762Y-52806819D01*
X17404762Y-52806819D02*
X17309524Y-52949676D01*
X17309524Y-52949676D02*
X17214286Y-53044914D01*
X17214286Y-53044914D02*
X17119048Y-53092533D01*
X18547619Y-52806819D02*
X18357143Y-52806819D01*
X18357143Y-52806819D02*
X18261905Y-52854438D01*
X18261905Y-52854438D02*
X18214286Y-52902057D01*
X18214286Y-52902057D02*
X18119048Y-53044914D01*
X18119048Y-53044914D02*
X18071429Y-53235390D01*
X18071429Y-53235390D02*
X18071429Y-53616342D01*
X18071429Y-53616342D02*
X18119048Y-53711580D01*
X18119048Y-53711580D02*
X18166667Y-53759200D01*
X18166667Y-53759200D02*
X18261905Y-53806819D01*
X18261905Y-53806819D02*
X18452381Y-53806819D01*
X18452381Y-53806819D02*
X18547619Y-53759200D01*
X18547619Y-53759200D02*
X18595238Y-53711580D01*
X18595238Y-53711580D02*
X18642857Y-53616342D01*
X18642857Y-53616342D02*
X18642857Y-53378247D01*
X18642857Y-53378247D02*
X18595238Y-53283009D01*
X18595238Y-53283009D02*
X18547619Y-53235390D01*
X18547619Y-53235390D02*
X18452381Y-53187771D01*
X18452381Y-53187771D02*
X18261905Y-53187771D01*
X18261905Y-53187771D02*
X18166667Y-53235390D01*
X18166667Y-53235390D02*
X18119048Y-53283009D01*
X18119048Y-53283009D02*
X18071429Y-53378247D01*
X3738095Y-1806819D02*
X4309523Y-1806819D01*
X4023809Y-2806819D02*
X4023809Y-1806819D01*
X4642857Y-2806819D02*
X4642857Y-1806819D01*
X4642857Y-1806819D02*
X5023809Y-1806819D01*
X5023809Y-1806819D02*
X5119047Y-1854438D01*
X5119047Y-1854438D02*
X5166666Y-1902057D01*
X5166666Y-1902057D02*
X5214285Y-1997295D01*
X5214285Y-1997295D02*
X5214285Y-2140152D01*
X5214285Y-2140152D02*
X5166666Y-2235390D01*
X5166666Y-2235390D02*
X5119047Y-2283009D01*
X5119047Y-2283009D02*
X5023809Y-2330628D01*
X5023809Y-2330628D02*
X4642857Y-2330628D01*
X6166666Y-2806819D02*
X5595238Y-2806819D01*
X5880952Y-2806819D02*
X5880952Y-1806819D01*
X5880952Y-1806819D02*
X5785714Y-1949676D01*
X5785714Y-1949676D02*
X5690476Y-2044914D01*
X5690476Y-2044914D02*
X5595238Y-2092533D01*
X91833333Y-34059580D02*
X91785714Y-34107200D01*
X91785714Y-34107200D02*
X91642857Y-34154819D01*
X91642857Y-34154819D02*
X91547619Y-34154819D01*
X91547619Y-34154819D02*
X91404762Y-34107200D01*
X91404762Y-34107200D02*
X91309524Y-34011961D01*
X91309524Y-34011961D02*
X91261905Y-33916723D01*
X91261905Y-33916723D02*
X91214286Y-33726247D01*
X91214286Y-33726247D02*
X91214286Y-33583390D01*
X91214286Y-33583390D02*
X91261905Y-33392914D01*
X91261905Y-33392914D02*
X91309524Y-33297676D01*
X91309524Y-33297676D02*
X91404762Y-33202438D01*
X91404762Y-33202438D02*
X91547619Y-33154819D01*
X91547619Y-33154819D02*
X91642857Y-33154819D01*
X91642857Y-33154819D02*
X91785714Y-33202438D01*
X91785714Y-33202438D02*
X91833333Y-33250057D01*
X92738095Y-33154819D02*
X92261905Y-33154819D01*
X92261905Y-33154819D02*
X92214286Y-33631009D01*
X92214286Y-33631009D02*
X92261905Y-33583390D01*
X92261905Y-33583390D02*
X92357143Y-33535771D01*
X92357143Y-33535771D02*
X92595238Y-33535771D01*
X92595238Y-33535771D02*
X92690476Y-33583390D01*
X92690476Y-33583390D02*
X92738095Y-33631009D01*
X92738095Y-33631009D02*
X92785714Y-33726247D01*
X92785714Y-33726247D02*
X92785714Y-33964342D01*
X92785714Y-33964342D02*
X92738095Y-34059580D01*
X92738095Y-34059580D02*
X92690476Y-34107200D01*
X92690476Y-34107200D02*
X92595238Y-34154819D01*
X92595238Y-34154819D02*
X92357143Y-34154819D01*
X92357143Y-34154819D02*
X92261905Y-34107200D01*
X92261905Y-34107200D02*
X92214286Y-34059580D01*
X87833333Y-41024819D02*
X87500000Y-40548628D01*
X87261905Y-41024819D02*
X87261905Y-40024819D01*
X87261905Y-40024819D02*
X87642857Y-40024819D01*
X87642857Y-40024819D02*
X87738095Y-40072438D01*
X87738095Y-40072438D02*
X87785714Y-40120057D01*
X87785714Y-40120057D02*
X87833333Y-40215295D01*
X87833333Y-40215295D02*
X87833333Y-40358152D01*
X87833333Y-40358152D02*
X87785714Y-40453390D01*
X87785714Y-40453390D02*
X87738095Y-40501009D01*
X87738095Y-40501009D02*
X87642857Y-40548628D01*
X87642857Y-40548628D02*
X87261905Y-40548628D01*
X88309524Y-41024819D02*
X88500000Y-41024819D01*
X88500000Y-41024819D02*
X88595238Y-40977200D01*
X88595238Y-40977200D02*
X88642857Y-40929580D01*
X88642857Y-40929580D02*
X88738095Y-40786723D01*
X88738095Y-40786723D02*
X88785714Y-40596247D01*
X88785714Y-40596247D02*
X88785714Y-40215295D01*
X88785714Y-40215295D02*
X88738095Y-40120057D01*
X88738095Y-40120057D02*
X88690476Y-40072438D01*
X88690476Y-40072438D02*
X88595238Y-40024819D01*
X88595238Y-40024819D02*
X88404762Y-40024819D01*
X88404762Y-40024819D02*
X88309524Y-40072438D01*
X88309524Y-40072438D02*
X88261905Y-40120057D01*
X88261905Y-40120057D02*
X88214286Y-40215295D01*
X88214286Y-40215295D02*
X88214286Y-40453390D01*
X88214286Y-40453390D02*
X88261905Y-40548628D01*
X88261905Y-40548628D02*
X88309524Y-40596247D01*
X88309524Y-40596247D02*
X88404762Y-40643866D01*
X88404762Y-40643866D02*
X88595238Y-40643866D01*
X88595238Y-40643866D02*
X88690476Y-40596247D01*
X88690476Y-40596247D02*
X88738095Y-40548628D01*
X88738095Y-40548628D02*
X88785714Y-40453390D01*
X17357142Y-37024819D02*
X17023809Y-36548628D01*
X16785714Y-37024819D02*
X16785714Y-36024819D01*
X16785714Y-36024819D02*
X17166666Y-36024819D01*
X17166666Y-36024819D02*
X17261904Y-36072438D01*
X17261904Y-36072438D02*
X17309523Y-36120057D01*
X17309523Y-36120057D02*
X17357142Y-36215295D01*
X17357142Y-36215295D02*
X17357142Y-36358152D01*
X17357142Y-36358152D02*
X17309523Y-36453390D01*
X17309523Y-36453390D02*
X17261904Y-36501009D01*
X17261904Y-36501009D02*
X17166666Y-36548628D01*
X17166666Y-36548628D02*
X16785714Y-36548628D01*
X18309523Y-37024819D02*
X17738095Y-37024819D01*
X18023809Y-37024819D02*
X18023809Y-36024819D01*
X18023809Y-36024819D02*
X17928571Y-36167676D01*
X17928571Y-36167676D02*
X17833333Y-36262914D01*
X17833333Y-36262914D02*
X17738095Y-36310533D01*
X19166666Y-36358152D02*
X19166666Y-37024819D01*
X18928571Y-35977200D02*
X18690476Y-36691485D01*
X18690476Y-36691485D02*
X19309523Y-36691485D01*
X61833333Y-18929580D02*
X61785714Y-18977200D01*
X61785714Y-18977200D02*
X61642857Y-19024819D01*
X61642857Y-19024819D02*
X61547619Y-19024819D01*
X61547619Y-19024819D02*
X61404762Y-18977200D01*
X61404762Y-18977200D02*
X61309524Y-18881961D01*
X61309524Y-18881961D02*
X61261905Y-18786723D01*
X61261905Y-18786723D02*
X61214286Y-18596247D01*
X61214286Y-18596247D02*
X61214286Y-18453390D01*
X61214286Y-18453390D02*
X61261905Y-18262914D01*
X61261905Y-18262914D02*
X61309524Y-18167676D01*
X61309524Y-18167676D02*
X61404762Y-18072438D01*
X61404762Y-18072438D02*
X61547619Y-18024819D01*
X61547619Y-18024819D02*
X61642857Y-18024819D01*
X61642857Y-18024819D02*
X61785714Y-18072438D01*
X61785714Y-18072438D02*
X61833333Y-18120057D01*
X62166667Y-18024819D02*
X62785714Y-18024819D01*
X62785714Y-18024819D02*
X62452381Y-18405771D01*
X62452381Y-18405771D02*
X62595238Y-18405771D01*
X62595238Y-18405771D02*
X62690476Y-18453390D01*
X62690476Y-18453390D02*
X62738095Y-18501009D01*
X62738095Y-18501009D02*
X62785714Y-18596247D01*
X62785714Y-18596247D02*
X62785714Y-18834342D01*
X62785714Y-18834342D02*
X62738095Y-18929580D01*
X62738095Y-18929580D02*
X62690476Y-18977200D01*
X62690476Y-18977200D02*
X62595238Y-19024819D01*
X62595238Y-19024819D02*
X62309524Y-19024819D01*
X62309524Y-19024819D02*
X62214286Y-18977200D01*
X62214286Y-18977200D02*
X62166667Y-18929580D01*
X31738095Y-1806819D02*
X32309523Y-1806819D01*
X32023809Y-2806819D02*
X32023809Y-1806819D01*
X32642857Y-2806819D02*
X32642857Y-1806819D01*
X32642857Y-1806819D02*
X33023809Y-1806819D01*
X33023809Y-1806819D02*
X33119047Y-1854438D01*
X33119047Y-1854438D02*
X33166666Y-1902057D01*
X33166666Y-1902057D02*
X33214285Y-1997295D01*
X33214285Y-1997295D02*
X33214285Y-2140152D01*
X33214285Y-2140152D02*
X33166666Y-2235390D01*
X33166666Y-2235390D02*
X33119047Y-2283009D01*
X33119047Y-2283009D02*
X33023809Y-2330628D01*
X33023809Y-2330628D02*
X32642857Y-2330628D01*
X33785714Y-2235390D02*
X33690476Y-2187771D01*
X33690476Y-2187771D02*
X33642857Y-2140152D01*
X33642857Y-2140152D02*
X33595238Y-2044914D01*
X33595238Y-2044914D02*
X33595238Y-1997295D01*
X33595238Y-1997295D02*
X33642857Y-1902057D01*
X33642857Y-1902057D02*
X33690476Y-1854438D01*
X33690476Y-1854438D02*
X33785714Y-1806819D01*
X33785714Y-1806819D02*
X33976190Y-1806819D01*
X33976190Y-1806819D02*
X34071428Y-1854438D01*
X34071428Y-1854438D02*
X34119047Y-1902057D01*
X34119047Y-1902057D02*
X34166666Y-1997295D01*
X34166666Y-1997295D02*
X34166666Y-2044914D01*
X34166666Y-2044914D02*
X34119047Y-2140152D01*
X34119047Y-2140152D02*
X34071428Y-2187771D01*
X34071428Y-2187771D02*
X33976190Y-2235390D01*
X33976190Y-2235390D02*
X33785714Y-2235390D01*
X33785714Y-2235390D02*
X33690476Y-2283009D01*
X33690476Y-2283009D02*
X33642857Y-2330628D01*
X33642857Y-2330628D02*
X33595238Y-2425866D01*
X33595238Y-2425866D02*
X33595238Y-2616342D01*
X33595238Y-2616342D02*
X33642857Y-2711580D01*
X33642857Y-2711580D02*
X33690476Y-2759200D01*
X33690476Y-2759200D02*
X33785714Y-2806819D01*
X33785714Y-2806819D02*
X33976190Y-2806819D01*
X33976190Y-2806819D02*
X34071428Y-2759200D01*
X34071428Y-2759200D02*
X34119047Y-2711580D01*
X34119047Y-2711580D02*
X34166666Y-2616342D01*
X34166666Y-2616342D02*
X34166666Y-2425866D01*
X34166666Y-2425866D02*
X34119047Y-2330628D01*
X34119047Y-2330628D02*
X34071428Y-2283009D01*
X34071428Y-2283009D02*
X33976190Y-2235390D01*
X49357142Y-56024819D02*
X49023809Y-55548628D01*
X48785714Y-56024819D02*
X48785714Y-55024819D01*
X48785714Y-55024819D02*
X49166666Y-55024819D01*
X49166666Y-55024819D02*
X49261904Y-55072438D01*
X49261904Y-55072438D02*
X49309523Y-55120057D01*
X49309523Y-55120057D02*
X49357142Y-55215295D01*
X49357142Y-55215295D02*
X49357142Y-55358152D01*
X49357142Y-55358152D02*
X49309523Y-55453390D01*
X49309523Y-55453390D02*
X49261904Y-55501009D01*
X49261904Y-55501009D02*
X49166666Y-55548628D01*
X49166666Y-55548628D02*
X48785714Y-55548628D01*
X50309523Y-56024819D02*
X49738095Y-56024819D01*
X50023809Y-56024819D02*
X50023809Y-55024819D01*
X50023809Y-55024819D02*
X49928571Y-55167676D01*
X49928571Y-55167676D02*
X49833333Y-55262914D01*
X49833333Y-55262914D02*
X49738095Y-55310533D01*
X50642857Y-55024819D02*
X51309523Y-55024819D01*
X51309523Y-55024819D02*
X50880952Y-56024819D01*
X109833333Y-59929580D02*
X109785714Y-59977200D01*
X109785714Y-59977200D02*
X109642857Y-60024819D01*
X109642857Y-60024819D02*
X109547619Y-60024819D01*
X109547619Y-60024819D02*
X109404762Y-59977200D01*
X109404762Y-59977200D02*
X109309524Y-59881961D01*
X109309524Y-59881961D02*
X109261905Y-59786723D01*
X109261905Y-59786723D02*
X109214286Y-59596247D01*
X109214286Y-59596247D02*
X109214286Y-59453390D01*
X109214286Y-59453390D02*
X109261905Y-59262914D01*
X109261905Y-59262914D02*
X109309524Y-59167676D01*
X109309524Y-59167676D02*
X109404762Y-59072438D01*
X109404762Y-59072438D02*
X109547619Y-59024819D01*
X109547619Y-59024819D02*
X109642857Y-59024819D01*
X109642857Y-59024819D02*
X109785714Y-59072438D01*
X109785714Y-59072438D02*
X109833333Y-59120057D01*
X110404762Y-59453390D02*
X110309524Y-59405771D01*
X110309524Y-59405771D02*
X110261905Y-59358152D01*
X110261905Y-59358152D02*
X110214286Y-59262914D01*
X110214286Y-59262914D02*
X110214286Y-59215295D01*
X110214286Y-59215295D02*
X110261905Y-59120057D01*
X110261905Y-59120057D02*
X110309524Y-59072438D01*
X110309524Y-59072438D02*
X110404762Y-59024819D01*
X110404762Y-59024819D02*
X110595238Y-59024819D01*
X110595238Y-59024819D02*
X110690476Y-59072438D01*
X110690476Y-59072438D02*
X110738095Y-59120057D01*
X110738095Y-59120057D02*
X110785714Y-59215295D01*
X110785714Y-59215295D02*
X110785714Y-59262914D01*
X110785714Y-59262914D02*
X110738095Y-59358152D01*
X110738095Y-59358152D02*
X110690476Y-59405771D01*
X110690476Y-59405771D02*
X110595238Y-59453390D01*
X110595238Y-59453390D02*
X110404762Y-59453390D01*
X110404762Y-59453390D02*
X110309524Y-59501009D01*
X110309524Y-59501009D02*
X110261905Y-59548628D01*
X110261905Y-59548628D02*
X110214286Y-59643866D01*
X110214286Y-59643866D02*
X110214286Y-59834342D01*
X110214286Y-59834342D02*
X110261905Y-59929580D01*
X110261905Y-59929580D02*
X110309524Y-59977200D01*
X110309524Y-59977200D02*
X110404762Y-60024819D01*
X110404762Y-60024819D02*
X110595238Y-60024819D01*
X110595238Y-60024819D02*
X110690476Y-59977200D01*
X110690476Y-59977200D02*
X110738095Y-59929580D01*
X110738095Y-59929580D02*
X110785714Y-59834342D01*
X110785714Y-59834342D02*
X110785714Y-59643866D01*
X110785714Y-59643866D02*
X110738095Y-59548628D01*
X110738095Y-59548628D02*
X110690476Y-59501009D01*
X110690476Y-59501009D02*
X110595238Y-59453390D01*
D11*
%TO.C,C4*%
X57288748Y-24640000D02*
X58711252Y-24640000D01*
X57288748Y-27360000D02*
X58711252Y-27360000D01*
%TO.C,R4*%
X16762742Y-13477500D02*
X17237258Y-13477500D01*
X16762742Y-14522500D02*
X17237258Y-14522500D01*
%TO.C,R8*%
X83762742Y-41477500D02*
X84237258Y-41477500D01*
X83762742Y-42522500D02*
X84237258Y-42522500D01*
%TO.C,R10*%
X91762742Y-41477500D02*
X92237258Y-41477500D01*
X91762742Y-42522500D02*
X92237258Y-42522500D01*
%TO.C,J5*%
X29340000Y-66980000D02*
X40340000Y-66980000D01*
X29340000Y-68600000D02*
X40340000Y-68600000D01*
X29340000Y-76350000D02*
X40340000Y-76350000D01*
X29340000Y-77470000D02*
X29340000Y-66980000D01*
X31700000Y-77470000D02*
X29340000Y-77470000D01*
X40340000Y-66980000D02*
X40340000Y-77470000D01*
X40340000Y-77470000D02*
X32300000Y-77470000D01*
X32440000Y-78080000D02*
X31560000Y-78080000D01*
X32000000Y-77470000D01*
X32440000Y-78080000D01*
G36*
X32440000Y-78080000D02*
G01*
X31560000Y-78080000D01*
X32000000Y-77470000D01*
X32440000Y-78080000D01*
G37*
%TO.C,R19*%
X49762742Y-64477500D02*
X50237258Y-64477500D01*
X49762742Y-65522500D02*
X50237258Y-65522500D01*
%TO.C,JP1*%
X57600000Y-37000000D02*
X60400000Y-37000000D01*
X57600000Y-39000000D02*
X57600000Y-37000000D01*
X60400000Y-37000000D02*
X60400000Y-39000000D01*
X60400000Y-39000000D02*
X57600000Y-39000000D01*
%TO.C,TP4*%
X17950000Y-4000000D02*
G75*
G02*
X16050000Y-4000000I-950000J0D01*
G01*
X16050000Y-4000000D02*
G75*
G02*
X17950000Y-4000000I950000J0D01*
G01*
%TO.C,D2*%
X100490000Y-64350000D02*
X100490000Y-67650000D01*
X100490000Y-64350000D02*
X106000000Y-64350000D01*
X100490000Y-67650000D02*
X106000000Y-67650000D01*
%TO.C,R16*%
X49762742Y-52477500D02*
X50237258Y-52477500D01*
X49762742Y-53522500D02*
X50237258Y-53522500D01*
%TO.C,R5*%
X20762742Y-13477500D02*
X21237258Y-13477500D01*
X20762742Y-14522500D02*
X21237258Y-14522500D01*
%TO.C,R18*%
X49762742Y-60477500D02*
X50237258Y-60477500D01*
X49762742Y-61522500D02*
X50237258Y-61522500D01*
%TO.C,D1*%
X93240000Y-18440000D02*
X94760000Y-18440000D01*
X93240000Y-18490000D02*
X93240000Y-18440000D01*
X93240000Y-20390000D02*
X93240000Y-19610000D01*
X93240000Y-21560000D02*
X93240000Y-21510000D01*
X94760000Y-18440000D02*
X94760000Y-19440000D01*
X94760000Y-20560000D02*
X94760000Y-21560000D01*
X94760000Y-21560000D02*
X93240000Y-21560000D01*
X92940000Y-19950000D02*
X92460000Y-19950000D01*
X92700000Y-19620000D01*
X92940000Y-19950000D01*
G36*
X92940000Y-19950000D02*
G01*
X92460000Y-19950000D01*
X92700000Y-19620000D01*
X92940000Y-19950000D01*
G37*
%TO.C,R6*%
X24762742Y-13477500D02*
X25237258Y-13477500D01*
X24762742Y-14522500D02*
X25237258Y-14522500D01*
%TO.C,TP11*%
X45950000Y-4000000D02*
G75*
G02*
X44050000Y-4000000I-950000J0D01*
G01*
X44050000Y-4000000D02*
G75*
G02*
X45950000Y-4000000I950000J0D01*
G01*
%TO.C,TP14*%
X9950000Y-55000000D02*
G75*
G02*
X8050000Y-55000000I-950000J0D01*
G01*
X8050000Y-55000000D02*
G75*
G02*
X9950000Y-55000000I950000J0D01*
G01*
%TO.C,TP15*%
X13950000Y-55000000D02*
G75*
G02*
X12050000Y-55000000I-950000J0D01*
G01*
X12050000Y-55000000D02*
G75*
G02*
X13950000Y-55000000I950000J0D01*
G01*
%TO.C,C6*%
X93859420Y-30490000D02*
X94140580Y-30490000D01*
X93859420Y-31510000D02*
X94140580Y-31510000D01*
%TO.C,J2*%
X4940000Y-24440000D02*
X4940000Y-48560000D01*
X4940000Y-24440000D02*
X7000000Y-24440000D01*
X4940000Y-48560000D02*
X9060000Y-48560000D01*
X7000000Y-24440000D02*
X7000000Y-26500000D01*
X7000000Y-26500000D02*
X9060000Y-26500000D01*
X8000000Y-24440000D02*
X9060000Y-24440000D01*
X9060000Y-24440000D02*
X9060000Y-25500000D01*
X9060000Y-26500000D02*
X9060000Y-48560000D01*
%TO.C,Q2*%
X93940000Y-3440000D02*
X98060000Y-3440000D01*
X93940000Y-3535000D02*
X93940000Y-3440000D01*
X93940000Y-8560000D02*
X93940000Y-8465000D01*
X98060000Y-3440000D02*
X98060000Y-3535000D01*
X98060000Y-8465000D02*
X98060000Y-8560000D01*
X98060000Y-8560000D02*
X93940000Y-8560000D01*
X93400000Y-3530000D02*
X93160000Y-3200000D01*
X93640000Y-3200000D01*
X93400000Y-3530000D01*
G36*
X93400000Y-3530000D02*
G01*
X93160000Y-3200000D01*
X93640000Y-3200000D01*
X93400000Y-3530000D01*
G37*
%TO.C,TP6*%
X25950000Y-4000000D02*
G75*
G02*
X24050000Y-4000000I-950000J0D01*
G01*
X24050000Y-4000000D02*
G75*
G02*
X25950000Y-4000000I950000J0D01*
G01*
%TO.C,F1*%
X55397936Y-9090000D02*
X56602064Y-9090000D01*
X55397936Y-10910000D02*
X56602064Y-10910000D01*
%TO.C,TP9*%
X37950000Y-4000000D02*
G75*
G02*
X36050000Y-4000000I-950000J0D01*
G01*
X36050000Y-4000000D02*
G75*
G02*
X37950000Y-4000000I950000J0D01*
G01*
%TO.C,R15*%
X23762742Y-37477500D02*
X24237258Y-37477500D01*
X23762742Y-38522500D02*
X24237258Y-38522500D01*
%TO.C,R12*%
X49762742Y-44477500D02*
X50237258Y-44477500D01*
X49762742Y-45522500D02*
X50237258Y-45522500D01*
%TO.C,TP7*%
X29950000Y-4000000D02*
G75*
G02*
X28050000Y-4000000I-950000J0D01*
G01*
X28050000Y-4000000D02*
G75*
G02*
X29950000Y-4000000I950000J0D01*
G01*
%TO.C,C36*%
X42859420Y-44490000D02*
X43140580Y-44490000D01*
X42859420Y-45510000D02*
X43140580Y-45510000D01*
%TO.C,D4*%
X48340000Y-18850000D02*
X48340000Y-23150000D01*
X48340000Y-18850000D02*
X54150000Y-18850000D01*
X48340000Y-23150000D02*
X54150000Y-23150000D01*
%TO.C,J3*%
X100980000Y-27500000D02*
X111470000Y-27500000D01*
X100980000Y-48660000D02*
X100980000Y-27500000D01*
X102600000Y-48660000D02*
X102600000Y-27500000D01*
X110350000Y-48660000D02*
X110350000Y-27500000D01*
X111470000Y-27500000D02*
X111470000Y-45700000D01*
X111470000Y-46300000D02*
X111470000Y-48660000D01*
X111470000Y-48660000D02*
X100980000Y-48660000D01*
X112080000Y-46440000D02*
X111470000Y-46000000D01*
X112080000Y-45560000D01*
X112080000Y-46440000D01*
G36*
X112080000Y-46440000D02*
G01*
X111470000Y-46000000D01*
X112080000Y-45560000D01*
X112080000Y-46440000D01*
G37*
%TO.C,U6*%
X54140000Y-41115000D02*
X61860000Y-41115000D01*
X54140000Y-41360000D02*
X54140000Y-41115000D01*
X54140000Y-52885000D02*
X54140000Y-52640000D01*
X61860000Y-41115000D02*
X61860000Y-41360000D01*
X61860000Y-52640000D02*
X61860000Y-52885000D01*
X61860000Y-52885000D02*
X54140000Y-52885000D01*
X53350000Y-41360000D02*
X53010000Y-40890000D01*
X53690000Y-40890000D01*
X53350000Y-41360000D01*
G36*
X53350000Y-41360000D02*
G01*
X53010000Y-40890000D01*
X53690000Y-40890000D01*
X53350000Y-41360000D01*
G37*
%TO.C,R1*%
X63762742Y-17477500D02*
X64237258Y-17477500D01*
X63762742Y-18522500D02*
X64237258Y-18522500D01*
%TO.C,C2*%
X81738748Y-13265000D02*
X82261252Y-13265000D01*
X81738748Y-14735000D02*
X82261252Y-14735000D01*
%TO.C,U5*%
X21090000Y-8440000D02*
X22910000Y-8440000D01*
X21090000Y-8490000D02*
X21090000Y-8440000D01*
X21090000Y-11560000D02*
X21090000Y-11510000D01*
X22910000Y-8440000D02*
X22910000Y-8490000D01*
X22910000Y-9610000D02*
X22910000Y-10390000D01*
X22910000Y-11510000D02*
X22910000Y-11560000D01*
X22910000Y-11560000D02*
X21090000Y-11560000D01*
X20550000Y-8490000D02*
X20310000Y-8160000D01*
X20790000Y-8160000D01*
X20550000Y-8490000D01*
G36*
X20550000Y-8490000D02*
G01*
X20310000Y-8160000D01*
X20790000Y-8160000D01*
X20550000Y-8490000D01*
G37*
%TO.C,L1*%
X74690000Y-25640000D02*
X74690000Y-27140000D01*
X74690000Y-25640000D02*
X76190000Y-25640000D01*
X74690000Y-36360000D02*
X74690000Y-34860000D01*
X74690000Y-36360000D02*
X76190000Y-36360000D01*
X85310000Y-25640000D02*
X83810000Y-25640000D01*
X85310000Y-25640000D02*
X85310000Y-27140000D01*
X85310000Y-36360000D02*
X83810000Y-36360000D01*
X85310000Y-36360000D02*
X85310000Y-34860000D01*
%TO.C,C37*%
X42859420Y-48490000D02*
X43140580Y-48490000D01*
X42859420Y-49510000D02*
X43140580Y-49510000D01*
%TO.C,D5*%
X101640000Y-73000000D02*
X101640000Y-75000000D01*
X101640000Y-73000000D02*
X105650000Y-73000000D01*
X101640000Y-75000000D02*
X105650000Y-75000000D01*
%TO.C,TP12*%
X49950000Y-4000000D02*
G75*
G02*
X48050000Y-4000000I-950000J0D01*
G01*
X48050000Y-4000000D02*
G75*
G02*
X49950000Y-4000000I950000J0D01*
G01*
%TO.C,U3*%
X105090000Y-51440000D02*
X106910000Y-51440000D01*
X105090000Y-51490000D02*
X105090000Y-51440000D01*
X105090000Y-54560000D02*
X105090000Y-54510000D01*
X106910000Y-51440000D02*
X106910000Y-51490000D01*
X106910000Y-52610000D02*
X106910000Y-53390000D01*
X106910000Y-54510000D02*
X106910000Y-54560000D01*
X106910000Y-54560000D02*
X105090000Y-54560000D01*
X104550000Y-51490000D02*
X104310000Y-51160000D01*
X104790000Y-51160000D01*
X104550000Y-51490000D01*
G36*
X104550000Y-51490000D02*
G01*
X104310000Y-51160000D01*
X104790000Y-51160000D01*
X104550000Y-51490000D01*
G37*
%TO.C,R13*%
X49762742Y-48477500D02*
X50237258Y-48477500D01*
X49762742Y-49522500D02*
X50237258Y-49522500D01*
%TO.C,J1*%
X100980000Y340000D02*
X111470000Y340000D01*
X100980000Y-10660000D02*
X100980000Y340000D01*
X102600000Y-10660000D02*
X102600000Y340000D01*
X110350000Y-10660000D02*
X110350000Y340000D01*
X111470000Y340000D02*
X111470000Y-7700000D01*
X111470000Y-8300000D02*
X111470000Y-10660000D01*
X111470000Y-10660000D02*
X100980000Y-10660000D01*
X112080000Y-8440000D02*
X111470000Y-8000000D01*
X112080000Y-7560000D01*
X112080000Y-8440000D01*
G36*
X112080000Y-8440000D02*
G01*
X111470000Y-8000000D01*
X112080000Y-7560000D01*
X112080000Y-8440000D01*
G37*
%TO.C,Q3*%
X87240000Y-55440000D02*
X88760000Y-55440000D01*
X87240000Y-55490000D02*
X87240000Y-55440000D01*
X87240000Y-57390000D02*
X87240000Y-56610000D01*
X87240000Y-58560000D02*
X87240000Y-58510000D01*
X88760000Y-55440000D02*
X88760000Y-56440000D01*
X88760000Y-57560000D02*
X88760000Y-58560000D01*
X88760000Y-58560000D02*
X87240000Y-58560000D01*
X86940000Y-56950000D02*
X86460000Y-56950000D01*
X86700000Y-56620000D01*
X86940000Y-56950000D01*
G36*
X86940000Y-56950000D02*
G01*
X86460000Y-56950000D01*
X86700000Y-56620000D01*
X86940000Y-56950000D01*
G37*
%TO.C,TP17*%
X21950000Y-55000000D02*
G75*
G02*
X20050000Y-55000000I-950000J0D01*
G01*
X20050000Y-55000000D02*
G75*
G02*
X21950000Y-55000000I950000J0D01*
G01*
%TO.C,TP10*%
X41950000Y-4000000D02*
G75*
G02*
X40050000Y-4000000I-950000J0D01*
G01*
X40050000Y-4000000D02*
G75*
G02*
X41950000Y-4000000I950000J0D01*
G01*
%TO.C,J6*%
X59340000Y-66980000D02*
X90660000Y-66980000D01*
X59340000Y-68600000D02*
X90660000Y-68600000D01*
X59340000Y-76350000D02*
X90660000Y-76350000D01*
X59340000Y-77470000D02*
X59340000Y-66980000D01*
X61700000Y-77470000D02*
X59340000Y-77470000D01*
X90660000Y-66980000D02*
X90660000Y-77470000D01*
X90660000Y-77470000D02*
X62300000Y-77470000D01*
X62440000Y-78080000D02*
X61560000Y-78080000D01*
X62000000Y-77470000D01*
X62440000Y-78080000D01*
G36*
X62440000Y-78080000D02*
G01*
X61560000Y-78080000D01*
X62000000Y-77470000D01*
X62440000Y-78080000D01*
G37*
%TO.C,C39*%
X42859420Y-56490000D02*
X43140580Y-56490000D01*
X42859420Y-57510000D02*
X43140580Y-57510000D01*
%TO.C,C1*%
X81288748Y-8640000D02*
X82711252Y-8640000D01*
X81288748Y-11360000D02*
X82711252Y-11360000D01*
%TO.C,R7*%
X79762742Y-41477500D02*
X80237258Y-41477500D01*
X79762742Y-42522500D02*
X80237258Y-42522500D01*
D10*
%TO.C,U2*%
X63925000Y-24425000D02*
X68075000Y-24425000D01*
X63925000Y-29575000D02*
X68075000Y-29575000D01*
D11*
X63325000Y-24525000D02*
X63085000Y-24195000D01*
X63565000Y-24195000D01*
X63325000Y-24525000D01*
G36*
X63325000Y-24525000D02*
G01*
X63085000Y-24195000D01*
X63565000Y-24195000D01*
X63325000Y-24525000D01*
G37*
%TO.C,J4*%
X7340000Y-66980000D02*
X23420000Y-66980000D01*
X7340000Y-68600000D02*
X23420000Y-68600000D01*
X7340000Y-76350000D02*
X23420000Y-76350000D01*
X7340000Y-77470000D02*
X7340000Y-66980000D01*
X9700000Y-77470000D02*
X7340000Y-77470000D01*
X23420000Y-66980000D02*
X23420000Y-77470000D01*
X23420000Y-77470000D02*
X10300000Y-77470000D01*
X10440000Y-78080000D02*
X9560000Y-78080000D01*
X10000000Y-77470000D01*
X10440000Y-78080000D01*
G36*
X10440000Y-78080000D02*
G01*
X9560000Y-78080000D01*
X10000000Y-77470000D01*
X10440000Y-78080000D01*
G37*
%TO.C,Q4*%
X96940000Y-51440000D02*
X101060000Y-51440000D01*
X96940000Y-51535000D02*
X96940000Y-51440000D01*
X96940000Y-56560000D02*
X96940000Y-56465000D01*
X101060000Y-51440000D02*
X101060000Y-51535000D01*
X101060000Y-56465000D02*
X101060000Y-56560000D01*
X101060000Y-56560000D02*
X96940000Y-56560000D01*
X96400000Y-51530000D02*
X96160000Y-51200000D01*
X96640000Y-51200000D01*
X96400000Y-51530000D01*
G36*
X96400000Y-51530000D02*
G01*
X96160000Y-51200000D01*
X96640000Y-51200000D01*
X96400000Y-51530000D01*
G37*
%TO.C,TP5*%
X21950000Y-4000000D02*
G75*
G02*
X20050000Y-4000000I-950000J0D01*
G01*
X20050000Y-4000000D02*
G75*
G02*
X21950000Y-4000000I950000J0D01*
G01*
%TO.C,R2*%
X69762742Y-18477500D02*
X70237258Y-18477500D01*
X69762742Y-19522500D02*
X70237258Y-19522500D01*
%TO.C,Q1*%
X87940000Y-11440000D02*
X92060000Y-11440000D01*
X87940000Y-11535000D02*
X87940000Y-11440000D01*
X87940000Y-16560000D02*
X87940000Y-16465000D01*
X92060000Y-11440000D02*
X92060000Y-11535000D01*
X92060000Y-16465000D02*
X92060000Y-16560000D01*
X92060000Y-16560000D02*
X87940000Y-16560000D01*
X87400000Y-11530000D02*
X87160000Y-11200000D01*
X87640000Y-11200000D01*
X87400000Y-11530000D01*
G36*
X87400000Y-11530000D02*
G01*
X87160000Y-11200000D01*
X87640000Y-11200000D01*
X87400000Y-11530000D01*
G37*
%TO.C,K1*%
X76400000Y-48500000D02*
X78600000Y-48500000D01*
X76400000Y-50600000D02*
X76400000Y-48500000D01*
X76600000Y-48700000D02*
X84400000Y-48700000D01*
X76600000Y-61400000D02*
X76600000Y-48700000D01*
X78762000Y-53683000D02*
X78762000Y-54318000D01*
X78762000Y-54318000D02*
X79422000Y-54318000D01*
X79422000Y-53810000D02*
X79422000Y-54826000D01*
X79422000Y-54826000D02*
X81327000Y-54826000D01*
X80946000Y-53810000D02*
X80311000Y-54826000D01*
X81327000Y-53810000D02*
X79422000Y-53810000D01*
X81327000Y-53810000D02*
X81327000Y-54826000D01*
X81962000Y-53683000D02*
X81962000Y-54318000D01*
X81962000Y-54318000D02*
X81327000Y-54318000D01*
X84400000Y-48700000D02*
X84400000Y-61400000D01*
X84400000Y-61400000D02*
X76600000Y-61400000D01*
%TO.C,TP13*%
X5950000Y-55000000D02*
G75*
G02*
X4050000Y-55000000I-950000J0D01*
G01*
X4050000Y-55000000D02*
G75*
G02*
X5950000Y-55000000I950000J0D01*
G01*
%TO.C,TP3*%
X13950000Y-4000000D02*
G75*
G02*
X12050000Y-4000000I-950000J0D01*
G01*
X12050000Y-4000000D02*
G75*
G02*
X13950000Y-4000000I950000J0D01*
G01*
%TO.C,U1*%
X70390000Y-8390000D02*
X73610000Y-8390000D01*
X70390000Y-8565000D02*
X70390000Y-8390000D01*
X70390000Y-11610000D02*
X70390000Y-11435000D01*
X73610000Y-8390000D02*
X73610000Y-8565000D01*
X73610000Y-11435000D02*
X73610000Y-11610000D01*
X73610000Y-11610000D02*
X70390000Y-11610000D01*
X69840000Y-8560000D02*
X69600000Y-8230000D01*
X70080000Y-8230000D01*
X69840000Y-8560000D01*
G36*
X69840000Y-8560000D02*
G01*
X69600000Y-8230000D01*
X70080000Y-8230000D01*
X69840000Y-8560000D01*
G37*
%TO.C,C7*%
X103859420Y-60490000D02*
X104140580Y-60490000D01*
X103859420Y-61510000D02*
X104140580Y-61510000D01*
%TO.C,C38*%
X42859420Y-52490000D02*
X43140580Y-52490000D01*
X42859420Y-53510000D02*
X43140580Y-53510000D01*
%TO.C,R3*%
X77762742Y-19477500D02*
X78237258Y-19477500D01*
X77762742Y-20522500D02*
X78237258Y-20522500D01*
%TO.C,U4*%
X86940000Y-23440000D02*
X91060000Y-23440000D01*
X86940000Y-23535000D02*
X86940000Y-23440000D01*
X86940000Y-28560000D02*
X86940000Y-28465000D01*
X91060000Y-23440000D02*
X91060000Y-23535000D01*
X91060000Y-28465000D02*
X91060000Y-28560000D01*
X91060000Y-28560000D02*
X86940000Y-28560000D01*
X86400000Y-23530000D02*
X86160000Y-23200000D01*
X86640000Y-23200000D01*
X86400000Y-23530000D01*
G36*
X86400000Y-23530000D02*
G01*
X86160000Y-23200000D01*
X86640000Y-23200000D01*
X86400000Y-23530000D01*
G37*
%TO.C,TP2*%
X9950000Y-4000000D02*
G75*
G02*
X8050000Y-4000000I-950000J0D01*
G01*
X8050000Y-4000000D02*
G75*
G02*
X9950000Y-4000000I950000J0D01*
G01*
%TO.C,R11*%
X95762742Y-41477500D02*
X96237258Y-41477500D01*
X95762742Y-42522500D02*
X96237258Y-42522500D01*
%TO.C,TP16*%
X17950000Y-55000000D02*
G75*
G02*
X16050000Y-55000000I-950000J0D01*
G01*
X16050000Y-55000000D02*
G75*
G02*
X17950000Y-55000000I950000J0D01*
G01*
%TO.C,TP1*%
X5950000Y-4000000D02*
G75*
G02*
X4050000Y-4000000I-950000J0D01*
G01*
X4050000Y-4000000D02*
G75*
G02*
X5950000Y-4000000I950000J0D01*
G01*
%TO.C,C5*%
X91288748Y-34640000D02*
X92711252Y-34640000D01*
X91288748Y-37360000D02*
X92711252Y-37360000D01*
%TO.C,R9*%
X87762742Y-41477500D02*
X88237258Y-41477500D01*
X87762742Y-42522500D02*
X88237258Y-42522500D01*
%TO.C,R14*%
X17762742Y-37477500D02*
X18237258Y-37477500D01*
X17762742Y-38522500D02*
X18237258Y-38522500D01*
%TO.C,C3*%
X61859420Y-19490000D02*
X62140580Y-19490000D01*
X61859420Y-20510000D02*
X62140580Y-20510000D01*
%TO.C,TP8*%
X33950000Y-4000000D02*
G75*
G02*
X32050000Y-4000000I-950000J0D01*
G01*
X32050000Y-4000000D02*
G75*
G02*
X33950000Y-4000000I950000J0D01*
G01*
%TO.C,R17*%
X49762742Y-56477500D02*
X50237258Y-56477500D01*
X49762742Y-57522500D02*
X50237258Y-57522500D01*
%TO.C,C8*%
X109859420Y-60490000D02*
X110140580Y-60490000D01*
X109859420Y-61510000D02*
X110140580Y-61510000D01*
%TD*%
M02*
