%TF.GenerationSoftware,KiCad,Pcbnew,9.0.7*%
%TF.CreationDate,2026-05-09T02:02:29+02:00*%
%TF.ProjectId,twn4_access_system_rev_d_compact_routed,74776e34-5f61-4636-9365-73735f737973,rev?*%
%TF.SameCoordinates,Original*%
%TF.FileFunction,Copper,L2,Bot*%
%TF.FilePolarity,Positive*%
%FSLAX46Y46*%
G04 Gerber Fmt 4.6, Leading zero omitted, Abs format (unit mm)*
G04 Created by KiCad (PCBNEW 9.0.7) date 2026-05-09 02:02:29*
%MOMM*%
%LPD*%
G01*
G04 APERTURE LIST*
G04 Aperture macros list*
%AMRoundRect*
0 Rectangle with rounded corners*
0 $1 Rounding radius*
0 $2 $3 $4 $5 $6 $7 $8 $9 X,Y pos of 4 corners*
0 Add a 4 corners polygon primitive as box body*
4,1,4,$2,$3,$4,$5,$6,$7,$8,$9,$2,$3,0*
0 Add four circle primitives for the rounded corners*
1,1,$1+$1,$2,$3*
1,1,$1+$1,$4,$5*
1,1,$1+$1,$6,$7*
1,1,$1+$1,$8,$9*
0 Add four rect primitives between the rounded corners*
20,1,$1+$1,$2,$3,$4,$5,0*
20,1,$1+$1,$4,$5,$6,$7,0*
20,1,$1+$1,$6,$7,$8,$9,0*
20,1,$1+$1,$8,$9,$2,$3,0*%
G04 Aperture macros list end*
%TA.AperFunction,ComponentPad*%
%ADD10RoundRect,0.250001X-0.949999X-0.949999X0.949999X-0.949999X0.949999X0.949999X-0.949999X0.949999X0*%
%TD*%
%TA.AperFunction,ComponentPad*%
%ADD11C,2.400000*%
%TD*%
%TA.AperFunction,ComponentPad*%
%ADD12R,1.350000X1.350000*%
%TD*%
%TA.AperFunction,ComponentPad*%
%ADD13C,1.350000*%
%TD*%
%TA.AperFunction,ComponentPad*%
%ADD14R,2.000000X2.000000*%
%TD*%
%TA.AperFunction,ComponentPad*%
%ADD15C,2.000000*%
%TD*%
%TA.AperFunction,ViaPad*%
%ADD16C,0.600000*%
%TD*%
%TA.AperFunction,Conductor*%
%ADD17C,0.200000*%
%TD*%
G04 APERTURE END LIST*
D10*
%TO.P,J5,1*%
%TO.N,VIN_PROT*%
X32000000Y-72000000D03*
D11*
%TO.P,J5,2*%
%TO.N,LOCK_SW_LOW*%
X37080000Y-72000000D03*
%TD*%
D12*
%TO.P,J2,1*%
%TO.N,N/C*%
X8000000Y-25500000D03*
D13*
%TO.P,J2,2*%
X6000000Y-25500000D03*
%TO.P,J2,3*%
%TO.N,I2C_SCL*%
X8000000Y-27500000D03*
%TO.P,J2,4*%
%TO.N,I2C_SDA*%
X6000000Y-27500000D03*
%TO.P,J2,5*%
%TO.N,N/C*%
X8000000Y-29500000D03*
%TO.P,J2,6*%
X6000000Y-29500000D03*
%TO.P,J2,7*%
X8000000Y-31500000D03*
%TO.P,J2,8*%
X6000000Y-31500000D03*
%TO.P,J2,9*%
X8000000Y-33500000D03*
%TO.P,J2,10*%
%TO.N,HOSTSENSE_COM1*%
X6000000Y-33500000D03*
%TO.P,J2,11*%
%TO.N,N/C*%
X8000000Y-35500000D03*
%TO.P,J2,12*%
%TO.N,GND*%
X6000000Y-35500000D03*
%TO.P,J2,13*%
%TO.N,+5V*%
X8000000Y-37500000D03*
%TO.P,J2,14*%
%TO.N,N/C*%
X6000000Y-37500000D03*
%TO.P,J2,15*%
X8000000Y-39500000D03*
%TO.P,J2,16*%
X6000000Y-39500000D03*
%TO.P,J2,17*%
%TO.N,COM1_TX*%
X8000000Y-41500000D03*
%TO.P,J2,18*%
%TO.N,COM1_RX*%
X6000000Y-41500000D03*
%TO.P,J2,19*%
%TO.N,VCC_3V3_REF*%
X8000000Y-43500000D03*
%TO.P,J2,20*%
%TO.N,GPIO4_RS485_DIR*%
X6000000Y-43500000D03*
%TO.P,J2,21*%
%TO.N,GPIO5_RELAY*%
X8000000Y-45500000D03*
%TO.P,J2,22*%
%TO.N,GPIO6_LOCK*%
X6000000Y-45500000D03*
%TO.P,J2,23*%
%TO.N,PWRDWN#*%
X8000000Y-47500000D03*
%TO.P,J2,24*%
%TO.N,RESET#*%
X6000000Y-47500000D03*
%TD*%
D10*
%TO.P,J3,1*%
%TO.N,RS485_A*%
X106000000Y-46000000D03*
D11*
%TO.P,J3,2*%
%TO.N,RS485_B*%
X106000000Y-40920000D03*
%TO.P,J3,3*%
%TO.N,VIN_PROT*%
X106000000Y-35840000D03*
%TO.P,J3,4*%
%TO.N,GND*%
X106000000Y-30760000D03*
%TD*%
D10*
%TO.P,J1,1*%
%TO.N,VIN_IN*%
X106000000Y-8000000D03*
D11*
%TO.P,J1,2*%
%TO.N,GND*%
X106000000Y-2920000D03*
%TD*%
D10*
%TO.P,J6,1*%
%TO.N,DOOR_IN*%
X62000000Y-72000000D03*
D11*
%TO.P,J6,2*%
%TO.N,REX_IN*%
X67080000Y-72000000D03*
%TO.P,J6,3*%
%TO.N,TAMPER_IN*%
X72160000Y-72000000D03*
%TO.P,J6,4*%
%TO.N,AUX_IN*%
X77240000Y-72000000D03*
%TO.P,J6,5*%
%TO.N,+3V3*%
X82320000Y-72000000D03*
%TO.P,J6,6*%
%TO.N,GND*%
X87400000Y-72000000D03*
%TD*%
D10*
%TO.P,J4,1*%
%TO.N,RELAY_COM*%
X10000000Y-72000000D03*
D11*
%TO.P,J4,2*%
%TO.N,RELAY_NC*%
X15080000Y-72000000D03*
%TO.P,J4,3*%
%TO.N,RELAY_NO*%
X20160000Y-72000000D03*
%TD*%
D14*
%TO.P,K1,1*%
%TO.N,+5V*%
X78000000Y-50000000D03*
D15*
%TO.P,K1,2*%
%TO.N,RELAY_COIL_LOW*%
X78000000Y-52540000D03*
%TO.P,K1,5*%
%TO.N,RELAY_NO*%
X78000000Y-60160000D03*
%TO.P,K1,6*%
%TO.N,N/C*%
X83080000Y-60160000D03*
%TO.P,K1,9*%
X83080000Y-52540000D03*
%TO.P,K1,10*%
X83080000Y-50000000D03*
%TD*%
D16*
%TO.N,+3V3*%
X59316700Y-47010200D03*
X18885000Y-28123300D03*
X18885000Y-5256000D03*
X57534100Y-51937100D03*
%TO.N,+5V*%
X68896600Y-30845000D03*
X93847300Y-24342500D03*
X68896600Y-24280700D03*
X95982100Y-48051700D03*
X17393900Y-14983100D03*
X98450900Y-54000000D03*
X82223700Y-41883400D03*
%TO.N,AUX_IN*%
X58632500Y-48634000D03*
X42365000Y-57990400D03*
%TO.N,COM1_RX*%
X83286500Y-24095000D03*
X23430700Y-6086900D03*
X63130300Y-2190200D03*
%TO.N,COM1_TX*%
X23738800Y-4249700D03*
X85704300Y-28725700D03*
X63959300Y-1409000D03*
%TO.N,DOOR_IN*%
X60059700Y-51293300D03*
%TO.N,GND*%
X58168200Y-24890000D03*
X47895700Y-51548000D03*
X94553400Y-34150000D03*
X58167100Y-29751700D03*
X93754300Y-53677500D03*
X57138900Y-44808800D03*
%TO.N,GPIO4_RS485_DIR*%
X32414300Y-24890000D03*
X32414300Y-5186400D03*
%TO.N,GPIO5_RELAY*%
X44775500Y-45594900D03*
%TO.N,GPIO6_LOCK*%
X18282800Y-10000000D03*
%TO.N,LOCK_GATE_5V*%
X23137500Y-11772600D03*
X96525000Y-2620900D03*
X96583800Y-51278700D03*
X17175000Y-37005800D03*
%TO.N,LOCK_SW_LOW*%
X57337400Y-4000000D03*
X57337400Y-38001600D03*
%TO.N,RELAY_COIL_LOW*%
X67682800Y-67283600D03*
%TO.N,RELAY_NO*%
X69712000Y-69196300D03*
%TO.N,REX_IN*%
X57609100Y-53743800D03*
%TO.N,RS485_A*%
X97144800Y-29700500D03*
X75806100Y-5493600D03*
X81747000Y-20598700D03*
%TO.N,TAMPER_IN*%
X72160000Y-54290000D03*
%TO.N,VIN_IN*%
X81980300Y-10047000D03*
%TO.N,VIN_PROT*%
X61260300Y-659500D03*
X61260300Y-24890000D03*
X97144800Y-20626400D03*
X107580500Y-64565700D03*
X61260300Y-6430300D03*
%TD*%
D17*
%TO.N,+3V3*%
X57534100Y-50583500D02*
X59316700Y-48800900D01*
X59316700Y-48800900D02*
X59316700Y-47010200D01*
X18885000Y-5256000D02*
X18885000Y-28123300D01*
X57534100Y-51937100D02*
X57534100Y-50583500D01*
%TO.N,+5V*%
X95982100Y-51531200D02*
X98450900Y-54000000D01*
X68896600Y-24280700D02*
X68896600Y-30845000D01*
X95982100Y-34718700D02*
X95982100Y-48051700D01*
X92685300Y-31421800D02*
X95982100Y-34718700D01*
X93847300Y-30259800D02*
X92685300Y-31421800D01*
X78000000Y-46107100D02*
X82223700Y-41883400D01*
X93847300Y-24342500D02*
X93847300Y-30259800D01*
X17393900Y-28106100D02*
X17393900Y-14983100D01*
X82223700Y-41883400D02*
X82223700Y-37607800D01*
X92685300Y-31421800D02*
X82223700Y-41883400D01*
X78000000Y-50000000D02*
X78000000Y-46107100D01*
X95982100Y-48051700D02*
X95982100Y-51531200D01*
X82223700Y-37607800D02*
X68896600Y-24280700D01*
X8000000Y-37500000D02*
X17393900Y-28106100D01*
%TO.N,AUX_IN*%
X49276100Y-57990400D02*
X58632500Y-48634000D01*
X42365000Y-57990400D02*
X49276100Y-57990400D01*
%TO.N,COM1_RX*%
X64259200Y-807200D02*
X80009000Y-16557000D01*
X63696600Y-807200D02*
X64259200Y-807200D01*
X7000000Y-40500000D02*
X8388800Y-40500000D01*
X63130300Y-1373500D02*
X63696600Y-807200D01*
X6000000Y-41500000D02*
X7000000Y-40500000D01*
X63130300Y-2190200D02*
X63130300Y-1373500D01*
X80009000Y-16557000D02*
X80009000Y-20817500D01*
X19647800Y-9869800D02*
X23430700Y-6086900D01*
X80009000Y-20817500D02*
X83286500Y-24095000D01*
X19647800Y-29241000D02*
X19647800Y-9869800D01*
X8388800Y-40500000D02*
X19647800Y-29241000D01*
%TO.N,COM1_TX*%
X21585600Y-11746600D02*
X24084200Y-9248000D01*
X63959300Y-1409000D02*
X63959300Y-6980700D01*
X24084200Y-9248000D02*
X24084200Y-4595100D01*
X63959300Y-6980700D02*
X85704300Y-28725700D01*
X24084200Y-4595100D02*
X23738800Y-4249700D01*
X8000000Y-41500000D02*
X21585600Y-27914400D01*
X21585600Y-27914400D02*
X21585600Y-11746600D01*
%TO.N,DOOR_IN*%
X62000000Y-72000000D02*
X62000000Y-53233600D01*
X62000000Y-53233600D02*
X60059700Y-51293300D01*
%TO.N,GND*%
X57138900Y-44808800D02*
X54634900Y-44808800D01*
X87400000Y-72000000D02*
X93754300Y-65645700D01*
X54634900Y-44808800D02*
X47895700Y-51548000D01*
X58167100Y-29751700D02*
X58167100Y-43780600D01*
X107563500Y-29196500D02*
X106000000Y-30760000D01*
X94553400Y-52878400D02*
X94553400Y-34150000D01*
X93754300Y-65645700D02*
X93754300Y-53677500D01*
X93754300Y-53677500D02*
X94553400Y-52878400D01*
X106000000Y-2920000D02*
X107563500Y-4483500D01*
X58167100Y-43780600D02*
X57138900Y-44808800D01*
X58168200Y-24890000D02*
X58167100Y-24891100D01*
X107563500Y-4483500D02*
X107563500Y-29196500D01*
X58167100Y-24891100D02*
X58167100Y-29751700D01*
%TO.N,GPIO4_RS485_DIR*%
X14804300Y-42500000D02*
X32414300Y-24890000D01*
X6000000Y-43500000D02*
X7000000Y-42500000D01*
X7000000Y-42500000D02*
X14804300Y-42500000D01*
X32414300Y-5186400D02*
X32414300Y-24890000D01*
%TO.N,GPIO5_RELAY*%
X44680600Y-45500000D02*
X44775500Y-45594900D01*
X8000000Y-45500000D02*
X44680600Y-45500000D01*
%TO.N,GPIO6_LOCK*%
X4975200Y-23307600D02*
X18282800Y-10000000D01*
X6000000Y-45500000D02*
X4975200Y-44475200D01*
X4975200Y-44475200D02*
X4975200Y-23307600D01*
%TO.N,LOCK_GATE_5V*%
X96525000Y-47743700D02*
X96583800Y-47802500D01*
X23137500Y-31043300D02*
X23137500Y-11772600D01*
X96583800Y-47802500D02*
X96583800Y-51278700D01*
X17175000Y-37005800D02*
X23137500Y-31043300D01*
X96525000Y-2620900D02*
X96525000Y-47743700D01*
%TO.N,LOCK_SW_LOW*%
X37080000Y-72000000D02*
X37080000Y-58259000D01*
X57337400Y-4000000D02*
X57337400Y-38001600D01*
X37080000Y-58259000D02*
X57337400Y-38001600D01*
%TO.N,RELAY_COIL_LOW*%
X78000000Y-52540000D02*
X73046700Y-52540000D01*
X67682800Y-57903900D02*
X67682800Y-67283600D01*
X73046700Y-52540000D02*
X67682800Y-57903900D01*
%TO.N,RELAY_NO*%
X69712000Y-71691600D02*
X69712000Y-69196300D01*
X71524100Y-73503700D02*
X69712000Y-71691600D01*
X78000000Y-60160000D02*
X78000000Y-68360500D01*
X78000000Y-68360500D02*
X72856800Y-73503700D01*
X72856800Y-73503700D02*
X71524100Y-73503700D01*
%TO.N,REX_IN*%
X59458000Y-51044200D02*
X59458000Y-51894900D01*
X59810600Y-50691600D02*
X59458000Y-51044200D01*
X60343400Y-50691600D02*
X59810600Y-50691600D01*
X67080000Y-57428200D02*
X60343400Y-50691600D01*
X59458000Y-51894900D02*
X57609100Y-53743800D01*
X67080000Y-72000000D02*
X67080000Y-57428200D01*
%TO.N,RS485_A*%
X106000000Y-46000000D02*
X97144800Y-37144800D01*
X81747000Y-11434500D02*
X75806100Y-5493600D01*
X81747000Y-20598700D02*
X81747000Y-11434500D01*
X97144800Y-37144800D02*
X97144800Y-29700500D01*
%TO.N,TAMPER_IN*%
X72160000Y-72000000D02*
X72160000Y-54290000D01*
%TO.N,VIN_IN*%
X100008400Y-2008400D02*
X90018900Y-2008400D01*
X90018900Y-2008400D02*
X81980300Y-10047000D01*
X106000000Y-8000000D02*
X100008400Y-2008400D01*
%TO.N,VIN_PROT*%
X61260300Y-48534700D02*
X61260300Y-24890000D01*
X97144800Y-26984800D02*
X97144800Y-20626400D01*
X33501700Y-73501700D02*
X37724300Y-73501700D01*
X107580500Y-37420500D02*
X107580500Y-64565700D01*
X57007400Y-54218600D02*
X57007400Y-53494700D01*
X106000000Y-35840000D02*
X97144800Y-26984800D01*
X37724300Y-73501700D02*
X57007400Y-54218600D01*
X58996700Y-51505400D02*
X58996700Y-50798300D01*
X106000000Y-35840000D02*
X107580500Y-37420500D01*
X61260300Y-24890000D02*
X61260300Y-6430300D01*
X61260300Y-6430300D02*
X61260300Y-659500D01*
X57007400Y-53494700D02*
X58996700Y-51505400D01*
X58996700Y-50798300D02*
X61260300Y-48534700D01*
X32000000Y-72000000D02*
X33501700Y-73501700D01*
%TD*%
M02*
