%TF.GenerationSoftware,KiCad,Pcbnew,9.0.7*%
%TF.CreationDate,2026-05-09T02:02:29+02:00*%
%TF.ProjectId,twn4_access_system_rev_d_compact_routed,74776e34-5f61-4636-9365-73735f737973,rev?*%
%TF.SameCoordinates,Original*%
%TF.FileFunction,Copper,L1,Top*%
%TF.FilePolarity,Positive*%
%FSLAX46Y46*%
G04 Gerber Fmt 4.6, Leading zero omitted, Abs format (unit mm)*
G04 Created by KiCad (PCBNEW 9.0.7) date 2026-05-09 02:02:29*
%MOMM*%
%LPD*%
G01*
G04 APERTURE LIST*
G04 Aperture macros list*
%AMRoundRect*
0 Rectangle with rounded corners*
0 $1 Rounding radius*
0 $2 $3 $4 $5 $6 $7 $8 $9 X,Y pos of 4 corners*
0 Add a 4 corners polygon primitive as box body*
4,1,4,$2,$3,$4,$5,$6,$7,$8,$9,$2,$3,0*
0 Add four circle primitives for the rounded corners*
1,1,$1+$1,$2,$3*
1,1,$1+$1,$4,$5*
1,1,$1+$1,$6,$7*
1,1,$1+$1,$8,$9*
0 Add four rect primitives between the rounded corners*
20,1,$1+$1,$2,$3,$4,$5,0*
20,1,$1+$1,$4,$5,$6,$7,0*
20,1,$1+$1,$6,$7,$8,$9,0*
20,1,$1+$1,$8,$9,$2,$3,0*%
G04 Aperture macros list end*
%TA.AperFunction,SMDPad,CuDef*%
%ADD10RoundRect,0.250000X-0.325000X-1.100000X0.325000X-1.100000X0.325000X1.100000X-0.325000X1.100000X0*%
%TD*%
%TA.AperFunction,SMDPad,CuDef*%
%ADD11RoundRect,0.200000X-0.200000X-0.275000X0.200000X-0.275000X0.200000X0.275000X-0.200000X0.275000X0*%
%TD*%
%TA.AperFunction,ComponentPad*%
%ADD12RoundRect,0.250001X-0.949999X-0.949999X0.949999X-0.949999X0.949999X0.949999X-0.949999X0.949999X0*%
%TD*%
%TA.AperFunction,ComponentPad*%
%ADD13C,2.400000*%
%TD*%
%TA.AperFunction,SMDPad,CuDef*%
%ADD14R,1.000000X1.500000*%
%TD*%
%TA.AperFunction,SMDPad,CuDef*%
%ADD15C,1.500000*%
%TD*%
%TA.AperFunction,SMDPad,CuDef*%
%ADD16RoundRect,0.250000X-1.000000X-0.650000X1.000000X-0.650000X1.000000X0.650000X-1.000000X0.650000X0*%
%TD*%
%TA.AperFunction,SMDPad,CuDef*%
%ADD17RoundRect,0.150000X-0.587500X-0.150000X0.587500X-0.150000X0.587500X0.150000X-0.587500X0.150000X0*%
%TD*%
%TA.AperFunction,SMDPad,CuDef*%
%ADD18RoundRect,0.225000X-0.225000X-0.250000X0.225000X-0.250000X0.225000X0.250000X-0.225000X0.250000X0*%
%TD*%
%TA.AperFunction,ComponentPad*%
%ADD19R,1.350000X1.350000*%
%TD*%
%TA.AperFunction,ComponentPad*%
%ADD20C,1.350000*%
%TD*%
%TA.AperFunction,SMDPad,CuDef*%
%ADD21RoundRect,0.150000X-0.825000X-0.150000X0.825000X-0.150000X0.825000X0.150000X-0.825000X0.150000X0*%
%TD*%
%TA.AperFunction,SMDPad,CuDef*%
%ADD22RoundRect,0.250000X-0.375000X-0.625000X0.375000X-0.625000X0.375000X0.625000X-0.375000X0.625000X0*%
%TD*%
%TA.AperFunction,SMDPad,CuDef*%
%ADD23RoundRect,0.250000X-1.000000X-0.900000X1.000000X-0.900000X1.000000X0.900000X-1.000000X0.900000X0*%
%TD*%
%TA.AperFunction,SMDPad,CuDef*%
%ADD24RoundRect,0.150000X-0.875000X-0.150000X0.875000X-0.150000X0.875000X0.150000X-0.875000X0.150000X0*%
%TD*%
%TA.AperFunction,SMDPad,CuDef*%
%ADD25RoundRect,0.250000X-0.250000X-0.475000X0.250000X-0.475000X0.250000X0.475000X-0.250000X0.475000X0*%
%TD*%
%TA.AperFunction,SMDPad,CuDef*%
%ADD26RoundRect,0.150000X-0.512500X-0.150000X0.512500X-0.150000X0.512500X0.150000X-0.512500X0.150000X0*%
%TD*%
%TA.AperFunction,SMDPad,CuDef*%
%ADD27R,3.500000X10.200000*%
%TD*%
%TA.AperFunction,SMDPad,CuDef*%
%ADD28RoundRect,0.225000X-0.225000X-0.375000X0.225000X-0.375000X0.225000X0.375000X-0.225000X0.375000X0*%
%TD*%
%TA.AperFunction,SMDPad,CuDef*%
%ADD29R,1.550000X0.600000*%
%TD*%
%TA.AperFunction,SMDPad,CuDef*%
%ADD30R,2.950000X4.900000*%
%TD*%
%TA.AperFunction,ComponentPad*%
%ADD31R,2.000000X2.000000*%
%TD*%
%TA.AperFunction,ComponentPad*%
%ADD32C,2.000000*%
%TD*%
%TA.AperFunction,SMDPad,CuDef*%
%ADD33RoundRect,0.100000X-0.712500X-0.100000X0.712500X-0.100000X0.712500X0.100000X-0.712500X0.100000X0*%
%TD*%
%TA.AperFunction,ViaPad*%
%ADD34C,0.600000*%
%TD*%
%TA.AperFunction,Conductor*%
%ADD35C,0.200000*%
%TD*%
G04 APERTURE END LIST*
D10*
%TO.P,C4,1*%
%TO.N,VIN_PROT*%
X56525000Y-26000000D03*
%TO.P,C4,2*%
%TO.N,GND*%
X59475000Y-26000000D03*
%TD*%
D11*
%TO.P,R4,1*%
%TO.N,VIN_PROT*%
X16175000Y-14000000D03*
%TO.P,R4,2*%
%TO.N,RON_NODE*%
X17825000Y-14000000D03*
%TD*%
%TO.P,R8,1*%
%TO.N,+5V*%
X83175000Y-42000000D03*
%TO.P,R8,2*%
%TO.N,RS485_A*%
X84825000Y-42000000D03*
%TD*%
%TO.P,R10,1*%
%TO.N,RS485_A*%
X91175000Y-42000000D03*
%TO.P,R10,2*%
%TO.N,RS485_A_CONN*%
X92825000Y-42000000D03*
%TD*%
D12*
%TO.P,J5,1*%
%TO.N,VIN_PROT*%
X32000000Y-72000000D03*
D13*
%TO.P,J5,2*%
%TO.N,LOCK_SW_LOW*%
X37080000Y-72000000D03*
%TD*%
D11*
%TO.P,R19,1*%
%TO.N,+3V3*%
X49175000Y-65000000D03*
%TO.P,R19,2*%
%TO.N,AUX_IN*%
X50825000Y-65000000D03*
%TD*%
D14*
%TO.P,JP1,1*%
%TO.N,LOCK_SW_LOW*%
X58350000Y-38000000D03*
%TO.P,JP1,2*%
%TO.N,GND*%
X59650000Y-38000000D03*
%TD*%
D15*
%TO.P,TP4,1*%
%TO.N,+3V3*%
X17000000Y-4000000D03*
%TD*%
D16*
%TO.P,D2,1*%
%TO.N,LOCK_SW_LOW*%
X102000000Y-66000000D03*
%TO.P,D2,2*%
%TO.N,VIN_PROT*%
X106000000Y-66000000D03*
%TD*%
D11*
%TO.P,R16,1*%
%TO.N,+3V3*%
X49175000Y-53000000D03*
%TO.P,R16,2*%
%TO.N,DOOR_IN*%
X50825000Y-53000000D03*
%TD*%
%TO.P,R5,1*%
%TO.N,+5V*%
X20175000Y-14000000D03*
%TO.P,R5,2*%
%TO.N,FB_5V*%
X21825000Y-14000000D03*
%TD*%
%TO.P,R18,1*%
%TO.N,+3V3*%
X49175000Y-61000000D03*
%TO.P,R18,2*%
%TO.N,TAMPER_IN*%
X50825000Y-61000000D03*
%TD*%
D17*
%TO.P,D1,1*%
%TO.N,RS485_A*%
X93062500Y-19050000D03*
%TO.P,D1,2*%
%TO.N,RS485_B*%
X93062500Y-20950000D03*
%TO.P,D1,3*%
%TO.N,GND*%
X94937500Y-20000000D03*
%TD*%
D11*
%TO.P,R6,1*%
%TO.N,FB_5V*%
X24175000Y-14000000D03*
%TO.P,R6,2*%
%TO.N,GND*%
X25825000Y-14000000D03*
%TD*%
D15*
%TO.P,TP11,1*%
%TO.N,LOCK_GATE_5V*%
X45000000Y-4000000D03*
%TD*%
%TO.P,TP14,1*%
%TO.N,DOOR_IN*%
X9000000Y-55000000D03*
%TD*%
%TO.P,TP15,1*%
%TO.N,REX_IN*%
X13000000Y-55000000D03*
%TD*%
D18*
%TO.P,C6,1*%
%TO.N,+5V*%
X93225000Y-31000000D03*
%TO.P,C6,2*%
%TO.N,GND*%
X94775000Y-31000000D03*
%TD*%
D19*
%TO.P,J2,1*%
%TO.N,N/C*%
X8000000Y-25500000D03*
D20*
%TO.P,J2,2*%
X6000000Y-25500000D03*
%TO.P,J2,3*%
%TO.N,I2C_SCL*%
X8000000Y-27500000D03*
%TO.P,J2,4*%
%TO.N,I2C_SDA*%
X6000000Y-27500000D03*
%TO.P,J2,5*%
%TO.N,N/C*%
X8000000Y-29500000D03*
%TO.P,J2,6*%
X6000000Y-29500000D03*
%TO.P,J2,7*%
X8000000Y-31500000D03*
%TO.P,J2,8*%
X6000000Y-31500000D03*
%TO.P,J2,9*%
X8000000Y-33500000D03*
%TO.P,J2,10*%
%TO.N,HOSTSENSE_COM1*%
X6000000Y-33500000D03*
%TO.P,J2,11*%
%TO.N,N/C*%
X8000000Y-35500000D03*
%TO.P,J2,12*%
%TO.N,GND*%
X6000000Y-35500000D03*
%TO.P,J2,13*%
%TO.N,+5V*%
X8000000Y-37500000D03*
%TO.P,J2,14*%
%TO.N,N/C*%
X6000000Y-37500000D03*
%TO.P,J2,15*%
X8000000Y-39500000D03*
%TO.P,J2,16*%
X6000000Y-39500000D03*
%TO.P,J2,17*%
%TO.N,COM1_TX*%
X8000000Y-41500000D03*
%TO.P,J2,18*%
%TO.N,COM1_RX*%
X6000000Y-41500000D03*
%TO.P,J2,19*%
%TO.N,VCC_3V3_REF*%
X8000000Y-43500000D03*
%TO.P,J2,20*%
%TO.N,GPIO4_RS485_DIR*%
X6000000Y-43500000D03*
%TO.P,J2,21*%
%TO.N,GPIO5_RELAY*%
X8000000Y-45500000D03*
%TO.P,J2,22*%
%TO.N,GPIO6_LOCK*%
X6000000Y-45500000D03*
%TO.P,J2,23*%
%TO.N,PWRDWN#*%
X8000000Y-47500000D03*
%TO.P,J2,24*%
%TO.N,RESET#*%
X6000000Y-47500000D03*
%TD*%
D21*
%TO.P,Q2,1*%
%TO.N,PROT_GATE*%
X93525000Y-4095000D03*
%TO.P,Q2,2*%
%TO.N,VIN_PROT*%
X93525000Y-5365000D03*
%TO.P,Q2,3*%
%TO.N,VIN_FUSED*%
X93525000Y-6635000D03*
%TO.P,Q2,4*%
%TO.N,N/C*%
X93525000Y-7905000D03*
%TO.P,Q2,5*%
X98475000Y-7905000D03*
%TO.P,Q2,6*%
X98475000Y-6635000D03*
%TO.P,Q2,7*%
X98475000Y-5365000D03*
%TO.P,Q2,8*%
X98475000Y-4095000D03*
%TD*%
D15*
%TO.P,TP6,1*%
%TO.N,COM1_TX*%
X25000000Y-4000000D03*
%TD*%
D22*
%TO.P,F1,1*%
%TO.N,VIN_IN*%
X54600000Y-10000000D03*
%TO.P,F1,2*%
%TO.N,VIN_FUSED*%
X57400000Y-10000000D03*
%TD*%
D15*
%TO.P,TP9,1*%
%TO.N,RS485_A*%
X37000000Y-4000000D03*
%TD*%
D11*
%TO.P,R15,1*%
%TO.N,LOCK_GATE_DRV*%
X23175000Y-38000000D03*
%TO.P,R15,2*%
%TO.N,GND*%
X24825000Y-38000000D03*
%TD*%
%TO.P,R12,1*%
%TO.N,GPIO5_RELAY*%
X49175000Y-45000000D03*
%TO.P,R12,2*%
%TO.N,RELAY_GATE*%
X50825000Y-45000000D03*
%TD*%
D15*
%TO.P,TP7,1*%
%TO.N,COM1_RX*%
X29000000Y-4000000D03*
%TD*%
D18*
%TO.P,C36,1*%
%TO.N,DOOR_IN*%
X42225000Y-45000000D03*
%TO.P,C36,2*%
%TO.N,GND*%
X43775000Y-45000000D03*
%TD*%
D23*
%TO.P,D4,1*%
%TO.N,VIN_IN*%
X49850000Y-21000000D03*
%TO.P,D4,2*%
%TO.N,GND*%
X54150000Y-21000000D03*
%TD*%
D12*
%TO.P,J3,1*%
%TO.N,RS485_A*%
X106000000Y-46000000D03*
D13*
%TO.P,J3,2*%
%TO.N,RS485_B*%
X106000000Y-40920000D03*
%TO.P,J3,3*%
%TO.N,VIN_PROT*%
X106000000Y-35840000D03*
%TO.P,J3,4*%
%TO.N,GND*%
X106000000Y-30760000D03*
%TD*%
D24*
%TO.P,U6,1*%
%TO.N,I2C_SCL*%
X53350000Y-41920000D03*
%TO.P,U6,2*%
%TO.N,I2C_SDA*%
X53350000Y-43190000D03*
%TO.P,U6,3*%
%TO.N,GND*%
X53350000Y-44460000D03*
%TO.P,U6,4*%
X53350000Y-45730000D03*
%TO.P,U6,5*%
X53350000Y-47000000D03*
%TO.P,U6,6*%
%TO.N,+3V3*%
X53350000Y-48270000D03*
%TO.P,U6,7*%
%TO.N,GND*%
X53350000Y-49540000D03*
%TO.P,U6,8*%
%TO.N,DOOR_IN*%
X53350000Y-50810000D03*
%TO.P,U6,9*%
%TO.N,REX_IN*%
X53350000Y-52080000D03*
%TO.P,U6,10*%
%TO.N,TAMPER_IN*%
X62650000Y-52080000D03*
%TO.P,U6,11*%
%TO.N,AUX_IN*%
X62650000Y-50810000D03*
%TO.P,U6,12*%
%TO.N,N/C*%
X62650000Y-49540000D03*
%TO.P,U6,13*%
X62650000Y-48270000D03*
%TO.P,U6,14*%
X62650000Y-47000000D03*
%TO.P,U6,15*%
X62650000Y-45730000D03*
%TO.P,U6,16*%
%TO.N,INPUT_INT*%
X62650000Y-44460000D03*
%TO.P,U6,17*%
%TO.N,+3V3*%
X62650000Y-43190000D03*
%TO.P,U6,18*%
%TO.N,N/C*%
X62650000Y-41920000D03*
%TD*%
D11*
%TO.P,R1,1*%
%TO.N,VIN_FUSED*%
X63175000Y-18000000D03*
%TO.P,R1,2*%
%TO.N,UV_NODE*%
X64825000Y-18000000D03*
%TD*%
D25*
%TO.P,C2,1*%
%TO.N,VIN_IN*%
X81050000Y-14000000D03*
%TO.P,C2,2*%
%TO.N,GND*%
X82950000Y-14000000D03*
%TD*%
D26*
%TO.P,U5,1*%
%TO.N,GND*%
X20862500Y-9050000D03*
%TO.P,U5,2*%
%TO.N,GPIO6_LOCK*%
X20862500Y-10000000D03*
%TO.P,U5,3*%
%TO.N,GND*%
X20862500Y-10950000D03*
%TO.P,U5,4*%
%TO.N,LOCK_GATE_5V*%
X23137500Y-10950000D03*
%TO.P,U5,5*%
%TO.N,+5V*%
X23137500Y-9050000D03*
%TD*%
D27*
%TO.P,L1,1*%
%TO.N,SW_NODE*%
X76700000Y-31000000D03*
%TO.P,L1,2*%
%TO.N,+5V*%
X83300000Y-31000000D03*
%TD*%
D18*
%TO.P,C37,1*%
%TO.N,REX_IN*%
X42225000Y-49000000D03*
%TO.P,C37,2*%
%TO.N,GND*%
X43775000Y-49000000D03*
%TD*%
D28*
%TO.P,D5,1*%
%TO.N,RELAY_COIL_LOW*%
X102350000Y-74000000D03*
%TO.P,D5,2*%
%TO.N,+5V*%
X105650000Y-74000000D03*
%TD*%
D15*
%TO.P,TP12,1*%
%TO.N,LOCK_SW_LOW*%
X49000000Y-4000000D03*
%TD*%
D26*
%TO.P,U3,1*%
%TO.N,+5V*%
X104862500Y-52050000D03*
%TO.P,U3,2*%
%TO.N,GND*%
X104862500Y-53000000D03*
%TO.P,U3,3*%
%TO.N,+5V*%
X104862500Y-53950000D03*
%TO.P,U3,4*%
%TO.N,N/C*%
X107137500Y-53950000D03*
%TO.P,U3,5*%
%TO.N,+3V3*%
X107137500Y-52050000D03*
%TD*%
D11*
%TO.P,R13,1*%
%TO.N,RELAY_GATE*%
X49175000Y-49000000D03*
%TO.P,R13,2*%
%TO.N,GND*%
X50825000Y-49000000D03*
%TD*%
D12*
%TO.P,J1,1*%
%TO.N,VIN_IN*%
X106000000Y-8000000D03*
D13*
%TO.P,J1,2*%
%TO.N,GND*%
X106000000Y-2920000D03*
%TD*%
D17*
%TO.P,Q3,1*%
%TO.N,GPIO5_RELAY*%
X87062500Y-56050000D03*
%TO.P,Q3,2*%
%TO.N,GND*%
X87062500Y-57950000D03*
%TO.P,Q3,3*%
%TO.N,RELAY_COIL_LOW*%
X88937500Y-57000000D03*
%TD*%
D15*
%TO.P,TP17,1*%
%TO.N,AUX_IN*%
X21000000Y-55000000D03*
%TD*%
%TO.P,TP10,1*%
%TO.N,RS485_B*%
X41000000Y-4000000D03*
%TD*%
D12*
%TO.P,J6,1*%
%TO.N,DOOR_IN*%
X62000000Y-72000000D03*
D13*
%TO.P,J6,2*%
%TO.N,REX_IN*%
X67080000Y-72000000D03*
%TO.P,J6,3*%
%TO.N,TAMPER_IN*%
X72160000Y-72000000D03*
%TO.P,J6,4*%
%TO.N,AUX_IN*%
X77240000Y-72000000D03*
%TO.P,J6,5*%
%TO.N,+3V3*%
X82320000Y-72000000D03*
%TO.P,J6,6*%
%TO.N,GND*%
X87400000Y-72000000D03*
%TD*%
D18*
%TO.P,C39,1*%
%TO.N,AUX_IN*%
X42225000Y-57000000D03*
%TO.P,C39,2*%
%TO.N,GND*%
X43775000Y-57000000D03*
%TD*%
D10*
%TO.P,C1,1*%
%TO.N,VIN_IN*%
X80525000Y-10000000D03*
%TO.P,C1,2*%
%TO.N,GND*%
X83475000Y-10000000D03*
%TD*%
D11*
%TO.P,R7,1*%
%TO.N,RS485_A*%
X79175000Y-42000000D03*
%TO.P,R7,2*%
%TO.N,RS485_B*%
X80825000Y-42000000D03*
%TD*%
D29*
%TO.P,U2,1*%
%TO.N,VIN_PROT*%
X63300000Y-25095000D03*
%TO.P,U2,2*%
%TO.N,BUCK_EN*%
X63300000Y-26365000D03*
%TO.P,U2,3*%
%TO.N,RON_NODE*%
X63300000Y-27635000D03*
%TO.P,U2,4*%
%TO.N,FB_5V*%
X63300000Y-28905000D03*
%TO.P,U2,5*%
%TO.N,GND*%
X68700000Y-28905000D03*
%TO.P,U2,6*%
%TO.N,SW_NODE*%
X68700000Y-27635000D03*
%TO.P,U2,7*%
%TO.N,BST_NODE*%
X68700000Y-26365000D03*
%TO.P,U2,8*%
%TO.N,+5V*%
X68700000Y-25095000D03*
D30*
%TO.P,U2,9*%
%TO.N,PGOOD*%
X66000000Y-27000000D03*
%TD*%
D12*
%TO.P,J4,1*%
%TO.N,RELAY_COM*%
X10000000Y-72000000D03*
D13*
%TO.P,J4,2*%
%TO.N,RELAY_NC*%
X15080000Y-72000000D03*
%TO.P,J4,3*%
%TO.N,RELAY_NO*%
X20160000Y-72000000D03*
%TD*%
D21*
%TO.P,Q4,1*%
%TO.N,LOCK_GATE_5V*%
X96525000Y-52095000D03*
%TO.P,Q4,2*%
%TO.N,GND*%
X96525000Y-53365000D03*
%TO.P,Q4,3*%
%TO.N,LOCK_SW_LOW*%
X96525000Y-54635000D03*
%TO.P,Q4,4*%
%TO.N,N/C*%
X96525000Y-55905000D03*
%TO.P,Q4,5*%
X101475000Y-55905000D03*
%TO.P,Q4,6*%
X101475000Y-54635000D03*
%TO.P,Q4,7*%
X101475000Y-53365000D03*
%TO.P,Q4,8*%
X101475000Y-52095000D03*
%TD*%
D15*
%TO.P,TP5,1*%
%TO.N,GND*%
X21000000Y-4000000D03*
%TD*%
D11*
%TO.P,R2,1*%
%TO.N,UV_NODE*%
X69175000Y-19000000D03*
%TO.P,R2,2*%
%TO.N,OV_NODE*%
X70825000Y-19000000D03*
%TD*%
D21*
%TO.P,Q1,1*%
%TO.N,PROT_GATE*%
X87525000Y-12095000D03*
%TO.P,Q1,2*%
%TO.N,VIN_FUSED*%
X87525000Y-13365000D03*
%TO.P,Q1,3*%
%TO.N,VIN_PROT*%
X87525000Y-14635000D03*
%TO.P,Q1,4*%
%TO.N,N/C*%
X87525000Y-15905000D03*
%TO.P,Q1,5*%
X92475000Y-15905000D03*
%TO.P,Q1,6*%
X92475000Y-14635000D03*
%TO.P,Q1,7*%
X92475000Y-13365000D03*
%TO.P,Q1,8*%
X92475000Y-12095000D03*
%TD*%
D31*
%TO.P,K1,1*%
%TO.N,+5V*%
X78000000Y-50000000D03*
D32*
%TO.P,K1,2*%
%TO.N,RELAY_COIL_LOW*%
X78000000Y-52540000D03*
%TO.P,K1,5*%
%TO.N,RELAY_NO*%
X78000000Y-60160000D03*
%TO.P,K1,6*%
%TO.N,N/C*%
X83080000Y-60160000D03*
%TO.P,K1,9*%
X83080000Y-52540000D03*
%TO.P,K1,10*%
X83080000Y-50000000D03*
%TD*%
D15*
%TO.P,TP13,1*%
%TO.N,RELAY_COIL_LOW*%
X5000000Y-55000000D03*
%TD*%
%TO.P,TP3,1*%
%TO.N,+5V*%
X13000000Y-4000000D03*
%TD*%
D33*
%TO.P,U1,1*%
%TO.N,UV_NODE*%
X69887500Y-9025000D03*
%TO.P,U1,2*%
%TO.N,OV_NODE*%
X69887500Y-9675000D03*
%TO.P,U1,3*%
%TO.N,GND*%
X69887500Y-10325000D03*
%TO.P,U1,4*%
%TO.N,PROT_EN*%
X69887500Y-10975000D03*
%TO.P,U1,5*%
%TO.N,PROT_GATE*%
X74112500Y-10975000D03*
%TO.P,U1,6*%
%TO.N,VIN_PROT*%
X74112500Y-10325000D03*
%TO.P,U1,7*%
%TO.N,VIN_FUSED*%
X74112500Y-9675000D03*
%TO.P,U1,8*%
%TO.N,VIN_PROT*%
X74112500Y-9025000D03*
%TD*%
D18*
%TO.P,C7,1*%
%TO.N,+5V*%
X103225000Y-61000000D03*
%TO.P,C7,2*%
%TO.N,GND*%
X104775000Y-61000000D03*
%TD*%
%TO.P,C38,1*%
%TO.N,TAMPER_IN*%
X42225000Y-53000000D03*
%TO.P,C38,2*%
%TO.N,GND*%
X43775000Y-53000000D03*
%TD*%
D11*
%TO.P,R3,1*%
%TO.N,OV_NODE*%
X77175000Y-20000000D03*
%TO.P,R3,2*%
%TO.N,GND*%
X78825000Y-20000000D03*
%TD*%
D21*
%TO.P,U4,1*%
%TO.N,COM1_RX*%
X86525000Y-24095000D03*
%TO.P,U4,2*%
%TO.N,GPIO4_RS485_DIR*%
X86525000Y-25365000D03*
%TO.P,U4,3*%
X86525000Y-26635000D03*
%TO.P,U4,4*%
%TO.N,COM1_TX*%
X86525000Y-27905000D03*
%TO.P,U4,5*%
%TO.N,GND*%
X91475000Y-27905000D03*
%TO.P,U4,6*%
%TO.N,RS485_A*%
X91475000Y-26635000D03*
%TO.P,U4,7*%
%TO.N,RS485_B*%
X91475000Y-25365000D03*
%TO.P,U4,8*%
%TO.N,+5V*%
X91475000Y-24095000D03*
%TD*%
D15*
%TO.P,TP2,1*%
%TO.N,VIN_PROT*%
X9000000Y-4000000D03*
%TD*%
D11*
%TO.P,R11,1*%
%TO.N,RS485_B*%
X95175000Y-42000000D03*
%TO.P,R11,2*%
%TO.N,RS485_B_CONN*%
X96825000Y-42000000D03*
%TD*%
D15*
%TO.P,TP16,1*%
%TO.N,TAMPER_IN*%
X17000000Y-55000000D03*
%TD*%
%TO.P,TP1,1*%
%TO.N,VIN_IN*%
X5000000Y-4000000D03*
%TD*%
D10*
%TO.P,C5,1*%
%TO.N,+5V*%
X90525000Y-36000000D03*
%TO.P,C5,2*%
%TO.N,GND*%
X93475000Y-36000000D03*
%TD*%
D11*
%TO.P,R9,1*%
%TO.N,RS485_B*%
X87175000Y-42000000D03*
%TO.P,R9,2*%
%TO.N,GND*%
X88825000Y-42000000D03*
%TD*%
%TO.P,R14,1*%
%TO.N,LOCK_GATE_5V*%
X17175000Y-38000000D03*
%TO.P,R14,2*%
%TO.N,LOCK_GATE_DRV*%
X18825000Y-38000000D03*
%TD*%
D18*
%TO.P,C3,1*%
%TO.N,BST_NODE*%
X61225000Y-20000000D03*
%TO.P,C3,2*%
%TO.N,SW_NODE*%
X62775000Y-20000000D03*
%TD*%
D15*
%TO.P,TP8,1*%
%TO.N,GPIO4_RS485_DIR*%
X33000000Y-4000000D03*
%TD*%
D11*
%TO.P,R17,1*%
%TO.N,+3V3*%
X49175000Y-57000000D03*
%TO.P,R17,2*%
%TO.N,REX_IN*%
X50825000Y-57000000D03*
%TD*%
D18*
%TO.P,C8,1*%
%TO.N,+3V3*%
X109225000Y-61000000D03*
%TO.P,C8,2*%
%TO.N,GND*%
X110775000Y-61000000D03*
%TD*%
D34*
%TO.N,+3V3*%
X59316700Y-47010200D03*
X18885000Y-28123300D03*
X18885000Y-5256000D03*
X57534100Y-51937100D03*
%TO.N,+5V*%
X68896600Y-30845000D03*
X93847300Y-24342500D03*
X68896600Y-24280700D03*
X95982100Y-48051700D03*
X17393900Y-14983100D03*
X98450900Y-54000000D03*
X82223700Y-41883400D03*
%TO.N,AUX_IN*%
X58632500Y-48634000D03*
X42365000Y-57990400D03*
%TO.N,COM1_RX*%
X83286500Y-24095000D03*
X23430700Y-6086900D03*
X63130300Y-2190200D03*
%TO.N,COM1_TX*%
X23738800Y-4249700D03*
X85704300Y-28725700D03*
X63959300Y-1409000D03*
%TO.N,DOOR_IN*%
X60059700Y-51293300D03*
%TO.N,GND*%
X58168200Y-24890000D03*
X47895700Y-51548000D03*
X94553400Y-34150000D03*
X58167100Y-29751700D03*
X93754300Y-53677500D03*
X57138900Y-44808800D03*
%TO.N,GPIO4_RS485_DIR*%
X32414300Y-24890000D03*
X32414300Y-5186400D03*
%TO.N,GPIO5_RELAY*%
X44775500Y-45594900D03*
%TO.N,GPIO6_LOCK*%
X18282800Y-10000000D03*
%TO.N,LOCK_GATE_5V*%
X23137500Y-11772600D03*
X96525000Y-2620900D03*
X96583800Y-51278700D03*
X17175000Y-37005800D03*
%TO.N,LOCK_SW_LOW*%
X57337400Y-4000000D03*
X57337400Y-38001600D03*
%TO.N,RELAY_COIL_LOW*%
X67682800Y-67283600D03*
%TO.N,RELAY_NO*%
X69712000Y-69196300D03*
%TO.N,REX_IN*%
X57609100Y-53743800D03*
%TO.N,RS485_A*%
X97144800Y-29700500D03*
X75806100Y-5493600D03*
X81747000Y-20598700D03*
%TO.N,TAMPER_IN*%
X72160000Y-54290000D03*
%TO.N,VIN_IN*%
X81980300Y-10047000D03*
%TO.N,VIN_PROT*%
X61260300Y-659500D03*
X61260300Y-24890000D03*
X97144800Y-20626400D03*
X107580500Y-64565700D03*
X61260300Y-6430300D03*
%TD*%
D35*
%TO.N,+3V3*%
X57085600Y-55146000D02*
X59043200Y-53188400D01*
X49175000Y-61000000D02*
X49175000Y-57825000D01*
X58010000Y-46820800D02*
X59127300Y-46820800D01*
X107137500Y-52050000D02*
X109225000Y-54137500D01*
X68203000Y-65821600D02*
X49996600Y-65821600D01*
X111570000Y-69497200D02*
X106128400Y-74938800D01*
X62650000Y-43190000D02*
X59649000Y-43190000D01*
X58010000Y-44829000D02*
X45027100Y-31846100D01*
X59649000Y-43190000D02*
X58010000Y-44829000D01*
X75883100Y-73501700D02*
X68203000Y-65821600D01*
X111282200Y-60216600D02*
X111570000Y-60504400D01*
X109225000Y-60216600D02*
X111282200Y-60216600D01*
X49175000Y-57825000D02*
X52731700Y-57825000D01*
X53350000Y-48270000D02*
X56560800Y-48270000D01*
X111570000Y-60504400D02*
X111570000Y-69497200D01*
X45027100Y-31846100D02*
X22607800Y-31846100D01*
X17000000Y-4000000D02*
X18256000Y-5256000D01*
X18256000Y-5256000D02*
X18885000Y-5256000D01*
X80818300Y-73501700D02*
X75883100Y-73501700D01*
X55410700Y-55146000D02*
X57085600Y-55146000D01*
X106128400Y-74938800D02*
X85258800Y-74938800D01*
X85258800Y-74938800D02*
X82320000Y-72000000D01*
X82320000Y-72000000D02*
X80818300Y-73501700D01*
X57862600Y-51937100D02*
X57534100Y-51937100D01*
X59043200Y-53188400D02*
X59043200Y-53117700D01*
X22607800Y-31846100D02*
X18885000Y-28123300D01*
X109225000Y-54137500D02*
X109225000Y-60216600D01*
X58010000Y-44829000D02*
X58010000Y-46820800D01*
X49175000Y-57825000D02*
X49175000Y-57000000D01*
X56560800Y-48270000D02*
X58010000Y-46820800D01*
X49996600Y-65821600D02*
X49175000Y-65000000D01*
X49175000Y-57000000D02*
X49175000Y-53000000D01*
X52731700Y-57825000D02*
X55410700Y-55146000D01*
X49175000Y-61000000D02*
X49175000Y-65000000D01*
X109225000Y-60216600D02*
X109225000Y-61000000D01*
X59127300Y-46820800D02*
X59316700Y-47010200D01*
X59043200Y-53117700D02*
X57862600Y-51937100D01*
%TO.N,+5V*%
X84151400Y-40907000D02*
X84149300Y-40907000D01*
X19350000Y-14825000D02*
X19561000Y-14614000D01*
X103225000Y-54000000D02*
X98450900Y-54000000D01*
X104000000Y-72350000D02*
X105650000Y-74000000D01*
X83300000Y-31000000D02*
X90525000Y-31000000D01*
X103225000Y-54000000D02*
X104812500Y-54000000D01*
X68700000Y-25095000D02*
X68896600Y-24898400D01*
X90525000Y-31000000D02*
X93225000Y-31000000D01*
X17393900Y-14983100D02*
X17440600Y-14936400D01*
X83598300Y-41460100D02*
X83175000Y-41883400D01*
X22523400Y-8435900D02*
X23137500Y-9050000D01*
X83598300Y-41458000D02*
X83598300Y-41460100D01*
X17110100Y-14494500D02*
X17440600Y-14825000D01*
X13000000Y-4000000D02*
X17110100Y-8110100D01*
X83175000Y-42000000D02*
X83175000Y-41883400D01*
X91722500Y-24342500D02*
X91475000Y-24095000D01*
X17440600Y-14825000D02*
X19350000Y-14825000D01*
X35792000Y-30845000D02*
X68896600Y-30845000D01*
X89058400Y-36000000D02*
X84151400Y-40907000D01*
X68896600Y-24898400D02*
X68896600Y-24280700D01*
X17110100Y-8435900D02*
X22523400Y-8435900D01*
X17110100Y-8110100D02*
X17110100Y-8435900D01*
X103225000Y-61000000D02*
X104000000Y-61775000D01*
X90525000Y-36000000D02*
X89058400Y-36000000D01*
X104000000Y-61775000D02*
X104000000Y-72350000D01*
X19561000Y-14614000D02*
X35792000Y-30845000D01*
X17440600Y-14936400D02*
X17440600Y-14825000D01*
X19561000Y-14614000D02*
X20175000Y-14000000D01*
X83175000Y-41883400D02*
X82223700Y-41883400D01*
X84149300Y-40907000D02*
X83598300Y-41458000D01*
X100864200Y-48051700D02*
X104862500Y-52050000D01*
X90525000Y-31000000D02*
X90525000Y-36000000D01*
X103225000Y-54000000D02*
X103225000Y-61000000D01*
X95982100Y-48051700D02*
X100864200Y-48051700D01*
X17110100Y-8435900D02*
X17110100Y-14494500D01*
X104812500Y-54000000D02*
X104862500Y-53950000D01*
X93847300Y-24342500D02*
X91722500Y-24342500D01*
%TO.N,AUX_IN*%
X61115100Y-51116600D02*
X58632500Y-48634000D01*
X53368700Y-59430900D02*
X61115100Y-51684500D01*
X50103100Y-64278100D02*
X50103100Y-60507500D01*
X70240000Y-65000000D02*
X50825000Y-65000000D01*
X50103100Y-60507500D02*
X51179700Y-59430900D01*
X61115100Y-51684500D02*
X61115100Y-51116600D01*
X62650000Y-50810000D02*
X61421700Y-50810000D01*
X77240000Y-72000000D02*
X70240000Y-65000000D01*
X51179700Y-59430900D02*
X53368700Y-59430900D01*
X61421700Y-50810000D02*
X61115100Y-51116600D01*
X42225000Y-57000000D02*
X23000000Y-57000000D01*
X23000000Y-57000000D02*
X21000000Y-55000000D01*
X42225000Y-57000000D02*
X42225000Y-57850400D01*
X42225000Y-57850400D02*
X42365000Y-57990400D01*
X50825000Y-65000000D02*
X50103100Y-64278100D01*
%TO.N,BST_NODE*%
X69145800Y-23637800D02*
X64862800Y-23637800D01*
X69776700Y-24666200D02*
X69498300Y-24387800D01*
X69776700Y-26365000D02*
X69776700Y-24666200D01*
X64862800Y-23637800D02*
X61225000Y-20000000D01*
X69498300Y-23990300D02*
X69145800Y-23637800D01*
X68700000Y-26365000D02*
X69776700Y-26365000D01*
X69498300Y-24387800D02*
X69498300Y-23990300D01*
%TO.N,COM1_RX*%
X29000000Y-4000000D02*
X26913100Y-6086900D01*
X83286500Y-24095000D02*
X86525000Y-24095000D01*
X63130300Y-2190200D02*
X30809800Y-2190200D01*
X30809800Y-2190200D02*
X29000000Y-4000000D01*
X26913100Y-6086900D02*
X23430700Y-6086900D01*
%TO.N,COM1_TX*%
X86525000Y-27905000D02*
X85704300Y-28725700D01*
X27591000Y-1409000D02*
X63959300Y-1409000D01*
X25000000Y-4000000D02*
X24750300Y-4249700D01*
X25000000Y-4000000D02*
X27591000Y-1409000D01*
X24750300Y-4249700D02*
X23738800Y-4249700D01*
%TO.N,DOOR_IN*%
X19000000Y-45000000D02*
X42225000Y-45000000D01*
X48258900Y-50189700D02*
X47992700Y-50189700D01*
X43110600Y-45885600D02*
X42225000Y-45000000D01*
X53350000Y-50810000D02*
X53833300Y-51293300D01*
X50825000Y-52885500D02*
X50825000Y-53000000D01*
X53350000Y-50810000D02*
X52900500Y-50810000D01*
X43688600Y-45885600D02*
X43110600Y-45885600D01*
X53833300Y-51293300D02*
X60059700Y-51293300D01*
X52900500Y-50810000D02*
X50889900Y-52820600D01*
X50889900Y-52820600D02*
X50825000Y-52885500D01*
X50889900Y-52820600D02*
X48258900Y-50189700D01*
X9000000Y-55000000D02*
X19000000Y-45000000D01*
X47992700Y-50189700D02*
X43688600Y-45885600D01*
%TO.N,FB_5V*%
X57565400Y-28903400D02*
X57565400Y-28905000D01*
X58768800Y-28905000D02*
X58768800Y-28903300D01*
X62223300Y-28905000D02*
X58768800Y-28905000D01*
X63300000Y-28905000D02*
X62223300Y-28905000D01*
X32919300Y-27404300D02*
X29884800Y-24369800D01*
X24175000Y-14000000D02*
X21825000Y-14000000D01*
X58768800Y-28903300D02*
X58416300Y-28550800D01*
X34987900Y-28905000D02*
X33487200Y-27404300D01*
X29884800Y-23803800D02*
X24175000Y-18094000D01*
X57565400Y-28905000D02*
X34987900Y-28905000D01*
X29884800Y-24369800D02*
X29884800Y-23803800D01*
X33487200Y-27404300D02*
X32919300Y-27404300D01*
X24175000Y-18094000D02*
X24175000Y-14000000D01*
X58416300Y-28550800D02*
X57918000Y-28550800D01*
X57918000Y-28550800D02*
X57565400Y-28903400D01*
%TO.N,GND*%
X21210200Y-10602300D02*
X20862500Y-10950000D01*
X88825000Y-43239600D02*
X88825000Y-42000000D01*
X87400000Y-72000000D02*
X87062500Y-71662500D01*
X79707000Y-8308200D02*
X81783200Y-8308200D01*
X24789000Y-12804100D02*
X22608400Y-12804100D01*
X78825000Y-20000000D02*
X78825000Y-18125000D01*
X57138900Y-44808800D02*
X56790100Y-44460000D01*
X52941700Y-47000000D02*
X53350000Y-47000000D01*
X94937500Y-20000000D02*
X94937500Y-18881900D01*
X22608400Y-12804100D02*
X20862500Y-11058200D01*
X96212500Y-53677500D02*
X96525000Y-53365000D01*
X24148300Y-8223700D02*
X24148400Y-8223700D01*
X69776700Y-29751700D02*
X58167100Y-29751700D01*
X53350000Y-49540000D02*
X53153800Y-49343800D01*
X105555400Y-61780400D02*
X104775000Y-61000000D01*
X22428100Y-9736600D02*
X22216400Y-9948300D01*
X24030400Y-38794600D02*
X12808100Y-38794600D01*
X58365000Y-24890000D02*
X59475000Y-26000000D01*
X24825000Y-38000000D02*
X31004200Y-44179200D01*
X30688200Y-24037200D02*
X30688200Y-18863200D01*
X88946700Y-14000000D02*
X83475000Y-14000000D01*
X6976700Y-37909400D02*
X6976700Y-36476700D01*
X7567300Y-38500000D02*
X6976700Y-37909400D01*
X93475000Y-35228400D02*
X94553400Y-34150000D01*
X24825000Y-38000000D02*
X24030400Y-38794600D01*
X104592500Y-52730000D02*
X97849000Y-52730000D01*
X53153800Y-49343700D02*
X52742800Y-49343700D01*
X90229900Y-44644500D02*
X88825000Y-43239600D01*
X94775000Y-31000000D02*
X94553400Y-31221600D01*
X104862500Y-53000000D02*
X104592500Y-52730000D01*
X69776700Y-36923300D02*
X76434700Y-43581300D01*
X69776700Y-29751700D02*
X69776700Y-28905000D01*
X48590400Y-26559600D02*
X33210600Y-26559600D01*
X24148400Y-8223700D02*
X24148400Y-9381100D01*
X25825000Y-13840100D02*
X24789000Y-12804100D01*
X43775000Y-57000000D02*
X43775000Y-53000000D01*
X70697400Y-10325000D02*
X72275000Y-11902600D01*
X53350000Y-45730000D02*
X53350000Y-44460000D01*
X105214700Y-53000000D02*
X104862500Y-53000000D01*
X88483300Y-43581300D02*
X88825000Y-43239600D01*
X22216400Y-9948300D02*
X21562400Y-10602300D01*
X59650000Y-38000000D02*
X60050900Y-38000000D01*
X105827300Y-53612600D02*
X105214700Y-53000000D01*
X24148400Y-9381100D02*
X23792900Y-9736600D01*
X68700000Y-28905000D02*
X69776700Y-28905000D01*
X44552500Y-44222500D02*
X43775000Y-45000000D01*
X94775000Y-30760000D02*
X106000000Y-30760000D01*
X94553400Y-31221600D02*
X94553400Y-34150000D01*
X69887500Y-10325000D02*
X70697400Y-10325000D01*
X91665000Y-16718300D02*
X88946700Y-14000000D01*
X76434700Y-43581300D02*
X88483300Y-43581300D01*
X33210600Y-26559600D02*
X30688200Y-24037200D01*
X110775000Y-61000000D02*
X109994600Y-61780400D01*
X51717700Y-48224000D02*
X52941700Y-47000000D01*
X52742800Y-49343700D02*
X51717700Y-48318600D01*
X51717700Y-48318600D02*
X51717700Y-48224000D01*
X30688200Y-18863200D02*
X25825000Y-14000000D01*
X78825000Y-18125000D02*
X82950000Y-14000000D01*
X91130300Y-27905000D02*
X91475000Y-27905000D01*
X97160000Y-52730000D02*
X96525000Y-53365000D01*
X53112500Y-44222500D02*
X44552500Y-44222500D01*
X93475000Y-36000000D02*
X93475000Y-35228400D01*
X51717700Y-48318600D02*
X51506400Y-48318600D01*
X97849000Y-51024000D02*
X91469500Y-44644500D01*
X78825000Y-20000000D02*
X78825000Y-20484300D01*
X94937500Y-18881900D02*
X92773900Y-16718300D01*
X94775000Y-30760000D02*
X94775000Y-31000000D01*
X21000000Y-4000000D02*
X21000000Y-5075400D01*
X105827300Y-59947700D02*
X105827300Y-53612600D01*
X21318000Y-9050000D02*
X20862500Y-9050000D01*
X109994600Y-61780400D02*
X105555400Y-61780400D01*
X91469500Y-44644500D02*
X90229900Y-44644500D01*
X83070700Y-24730000D02*
X87955300Y-24730000D01*
X51506400Y-48318600D02*
X50825000Y-49000000D01*
X12808100Y-38794600D02*
X12513500Y-38500000D01*
X43775000Y-53000000D02*
X43775000Y-51548000D01*
X93754300Y-53677500D02*
X96212500Y-53677500D01*
X42954200Y-44179200D02*
X43775000Y-45000000D01*
X72275000Y-11902600D02*
X76112600Y-11902600D01*
X97849000Y-52730000D02*
X97849000Y-51024000D01*
X6976700Y-36476700D02*
X6000000Y-35500000D01*
X56790100Y-44460000D02*
X53350000Y-44460000D01*
X58168200Y-24890000D02*
X58365000Y-24890000D01*
X76112600Y-11902600D02*
X79707000Y-8308200D01*
X60050900Y-38000000D02*
X68700000Y-38000000D01*
X21000000Y-5075400D02*
X24148300Y-8223700D01*
X78825000Y-20484300D02*
X83070700Y-24730000D01*
X54150000Y-21000000D02*
X48590400Y-26559600D01*
X104775000Y-61000000D02*
X105827300Y-59947700D01*
X81783200Y-8308200D02*
X83475000Y-10000000D01*
X22216400Y-9948300D02*
X21318000Y-9050000D01*
X53350000Y-44460000D02*
X53112500Y-44222500D01*
X25825000Y-14000000D02*
X25825000Y-13840100D01*
X94330000Y-30760000D02*
X94775000Y-30760000D01*
X21562400Y-10602300D02*
X21210200Y-10602300D01*
X87062500Y-71662500D02*
X87062500Y-57950000D01*
X97849000Y-52730000D02*
X97160000Y-52730000D01*
X58168200Y-24693200D02*
X54475000Y-21000000D01*
X47895700Y-51548000D02*
X43775000Y-51548000D01*
X23792900Y-9736600D02*
X22428100Y-9736600D01*
X53153800Y-49343800D02*
X53153800Y-49343700D01*
X20862500Y-11058200D02*
X20862500Y-10950000D01*
X31004200Y-44179200D02*
X42954200Y-44179200D01*
X53350000Y-47000000D02*
X53350000Y-45730000D01*
X43775000Y-51548000D02*
X43775000Y-49000000D01*
X58168200Y-24890000D02*
X58168200Y-24693200D01*
X54475000Y-21000000D02*
X54150000Y-21000000D01*
X12513500Y-38500000D02*
X7567300Y-38500000D01*
X83475000Y-14000000D02*
X83475000Y-10000000D01*
X69776700Y-36923300D02*
X69776700Y-29751700D01*
X91475000Y-27905000D02*
X94330000Y-30760000D01*
X83475000Y-14000000D02*
X82950000Y-14000000D01*
X92773900Y-16718300D02*
X91665000Y-16718300D01*
X87955300Y-24730000D02*
X91130300Y-27905000D01*
X68700000Y-38000000D02*
X69776700Y-36923300D01*
%TO.N,GPIO4_RS485_DIR*%
X52000100Y-21547600D02*
X48657700Y-24890000D01*
X48657700Y-24890000D02*
X32414300Y-24890000D01*
X67179000Y-19219600D02*
X53228400Y-19219600D01*
X33000000Y-4600700D02*
X32414300Y-5186400D01*
X86525000Y-25365000D02*
X73324400Y-25365000D01*
X86525000Y-26635000D02*
X86525000Y-25365000D01*
X33000000Y-4000000D02*
X33000000Y-4600700D01*
X52000100Y-20447900D02*
X52000100Y-21547600D01*
X73324400Y-25365000D02*
X67179000Y-19219600D01*
X53228400Y-19219600D02*
X52000100Y-20447900D01*
%TO.N,GPIO5_RELAY*%
X58690000Y-47635000D02*
X56150000Y-50175000D01*
X56150000Y-50175000D02*
X49134100Y-50175000D01*
X84749100Y-56050000D02*
X80254500Y-51555400D01*
X44775500Y-45594900D02*
X48580100Y-45594900D01*
X80254500Y-49770700D02*
X78118800Y-47635000D01*
X44775500Y-45816400D02*
X44775500Y-45594900D01*
X78118800Y-47635000D02*
X58690000Y-47635000D01*
X48580100Y-45594900D02*
X49175000Y-45000000D01*
X80254500Y-51555400D02*
X80254500Y-49770700D01*
X87062500Y-56050000D02*
X84749100Y-56050000D01*
X49134100Y-50175000D02*
X44775500Y-45816400D01*
%TO.N,GPIO6_LOCK*%
X20862500Y-10000000D02*
X18282800Y-10000000D01*
%TO.N,I2C_SCL*%
X12747800Y-32247800D02*
X43677800Y-32247800D01*
X43677800Y-32247800D02*
X53350000Y-41920000D01*
X8000000Y-27500000D02*
X12747800Y-32247800D01*
%TO.N,I2C_SDA*%
X53350000Y-43190000D02*
X31789200Y-43190000D01*
X7023300Y-28523300D02*
X6000000Y-27500000D01*
X12595800Y-32689200D02*
X8429900Y-28523300D01*
X8429900Y-28523300D02*
X7023300Y-28523300D01*
X21288400Y-32689200D02*
X12595800Y-32689200D01*
X31789200Y-43190000D02*
X21288400Y-32689200D01*
%TO.N,LOCK_GATE_5V*%
X23137500Y-10950000D02*
X23137500Y-11772600D01*
X43885700Y-2885700D02*
X45000000Y-4000000D01*
X88114600Y-2620900D02*
X96525000Y-2620900D01*
X23137500Y-10950000D02*
X27541300Y-10950000D01*
X27541300Y-10950000D02*
X35605600Y-2885700D01*
X35605600Y-2885700D02*
X43885700Y-2885700D01*
X46109000Y-2891000D02*
X87844500Y-2891000D01*
X96525000Y-51337500D02*
X96583800Y-51278700D01*
X87844500Y-2891000D02*
X88114600Y-2620900D01*
X45000000Y-4000000D02*
X46109000Y-2891000D01*
X17175000Y-38000000D02*
X17175000Y-37005800D01*
X96525000Y-52095000D02*
X96525000Y-51337500D01*
%TO.N,LOCK_GATE_DRV*%
X18825000Y-38000000D02*
X23175000Y-38000000D01*
%TO.N,LOCK_SW_LOW*%
X67959600Y-39051700D02*
X58350000Y-39051700D01*
X57339000Y-38000000D02*
X57337400Y-38001600D01*
X49000000Y-4000000D02*
X57337400Y-4000000D01*
X90626500Y-54635000D02*
X81720600Y-45729100D01*
X102000000Y-59711300D02*
X102000000Y-66000000D01*
X96525000Y-54635000D02*
X96923700Y-54635000D01*
X96525000Y-54635000D02*
X90626500Y-54635000D01*
X57548300Y-38000000D02*
X57339000Y-38000000D01*
X81720600Y-45729100D02*
X74637000Y-45729100D01*
X96923700Y-54635000D02*
X102000000Y-59711300D01*
X74637000Y-45729100D02*
X67959600Y-39051700D01*
X58350000Y-38000000D02*
X58350000Y-39051700D01*
X58350000Y-38000000D02*
X57548300Y-38000000D01*
%TO.N,OV_NODE*%
X68744100Y-16919100D02*
X70825000Y-19000000D01*
X68744100Y-10055500D02*
X68744100Y-16919100D01*
X69124600Y-9675000D02*
X68744100Y-10055500D01*
X77175000Y-20000000D02*
X71825000Y-20000000D01*
X69887500Y-9675000D02*
X69124600Y-9675000D01*
X71825000Y-20000000D02*
X70825000Y-19000000D01*
%TO.N,PROT_GATE*%
X94557300Y-6032700D02*
X92578000Y-6032700D01*
X94834300Y-6309700D02*
X94557300Y-6032700D01*
X93180300Y-4095000D02*
X93525000Y-4095000D01*
X75033000Y-10975000D02*
X74112500Y-10975000D01*
X79973800Y-6034200D02*
X75033000Y-10975000D01*
X94834300Y-8302300D02*
X94834300Y-6309700D01*
X92247700Y-5702400D02*
X92247700Y-5027600D01*
X89950200Y-9669800D02*
X93466800Y-9669800D01*
X92247700Y-5702400D02*
X91915900Y-6034200D01*
X91915900Y-6034200D02*
X79973800Y-6034200D01*
X93466800Y-9669800D02*
X94834300Y-8302300D01*
X92578000Y-6032700D02*
X92247700Y-5702400D01*
X87525000Y-12095000D02*
X89950200Y-9669800D01*
X92247700Y-5027600D02*
X93180300Y-4095000D01*
%TO.N,RELAY_COIL_LOW*%
X67682800Y-67283600D02*
X17283600Y-67283600D01*
X88937500Y-57000000D02*
X82460000Y-57000000D01*
X17283600Y-67283600D02*
X5000000Y-55000000D01*
X82460000Y-57000000D02*
X78000000Y-52540000D01*
X88937500Y-60587500D02*
X88937500Y-57000000D01*
X102350000Y-74000000D02*
X88937500Y-60587500D01*
%TO.N,RELAY_GATE*%
X49175000Y-46650000D02*
X50825000Y-45000000D01*
X49175000Y-49000000D02*
X49175000Y-46650000D01*
%TO.N,RELAY_NO*%
X22963700Y-69196300D02*
X20160000Y-72000000D01*
X69712000Y-69196300D02*
X22963700Y-69196300D01*
%TO.N,REX_IN*%
X57609100Y-53743800D02*
X55013800Y-53743800D01*
X47826400Y-50591400D02*
X48002900Y-50591400D01*
X50000000Y-53427600D02*
X51001200Y-54428800D01*
X50825000Y-54605000D02*
X50825000Y-57000000D01*
X55013800Y-53743800D02*
X53350000Y-52080000D01*
X50000000Y-52588500D02*
X50000000Y-53427600D01*
X42225000Y-49000000D02*
X19000000Y-49000000D01*
X48002900Y-50591400D02*
X50000000Y-52588500D01*
X45419200Y-48184200D02*
X47826400Y-50591400D01*
X19000000Y-49000000D02*
X13000000Y-55000000D01*
X51001200Y-54428800D02*
X50825000Y-54605000D01*
X53350000Y-52080000D02*
X51001200Y-54428800D01*
X43040800Y-48184200D02*
X45419200Y-48184200D01*
X42225000Y-49000000D02*
X43040800Y-48184200D01*
%TO.N,RON_NODE*%
X25000000Y-18349000D02*
X30286500Y-23635500D01*
X33085600Y-27002600D02*
X33653600Y-27002600D01*
X17825000Y-14000000D02*
X18613000Y-13212000D01*
X18613000Y-13212000D02*
X24574500Y-13212000D01*
X61784800Y-28073500D02*
X62223300Y-27635000D01*
X34724500Y-28073500D02*
X61784800Y-28073500D01*
X33653600Y-27002600D02*
X34724500Y-28073500D01*
X30286500Y-23635500D02*
X30286500Y-24203500D01*
X30286500Y-24203500D02*
X33085600Y-27002600D01*
X25000000Y-13637500D02*
X25000000Y-18349000D01*
X63300000Y-27635000D02*
X62223300Y-27635000D01*
X24574500Y-13212000D02*
X25000000Y-13637500D01*
%TO.N,RS485_A*%
X81657200Y-43179600D02*
X84166300Y-43179600D01*
X84401700Y-42944200D02*
X84401700Y-42777900D01*
X97144800Y-29700500D02*
X94079300Y-26635000D01*
X79175000Y-42000000D02*
X79952900Y-42777900D01*
X89751900Y-25280900D02*
X91106000Y-26635000D01*
X81034900Y-42777900D02*
X81036400Y-42779400D01*
X87645400Y-42777900D02*
X84825000Y-42777900D01*
X38493600Y-5493600D02*
X75806100Y-5493600D01*
X106000000Y-46000000D02*
X95175000Y-46000000D01*
X81036400Y-42779400D02*
X81257000Y-42779400D01*
X84401700Y-42777900D02*
X84825000Y-42777900D01*
X79952900Y-42777900D02*
X81034900Y-42777900D01*
X87990000Y-20598700D02*
X89751900Y-22360600D01*
X89751900Y-22360600D02*
X89751900Y-25280900D01*
X88021900Y-42401400D02*
X87645400Y-42777900D01*
X91106000Y-26635000D02*
X91475000Y-26635000D01*
X88426100Y-41173100D02*
X88021900Y-41577300D01*
X81747000Y-20598700D02*
X87990000Y-20598700D01*
X90348100Y-41173100D02*
X88426100Y-41173100D01*
X84166300Y-43179600D02*
X84401700Y-42944200D01*
X88021900Y-41577300D02*
X88021900Y-42401400D01*
X93062500Y-19050000D02*
X89751900Y-22360600D01*
X94079300Y-26635000D02*
X91475000Y-26635000D01*
X81257000Y-42779400D02*
X81657200Y-43179600D01*
X84825000Y-42777900D02*
X84825000Y-42000000D01*
X37000000Y-4000000D02*
X38493600Y-5493600D01*
X95175000Y-46000000D02*
X91175000Y-42000000D01*
X91175000Y-42000000D02*
X90348100Y-41173100D01*
%TO.N,RS485_B*%
X88190600Y-40771400D02*
X87175000Y-41787000D01*
X97767100Y-25365000D02*
X91475000Y-25365000D01*
X84413400Y-41219500D02*
X84000000Y-41632900D01*
X63163400Y-4820700D02*
X62892200Y-5091900D01*
X103335900Y-25365000D02*
X97767100Y-25365000D01*
X87175000Y-41787000D02*
X86607500Y-41219500D01*
X95175000Y-41173100D02*
X94773300Y-40771400D01*
X86682600Y-4820700D02*
X63163400Y-4820700D01*
X91066500Y-25365000D02*
X91475000Y-25365000D01*
X95175000Y-41173100D02*
X95175000Y-42000000D01*
X96860400Y-9501100D02*
X96860400Y-5188800D01*
X87175000Y-41787000D02*
X87175000Y-42000000D01*
X42091900Y-5091900D02*
X41000000Y-4000000D01*
X106000000Y-40920000D02*
X95428100Y-40920000D01*
X92987300Y-20950000D02*
X90179000Y-23758300D01*
X97767100Y-10407800D02*
X96860400Y-9501100D01*
X82023700Y-42777900D02*
X81245800Y-42000000D01*
X96860400Y-5188800D02*
X94746100Y-3074500D01*
X93062500Y-20950000D02*
X92987300Y-20950000D01*
X88428800Y-3074500D02*
X86682600Y-4820700D01*
X84000000Y-42420100D02*
X83642200Y-42777900D01*
X107909300Y-39010700D02*
X107909300Y-29938400D01*
X106000000Y-40920000D02*
X107909300Y-39010700D01*
X94773300Y-40771400D02*
X88190600Y-40771400D01*
X86607500Y-41219500D02*
X84413400Y-41219500D01*
X84000000Y-41632900D02*
X84000000Y-42420100D01*
X90179000Y-24477500D02*
X91066500Y-25365000D01*
X94746100Y-3074500D02*
X88428800Y-3074500D01*
X95428100Y-40920000D02*
X95175000Y-41173100D01*
X107909300Y-29938400D02*
X103335900Y-25365000D01*
X62892200Y-5091900D02*
X42091900Y-5091900D01*
X83642200Y-42777900D02*
X82023700Y-42777900D01*
X90179000Y-23758300D02*
X90179000Y-24477500D01*
X81245800Y-42000000D02*
X80825000Y-42000000D01*
X97767100Y-25365000D02*
X97767100Y-10407800D01*
%TO.N,SW_NODE*%
X70207800Y-24131800D02*
X66076000Y-20000000D01*
X68700000Y-27635000D02*
X70207800Y-27635000D01*
X71283300Y-27635000D02*
X74648300Y-31000000D01*
X70207800Y-27635000D02*
X70207800Y-24131800D01*
X70207800Y-27635000D02*
X71283300Y-27635000D01*
X76700000Y-31000000D02*
X74648300Y-31000000D01*
X66076000Y-20000000D02*
X62775000Y-20000000D01*
%TO.N,TAMPER_IN*%
X43000000Y-60039000D02*
X43000000Y-53775000D01*
X62650000Y-52080000D02*
X53730000Y-61000000D01*
X62650000Y-52080000D02*
X64860000Y-54290000D01*
X64860000Y-54290000D02*
X72160000Y-54290000D01*
X72160000Y-70736600D02*
X67926400Y-66503000D01*
X67926400Y-66503000D02*
X49464000Y-66503000D01*
X72160000Y-72000000D02*
X72160000Y-70736600D01*
X53730000Y-61000000D02*
X50825000Y-61000000D01*
X49464000Y-66503000D02*
X43000000Y-60039000D01*
X17000000Y-55000000D02*
X19000000Y-53000000D01*
X19000000Y-53000000D02*
X42225000Y-53000000D01*
X43000000Y-53775000D02*
X42225000Y-53000000D01*
%TO.N,UV_NODE*%
X69887500Y-9025000D02*
X69120800Y-9025000D01*
X69120800Y-9025000D02*
X64825000Y-13320800D01*
X64825000Y-13320800D02*
X64825000Y-18000000D01*
X68175000Y-18000000D02*
X64825000Y-18000000D01*
X69175000Y-19000000D02*
X68175000Y-18000000D01*
%TO.N,VIN_FUSED*%
X86202800Y-8308200D02*
X86202800Y-12389700D01*
X75871900Y-11500900D02*
X73223900Y-11500900D01*
X86202800Y-12389700D02*
X87178100Y-13365000D01*
X57400000Y-10000000D02*
X58916100Y-8483900D01*
X72973900Y-11250900D02*
X72973900Y-10050100D01*
X73223900Y-11500900D02*
X72973900Y-11250900D01*
X87178100Y-13365000D02*
X87525000Y-13365000D01*
X71954800Y-8483900D02*
X73145900Y-9675000D01*
X73746900Y-9675000D02*
X74112500Y-9675000D01*
X57400000Y-10000000D02*
X63175000Y-15775000D01*
X63175000Y-15775000D02*
X63175000Y-18000000D01*
X87876000Y-6635000D02*
X86202800Y-8308200D01*
X73349000Y-9675000D02*
X73746900Y-9675000D01*
X93525000Y-6635000D02*
X87876000Y-6635000D01*
X85801100Y-7906500D02*
X79466300Y-7906500D01*
X73145900Y-9675000D02*
X73746900Y-9675000D01*
X58916100Y-8483900D02*
X71954800Y-8483900D01*
X72973900Y-10050100D02*
X73349000Y-9675000D01*
X79466300Y-7906500D02*
X75871900Y-11500900D01*
X86202800Y-8308200D02*
X85801100Y-7906500D01*
%TO.N,VIN_IN*%
X81980300Y-10047000D02*
X81528000Y-10047000D01*
X52052300Y-18797700D02*
X54600000Y-18797700D01*
X22473300Y-3981000D02*
X22473300Y-5980700D01*
X81050000Y-10525000D02*
X81050000Y-14000000D01*
X54600000Y-18797700D02*
X67695900Y-18797700D01*
X81528000Y-10047000D02*
X81050000Y-10525000D01*
X6098400Y-2901600D02*
X21393900Y-2901600D01*
X22154300Y-10609700D02*
X22154300Y-11731700D01*
X22473300Y-5980700D02*
X24265800Y-7773200D01*
X80525000Y-10000000D02*
X81050000Y-10525000D01*
X21393900Y-2901600D02*
X22473300Y-3981000D01*
X22520300Y-10243700D02*
X22154300Y-10609700D01*
X69695700Y-20797500D02*
X77578300Y-20797500D01*
X23853800Y-10243700D02*
X22520300Y-10243700D01*
X24265800Y-7773200D02*
X24407200Y-7773200D01*
X22154300Y-11731700D02*
X22818700Y-12396100D01*
X5000000Y-4000000D02*
X6098400Y-2901600D01*
X67695900Y-18797700D02*
X69695700Y-20797500D01*
X54600000Y-18797700D02*
X54600000Y-10000000D01*
X52203900Y-12396100D02*
X54600000Y-10000000D01*
X49850000Y-21000000D02*
X52052300Y-18797700D01*
X77578300Y-20797500D02*
X78000000Y-20375800D01*
X24604200Y-9493300D02*
X23853800Y-10243700D01*
X78000000Y-20375800D02*
X78000000Y-17050000D01*
X24604200Y-7970200D02*
X24604200Y-9493300D01*
X22818700Y-12396100D02*
X52203900Y-12396100D01*
X78000000Y-17050000D02*
X81050000Y-14000000D01*
X24407200Y-7773200D02*
X24604200Y-7970200D01*
%TO.N,VIN_PROT*%
X4476700Y-5056800D02*
X3929300Y-4509400D01*
X58184600Y-27659600D02*
X56525000Y-26000000D01*
X9000000Y-4000000D02*
X9000000Y-5056800D01*
X74112500Y-9025000D02*
X74844700Y-9025000D01*
X75242900Y-9969100D02*
X74887000Y-10325000D01*
X74844700Y-9025000D02*
X75242900Y-9423200D01*
X94154400Y-19345500D02*
X94154400Y-18749500D01*
X93688200Y-18283300D02*
X92578700Y-18283300D01*
X3929300Y-4509400D02*
X3929300Y-3468800D01*
X9000000Y-5056800D02*
X4476700Y-5056800D01*
X94154400Y-18749500D02*
X93688200Y-18283300D01*
X94176500Y-20626400D02*
X93856400Y-20306300D01*
X90640400Y-5365000D02*
X90640400Y-5364900D01*
X6738600Y-659500D02*
X61260300Y-659500D01*
X62223300Y-25471100D02*
X60034800Y-27659600D01*
X107434300Y-64565700D02*
X107580500Y-64565700D01*
X75242900Y-9423200D02*
X75242900Y-9969100D01*
X93856400Y-19643500D02*
X94154400Y-19345500D01*
X96036400Y-20626400D02*
X97144800Y-20626400D01*
X74112500Y-9025000D02*
X71517800Y-6430300D01*
X94537400Y-3492700D02*
X94802300Y-3757600D01*
X94528100Y-5365000D02*
X96036400Y-6873300D01*
X16175000Y-12231800D02*
X16175000Y-14000000D01*
X62223300Y-25095000D02*
X62223300Y-25471100D01*
X94802300Y-3757600D02*
X94802300Y-5090800D01*
X61260300Y-24890000D02*
X62018300Y-24890000D01*
X93856400Y-20306300D02*
X93856400Y-19643500D01*
X94802300Y-5090800D02*
X94528100Y-5365000D01*
X60034800Y-27659600D02*
X58184600Y-27659600D01*
X3929300Y-3468800D02*
X6738600Y-659500D01*
X96036400Y-20626400D02*
X94176500Y-20626400D01*
X74887000Y-10325000D02*
X74112500Y-10325000D01*
X92578700Y-18283300D02*
X88930400Y-14635000D01*
X9000000Y-5056800D02*
X16175000Y-12231800D01*
X88930400Y-14635000D02*
X87525000Y-14635000D01*
X71517800Y-6430300D02*
X61260300Y-6430300D01*
X63300000Y-25095000D02*
X62223300Y-25095000D01*
X62018300Y-24890000D02*
X62223300Y-25095000D01*
X106000000Y-66000000D02*
X107434300Y-64565700D01*
X94528100Y-5365000D02*
X93525000Y-5365000D01*
X92512600Y-3492700D02*
X94537400Y-3492700D01*
X96036400Y-6873300D02*
X96036400Y-20626400D01*
X75242900Y-9423200D02*
X79301100Y-5365000D01*
X79301100Y-5365000D02*
X90640400Y-5365000D01*
X90640400Y-5364900D02*
X92512600Y-3492700D01*
%TD*%
M02*
