%TF.GenerationSoftware,KiCad,Pcbnew,9.0.7*%
%TF.CreationDate,2026-05-08T17:40:53+02:00*%
%TF.ProjectId,twn4_access_system_rev_c,74776e34-5f61-4636-9365-73735f737973,rev?*%
%TF.SameCoordinates,Original*%
%TF.FileFunction,Soldermask,Bot*%
%TF.FilePolarity,Negative*%
%FSLAX46Y46*%
G04 Gerber Fmt 4.6, Leading zero omitted, Abs format (unit mm)*
G04 Created by KiCad (PCBNEW 9.0.7) date 2026-05-08 17:40:53*
%MOMM*%
%LPD*%
G01*
G04 APERTURE LIST*
G04 Aperture macros list*
%AMRoundRect*
0 Rectangle with rounded corners*
0 $1 Rounding radius*
0 $2 $3 $4 $5 $6 $7 $8 $9 X,Y pos of 4 corners*
0 Add a 4 corners polygon primitive as box body*
4,1,4,$2,$3,$4,$5,$6,$7,$8,$9,$2,$3,0*
0 Add four circle primitives for the rounded corners*
1,1,$1+$1,$2,$3*
1,1,$1+$1,$4,$5*
1,1,$1+$1,$6,$7*
1,1,$1+$1,$8,$9*
0 Add four rect primitives between the rounded corners*
20,1,$1+$1,$2,$3,$4,$5,0*
20,1,$1+$1,$4,$5,$6,$7,0*
20,1,$1+$1,$6,$7,$8,$9,0*
20,1,$1+$1,$8,$9,$2,$3,0*%
G04 Aperture macros list end*
%ADD10RoundRect,0.260418X-0.989582X-0.989582X0.989582X-0.989582X0.989582X0.989582X-0.989582X0.989582X0*%
%ADD11C,2.500000*%
%ADD12RoundRect,0.050000X-0.675000X-0.675000X0.675000X-0.675000X0.675000X0.675000X-0.675000X0.675000X0*%
%ADD13C,1.450000*%
%ADD14RoundRect,0.050000X-1.000000X-1.000000X1.000000X-1.000000X1.000000X1.000000X-1.000000X1.000000X0*%
%ADD15C,2.100000*%
%ADD16RoundRect,0.050000X-0.850000X-0.850000X0.850000X-0.850000X0.850000X0.850000X-0.850000X0.850000X0*%
%ADD17C,1.800000*%
G04 APERTURE END LIST*
D10*
%TO.C,J5*%
X165000000Y-135000000D03*
D11*
X170080000Y-135000000D03*
%TD*%
D12*
%TO.C,J2*%
X82000000Y-92000000D03*
D13*
X80000000Y-92000000D03*
X82000000Y-94000000D03*
X80000000Y-94000000D03*
X82000000Y-96000000D03*
X80000000Y-96000000D03*
X82000000Y-98000000D03*
X80000000Y-98000000D03*
X82000000Y-100000000D03*
X80000000Y-100000000D03*
X82000000Y-102000000D03*
X80000000Y-102000000D03*
X82000000Y-104000000D03*
X80000000Y-104000000D03*
X82000000Y-106000000D03*
X80000000Y-106000000D03*
X82000000Y-108000000D03*
X80000000Y-108000000D03*
X82000000Y-110000000D03*
X80000000Y-110000000D03*
X82000000Y-112000000D03*
X80000000Y-112000000D03*
X82000000Y-114000000D03*
X80000000Y-114000000D03*
%TD*%
D10*
%TO.C,J3*%
X165000000Y-88000000D03*
D11*
X170080000Y-88000000D03*
X175160000Y-88000000D03*
X180240000Y-88000000D03*
%TD*%
D10*
%TO.C,J1*%
X15000000Y-25000000D03*
D11*
X20080000Y-25000000D03*
%TD*%
D10*
%TO.C,J6*%
X165000000Y-155000000D03*
D11*
X170080000Y-155000000D03*
X175160000Y-155000000D03*
X180240000Y-155000000D03*
X185320000Y-155000000D03*
X190400000Y-155000000D03*
%TD*%
D10*
%TO.C,J4*%
X165000000Y-118000000D03*
D11*
X170080000Y-118000000D03*
X175160000Y-118000000D03*
%TD*%
D14*
%TO.C,K1*%
X115000000Y-118000000D03*
D15*
X115000000Y-120540000D03*
X115000000Y-128160000D03*
X120080000Y-128160000D03*
X120080000Y-120540000D03*
X120080000Y-118000000D03*
%TD*%
D16*
%TO.C,J7*%
X35000000Y-310000000D03*
D17*
X37540000Y-310000000D03*
X35000000Y-312540000D03*
X37540000Y-312540000D03*
X35000000Y-315080000D03*
X37540000Y-315080000D03*
X35000000Y-317620000D03*
X37540000Y-317620000D03*
X35000000Y-320160000D03*
X37540000Y-320160000D03*
X35000000Y-322700000D03*
X37540000Y-322700000D03*
X35000000Y-325240000D03*
X37540000Y-325240000D03*
X35000000Y-327780000D03*
X37540000Y-327780000D03*
X35000000Y-330320000D03*
X37540000Y-330320000D03*
X35000000Y-332860000D03*
X37540000Y-332860000D03*
X35000000Y-335400000D03*
X37540000Y-335400000D03*
X35000000Y-337940000D03*
X37540000Y-337940000D03*
X35000000Y-340480000D03*
X37540000Y-340480000D03*
X35000000Y-343020000D03*
X37540000Y-343020000D03*
X35000000Y-345560000D03*
X37540000Y-345560000D03*
X35000000Y-348100000D03*
X37540000Y-348100000D03*
X35000000Y-350640000D03*
X37540000Y-350640000D03*
X35000000Y-353180000D03*
X37540000Y-353180000D03*
X35000000Y-355720000D03*
X37540000Y-355720000D03*
X35000000Y-358260000D03*
X37540000Y-358260000D03*
%TD*%
D10*
%TO.C,J8*%
X165000000Y-310000000D03*
D11*
X170080000Y-310000000D03*
X175160000Y-310000000D03*
X180240000Y-310000000D03*
%TD*%
M02*
