M48
; DRILL file {KiCad 9.0.7} date 2026-05-08T17:40:52+0200
; FORMAT={-:-/ absolute / metric / decimal}
; #@! TF.CreationDate,2026-05-08T17:40:52+02:00
; #@! TF.GenerationSoftware,Kicad,Pcbnew,9.0.7
; #@! TF.FileFunction,MixedPlating,1,2
FMAT,2
METRIC
; #@! TA.AperFunction,Plated,PTH,ViaDrill
T1C0.300
; #@! TA.AperFunction,Plated,PTH,ComponentDrill
T2C0.800
; #@! TA.AperFunction,Plated,PTH,ComponentDrill
T3C1.000
; #@! TA.AperFunction,Plated,PTH,ComponentDrill
T4C1.600
%
G90
G05
T1
X13.525Y-207.871
X14.928Y-226.753
X23.5Y-226.134
X24.217Y-216.877
X26.05Y-211.23
X28.754Y-226.0
X33.133Y-225.598
X33.6Y-26.389
X36.93Y-218.405
X38.225Y-68.123
X39.775Y-81.718
X40.561Y-182.258
X41.451Y-160.634
X45.065Y-118.0
X46.137Y-119.769
X48.725Y-225.899
X49.141Y-118.255
X49.514Y-218.811
X51.07Y-196.791
X52.669Y-217.347
X53.707Y-117.047
X54.456Y-26.048
X56.708Y-232.098
X57.31Y-167.006
X57.563Y-61.472
X58.987Y-56.695
X58.994Y-54.365
X58.999Y-53.093
X61.438Y-217.263
X62.852Y-220.361
X63.012Y-159.746
X63.645Y-223.317
X64.475Y-216.246
X65.976Y-118.613
X69.175Y-118.361
X71.555Y-134.393
X73.845Y-154.575
X73.869Y-208.994
X74.584Y-106.906
X76.748Y-225.454
X76.885Y-146.54
X77.111Y-316.909
X77.501Y-148.2
X77.713Y-316.261
X78.878Y-158.81
X78.913Y-160.08
X80.845Y-315.689
X81.03Y-53.834
X82.953Y-310.635
X82.98Y-308.111
X83.025Y-146.606
X83.655Y-313.281
X86.175Y-218.987
X86.238Y-310.509
X86.627Y-161.254
X87.487Y-212.244
X88.0Y-134.034
X88.223Y-158.204
X89.599Y-103.676
X89.601Y-220.332
X90.309Y-209.77
X90.392Y-115.559
X91.502Y-67.008
X92.0Y-133.424
X92.938Y-119.311
X93.863Y-209.15
X96.549Y-141.75
X97.213Y-225.898
X98.175Y-214.702
X100.653Y-217.347
X101.261Y-260.308
X102.246Y-211.485
X109.046Y-225.009
X109.35Y-133.734
X110.175Y-217.019
X110.402Y-158.81
X110.65Y-100.695
X112.813Y-311.053
X113.028Y-309.905
X114.031Y-86.095
X114.042Y-89.82
X114.234Y-88.0
X115.938Y-310.81
X118.252Y-260.0
X119.318Y-225.806
X121.245Y-218.0
X121.361Y-92.442
X121.852Y-86.773
X122.225Y-160.08
X123.0Y-214.547
X131.206Y-223.317
X134.592Y-161.153
X135.925Y-211.007
X137.062Y-85.721
X137.062Y-88.142
X138.938Y-88.803
X146.065Y-132.631
X146.225Y-209.002
X147.775Y-211.423
X155.088Y-208.933
X161.33Y-258.772
X170.175Y-254.918
X171.697Y-210.0
X171.825Y-225.278
X175.224Y-260.0
T2
X80.0Y-92.0
X80.0Y-94.0
X80.0Y-96.0
X80.0Y-98.0
X80.0Y-100.0
X80.0Y-102.0
X80.0Y-104.0
X80.0Y-106.0
X80.0Y-108.0
X80.0Y-110.0
X80.0Y-112.0
X80.0Y-114.0
X82.0Y-92.0
X82.0Y-94.0
X82.0Y-96.0
X82.0Y-98.0
X82.0Y-100.0
X82.0Y-102.0
X82.0Y-104.0
X82.0Y-106.0
X82.0Y-108.0
X82.0Y-110.0
X82.0Y-112.0
X82.0Y-114.0
T3
X35.0Y-310.0
X35.0Y-312.54
X35.0Y-315.08
X35.0Y-317.62
X35.0Y-320.16
X35.0Y-322.7
X35.0Y-325.24
X35.0Y-327.78
X35.0Y-330.32
X35.0Y-332.86
X35.0Y-335.4
X35.0Y-337.94
X35.0Y-340.48
X35.0Y-343.02
X35.0Y-345.56
X35.0Y-348.1
X35.0Y-350.64
X35.0Y-353.18
X35.0Y-355.72
X35.0Y-358.26
X37.54Y-310.0
X37.54Y-312.54
X37.54Y-315.08
X37.54Y-317.62
X37.54Y-320.16
X37.54Y-322.7
X37.54Y-325.24
X37.54Y-327.78
X37.54Y-330.32
X37.54Y-332.86
X37.54Y-335.4
X37.54Y-337.94
X37.54Y-340.48
X37.54Y-343.02
X37.54Y-345.56
X37.54Y-348.1
X37.54Y-350.64
X37.54Y-353.18
X37.54Y-355.72
X37.54Y-358.26
X115.0Y-118.0
X115.0Y-120.54
X115.0Y-128.16
X120.08Y-118.0
X120.08Y-120.54
X120.08Y-128.16
T4
X15.0Y-25.0
X20.08Y-25.0
X165.0Y-88.0
X165.0Y-118.0
X165.0Y-135.0
X165.0Y-155.0
X165.0Y-310.0
X170.08Y-88.0
X170.08Y-118.0
X170.08Y-135.0
X170.08Y-155.0
X170.08Y-310.0
X175.16Y-88.0
X175.16Y-118.0
X175.16Y-155.0
X175.16Y-310.0
X180.24Y-88.0
X180.24Y-155.0
X180.24Y-310.0
X185.32Y-155.0
X190.4Y-155.0
M30
