M48
; DRILL file {KiCad 9.0.7} date 2026-05-10T03:25:34+0200
; FORMAT={-:-/ absolute / metric / decimal}
; #@! TF.CreationDate,2026-05-10T03:25:34+02:00
; #@! TF.GenerationSoftware,Kicad,Pcbnew,9.0.7
; #@! TF.FileFunction,MixedPlating,1,2
FMAT,2
METRIC
; #@! TA.AperFunction,Plated,PTH,ViaDrill
T1C0.300
; #@! TA.AperFunction,Plated,PTH,ComponentDrill
T2C0.800
; #@! TA.AperFunction,Plated,PTH,ComponentDrill
T3C1.000
; #@! TA.AperFunction,Plated,PTH,ComponentDrill
T4C1.200
%
G90
G05
T1
X11.948Y-4.732
X17.216Y-14.892
X18.836Y-26.793
X19.738Y-4.0
X19.792Y-37.177
X21.518Y-5.449
X24.028Y-4.848
X24.642Y-8.437
X26.671Y-10.95
X39.068Y-41.262
X40.024Y-50.749
X40.642Y-36.424
X42.175Y-60.4
X42.2Y-40.254
X45.008Y-51.0
X46.612Y-55.0
X47.964Y-43.167
X47.995Y-3.202
X48.054Y-4.848
X48.67Y-16.149
X50.257Y-5.494
X52.373Y-16.016
X54.847Y-44.365
X55.03Y-42.46
X60.197Y-48.81
X60.636Y-36.854
X65.082Y-65.723
X65.696Y-26.619
X68.017Y-23.095
X69.65Y-34.173
X70.265Y-35.05
X75.051Y-9.473
X75.634Y-52.269
X77.997Y-49.322
X82.257Y-34.614
X83.199Y-4.365
X83.638Y-40.095
X85.019Y-34.002
X86.769Y-62.0
X90.479Y-48.774
T2
X6.0Y-25.5
X6.0Y-27.5
X6.0Y-29.5
X6.0Y-31.5
X6.0Y-33.5
X6.0Y-35.5
X6.0Y-37.5
X6.0Y-39.5
X6.0Y-41.5
X6.0Y-43.5
X6.0Y-45.5
X6.0Y-47.5
X8.0Y-25.5
X8.0Y-27.5
X8.0Y-29.5
X8.0Y-31.5
X8.0Y-33.5
X8.0Y-35.5
X8.0Y-37.5
X8.0Y-39.5
X8.0Y-41.5
X8.0Y-43.5
X8.0Y-45.5
X8.0Y-47.5
T3
X72.0Y-54.0
X72.0Y-56.54
X72.0Y-64.16
X77.08Y-54.0
X77.08Y-56.54
X77.08Y-64.16
T4
X9.0Y-64.0
X12.5Y-64.0
X16.0Y-64.0
X25.0Y-64.0
X28.5Y-64.0
X50.0Y-64.0
X53.5Y-64.0
X57.0Y-64.0
X60.5Y-64.0
X64.0Y-64.0
X67.5Y-64.0
X94.0Y-19.5
X94.0Y-23.0
X94.0Y-26.5
X94.0Y-30.0
X96.0Y-6.5
X96.0Y-10.0
M30
