%TF.GenerationSoftware,KiCad,Pcbnew,9.0.7*%
%TF.CreationDate,2026-05-10T03:25:33+02:00*%
%TF.ProjectId,twn4_access_system_rev_e_compact_routed,74776e34-5f61-4636-9365-73735f737973,rev?*%
%TF.SameCoordinates,Original*%
%TF.FileFunction,Paste,Top*%
%TF.FilePolarity,Positive*%
%FSLAX46Y46*%
G04 Gerber Fmt 4.6, Leading zero omitted, Abs format (unit mm)*
G04 Created by KiCad (PCBNEW 9.0.7) date 2026-05-10 03:25:33*
%MOMM*%
%LPD*%
G01*
G04 APERTURE LIST*
G04 Aperture macros list*
%AMRoundRect*
0 Rectangle with rounded corners*
0 $1 Rounding radius*
0 $2 $3 $4 $5 $6 $7 $8 $9 X,Y pos of 4 corners*
0 Add a 4 corners polygon primitive as box body*
4,1,4,$2,$3,$4,$5,$6,$7,$8,$9,$2,$3,0*
0 Add four circle primitives for the rounded corners*
1,1,$1+$1,$2,$3*
1,1,$1+$1,$4,$5*
1,1,$1+$1,$6,$7*
1,1,$1+$1,$8,$9*
0 Add four rect primitives between the rounded corners*
20,1,$1+$1,$2,$3,$4,$5,0*
20,1,$1+$1,$4,$5,$6,$7,0*
20,1,$1+$1,$6,$7,$8,$9,0*
20,1,$1+$1,$8,$9,$2,$3,0*%
G04 Aperture macros list end*
%ADD10RoundRect,0.250000X-0.325000X-1.100000X0.325000X-1.100000X0.325000X1.100000X-0.325000X1.100000X0*%
%ADD11RoundRect,0.200000X-0.200000X-0.275000X0.200000X-0.275000X0.200000X0.275000X-0.200000X0.275000X0*%
%ADD12RoundRect,0.250000X-1.000000X-0.650000X1.000000X-0.650000X1.000000X0.650000X-1.000000X0.650000X0*%
%ADD13RoundRect,0.150000X-0.587500X-0.150000X0.587500X-0.150000X0.587500X0.150000X-0.587500X0.150000X0*%
%ADD14RoundRect,0.225000X-0.225000X-0.250000X0.225000X-0.250000X0.225000X0.250000X-0.225000X0.250000X0*%
%ADD15RoundRect,0.150000X-0.825000X-0.150000X0.825000X-0.150000X0.825000X0.150000X-0.825000X0.150000X0*%
%ADD16RoundRect,0.250000X-0.375000X-0.625000X0.375000X-0.625000X0.375000X0.625000X-0.375000X0.625000X0*%
%ADD17RoundRect,0.250000X-1.000000X-0.900000X1.000000X-0.900000X1.000000X0.900000X-1.000000X0.900000X0*%
%ADD18RoundRect,0.150000X-0.875000X-0.150000X0.875000X-0.150000X0.875000X0.150000X-0.875000X0.150000X0*%
%ADD19RoundRect,0.250000X-0.250000X-0.475000X0.250000X-0.475000X0.250000X0.475000X-0.250000X0.475000X0*%
%ADD20RoundRect,0.150000X-0.512500X-0.150000X0.512500X-0.150000X0.512500X0.150000X-0.512500X0.150000X0*%
%ADD21R,3.500000X10.200000*%
%ADD22RoundRect,0.225000X-0.225000X-0.375000X0.225000X-0.375000X0.225000X0.375000X-0.225000X0.375000X0*%
%ADD23R,2.600000X3.100000*%
%ADD24R,1.550000X0.600000*%
%ADD25RoundRect,0.100000X-0.712500X-0.100000X0.712500X-0.100000X0.712500X0.100000X-0.712500X0.100000X0*%
G04 APERTURE END LIST*
D10*
%TO.C,C4*%
X56525000Y-31000000D03*
X59475000Y-31000000D03*
%TD*%
D11*
%TO.C,R4*%
X16175000Y-14000000D03*
X17825000Y-14000000D03*
%TD*%
%TO.C,R8*%
X71175000Y-35000000D03*
X72825000Y-35000000D03*
%TD*%
%TO.C,R10*%
X79175000Y-35000000D03*
X80825000Y-35000000D03*
%TD*%
%TO.C,R19*%
X42175000Y-63000000D03*
X43825000Y-63000000D03*
%TD*%
D12*
%TO.C,D2*%
X81000000Y-62000000D03*
X85000000Y-62000000D03*
%TD*%
D11*
%TO.C,R16*%
X42175000Y-51000000D03*
X43825000Y-51000000D03*
%TD*%
%TO.C,R5*%
X20175000Y-14000000D03*
X21825000Y-14000000D03*
%TD*%
%TO.C,R18*%
X42175000Y-59000000D03*
X43825000Y-59000000D03*
%TD*%
D13*
%TO.C,D1*%
X87062500Y-19050000D03*
X87062500Y-20950000D03*
X88937500Y-20000000D03*
%TD*%
D11*
%TO.C,R6*%
X24175000Y-14000000D03*
X25825000Y-14000000D03*
%TD*%
D14*
%TO.C,C6*%
X93225000Y-37000000D03*
X94775000Y-37000000D03*
%TD*%
D15*
%TO.C,Q2*%
X85525000Y-3095000D03*
X85525000Y-4365000D03*
X85525000Y-5635000D03*
X85525000Y-6905000D03*
X90475000Y-6905000D03*
X90475000Y-5635000D03*
X90475000Y-4365000D03*
X90475000Y-3095000D03*
%TD*%
D16*
%TO.C,F1*%
X53600000Y-8000000D03*
X56400000Y-8000000D03*
%TD*%
D11*
%TO.C,R15*%
X23175000Y-38000000D03*
X24825000Y-38000000D03*
%TD*%
%TO.C,R12*%
X42175000Y-43000000D03*
X43825000Y-43000000D03*
%TD*%
D14*
%TO.C,C36*%
X35225000Y-43000000D03*
X36775000Y-43000000D03*
%TD*%
D17*
%TO.C,D4*%
X52850000Y-14000000D03*
X57150000Y-14000000D03*
%TD*%
D18*
%TO.C,U6*%
X49350000Y-39920000D03*
X49350000Y-41190000D03*
X49350000Y-42460000D03*
X49350000Y-43730000D03*
X49350000Y-45000000D03*
X49350000Y-46270000D03*
X49350000Y-47540000D03*
X49350000Y-48810000D03*
X49350000Y-50080000D03*
X58650000Y-50080000D03*
X58650000Y-48810000D03*
X58650000Y-47540000D03*
X58650000Y-46270000D03*
X58650000Y-45000000D03*
X58650000Y-43730000D03*
X58650000Y-42460000D03*
X58650000Y-41190000D03*
X58650000Y-39920000D03*
%TD*%
D11*
%TO.C,R1*%
X62175000Y-15000000D03*
X63825000Y-15000000D03*
%TD*%
D19*
%TO.C,C2*%
X63050000Y-21000000D03*
X64950000Y-21000000D03*
%TD*%
D20*
%TO.C,U5*%
X20862500Y-9050000D03*
X20862500Y-10000000D03*
X20862500Y-10950000D03*
X23137500Y-10950000D03*
X23137500Y-9050000D03*
%TD*%
D21*
%TO.C,L1*%
X78700000Y-28000000D03*
X85300000Y-28000000D03*
%TD*%
D14*
%TO.C,C37*%
X35225000Y-47000000D03*
X36775000Y-47000000D03*
%TD*%
D22*
%TO.C,D5*%
X91350000Y-62000000D03*
X94650000Y-62000000D03*
%TD*%
D20*
%TO.C,U3*%
X88862500Y-46050000D03*
X88862500Y-47000000D03*
X88862500Y-47950000D03*
X91137500Y-47950000D03*
X91137500Y-46050000D03*
%TD*%
D11*
%TO.C,R13*%
X42175000Y-47000000D03*
X43825000Y-47000000D03*
%TD*%
D13*
%TO.C,Q3*%
X83062500Y-53050000D03*
X83062500Y-54950000D03*
X84937500Y-54000000D03*
%TD*%
D14*
%TO.C,C39*%
X35225000Y-55000000D03*
X36775000Y-55000000D03*
%TD*%
D10*
%TO.C,C1*%
X56525000Y-21000000D03*
X59475000Y-21000000D03*
%TD*%
D11*
%TO.C,R7*%
X67175000Y-35000000D03*
X68825000Y-35000000D03*
%TD*%
D23*
%TO.C,U2*%
X72000000Y-25000000D03*
D24*
X69300000Y-23095000D03*
X69300000Y-24365000D03*
X69300000Y-25635000D03*
X69300000Y-26905000D03*
X74700000Y-26905000D03*
X74700000Y-25635000D03*
X74700000Y-24365000D03*
X74700000Y-23095000D03*
%TD*%
D15*
%TO.C,Q4*%
X87525000Y-52095000D03*
X87525000Y-53365000D03*
X87525000Y-54635000D03*
X87525000Y-55905000D03*
X92475000Y-55905000D03*
X92475000Y-54635000D03*
X92475000Y-53365000D03*
X92475000Y-52095000D03*
%TD*%
D11*
%TO.C,R2*%
X67175000Y-15000000D03*
X68825000Y-15000000D03*
%TD*%
D15*
%TO.C,Q1*%
X77525000Y-7095000D03*
X77525000Y-8365000D03*
X77525000Y-9635000D03*
X77525000Y-10905000D03*
X82475000Y-10905000D03*
X82475000Y-9635000D03*
X82475000Y-8365000D03*
X82475000Y-7095000D03*
%TD*%
D25*
%TO.C,U1*%
X63887500Y-8025000D03*
X63887500Y-8675000D03*
X63887500Y-9325000D03*
X63887500Y-9975000D03*
X68112500Y-9975000D03*
X68112500Y-9325000D03*
X68112500Y-8675000D03*
X68112500Y-8025000D03*
%TD*%
D14*
%TO.C,C7*%
X85225000Y-48000000D03*
X86775000Y-48000000D03*
%TD*%
%TO.C,C38*%
X35225000Y-51000000D03*
X36775000Y-51000000D03*
%TD*%
D11*
%TO.C,R3*%
X72175000Y-15000000D03*
X73825000Y-15000000D03*
%TD*%
D15*
%TO.C,U4*%
X75525000Y-40095000D03*
X75525000Y-41365000D03*
X75525000Y-42635000D03*
X75525000Y-43905000D03*
X80475000Y-43905000D03*
X80475000Y-42635000D03*
X80475000Y-41365000D03*
X80475000Y-40095000D03*
%TD*%
D11*
%TO.C,R11*%
X83175000Y-35000000D03*
X84825000Y-35000000D03*
%TD*%
D10*
%TO.C,C5*%
X86525000Y-35000000D03*
X89475000Y-35000000D03*
%TD*%
D11*
%TO.C,R9*%
X75175000Y-35000000D03*
X76825000Y-35000000D03*
%TD*%
%TO.C,R14*%
X17175000Y-38000000D03*
X18825000Y-38000000D03*
%TD*%
D14*
%TO.C,C3*%
X61225000Y-28000000D03*
X62775000Y-28000000D03*
%TD*%
D11*
%TO.C,R17*%
X42175000Y-55000000D03*
X43825000Y-55000000D03*
%TD*%
D14*
%TO.C,C8*%
X93225000Y-48000000D03*
X94775000Y-48000000D03*
%TD*%
M02*
