M48
; DRILL file {KiCad 9.0.7} date 2026-05-09T02:02:30+0200
; FORMAT={-:-/ absolute / metric / decimal}
; #@! TF.CreationDate,2026-05-09T02:02:30+02:00
; #@! TF.GenerationSoftware,Kicad,Pcbnew,9.0.7
; #@! TF.FileFunction,MixedPlating,1,2
FMAT,2
METRIC
; #@! TA.AperFunction,Plated,PTH,ViaDrill
T1C0.300
; #@! TA.AperFunction,Plated,PTH,ComponentDrill
T2C0.800
; #@! TA.AperFunction,Plated,PTH,ComponentDrill
T3C1.000
; #@! TA.AperFunction,Plated,PTH,ComponentDrill
T4C1.600
%
G90
G05
T1
X17.175Y-37.006
X17.394Y-14.983
X18.283Y-10.0
X18.885Y-5.256
X18.885Y-28.123
X23.137Y-11.773
X23.431Y-6.087
X23.739Y-4.25
X32.414Y-5.186
X32.414Y-24.89
X42.365Y-57.99
X44.776Y-45.595
X47.896Y-51.548
X57.139Y-44.809
X57.337Y-4.0
X57.337Y-38.002
X57.534Y-51.937
X57.609Y-53.744
X58.167Y-29.752
X58.168Y-24.89
X58.633Y-48.634
X59.317Y-47.01
X60.06Y-51.293
X61.26Y-0.659
X61.26Y-6.43
X61.26Y-24.89
X63.13Y-2.19
X63.959Y-1.409
X67.683Y-67.284
X68.897Y-24.281
X68.897Y-30.845
X69.712Y-69.196
X72.16Y-54.29
X75.806Y-5.494
X81.747Y-20.599
X81.98Y-10.047
X82.224Y-41.883
X83.286Y-24.095
X85.704Y-28.726
X93.754Y-53.677
X93.847Y-24.342
X94.553Y-34.15
X95.982Y-48.052
X96.525Y-2.621
X96.584Y-51.279
X97.145Y-20.626
X97.145Y-29.7
X98.451Y-54.0
X107.581Y-64.566
T2
X6.0Y-25.5
X6.0Y-27.5
X6.0Y-29.5
X6.0Y-31.5
X6.0Y-33.5
X6.0Y-35.5
X6.0Y-37.5
X6.0Y-39.5
X6.0Y-41.5
X6.0Y-43.5
X6.0Y-45.5
X6.0Y-47.5
X8.0Y-25.5
X8.0Y-27.5
X8.0Y-29.5
X8.0Y-31.5
X8.0Y-33.5
X8.0Y-35.5
X8.0Y-37.5
X8.0Y-39.5
X8.0Y-41.5
X8.0Y-43.5
X8.0Y-45.5
X8.0Y-47.5
T3
X78.0Y-50.0
X78.0Y-52.54
X78.0Y-60.16
X83.08Y-50.0
X83.08Y-52.54
X83.08Y-60.16
T4
X10.0Y-72.0
X15.08Y-72.0
X20.16Y-72.0
X32.0Y-72.0
X37.08Y-72.0
X62.0Y-72.0
X67.08Y-72.0
X72.16Y-72.0
X77.24Y-72.0
X82.32Y-72.0
X87.4Y-72.0
X106.0Y-2.92
X106.0Y-8.0
X106.0Y-30.76
X106.0Y-35.84
X106.0Y-40.92
X106.0Y-46.0
M30
