%TF.GenerationSoftware,KiCad,Pcbnew,9.0.7*%
%TF.CreationDate,2026-05-09T02:02:29+02:00*%
%TF.ProjectId,twn4_access_system_rev_d_compact_routed,74776e34-5f61-4636-9365-73735f737973,rev?*%
%TF.SameCoordinates,Original*%
%TF.FileFunction,Soldermask,Top*%
%TF.FilePolarity,Negative*%
%FSLAX46Y46*%
G04 Gerber Fmt 4.6, Leading zero omitted, Abs format (unit mm)*
G04 Created by KiCad (PCBNEW 9.0.7) date 2026-05-09 02:02:29*
%MOMM*%
%LPD*%
G01*
G04 APERTURE LIST*
G04 Aperture macros list*
%AMRoundRect*
0 Rectangle with rounded corners*
0 $1 Rounding radius*
0 $2 $3 $4 $5 $6 $7 $8 $9 X,Y pos of 4 corners*
0 Add a 4 corners polygon primitive as box body*
4,1,4,$2,$3,$4,$5,$6,$7,$8,$9,$2,$3,0*
0 Add four circle primitives for the rounded corners*
1,1,$1+$1,$2,$3*
1,1,$1+$1,$4,$5*
1,1,$1+$1,$6,$7*
1,1,$1+$1,$8,$9*
0 Add four rect primitives between the rounded corners*
20,1,$1+$1,$2,$3,$4,$5,0*
20,1,$1+$1,$4,$5,$6,$7,0*
20,1,$1+$1,$6,$7,$8,$9,0*
20,1,$1+$1,$8,$9,$2,$3,0*%
G04 Aperture macros list end*
%ADD10RoundRect,0.271739X-0.353261X-1.128261X0.353261X-1.128261X0.353261X1.128261X-0.353261X1.128261X0*%
%ADD11RoundRect,0.225000X-0.225000X-0.300000X0.225000X-0.300000X0.225000X0.300000X-0.225000X0.300000X0*%
%ADD12RoundRect,0.260418X-0.989582X-0.989582X0.989582X-0.989582X0.989582X0.989582X-0.989582X0.989582X0*%
%ADD13C,2.500000*%
%ADD14RoundRect,0.050000X-0.500000X-0.750000X0.500000X-0.750000X0.500000X0.750000X-0.500000X0.750000X0*%
%ADD15C,1.600000*%
%ADD16RoundRect,0.263889X-1.036111X-0.686111X1.036111X-0.686111X1.036111X0.686111X-1.036111X0.686111X0*%
%ADD17RoundRect,0.175000X-0.612500X-0.175000X0.612500X-0.175000X0.612500X0.175000X-0.612500X0.175000X0*%
%ADD18RoundRect,0.250000X-0.250000X-0.275000X0.250000X-0.275000X0.250000X0.275000X-0.250000X0.275000X0*%
%ADD19RoundRect,0.050000X-0.675000X-0.675000X0.675000X-0.675000X0.675000X0.675000X-0.675000X0.675000X0*%
%ADD20C,1.450000*%
%ADD21RoundRect,0.175000X-0.850000X-0.175000X0.850000X-0.175000X0.850000X0.175000X-0.850000X0.175000X0*%
%ADD22RoundRect,0.270000X-0.405000X-0.655000X0.405000X-0.655000X0.405000X0.655000X-0.405000X0.655000X0*%
%ADD23RoundRect,0.260870X-1.039130X-0.939130X1.039130X-0.939130X1.039130X0.939130X-1.039130X0.939130X0*%
%ADD24RoundRect,0.175000X-0.900000X-0.175000X0.900000X-0.175000X0.900000X0.175000X-0.900000X0.175000X0*%
%ADD25RoundRect,0.275000X-0.275000X-0.500000X0.275000X-0.500000X0.275000X0.500000X-0.275000X0.500000X0*%
%ADD26RoundRect,0.175000X-0.537500X-0.175000X0.537500X-0.175000X0.537500X0.175000X-0.537500X0.175000X0*%
%ADD27RoundRect,0.050000X-1.750000X-5.100000X1.750000X-5.100000X1.750000X5.100000X-1.750000X5.100000X0*%
%ADD28RoundRect,0.250000X-0.250000X-0.400000X0.250000X-0.400000X0.250000X0.400000X-0.250000X0.400000X0*%
%ADD29R,2.600000X3.100000*%
%ADD30RoundRect,0.050000X-0.775000X-0.300000X0.775000X-0.300000X0.775000X0.300000X-0.775000X0.300000X0*%
%ADD31RoundRect,0.050000X-1.000000X-1.000000X1.000000X-1.000000X1.000000X1.000000X-1.000000X1.000000X0*%
%ADD32C,2.100000*%
%ADD33RoundRect,0.125000X-0.737500X-0.125000X0.737500X-0.125000X0.737500X0.125000X-0.737500X0.125000X0*%
G04 APERTURE END LIST*
%TO.C,JP1*%
G36*
X58850000Y-37250000D02*
G01*
X59150000Y-37250000D01*
X59150000Y-38750000D01*
X58850000Y-38750000D01*
X58850000Y-37250000D01*
G37*
%TD*%
D10*
%TO.C,C4*%
X56525000Y-26000000D03*
X59475000Y-26000000D03*
%TD*%
D11*
%TO.C,R4*%
X16175000Y-14000000D03*
X17825000Y-14000000D03*
%TD*%
%TO.C,R8*%
X83175000Y-42000000D03*
X84825000Y-42000000D03*
%TD*%
%TO.C,R10*%
X91175000Y-42000000D03*
X92825000Y-42000000D03*
%TD*%
D12*
%TO.C,J5*%
X32000000Y-72000000D03*
D13*
X37080000Y-72000000D03*
%TD*%
D11*
%TO.C,R19*%
X49175000Y-65000000D03*
X50825000Y-65000000D03*
%TD*%
D14*
%TO.C,JP1*%
X58350000Y-38000000D03*
X59650000Y-38000000D03*
%TD*%
D15*
%TO.C,TP4*%
X17000000Y-4000000D03*
%TD*%
D16*
%TO.C,D2*%
X102000000Y-66000000D03*
X106000000Y-66000000D03*
%TD*%
D11*
%TO.C,R16*%
X49175000Y-53000000D03*
X50825000Y-53000000D03*
%TD*%
%TO.C,R5*%
X20175000Y-14000000D03*
X21825000Y-14000000D03*
%TD*%
%TO.C,R18*%
X49175000Y-61000000D03*
X50825000Y-61000000D03*
%TD*%
D17*
%TO.C,D1*%
X93062500Y-19050000D03*
X93062500Y-20950000D03*
X94937500Y-20000000D03*
%TD*%
D11*
%TO.C,R6*%
X24175000Y-14000000D03*
X25825000Y-14000000D03*
%TD*%
D15*
%TO.C,TP11*%
X45000000Y-4000000D03*
%TD*%
%TO.C,TP14*%
X9000000Y-55000000D03*
%TD*%
%TO.C,TP15*%
X13000000Y-55000000D03*
%TD*%
D18*
%TO.C,C6*%
X93225000Y-31000000D03*
X94775000Y-31000000D03*
%TD*%
D19*
%TO.C,J2*%
X8000000Y-25500000D03*
D20*
X6000000Y-25500000D03*
X8000000Y-27500000D03*
X6000000Y-27500000D03*
X8000000Y-29500000D03*
X6000000Y-29500000D03*
X8000000Y-31500000D03*
X6000000Y-31500000D03*
X8000000Y-33500000D03*
X6000000Y-33500000D03*
X8000000Y-35500000D03*
X6000000Y-35500000D03*
X8000000Y-37500000D03*
X6000000Y-37500000D03*
X8000000Y-39500000D03*
X6000000Y-39500000D03*
X8000000Y-41500000D03*
X6000000Y-41500000D03*
X8000000Y-43500000D03*
X6000000Y-43500000D03*
X8000000Y-45500000D03*
X6000000Y-45500000D03*
X8000000Y-47500000D03*
X6000000Y-47500000D03*
%TD*%
D21*
%TO.C,Q2*%
X93525000Y-4095000D03*
X93525000Y-5365000D03*
X93525000Y-6635000D03*
X93525000Y-7905000D03*
X98475000Y-7905000D03*
X98475000Y-6635000D03*
X98475000Y-5365000D03*
X98475000Y-4095000D03*
%TD*%
D15*
%TO.C,TP6*%
X25000000Y-4000000D03*
%TD*%
D22*
%TO.C,F1*%
X54600000Y-10000000D03*
X57400000Y-10000000D03*
%TD*%
D15*
%TO.C,TP9*%
X37000000Y-4000000D03*
%TD*%
D11*
%TO.C,R15*%
X23175000Y-38000000D03*
X24825000Y-38000000D03*
%TD*%
%TO.C,R12*%
X49175000Y-45000000D03*
X50825000Y-45000000D03*
%TD*%
D15*
%TO.C,TP7*%
X29000000Y-4000000D03*
%TD*%
D18*
%TO.C,C36*%
X42225000Y-45000000D03*
X43775000Y-45000000D03*
%TD*%
D23*
%TO.C,D4*%
X49850000Y-21000000D03*
X54150000Y-21000000D03*
%TD*%
D12*
%TO.C,J3*%
X106000000Y-46000000D03*
D13*
X106000000Y-40920000D03*
X106000000Y-35840000D03*
X106000000Y-30760000D03*
%TD*%
D24*
%TO.C,U6*%
X53350000Y-41920000D03*
X53350000Y-43190000D03*
X53350000Y-44460000D03*
X53350000Y-45730000D03*
X53350000Y-47000000D03*
X53350000Y-48270000D03*
X53350000Y-49540000D03*
X53350000Y-50810000D03*
X53350000Y-52080000D03*
X62650000Y-52080000D03*
X62650000Y-50810000D03*
X62650000Y-49540000D03*
X62650000Y-48270000D03*
X62650000Y-47000000D03*
X62650000Y-45730000D03*
X62650000Y-44460000D03*
X62650000Y-43190000D03*
X62650000Y-41920000D03*
%TD*%
D11*
%TO.C,R1*%
X63175000Y-18000000D03*
X64825000Y-18000000D03*
%TD*%
D25*
%TO.C,C2*%
X81050000Y-14000000D03*
X82950000Y-14000000D03*
%TD*%
D26*
%TO.C,U5*%
X20862500Y-9050000D03*
X20862500Y-10000000D03*
X20862500Y-10950000D03*
X23137500Y-10950000D03*
X23137500Y-9050000D03*
%TD*%
D27*
%TO.C,L1*%
X76700000Y-31000000D03*
X83300000Y-31000000D03*
%TD*%
D18*
%TO.C,C37*%
X42225000Y-49000000D03*
X43775000Y-49000000D03*
%TD*%
D28*
%TO.C,D5*%
X102350000Y-74000000D03*
X105650000Y-74000000D03*
%TD*%
D15*
%TO.C,TP12*%
X49000000Y-4000000D03*
%TD*%
D26*
%TO.C,U3*%
X104862500Y-52050000D03*
X104862500Y-53000000D03*
X104862500Y-53950000D03*
X107137500Y-53950000D03*
X107137500Y-52050000D03*
%TD*%
D11*
%TO.C,R13*%
X49175000Y-49000000D03*
X50825000Y-49000000D03*
%TD*%
D12*
%TO.C,J1*%
X106000000Y-8000000D03*
D13*
X106000000Y-2920000D03*
%TD*%
D17*
%TO.C,Q3*%
X87062500Y-56050000D03*
X87062500Y-57950000D03*
X88937500Y-57000000D03*
%TD*%
D15*
%TO.C,TP17*%
X21000000Y-55000000D03*
%TD*%
%TO.C,TP10*%
X41000000Y-4000000D03*
%TD*%
D12*
%TO.C,J6*%
X62000000Y-72000000D03*
D13*
X67080000Y-72000000D03*
X72160000Y-72000000D03*
X77240000Y-72000000D03*
X82320000Y-72000000D03*
X87400000Y-72000000D03*
%TD*%
D18*
%TO.C,C39*%
X42225000Y-57000000D03*
X43775000Y-57000000D03*
%TD*%
D10*
%TO.C,C1*%
X80525000Y-10000000D03*
X83475000Y-10000000D03*
%TD*%
D11*
%TO.C,R7*%
X79175000Y-42000000D03*
X80825000Y-42000000D03*
%TD*%
D29*
%TO.C,U2*%
X66000000Y-27000000D03*
D30*
X63300000Y-25095000D03*
X63300000Y-26365000D03*
X63300000Y-27635000D03*
X63300000Y-28905000D03*
X68700000Y-28905000D03*
X68700000Y-27635000D03*
X68700000Y-26365000D03*
X68700000Y-25095000D03*
%TD*%
D12*
%TO.C,J4*%
X10000000Y-72000000D03*
D13*
X15080000Y-72000000D03*
X20160000Y-72000000D03*
%TD*%
D21*
%TO.C,Q4*%
X96525000Y-52095000D03*
X96525000Y-53365000D03*
X96525000Y-54635000D03*
X96525000Y-55905000D03*
X101475000Y-55905000D03*
X101475000Y-54635000D03*
X101475000Y-53365000D03*
X101475000Y-52095000D03*
%TD*%
D15*
%TO.C,TP5*%
X21000000Y-4000000D03*
%TD*%
D11*
%TO.C,R2*%
X69175000Y-19000000D03*
X70825000Y-19000000D03*
%TD*%
D21*
%TO.C,Q1*%
X87525000Y-12095000D03*
X87525000Y-13365000D03*
X87525000Y-14635000D03*
X87525000Y-15905000D03*
X92475000Y-15905000D03*
X92475000Y-14635000D03*
X92475000Y-13365000D03*
X92475000Y-12095000D03*
%TD*%
D31*
%TO.C,K1*%
X78000000Y-50000000D03*
D32*
X78000000Y-52540000D03*
X78000000Y-60160000D03*
X83080000Y-60160000D03*
X83080000Y-52540000D03*
X83080000Y-50000000D03*
%TD*%
D15*
%TO.C,TP13*%
X5000000Y-55000000D03*
%TD*%
%TO.C,TP3*%
X13000000Y-4000000D03*
%TD*%
D33*
%TO.C,U1*%
X69887500Y-9025000D03*
X69887500Y-9675000D03*
X69887500Y-10325000D03*
X69887500Y-10975000D03*
X74112500Y-10975000D03*
X74112500Y-10325000D03*
X74112500Y-9675000D03*
X74112500Y-9025000D03*
%TD*%
D18*
%TO.C,C7*%
X103225000Y-61000000D03*
X104775000Y-61000000D03*
%TD*%
%TO.C,C38*%
X42225000Y-53000000D03*
X43775000Y-53000000D03*
%TD*%
D11*
%TO.C,R3*%
X77175000Y-20000000D03*
X78825000Y-20000000D03*
%TD*%
D21*
%TO.C,U4*%
X86525000Y-24095000D03*
X86525000Y-25365000D03*
X86525000Y-26635000D03*
X86525000Y-27905000D03*
X91475000Y-27905000D03*
X91475000Y-26635000D03*
X91475000Y-25365000D03*
X91475000Y-24095000D03*
%TD*%
D15*
%TO.C,TP2*%
X9000000Y-4000000D03*
%TD*%
D11*
%TO.C,R11*%
X95175000Y-42000000D03*
X96825000Y-42000000D03*
%TD*%
D15*
%TO.C,TP16*%
X17000000Y-55000000D03*
%TD*%
%TO.C,TP1*%
X5000000Y-4000000D03*
%TD*%
D10*
%TO.C,C5*%
X90525000Y-36000000D03*
X93475000Y-36000000D03*
%TD*%
D11*
%TO.C,R9*%
X87175000Y-42000000D03*
X88825000Y-42000000D03*
%TD*%
%TO.C,R14*%
X17175000Y-38000000D03*
X18825000Y-38000000D03*
%TD*%
D18*
%TO.C,C3*%
X61225000Y-20000000D03*
X62775000Y-20000000D03*
%TD*%
D15*
%TO.C,TP8*%
X33000000Y-4000000D03*
%TD*%
D11*
%TO.C,R17*%
X49175000Y-57000000D03*
X50825000Y-57000000D03*
%TD*%
D18*
%TO.C,C8*%
X109225000Y-61000000D03*
X110775000Y-61000000D03*
%TD*%
M02*
