%TF.GenerationSoftware,KiCad,Pcbnew,9.0.7*%
%TF.CreationDate,2026-05-12T17:37:54+02:00*%
%TF.ProjectId,twn4_access_system_rev_f_compact_power_cleanup,74776e34-5f61-4636-9365-73735f737973,Rev F*%
%TF.SameCoordinates,Original*%
%TF.FileFunction,Copper,L2,Bot*%
%TF.FilePolarity,Positive*%
%FSLAX46Y46*%
G04 Gerber Fmt 4.6, Leading zero omitted, Abs format (unit mm)*
G04 Created by KiCad (PCBNEW 9.0.7) date 2026-05-12 17:37:54*
%MOMM*%
%LPD*%
G01*
G04 APERTURE LIST*
G04 Aperture macros list*
%AMRoundRect*
0 Rectangle with rounded corners*
0 $1 Rounding radius*
0 $2 $3 $4 $5 $6 $7 $8 $9 X,Y pos of 4 corners*
0 Add a 4 corners polygon primitive as box body*
4,1,4,$2,$3,$4,$5,$6,$7,$8,$9,$2,$3,0*
0 Add four circle primitives for the rounded corners*
1,1,$1+$1,$2,$3*
1,1,$1+$1,$4,$5*
1,1,$1+$1,$6,$7*
1,1,$1+$1,$8,$9*
0 Add four rect primitives between the rounded corners*
20,1,$1+$1,$2,$3,$4,$5,0*
20,1,$1+$1,$4,$5,$6,$7,0*
20,1,$1+$1,$6,$7,$8,$9,0*
20,1,$1+$1,$8,$9,$2,$3,0*%
G04 Aperture macros list end*
%TA.AperFunction,ComponentPad*%
%ADD10RoundRect,0.250001X-0.949999X-0.949999X0.949999X-0.949999X0.949999X0.949999X-0.949999X0.949999X0*%
%TD*%
%TA.AperFunction,ComponentPad*%
%ADD11C,2.400000*%
%TD*%
%TA.AperFunction,ComponentPad*%
%ADD12RoundRect,0.250001X0.949999X-0.949999X0.949999X0.949999X-0.949999X0.949999X-0.949999X-0.949999X0*%
%TD*%
%TA.AperFunction,ComponentPad*%
%ADD13R,1.350000X1.350000*%
%TD*%
%TA.AperFunction,ComponentPad*%
%ADD14C,1.350000*%
%TD*%
%TA.AperFunction,ComponentPad*%
%ADD15R,2.000000X2.000000*%
%TD*%
%TA.AperFunction,ComponentPad*%
%ADD16C,2.000000*%
%TD*%
%TA.AperFunction,ViaPad*%
%ADD17C,0.600000*%
%TD*%
%TA.AperFunction,Conductor*%
%ADD18C,0.200000*%
%TD*%
G04 APERTURE END LIST*
D10*
%TO.P,J5,1*%
%TO.N,VIN_PROT*%
X25000000Y-64000000D03*
D11*
%TO.P,J5,2*%
%TO.N,LOCK_SW_LOW*%
X28500000Y-64000000D03*
%TD*%
D12*
%TO.P,J3,1*%
%TO.N,RS485_A*%
X94000000Y-30000000D03*
D11*
%TO.P,J3,2*%
%TO.N,RS485_B*%
X94000000Y-26500000D03*
%TO.P,J3,3*%
%TO.N,VIN_PROT*%
X94000000Y-23000000D03*
%TO.P,J3,4*%
%TO.N,GND*%
X94000000Y-19500000D03*
%TD*%
D13*
%TO.P,J2,1*%
%TO.N,N/C*%
X8000000Y-25500000D03*
D14*
%TO.P,J2,2*%
X6000000Y-25500000D03*
%TO.P,J2,3*%
%TO.N,I2C_SCL*%
X8000000Y-27500000D03*
%TO.P,J2,4*%
%TO.N,I2C_SDA*%
X6000000Y-27500000D03*
%TO.P,J2,5*%
%TO.N,N/C*%
X8000000Y-29500000D03*
%TO.P,J2,6*%
X6000000Y-29500000D03*
%TO.P,J2,7*%
X8000000Y-31500000D03*
%TO.P,J2,8*%
X6000000Y-31500000D03*
%TO.P,J2,9*%
X8000000Y-33500000D03*
%TO.P,J2,10*%
%TO.N,HOSTSENSE_COM1*%
X6000000Y-33500000D03*
%TO.P,J2,11*%
%TO.N,N/C*%
X8000000Y-35500000D03*
%TO.P,J2,12*%
%TO.N,GND*%
X6000000Y-35500000D03*
%TO.P,J2,13*%
%TO.N,+5V*%
X8000000Y-37500000D03*
%TO.P,J2,14*%
%TO.N,N/C*%
X6000000Y-37500000D03*
%TO.P,J2,15*%
X8000000Y-39500000D03*
%TO.P,J2,16*%
X6000000Y-39500000D03*
%TO.P,J2,17*%
%TO.N,COM1_TX*%
X8000000Y-41500000D03*
%TO.P,J2,18*%
%TO.N,COM1_RX*%
X6000000Y-41500000D03*
%TO.P,J2,19*%
%TO.N,VCC_3V3_REF*%
X8000000Y-43500000D03*
%TO.P,J2,20*%
%TO.N,GPIO4_RS485_DIR*%
X6000000Y-43500000D03*
%TO.P,J2,21*%
%TO.N,GPIO5_RELAY*%
X8000000Y-45500000D03*
%TO.P,J2,22*%
%TO.N,GPIO6_LOCK*%
X6000000Y-45500000D03*
%TO.P,J2,23*%
%TO.N,PWRDWN#*%
X8000000Y-47500000D03*
%TO.P,J2,24*%
%TO.N,RESET#*%
X6000000Y-47500000D03*
%TD*%
D12*
%TO.P,J1,1*%
%TO.N,VIN_IN*%
X96000000Y-10000000D03*
D11*
%TO.P,J1,2*%
%TO.N,GND*%
X96000000Y-6500000D03*
%TD*%
D10*
%TO.P,J4,1*%
%TO.N,RELAY_COM*%
X9000000Y-64000000D03*
D11*
%TO.P,J4,2*%
%TO.N,RELAY_NC*%
X12500000Y-64000000D03*
%TO.P,J4,3*%
%TO.N,RELAY_NO*%
X16000000Y-64000000D03*
%TD*%
D10*
%TO.P,J6,1*%
%TO.N,DOOR_IN*%
X50000000Y-64000000D03*
D11*
%TO.P,J6,2*%
%TO.N,REX_IN*%
X53500000Y-64000000D03*
%TO.P,J6,3*%
%TO.N,TAMPER_IN*%
X57000000Y-64000000D03*
%TO.P,J6,4*%
%TO.N,AUX_IN*%
X60500000Y-64000000D03*
%TO.P,J6,5*%
%TO.N,+3V3*%
X64000000Y-64000000D03*
%TO.P,J6,6*%
%TO.N,GND*%
X67500000Y-64000000D03*
%TD*%
D15*
%TO.P,K1,1*%
%TO.N,+5V*%
X72000000Y-54000000D03*
D16*
%TO.P,K1,2*%
%TO.N,RELAY_COIL_LOW*%
X72000000Y-56540000D03*
%TO.P,K1,5*%
%TO.N,RELAY_NO*%
X72000000Y-64160000D03*
%TO.P,K1,6*%
%TO.N,N/C*%
X77080000Y-64160000D03*
%TO.P,K1,9*%
X77080000Y-56540000D03*
%TO.P,K1,10*%
X77080000Y-54000000D03*
%TD*%
D17*
%TO.N,+3V3*%
X90479100Y-48774300D03*
X42175000Y-60400400D03*
X19737800Y-4000000D03*
X40023900Y-50749500D03*
%TO.N,+5V*%
X83637700Y-40095000D03*
X48670400Y-16149400D03*
X70264700Y-35050000D03*
X17215600Y-14892000D03*
%TO.N,AUX_IN*%
X60196900Y-48810000D03*
%TO.N,COM1_RX*%
X18835800Y-26792900D03*
X21518500Y-5449400D03*
%TO.N,COM1_TX*%
X24028200Y-4847700D03*
X40641700Y-36424100D03*
X54847200Y-44365000D03*
%TO.N,DOOR_IN*%
X45007600Y-51000000D03*
%TO.N,GND*%
X60635700Y-36854200D03*
X55029900Y-42460000D03*
%TO.N,GPIO4_RS485_DIR*%
X11948300Y-4732100D03*
%TO.N,GPIO5_RELAY*%
X75633900Y-52269400D03*
X47963700Y-43167500D03*
%TO.N,GPIO6_LOCK*%
X24641600Y-8437300D03*
%TO.N,LOCK_GATE_5V*%
X52373500Y-16016300D03*
X26671100Y-10950000D03*
X19792300Y-37176900D03*
X77996800Y-49322100D03*
%TO.N,LOCK_SW_LOW*%
X39068100Y-41262200D03*
X48054000Y-4847800D03*
X42200500Y-40254200D03*
%TO.N,RELAY_COIL_LOW*%
X65081800Y-65723300D03*
%TO.N,REX_IN*%
X46611800Y-55000000D03*
%TO.N,RS485_A*%
X82257200Y-34614000D03*
X47994900Y-3202300D03*
%TO.N,RS485_B*%
X50256600Y-5494200D03*
X69650500Y-34172900D03*
X85018900Y-34002400D03*
%TO.N,VIN_PROT*%
X68017300Y-23095000D03*
X83198800Y-4365000D03*
X86768500Y-62000000D03*
X65696100Y-26619000D03*
X75051100Y-9472500D03*
%TD*%
D18*
%TO.N,+3V3*%
X72927800Y-66325600D02*
X64821900Y-66325600D01*
X90479100Y-48774300D02*
X72927800Y-66325600D01*
X40023900Y-19954100D02*
X24069800Y-4000000D01*
X40023900Y-58249300D02*
X42175000Y-60400400D01*
X64000000Y-65503700D02*
X64000000Y-64000000D01*
X24069800Y-4000000D02*
X19737800Y-4000000D01*
X40023900Y-50749500D02*
X40023900Y-19954100D01*
X40023900Y-50749500D02*
X40023900Y-58249300D01*
X64821900Y-66325600D02*
X64000000Y-65503700D01*
%TO.N,+5V*%
X76265700Y-49931400D02*
X78311500Y-49931400D01*
X70264700Y-35050000D02*
X67571000Y-35050000D01*
X70264700Y-35050000D02*
X76265700Y-41051000D01*
X83637700Y-44605200D02*
X83637700Y-40095000D01*
X76265700Y-41051000D02*
X76265700Y-49931400D01*
X19472400Y-17148800D02*
X17215600Y-14892000D01*
X76265700Y-49931400D02*
X76265700Y-52521000D01*
X9065400Y-37500000D02*
X19472400Y-27093000D01*
X19472400Y-27093000D02*
X19472400Y-17148800D01*
X8000000Y-37500000D02*
X9065400Y-37500000D01*
X78311500Y-49931400D02*
X83637700Y-44605200D01*
X74786700Y-54000000D02*
X72000000Y-54000000D01*
X76265700Y-52521000D02*
X74786700Y-54000000D01*
X67571000Y-35050000D02*
X48670400Y-16149400D01*
%TO.N,AUX_IN*%
X60500000Y-64000000D02*
X60500000Y-49113100D01*
X60500000Y-49113100D02*
X60196900Y-48810000D01*
%TO.N,COM1_RX*%
X7000000Y-40500000D02*
X7000000Y-31058600D01*
X15495600Y-11472300D02*
X21518500Y-5449400D01*
X8448300Y-30500000D02*
X15495600Y-23452700D01*
X15495600Y-23452700D02*
X15495600Y-11472300D01*
X6000000Y-41500000D02*
X7000000Y-40500000D01*
X7000000Y-31058600D02*
X7558600Y-30500000D01*
X7558600Y-30500000D02*
X8448300Y-30500000D01*
X15495600Y-23452700D02*
X18835800Y-26792900D01*
%TO.N,COM1_TX*%
X40641700Y-36424100D02*
X40641700Y-39551200D01*
X45455500Y-44365000D02*
X54847200Y-44365000D01*
X8000000Y-41500000D02*
X24028200Y-25471800D01*
X40641700Y-39551200D02*
X45455500Y-44365000D01*
X24028200Y-25471800D02*
X24028200Y-4847700D01*
%TO.N,DOOR_IN*%
X50000000Y-64000000D02*
X45007600Y-59007600D01*
X45007600Y-59007600D02*
X45007600Y-51000000D01*
%TO.N,GND*%
X60635700Y-36854200D02*
X55029900Y-42460000D01*
X96000000Y-6500000D02*
X94000000Y-8500000D01*
X94000000Y-8500000D02*
X94000000Y-19500000D01*
%TO.N,GPIO4_RS485_DIR*%
X4975200Y-42475200D02*
X4975200Y-11705200D01*
X4975200Y-11705200D02*
X11948300Y-4732100D01*
X6000000Y-43500000D02*
X4975200Y-42475200D01*
%TO.N,GPIO5_RELAY*%
X66532000Y-43167500D02*
X47963700Y-43167500D01*
X75633900Y-52269400D02*
X66532000Y-43167500D01*
%TO.N,GPIO6_LOCK*%
X6000000Y-45500000D02*
X7000000Y-44500000D01*
X8403000Y-42500000D02*
X24641600Y-26261400D01*
X7567300Y-42500000D02*
X8403000Y-42500000D01*
X24641600Y-26261400D02*
X24641600Y-8437300D01*
X7000000Y-43067300D02*
X7567300Y-42500000D01*
X7000000Y-44500000D02*
X7000000Y-43067300D01*
%TO.N,LOCK_GATE_5V*%
X26671100Y-30298100D02*
X26671100Y-10950000D01*
X52373500Y-16016300D02*
X77996800Y-41639600D01*
X77996800Y-41639600D02*
X77996800Y-49322100D01*
X19792300Y-37176900D02*
X26671100Y-30298100D01*
%TO.N,LOCK_SW_LOW*%
X48054000Y-34400700D02*
X42200500Y-40254200D01*
X48054000Y-4847800D02*
X48054000Y-34400700D01*
X28500000Y-64000000D02*
X39068100Y-53431900D01*
X39068100Y-53431900D02*
X39068100Y-41262200D01*
%TO.N,RELAY_COIL_LOW*%
X72000000Y-56540000D02*
X65576100Y-62963900D01*
X65576100Y-65229000D02*
X65081800Y-65723300D01*
X65576100Y-62963900D02*
X65576100Y-65229000D01*
%TO.N,REX_IN*%
X53500000Y-64000000D02*
X53500000Y-61888200D01*
X53500000Y-61888200D02*
X46611800Y-55000000D01*
%TO.N,RS485_A*%
X48815800Y-3202300D02*
X47994900Y-3202300D01*
X58168900Y-19984400D02*
X58168900Y-12555400D01*
X94000000Y-30000000D02*
X89386000Y-34614000D01*
X82257200Y-34614000D02*
X72798500Y-34614000D01*
X58168900Y-12555400D02*
X48815800Y-3202300D01*
X89386000Y-34614000D02*
X82257200Y-34614000D01*
X72798500Y-34614000D02*
X58168900Y-19984400D01*
%TO.N,RS485_B*%
X94000000Y-26500000D02*
X86497700Y-34002300D01*
X85018900Y-34002300D02*
X85018900Y-34002400D01*
X86497700Y-34002300D02*
X85018900Y-34002300D01*
X50256600Y-5494200D02*
X50256600Y-14779000D01*
X50256600Y-14779000D02*
X69650500Y-34172900D01*
%TO.N,VIN_PROT*%
X95562300Y-24562300D02*
X95562300Y-53206200D01*
X83198800Y-13508300D02*
X83198800Y-4365000D01*
X77604000Y-12025400D02*
X75051100Y-9472500D01*
X65696100Y-25416200D02*
X65696100Y-26619000D01*
X77604000Y-13508300D02*
X77604000Y-12025400D01*
X95562300Y-53206200D02*
X86768500Y-62000000D01*
X83198800Y-13508300D02*
X77604000Y-13508300D01*
X94000000Y-23000000D02*
X84508300Y-13508300D01*
X77604000Y-13508300D02*
X68017300Y-23095000D01*
X68017300Y-23095000D02*
X65696100Y-25416200D01*
X94000000Y-23000000D02*
X95562300Y-24562300D01*
X84508300Y-13508300D02*
X83198800Y-13508300D01*
%TD*%
M02*
