%TF.GenerationSoftware,KiCad,Pcbnew,9.0.7*%
%TF.CreationDate,2026-05-12T17:37:54+02:00*%
%TF.ProjectId,twn4_access_system_rev_f_compact_power_cleanup,74776e34-5f61-4636-9365-73735f737973,Rev F*%
%TF.SameCoordinates,Original*%
%TF.FileFunction,Legend,Top*%
%TF.FilePolarity,Positive*%
%FSLAX46Y46*%
G04 Gerber Fmt 4.6, Leading zero omitted, Abs format (unit mm)*
G04 Created by KiCad (PCBNEW 9.0.7) date 2026-05-12 17:37:54*
%MOMM*%
%LPD*%
G01*
G04 APERTURE LIST*
%ADD10C,0.150000*%
%ADD11C,0.120000*%
G04 APERTURE END LIST*
D10*
X57833333Y-29059580D02*
X57785714Y-29107200D01*
X57785714Y-29107200D02*
X57642857Y-29154819D01*
X57642857Y-29154819D02*
X57547619Y-29154819D01*
X57547619Y-29154819D02*
X57404762Y-29107200D01*
X57404762Y-29107200D02*
X57309524Y-29011961D01*
X57309524Y-29011961D02*
X57261905Y-28916723D01*
X57261905Y-28916723D02*
X57214286Y-28726247D01*
X57214286Y-28726247D02*
X57214286Y-28583390D01*
X57214286Y-28583390D02*
X57261905Y-28392914D01*
X57261905Y-28392914D02*
X57309524Y-28297676D01*
X57309524Y-28297676D02*
X57404762Y-28202438D01*
X57404762Y-28202438D02*
X57547619Y-28154819D01*
X57547619Y-28154819D02*
X57642857Y-28154819D01*
X57642857Y-28154819D02*
X57785714Y-28202438D01*
X57785714Y-28202438D02*
X57833333Y-28250057D01*
X58690476Y-28488152D02*
X58690476Y-29154819D01*
X58452381Y-28107200D02*
X58214286Y-28821485D01*
X58214286Y-28821485D02*
X58833333Y-28821485D01*
X16833333Y-13024819D02*
X16500000Y-12548628D01*
X16261905Y-13024819D02*
X16261905Y-12024819D01*
X16261905Y-12024819D02*
X16642857Y-12024819D01*
X16642857Y-12024819D02*
X16738095Y-12072438D01*
X16738095Y-12072438D02*
X16785714Y-12120057D01*
X16785714Y-12120057D02*
X16833333Y-12215295D01*
X16833333Y-12215295D02*
X16833333Y-12358152D01*
X16833333Y-12358152D02*
X16785714Y-12453390D01*
X16785714Y-12453390D02*
X16738095Y-12501009D01*
X16738095Y-12501009D02*
X16642857Y-12548628D01*
X16642857Y-12548628D02*
X16261905Y-12548628D01*
X17690476Y-12358152D02*
X17690476Y-13024819D01*
X17452381Y-11977200D02*
X17214286Y-12691485D01*
X17214286Y-12691485D02*
X17833333Y-12691485D01*
X71833333Y-34024819D02*
X71500000Y-33548628D01*
X71261905Y-34024819D02*
X71261905Y-33024819D01*
X71261905Y-33024819D02*
X71642857Y-33024819D01*
X71642857Y-33024819D02*
X71738095Y-33072438D01*
X71738095Y-33072438D02*
X71785714Y-33120057D01*
X71785714Y-33120057D02*
X71833333Y-33215295D01*
X71833333Y-33215295D02*
X71833333Y-33358152D01*
X71833333Y-33358152D02*
X71785714Y-33453390D01*
X71785714Y-33453390D02*
X71738095Y-33501009D01*
X71738095Y-33501009D02*
X71642857Y-33548628D01*
X71642857Y-33548628D02*
X71261905Y-33548628D01*
X72404762Y-33453390D02*
X72309524Y-33405771D01*
X72309524Y-33405771D02*
X72261905Y-33358152D01*
X72261905Y-33358152D02*
X72214286Y-33262914D01*
X72214286Y-33262914D02*
X72214286Y-33215295D01*
X72214286Y-33215295D02*
X72261905Y-33120057D01*
X72261905Y-33120057D02*
X72309524Y-33072438D01*
X72309524Y-33072438D02*
X72404762Y-33024819D01*
X72404762Y-33024819D02*
X72595238Y-33024819D01*
X72595238Y-33024819D02*
X72690476Y-33072438D01*
X72690476Y-33072438D02*
X72738095Y-33120057D01*
X72738095Y-33120057D02*
X72785714Y-33215295D01*
X72785714Y-33215295D02*
X72785714Y-33262914D01*
X72785714Y-33262914D02*
X72738095Y-33358152D01*
X72738095Y-33358152D02*
X72690476Y-33405771D01*
X72690476Y-33405771D02*
X72595238Y-33453390D01*
X72595238Y-33453390D02*
X72404762Y-33453390D01*
X72404762Y-33453390D02*
X72309524Y-33501009D01*
X72309524Y-33501009D02*
X72261905Y-33548628D01*
X72261905Y-33548628D02*
X72214286Y-33643866D01*
X72214286Y-33643866D02*
X72214286Y-33834342D01*
X72214286Y-33834342D02*
X72261905Y-33929580D01*
X72261905Y-33929580D02*
X72309524Y-33977200D01*
X72309524Y-33977200D02*
X72404762Y-34024819D01*
X72404762Y-34024819D02*
X72595238Y-34024819D01*
X72595238Y-34024819D02*
X72690476Y-33977200D01*
X72690476Y-33977200D02*
X72738095Y-33929580D01*
X72738095Y-33929580D02*
X72785714Y-33834342D01*
X72785714Y-33834342D02*
X72785714Y-33643866D01*
X72785714Y-33643866D02*
X72738095Y-33548628D01*
X72738095Y-33548628D02*
X72690476Y-33501009D01*
X72690476Y-33501009D02*
X72595238Y-33453390D01*
X26416666Y-59234819D02*
X26416666Y-59949104D01*
X26416666Y-59949104D02*
X26369047Y-60091961D01*
X26369047Y-60091961D02*
X26273809Y-60187200D01*
X26273809Y-60187200D02*
X26130952Y-60234819D01*
X26130952Y-60234819D02*
X26035714Y-60234819D01*
X27369047Y-59234819D02*
X26892857Y-59234819D01*
X26892857Y-59234819D02*
X26845238Y-59711009D01*
X26845238Y-59711009D02*
X26892857Y-59663390D01*
X26892857Y-59663390D02*
X26988095Y-59615771D01*
X26988095Y-59615771D02*
X27226190Y-59615771D01*
X27226190Y-59615771D02*
X27321428Y-59663390D01*
X27321428Y-59663390D02*
X27369047Y-59711009D01*
X27369047Y-59711009D02*
X27416666Y-59806247D01*
X27416666Y-59806247D02*
X27416666Y-60044342D01*
X27416666Y-60044342D02*
X27369047Y-60139580D01*
X27369047Y-60139580D02*
X27321428Y-60187200D01*
X27321428Y-60187200D02*
X27226190Y-60234819D01*
X27226190Y-60234819D02*
X26988095Y-60234819D01*
X26988095Y-60234819D02*
X26892857Y-60187200D01*
X26892857Y-60187200D02*
X26845238Y-60139580D01*
X42357142Y-62024819D02*
X42023809Y-61548628D01*
X41785714Y-62024819D02*
X41785714Y-61024819D01*
X41785714Y-61024819D02*
X42166666Y-61024819D01*
X42166666Y-61024819D02*
X42261904Y-61072438D01*
X42261904Y-61072438D02*
X42309523Y-61120057D01*
X42309523Y-61120057D02*
X42357142Y-61215295D01*
X42357142Y-61215295D02*
X42357142Y-61358152D01*
X42357142Y-61358152D02*
X42309523Y-61453390D01*
X42309523Y-61453390D02*
X42261904Y-61501009D01*
X42261904Y-61501009D02*
X42166666Y-61548628D01*
X42166666Y-61548628D02*
X41785714Y-61548628D01*
X43309523Y-62024819D02*
X42738095Y-62024819D01*
X43023809Y-62024819D02*
X43023809Y-61024819D01*
X43023809Y-61024819D02*
X42928571Y-61167676D01*
X42928571Y-61167676D02*
X42833333Y-61262914D01*
X42833333Y-61262914D02*
X42738095Y-61310533D01*
X43785714Y-62024819D02*
X43976190Y-62024819D01*
X43976190Y-62024819D02*
X44071428Y-61977200D01*
X44071428Y-61977200D02*
X44119047Y-61929580D01*
X44119047Y-61929580D02*
X44214285Y-61786723D01*
X44214285Y-61786723D02*
X44261904Y-61596247D01*
X44261904Y-61596247D02*
X44261904Y-61215295D01*
X44261904Y-61215295D02*
X44214285Y-61120057D01*
X44214285Y-61120057D02*
X44166666Y-61072438D01*
X44166666Y-61072438D02*
X44071428Y-61024819D01*
X44071428Y-61024819D02*
X43880952Y-61024819D01*
X43880952Y-61024819D02*
X43785714Y-61072438D01*
X43785714Y-61072438D02*
X43738095Y-61120057D01*
X43738095Y-61120057D02*
X43690476Y-61215295D01*
X43690476Y-61215295D02*
X43690476Y-61453390D01*
X43690476Y-61453390D02*
X43738095Y-61548628D01*
X43738095Y-61548628D02*
X43785714Y-61596247D01*
X43785714Y-61596247D02*
X43880952Y-61643866D01*
X43880952Y-61643866D02*
X44071428Y-61643866D01*
X44071428Y-61643866D02*
X44166666Y-61596247D01*
X44166666Y-61596247D02*
X44214285Y-61548628D01*
X44214285Y-61548628D02*
X44261904Y-61453390D01*
X42166666Y-36654819D02*
X42166666Y-37369104D01*
X42166666Y-37369104D02*
X42119047Y-37511961D01*
X42119047Y-37511961D02*
X42023809Y-37607200D01*
X42023809Y-37607200D02*
X41880952Y-37654819D01*
X41880952Y-37654819D02*
X41785714Y-37654819D01*
X42642857Y-37654819D02*
X42642857Y-36654819D01*
X42642857Y-36654819D02*
X43023809Y-36654819D01*
X43023809Y-36654819D02*
X43119047Y-36702438D01*
X43119047Y-36702438D02*
X43166666Y-36750057D01*
X43166666Y-36750057D02*
X43214285Y-36845295D01*
X43214285Y-36845295D02*
X43214285Y-36988152D01*
X43214285Y-36988152D02*
X43166666Y-37083390D01*
X43166666Y-37083390D02*
X43119047Y-37131009D01*
X43119047Y-37131009D02*
X43023809Y-37178628D01*
X43023809Y-37178628D02*
X42642857Y-37178628D01*
X44166666Y-37654819D02*
X43595238Y-37654819D01*
X43880952Y-37654819D02*
X43880952Y-36654819D01*
X43880952Y-36654819D02*
X43785714Y-36797676D01*
X43785714Y-36797676D02*
X43690476Y-36892914D01*
X43690476Y-36892914D02*
X43595238Y-36940533D01*
X15738095Y-1806819D02*
X16309523Y-1806819D01*
X16023809Y-2806819D02*
X16023809Y-1806819D01*
X16642857Y-2806819D02*
X16642857Y-1806819D01*
X16642857Y-1806819D02*
X17023809Y-1806819D01*
X17023809Y-1806819D02*
X17119047Y-1854438D01*
X17119047Y-1854438D02*
X17166666Y-1902057D01*
X17166666Y-1902057D02*
X17214285Y-1997295D01*
X17214285Y-1997295D02*
X17214285Y-2140152D01*
X17214285Y-2140152D02*
X17166666Y-2235390D01*
X17166666Y-2235390D02*
X17119047Y-2283009D01*
X17119047Y-2283009D02*
X17023809Y-2330628D01*
X17023809Y-2330628D02*
X16642857Y-2330628D01*
X18071428Y-2140152D02*
X18071428Y-2806819D01*
X17833333Y-1759200D02*
X17595238Y-2473485D01*
X17595238Y-2473485D02*
X18214285Y-2473485D01*
X82261905Y-59954819D02*
X82261905Y-58954819D01*
X82261905Y-58954819D02*
X82500000Y-58954819D01*
X82500000Y-58954819D02*
X82642857Y-59002438D01*
X82642857Y-59002438D02*
X82738095Y-59097676D01*
X82738095Y-59097676D02*
X82785714Y-59192914D01*
X82785714Y-59192914D02*
X82833333Y-59383390D01*
X82833333Y-59383390D02*
X82833333Y-59526247D01*
X82833333Y-59526247D02*
X82785714Y-59716723D01*
X82785714Y-59716723D02*
X82738095Y-59811961D01*
X82738095Y-59811961D02*
X82642857Y-59907200D01*
X82642857Y-59907200D02*
X82500000Y-59954819D01*
X82500000Y-59954819D02*
X82261905Y-59954819D01*
X83214286Y-59050057D02*
X83261905Y-59002438D01*
X83261905Y-59002438D02*
X83357143Y-58954819D01*
X83357143Y-58954819D02*
X83595238Y-58954819D01*
X83595238Y-58954819D02*
X83690476Y-59002438D01*
X83690476Y-59002438D02*
X83738095Y-59050057D01*
X83738095Y-59050057D02*
X83785714Y-59145295D01*
X83785714Y-59145295D02*
X83785714Y-59240533D01*
X83785714Y-59240533D02*
X83738095Y-59383390D01*
X83738095Y-59383390D02*
X83166667Y-59954819D01*
X83166667Y-59954819D02*
X83785714Y-59954819D01*
X42357142Y-50024819D02*
X42023809Y-49548628D01*
X41785714Y-50024819D02*
X41785714Y-49024819D01*
X41785714Y-49024819D02*
X42166666Y-49024819D01*
X42166666Y-49024819D02*
X42261904Y-49072438D01*
X42261904Y-49072438D02*
X42309523Y-49120057D01*
X42309523Y-49120057D02*
X42357142Y-49215295D01*
X42357142Y-49215295D02*
X42357142Y-49358152D01*
X42357142Y-49358152D02*
X42309523Y-49453390D01*
X42309523Y-49453390D02*
X42261904Y-49501009D01*
X42261904Y-49501009D02*
X42166666Y-49548628D01*
X42166666Y-49548628D02*
X41785714Y-49548628D01*
X43309523Y-50024819D02*
X42738095Y-50024819D01*
X43023809Y-50024819D02*
X43023809Y-49024819D01*
X43023809Y-49024819D02*
X42928571Y-49167676D01*
X42928571Y-49167676D02*
X42833333Y-49262914D01*
X42833333Y-49262914D02*
X42738095Y-49310533D01*
X44166666Y-49024819D02*
X43976190Y-49024819D01*
X43976190Y-49024819D02*
X43880952Y-49072438D01*
X43880952Y-49072438D02*
X43833333Y-49120057D01*
X43833333Y-49120057D02*
X43738095Y-49262914D01*
X43738095Y-49262914D02*
X43690476Y-49453390D01*
X43690476Y-49453390D02*
X43690476Y-49834342D01*
X43690476Y-49834342D02*
X43738095Y-49929580D01*
X43738095Y-49929580D02*
X43785714Y-49977200D01*
X43785714Y-49977200D02*
X43880952Y-50024819D01*
X43880952Y-50024819D02*
X44071428Y-50024819D01*
X44071428Y-50024819D02*
X44166666Y-49977200D01*
X44166666Y-49977200D02*
X44214285Y-49929580D01*
X44214285Y-49929580D02*
X44261904Y-49834342D01*
X44261904Y-49834342D02*
X44261904Y-49596247D01*
X44261904Y-49596247D02*
X44214285Y-49501009D01*
X44214285Y-49501009D02*
X44166666Y-49453390D01*
X44166666Y-49453390D02*
X44071428Y-49405771D01*
X44071428Y-49405771D02*
X43880952Y-49405771D01*
X43880952Y-49405771D02*
X43785714Y-49453390D01*
X43785714Y-49453390D02*
X43738095Y-49501009D01*
X43738095Y-49501009D02*
X43690476Y-49596247D01*
X20833333Y-13024819D02*
X20500000Y-12548628D01*
X20261905Y-13024819D02*
X20261905Y-12024819D01*
X20261905Y-12024819D02*
X20642857Y-12024819D01*
X20642857Y-12024819D02*
X20738095Y-12072438D01*
X20738095Y-12072438D02*
X20785714Y-12120057D01*
X20785714Y-12120057D02*
X20833333Y-12215295D01*
X20833333Y-12215295D02*
X20833333Y-12358152D01*
X20833333Y-12358152D02*
X20785714Y-12453390D01*
X20785714Y-12453390D02*
X20738095Y-12501009D01*
X20738095Y-12501009D02*
X20642857Y-12548628D01*
X20642857Y-12548628D02*
X20261905Y-12548628D01*
X21738095Y-12024819D02*
X21261905Y-12024819D01*
X21261905Y-12024819D02*
X21214286Y-12501009D01*
X21214286Y-12501009D02*
X21261905Y-12453390D01*
X21261905Y-12453390D02*
X21357143Y-12405771D01*
X21357143Y-12405771D02*
X21595238Y-12405771D01*
X21595238Y-12405771D02*
X21690476Y-12453390D01*
X21690476Y-12453390D02*
X21738095Y-12501009D01*
X21738095Y-12501009D02*
X21785714Y-12596247D01*
X21785714Y-12596247D02*
X21785714Y-12834342D01*
X21785714Y-12834342D02*
X21738095Y-12929580D01*
X21738095Y-12929580D02*
X21690476Y-12977200D01*
X21690476Y-12977200D02*
X21595238Y-13024819D01*
X21595238Y-13024819D02*
X21357143Y-13024819D01*
X21357143Y-13024819D02*
X21261905Y-12977200D01*
X21261905Y-12977200D02*
X21214286Y-12929580D01*
X42357142Y-58024819D02*
X42023809Y-57548628D01*
X41785714Y-58024819D02*
X41785714Y-57024819D01*
X41785714Y-57024819D02*
X42166666Y-57024819D01*
X42166666Y-57024819D02*
X42261904Y-57072438D01*
X42261904Y-57072438D02*
X42309523Y-57120057D01*
X42309523Y-57120057D02*
X42357142Y-57215295D01*
X42357142Y-57215295D02*
X42357142Y-57358152D01*
X42357142Y-57358152D02*
X42309523Y-57453390D01*
X42309523Y-57453390D02*
X42261904Y-57501009D01*
X42261904Y-57501009D02*
X42166666Y-57548628D01*
X42166666Y-57548628D02*
X41785714Y-57548628D01*
X43309523Y-58024819D02*
X42738095Y-58024819D01*
X43023809Y-58024819D02*
X43023809Y-57024819D01*
X43023809Y-57024819D02*
X42928571Y-57167676D01*
X42928571Y-57167676D02*
X42833333Y-57262914D01*
X42833333Y-57262914D02*
X42738095Y-57310533D01*
X43880952Y-57453390D02*
X43785714Y-57405771D01*
X43785714Y-57405771D02*
X43738095Y-57358152D01*
X43738095Y-57358152D02*
X43690476Y-57262914D01*
X43690476Y-57262914D02*
X43690476Y-57215295D01*
X43690476Y-57215295D02*
X43738095Y-57120057D01*
X43738095Y-57120057D02*
X43785714Y-57072438D01*
X43785714Y-57072438D02*
X43880952Y-57024819D01*
X43880952Y-57024819D02*
X44071428Y-57024819D01*
X44071428Y-57024819D02*
X44166666Y-57072438D01*
X44166666Y-57072438D02*
X44214285Y-57120057D01*
X44214285Y-57120057D02*
X44261904Y-57215295D01*
X44261904Y-57215295D02*
X44261904Y-57262914D01*
X44261904Y-57262914D02*
X44214285Y-57358152D01*
X44214285Y-57358152D02*
X44166666Y-57405771D01*
X44166666Y-57405771D02*
X44071428Y-57453390D01*
X44071428Y-57453390D02*
X43880952Y-57453390D01*
X43880952Y-57453390D02*
X43785714Y-57501009D01*
X43785714Y-57501009D02*
X43738095Y-57548628D01*
X43738095Y-57548628D02*
X43690476Y-57643866D01*
X43690476Y-57643866D02*
X43690476Y-57834342D01*
X43690476Y-57834342D02*
X43738095Y-57929580D01*
X43738095Y-57929580D02*
X43785714Y-57977200D01*
X43785714Y-57977200D02*
X43880952Y-58024819D01*
X43880952Y-58024819D02*
X44071428Y-58024819D01*
X44071428Y-58024819D02*
X44166666Y-57977200D01*
X44166666Y-57977200D02*
X44214285Y-57929580D01*
X44214285Y-57929580D02*
X44261904Y-57834342D01*
X44261904Y-57834342D02*
X44261904Y-57643866D01*
X44261904Y-57643866D02*
X44214285Y-57548628D01*
X44214285Y-57548628D02*
X44166666Y-57501009D01*
X44166666Y-57501009D02*
X44071428Y-57453390D01*
X87261905Y-18054819D02*
X87261905Y-17054819D01*
X87261905Y-17054819D02*
X87500000Y-17054819D01*
X87500000Y-17054819D02*
X87642857Y-17102438D01*
X87642857Y-17102438D02*
X87738095Y-17197676D01*
X87738095Y-17197676D02*
X87785714Y-17292914D01*
X87785714Y-17292914D02*
X87833333Y-17483390D01*
X87833333Y-17483390D02*
X87833333Y-17626247D01*
X87833333Y-17626247D02*
X87785714Y-17816723D01*
X87785714Y-17816723D02*
X87738095Y-17911961D01*
X87738095Y-17911961D02*
X87642857Y-18007200D01*
X87642857Y-18007200D02*
X87500000Y-18054819D01*
X87500000Y-18054819D02*
X87261905Y-18054819D01*
X88785714Y-18054819D02*
X88214286Y-18054819D01*
X88500000Y-18054819D02*
X88500000Y-17054819D01*
X88500000Y-17054819D02*
X88404762Y-17197676D01*
X88404762Y-17197676D02*
X88309524Y-17292914D01*
X88309524Y-17292914D02*
X88214286Y-17340533D01*
X24833333Y-13024819D02*
X24500000Y-12548628D01*
X24261905Y-13024819D02*
X24261905Y-12024819D01*
X24261905Y-12024819D02*
X24642857Y-12024819D01*
X24642857Y-12024819D02*
X24738095Y-12072438D01*
X24738095Y-12072438D02*
X24785714Y-12120057D01*
X24785714Y-12120057D02*
X24833333Y-12215295D01*
X24833333Y-12215295D02*
X24833333Y-12358152D01*
X24833333Y-12358152D02*
X24785714Y-12453390D01*
X24785714Y-12453390D02*
X24738095Y-12501009D01*
X24738095Y-12501009D02*
X24642857Y-12548628D01*
X24642857Y-12548628D02*
X24261905Y-12548628D01*
X25690476Y-12024819D02*
X25500000Y-12024819D01*
X25500000Y-12024819D02*
X25404762Y-12072438D01*
X25404762Y-12072438D02*
X25357143Y-12120057D01*
X25357143Y-12120057D02*
X25261905Y-12262914D01*
X25261905Y-12262914D02*
X25214286Y-12453390D01*
X25214286Y-12453390D02*
X25214286Y-12834342D01*
X25214286Y-12834342D02*
X25261905Y-12929580D01*
X25261905Y-12929580D02*
X25309524Y-12977200D01*
X25309524Y-12977200D02*
X25404762Y-13024819D01*
X25404762Y-13024819D02*
X25595238Y-13024819D01*
X25595238Y-13024819D02*
X25690476Y-12977200D01*
X25690476Y-12977200D02*
X25738095Y-12929580D01*
X25738095Y-12929580D02*
X25785714Y-12834342D01*
X25785714Y-12834342D02*
X25785714Y-12596247D01*
X25785714Y-12596247D02*
X25738095Y-12501009D01*
X25738095Y-12501009D02*
X25690476Y-12453390D01*
X25690476Y-12453390D02*
X25595238Y-12405771D01*
X25595238Y-12405771D02*
X25404762Y-12405771D01*
X25404762Y-12405771D02*
X25309524Y-12453390D01*
X25309524Y-12453390D02*
X25261905Y-12501009D01*
X25261905Y-12501009D02*
X25214286Y-12596247D01*
X43261905Y-1806819D02*
X43833333Y-1806819D01*
X43547619Y-2806819D02*
X43547619Y-1806819D01*
X44166667Y-2806819D02*
X44166667Y-1806819D01*
X44166667Y-1806819D02*
X44547619Y-1806819D01*
X44547619Y-1806819D02*
X44642857Y-1854438D01*
X44642857Y-1854438D02*
X44690476Y-1902057D01*
X44690476Y-1902057D02*
X44738095Y-1997295D01*
X44738095Y-1997295D02*
X44738095Y-2140152D01*
X44738095Y-2140152D02*
X44690476Y-2235390D01*
X44690476Y-2235390D02*
X44642857Y-2283009D01*
X44642857Y-2283009D02*
X44547619Y-2330628D01*
X44547619Y-2330628D02*
X44166667Y-2330628D01*
X45690476Y-2806819D02*
X45119048Y-2806819D01*
X45404762Y-2806819D02*
X45404762Y-1806819D01*
X45404762Y-1806819D02*
X45309524Y-1949676D01*
X45309524Y-1949676D02*
X45214286Y-2044914D01*
X45214286Y-2044914D02*
X45119048Y-2092533D01*
X46642857Y-2806819D02*
X46071429Y-2806819D01*
X46357143Y-2806819D02*
X46357143Y-1806819D01*
X46357143Y-1806819D02*
X46261905Y-1949676D01*
X46261905Y-1949676D02*
X46166667Y-2044914D01*
X46166667Y-2044914D02*
X46071429Y-2092533D01*
X7261905Y-52806819D02*
X7833333Y-52806819D01*
X7547619Y-53806819D02*
X7547619Y-52806819D01*
X8166667Y-53806819D02*
X8166667Y-52806819D01*
X8166667Y-52806819D02*
X8547619Y-52806819D01*
X8547619Y-52806819D02*
X8642857Y-52854438D01*
X8642857Y-52854438D02*
X8690476Y-52902057D01*
X8690476Y-52902057D02*
X8738095Y-52997295D01*
X8738095Y-52997295D02*
X8738095Y-53140152D01*
X8738095Y-53140152D02*
X8690476Y-53235390D01*
X8690476Y-53235390D02*
X8642857Y-53283009D01*
X8642857Y-53283009D02*
X8547619Y-53330628D01*
X8547619Y-53330628D02*
X8166667Y-53330628D01*
X9690476Y-53806819D02*
X9119048Y-53806819D01*
X9404762Y-53806819D02*
X9404762Y-52806819D01*
X9404762Y-52806819D02*
X9309524Y-52949676D01*
X9309524Y-52949676D02*
X9214286Y-53044914D01*
X9214286Y-53044914D02*
X9119048Y-53092533D01*
X10547619Y-53140152D02*
X10547619Y-53806819D01*
X10309524Y-52759200D02*
X10071429Y-53473485D01*
X10071429Y-53473485D02*
X10690476Y-53473485D01*
X89234819Y-25083333D02*
X89949104Y-25083333D01*
X89949104Y-25083333D02*
X90091961Y-25130952D01*
X90091961Y-25130952D02*
X90187200Y-25226190D01*
X90187200Y-25226190D02*
X90234819Y-25369047D01*
X90234819Y-25369047D02*
X90234819Y-25464285D01*
X89234819Y-24702380D02*
X89234819Y-24083333D01*
X89234819Y-24083333D02*
X89615771Y-24416666D01*
X89615771Y-24416666D02*
X89615771Y-24273809D01*
X89615771Y-24273809D02*
X89663390Y-24178571D01*
X89663390Y-24178571D02*
X89711009Y-24130952D01*
X89711009Y-24130952D02*
X89806247Y-24083333D01*
X89806247Y-24083333D02*
X90044342Y-24083333D01*
X90044342Y-24083333D02*
X90139580Y-24130952D01*
X90139580Y-24130952D02*
X90187200Y-24178571D01*
X90187200Y-24178571D02*
X90234819Y-24273809D01*
X90234819Y-24273809D02*
X90234819Y-24559523D01*
X90234819Y-24559523D02*
X90187200Y-24654761D01*
X90187200Y-24654761D02*
X90139580Y-24702380D01*
X11261905Y-52806819D02*
X11833333Y-52806819D01*
X11547619Y-53806819D02*
X11547619Y-52806819D01*
X12166667Y-53806819D02*
X12166667Y-52806819D01*
X12166667Y-52806819D02*
X12547619Y-52806819D01*
X12547619Y-52806819D02*
X12642857Y-52854438D01*
X12642857Y-52854438D02*
X12690476Y-52902057D01*
X12690476Y-52902057D02*
X12738095Y-52997295D01*
X12738095Y-52997295D02*
X12738095Y-53140152D01*
X12738095Y-53140152D02*
X12690476Y-53235390D01*
X12690476Y-53235390D02*
X12642857Y-53283009D01*
X12642857Y-53283009D02*
X12547619Y-53330628D01*
X12547619Y-53330628D02*
X12166667Y-53330628D01*
X13690476Y-53806819D02*
X13119048Y-53806819D01*
X13404762Y-53806819D02*
X13404762Y-52806819D01*
X13404762Y-52806819D02*
X13309524Y-52949676D01*
X13309524Y-52949676D02*
X13214286Y-53044914D01*
X13214286Y-53044914D02*
X13119048Y-53092533D01*
X14595238Y-52806819D02*
X14119048Y-52806819D01*
X14119048Y-52806819D02*
X14071429Y-53283009D01*
X14071429Y-53283009D02*
X14119048Y-53235390D01*
X14119048Y-53235390D02*
X14214286Y-53187771D01*
X14214286Y-53187771D02*
X14452381Y-53187771D01*
X14452381Y-53187771D02*
X14547619Y-53235390D01*
X14547619Y-53235390D02*
X14595238Y-53283009D01*
X14595238Y-53283009D02*
X14642857Y-53378247D01*
X14642857Y-53378247D02*
X14642857Y-53616342D01*
X14642857Y-53616342D02*
X14595238Y-53711580D01*
X14595238Y-53711580D02*
X14547619Y-53759200D01*
X14547619Y-53759200D02*
X14452381Y-53806819D01*
X14452381Y-53806819D02*
X14214286Y-53806819D01*
X14214286Y-53806819D02*
X14119048Y-53759200D01*
X14119048Y-53759200D02*
X14071429Y-53711580D01*
X93833333Y-35929580D02*
X93785714Y-35977200D01*
X93785714Y-35977200D02*
X93642857Y-36024819D01*
X93642857Y-36024819D02*
X93547619Y-36024819D01*
X93547619Y-36024819D02*
X93404762Y-35977200D01*
X93404762Y-35977200D02*
X93309524Y-35881961D01*
X93309524Y-35881961D02*
X93261905Y-35786723D01*
X93261905Y-35786723D02*
X93214286Y-35596247D01*
X93214286Y-35596247D02*
X93214286Y-35453390D01*
X93214286Y-35453390D02*
X93261905Y-35262914D01*
X93261905Y-35262914D02*
X93309524Y-35167676D01*
X93309524Y-35167676D02*
X93404762Y-35072438D01*
X93404762Y-35072438D02*
X93547619Y-35024819D01*
X93547619Y-35024819D02*
X93642857Y-35024819D01*
X93642857Y-35024819D02*
X93785714Y-35072438D01*
X93785714Y-35072438D02*
X93833333Y-35120057D01*
X94690476Y-35024819D02*
X94500000Y-35024819D01*
X94500000Y-35024819D02*
X94404762Y-35072438D01*
X94404762Y-35072438D02*
X94357143Y-35120057D01*
X94357143Y-35120057D02*
X94261905Y-35262914D01*
X94261905Y-35262914D02*
X94214286Y-35453390D01*
X94214286Y-35453390D02*
X94214286Y-35834342D01*
X94214286Y-35834342D02*
X94261905Y-35929580D01*
X94261905Y-35929580D02*
X94309524Y-35977200D01*
X94309524Y-35977200D02*
X94404762Y-36024819D01*
X94404762Y-36024819D02*
X94595238Y-36024819D01*
X94595238Y-36024819D02*
X94690476Y-35977200D01*
X94690476Y-35977200D02*
X94738095Y-35929580D01*
X94738095Y-35929580D02*
X94785714Y-35834342D01*
X94785714Y-35834342D02*
X94785714Y-35596247D01*
X94785714Y-35596247D02*
X94738095Y-35501009D01*
X94738095Y-35501009D02*
X94690476Y-35453390D01*
X94690476Y-35453390D02*
X94595238Y-35405771D01*
X94595238Y-35405771D02*
X94404762Y-35405771D01*
X94404762Y-35405771D02*
X94309524Y-35453390D01*
X94309524Y-35453390D02*
X94261905Y-35501009D01*
X94261905Y-35501009D02*
X94214286Y-35596247D01*
X6666666Y-22454819D02*
X6666666Y-23169104D01*
X6666666Y-23169104D02*
X6619047Y-23311961D01*
X6619047Y-23311961D02*
X6523809Y-23407200D01*
X6523809Y-23407200D02*
X6380952Y-23454819D01*
X6380952Y-23454819D02*
X6285714Y-23454819D01*
X7095238Y-22550057D02*
X7142857Y-22502438D01*
X7142857Y-22502438D02*
X7238095Y-22454819D01*
X7238095Y-22454819D02*
X7476190Y-22454819D01*
X7476190Y-22454819D02*
X7571428Y-22502438D01*
X7571428Y-22502438D02*
X7619047Y-22550057D01*
X7619047Y-22550057D02*
X7666666Y-22645295D01*
X7666666Y-22645295D02*
X7666666Y-22740533D01*
X7666666Y-22740533D02*
X7619047Y-22883390D01*
X7619047Y-22883390D02*
X7047619Y-23454819D01*
X7047619Y-23454819D02*
X7666666Y-23454819D01*
X91234819Y-8583333D02*
X91949104Y-8583333D01*
X91949104Y-8583333D02*
X92091961Y-8630952D01*
X92091961Y-8630952D02*
X92187200Y-8726190D01*
X92187200Y-8726190D02*
X92234819Y-8869047D01*
X92234819Y-8869047D02*
X92234819Y-8964285D01*
X92234819Y-7583333D02*
X92234819Y-8154761D01*
X92234819Y-7869047D02*
X91234819Y-7869047D01*
X91234819Y-7869047D02*
X91377676Y-7964285D01*
X91377676Y-7964285D02*
X91472914Y-8059523D01*
X91472914Y-8059523D02*
X91520533Y-8154761D01*
X87904761Y-2150057D02*
X87809523Y-2102438D01*
X87809523Y-2102438D02*
X87714285Y-2007200D01*
X87714285Y-2007200D02*
X87571428Y-1864342D01*
X87571428Y-1864342D02*
X87476190Y-1816723D01*
X87476190Y-1816723D02*
X87380952Y-1816723D01*
X87428571Y-2054819D02*
X87333333Y-2007200D01*
X87333333Y-2007200D02*
X87238095Y-1911961D01*
X87238095Y-1911961D02*
X87190476Y-1721485D01*
X87190476Y-1721485D02*
X87190476Y-1388152D01*
X87190476Y-1388152D02*
X87238095Y-1197676D01*
X87238095Y-1197676D02*
X87333333Y-1102438D01*
X87333333Y-1102438D02*
X87428571Y-1054819D01*
X87428571Y-1054819D02*
X87619047Y-1054819D01*
X87619047Y-1054819D02*
X87714285Y-1102438D01*
X87714285Y-1102438D02*
X87809523Y-1197676D01*
X87809523Y-1197676D02*
X87857142Y-1388152D01*
X87857142Y-1388152D02*
X87857142Y-1721485D01*
X87857142Y-1721485D02*
X87809523Y-1911961D01*
X87809523Y-1911961D02*
X87714285Y-2007200D01*
X87714285Y-2007200D02*
X87619047Y-2054819D01*
X87619047Y-2054819D02*
X87428571Y-2054819D01*
X88238095Y-1150057D02*
X88285714Y-1102438D01*
X88285714Y-1102438D02*
X88380952Y-1054819D01*
X88380952Y-1054819D02*
X88619047Y-1054819D01*
X88619047Y-1054819D02*
X88714285Y-1102438D01*
X88714285Y-1102438D02*
X88761904Y-1150057D01*
X88761904Y-1150057D02*
X88809523Y-1245295D01*
X88809523Y-1245295D02*
X88809523Y-1340533D01*
X88809523Y-1340533D02*
X88761904Y-1483390D01*
X88761904Y-1483390D02*
X88190476Y-2054819D01*
X88190476Y-2054819D02*
X88809523Y-2054819D01*
X23738095Y-1806819D02*
X24309523Y-1806819D01*
X24023809Y-2806819D02*
X24023809Y-1806819D01*
X24642857Y-2806819D02*
X24642857Y-1806819D01*
X24642857Y-1806819D02*
X25023809Y-1806819D01*
X25023809Y-1806819D02*
X25119047Y-1854438D01*
X25119047Y-1854438D02*
X25166666Y-1902057D01*
X25166666Y-1902057D02*
X25214285Y-1997295D01*
X25214285Y-1997295D02*
X25214285Y-2140152D01*
X25214285Y-2140152D02*
X25166666Y-2235390D01*
X25166666Y-2235390D02*
X25119047Y-2283009D01*
X25119047Y-2283009D02*
X25023809Y-2330628D01*
X25023809Y-2330628D02*
X24642857Y-2330628D01*
X26071428Y-1806819D02*
X25880952Y-1806819D01*
X25880952Y-1806819D02*
X25785714Y-1854438D01*
X25785714Y-1854438D02*
X25738095Y-1902057D01*
X25738095Y-1902057D02*
X25642857Y-2044914D01*
X25642857Y-2044914D02*
X25595238Y-2235390D01*
X25595238Y-2235390D02*
X25595238Y-2616342D01*
X25595238Y-2616342D02*
X25642857Y-2711580D01*
X25642857Y-2711580D02*
X25690476Y-2759200D01*
X25690476Y-2759200D02*
X25785714Y-2806819D01*
X25785714Y-2806819D02*
X25976190Y-2806819D01*
X25976190Y-2806819D02*
X26071428Y-2759200D01*
X26071428Y-2759200D02*
X26119047Y-2711580D01*
X26119047Y-2711580D02*
X26166666Y-2616342D01*
X26166666Y-2616342D02*
X26166666Y-2378247D01*
X26166666Y-2378247D02*
X26119047Y-2283009D01*
X26119047Y-2283009D02*
X26071428Y-2235390D01*
X26071428Y-2235390D02*
X25976190Y-2187771D01*
X25976190Y-2187771D02*
X25785714Y-2187771D01*
X25785714Y-2187771D02*
X25690476Y-2235390D01*
X25690476Y-2235390D02*
X25642857Y-2283009D01*
X25642857Y-2283009D02*
X25595238Y-2378247D01*
X54666666Y-6101009D02*
X54333333Y-6101009D01*
X54333333Y-6624819D02*
X54333333Y-5624819D01*
X54333333Y-5624819D02*
X54809523Y-5624819D01*
X55714285Y-6624819D02*
X55142857Y-6624819D01*
X55428571Y-6624819D02*
X55428571Y-5624819D01*
X55428571Y-5624819D02*
X55333333Y-5767676D01*
X55333333Y-5767676D02*
X55238095Y-5862914D01*
X55238095Y-5862914D02*
X55142857Y-5910533D01*
X35738095Y-1806819D02*
X36309523Y-1806819D01*
X36023809Y-2806819D02*
X36023809Y-1806819D01*
X36642857Y-2806819D02*
X36642857Y-1806819D01*
X36642857Y-1806819D02*
X37023809Y-1806819D01*
X37023809Y-1806819D02*
X37119047Y-1854438D01*
X37119047Y-1854438D02*
X37166666Y-1902057D01*
X37166666Y-1902057D02*
X37214285Y-1997295D01*
X37214285Y-1997295D02*
X37214285Y-2140152D01*
X37214285Y-2140152D02*
X37166666Y-2235390D01*
X37166666Y-2235390D02*
X37119047Y-2283009D01*
X37119047Y-2283009D02*
X37023809Y-2330628D01*
X37023809Y-2330628D02*
X36642857Y-2330628D01*
X37690476Y-2806819D02*
X37880952Y-2806819D01*
X37880952Y-2806819D02*
X37976190Y-2759200D01*
X37976190Y-2759200D02*
X38023809Y-2711580D01*
X38023809Y-2711580D02*
X38119047Y-2568723D01*
X38119047Y-2568723D02*
X38166666Y-2378247D01*
X38166666Y-2378247D02*
X38166666Y-1997295D01*
X38166666Y-1997295D02*
X38119047Y-1902057D01*
X38119047Y-1902057D02*
X38071428Y-1854438D01*
X38071428Y-1854438D02*
X37976190Y-1806819D01*
X37976190Y-1806819D02*
X37785714Y-1806819D01*
X37785714Y-1806819D02*
X37690476Y-1854438D01*
X37690476Y-1854438D02*
X37642857Y-1902057D01*
X37642857Y-1902057D02*
X37595238Y-1997295D01*
X37595238Y-1997295D02*
X37595238Y-2235390D01*
X37595238Y-2235390D02*
X37642857Y-2330628D01*
X37642857Y-2330628D02*
X37690476Y-2378247D01*
X37690476Y-2378247D02*
X37785714Y-2425866D01*
X37785714Y-2425866D02*
X37976190Y-2425866D01*
X37976190Y-2425866D02*
X38071428Y-2378247D01*
X38071428Y-2378247D02*
X38119047Y-2330628D01*
X38119047Y-2330628D02*
X38166666Y-2235390D01*
X23357142Y-37024819D02*
X23023809Y-36548628D01*
X22785714Y-37024819D02*
X22785714Y-36024819D01*
X22785714Y-36024819D02*
X23166666Y-36024819D01*
X23166666Y-36024819D02*
X23261904Y-36072438D01*
X23261904Y-36072438D02*
X23309523Y-36120057D01*
X23309523Y-36120057D02*
X23357142Y-36215295D01*
X23357142Y-36215295D02*
X23357142Y-36358152D01*
X23357142Y-36358152D02*
X23309523Y-36453390D01*
X23309523Y-36453390D02*
X23261904Y-36501009D01*
X23261904Y-36501009D02*
X23166666Y-36548628D01*
X23166666Y-36548628D02*
X22785714Y-36548628D01*
X24309523Y-37024819D02*
X23738095Y-37024819D01*
X24023809Y-37024819D02*
X24023809Y-36024819D01*
X24023809Y-36024819D02*
X23928571Y-36167676D01*
X23928571Y-36167676D02*
X23833333Y-36262914D01*
X23833333Y-36262914D02*
X23738095Y-36310533D01*
X25214285Y-36024819D02*
X24738095Y-36024819D01*
X24738095Y-36024819D02*
X24690476Y-36501009D01*
X24690476Y-36501009D02*
X24738095Y-36453390D01*
X24738095Y-36453390D02*
X24833333Y-36405771D01*
X24833333Y-36405771D02*
X25071428Y-36405771D01*
X25071428Y-36405771D02*
X25166666Y-36453390D01*
X25166666Y-36453390D02*
X25214285Y-36501009D01*
X25214285Y-36501009D02*
X25261904Y-36596247D01*
X25261904Y-36596247D02*
X25261904Y-36834342D01*
X25261904Y-36834342D02*
X25214285Y-36929580D01*
X25214285Y-36929580D02*
X25166666Y-36977200D01*
X25166666Y-36977200D02*
X25071428Y-37024819D01*
X25071428Y-37024819D02*
X24833333Y-37024819D01*
X24833333Y-37024819D02*
X24738095Y-36977200D01*
X24738095Y-36977200D02*
X24690476Y-36929580D01*
X42357142Y-42024819D02*
X42023809Y-41548628D01*
X41785714Y-42024819D02*
X41785714Y-41024819D01*
X41785714Y-41024819D02*
X42166666Y-41024819D01*
X42166666Y-41024819D02*
X42261904Y-41072438D01*
X42261904Y-41072438D02*
X42309523Y-41120057D01*
X42309523Y-41120057D02*
X42357142Y-41215295D01*
X42357142Y-41215295D02*
X42357142Y-41358152D01*
X42357142Y-41358152D02*
X42309523Y-41453390D01*
X42309523Y-41453390D02*
X42261904Y-41501009D01*
X42261904Y-41501009D02*
X42166666Y-41548628D01*
X42166666Y-41548628D02*
X41785714Y-41548628D01*
X43309523Y-42024819D02*
X42738095Y-42024819D01*
X43023809Y-42024819D02*
X43023809Y-41024819D01*
X43023809Y-41024819D02*
X42928571Y-41167676D01*
X42928571Y-41167676D02*
X42833333Y-41262914D01*
X42833333Y-41262914D02*
X42738095Y-41310533D01*
X43690476Y-41120057D02*
X43738095Y-41072438D01*
X43738095Y-41072438D02*
X43833333Y-41024819D01*
X43833333Y-41024819D02*
X44071428Y-41024819D01*
X44071428Y-41024819D02*
X44166666Y-41072438D01*
X44166666Y-41072438D02*
X44214285Y-41120057D01*
X44214285Y-41120057D02*
X44261904Y-41215295D01*
X44261904Y-41215295D02*
X44261904Y-41310533D01*
X44261904Y-41310533D02*
X44214285Y-41453390D01*
X44214285Y-41453390D02*
X43642857Y-42024819D01*
X43642857Y-42024819D02*
X44261904Y-42024819D01*
X27738095Y-1806819D02*
X28309523Y-1806819D01*
X28023809Y-2806819D02*
X28023809Y-1806819D01*
X28642857Y-2806819D02*
X28642857Y-1806819D01*
X28642857Y-1806819D02*
X29023809Y-1806819D01*
X29023809Y-1806819D02*
X29119047Y-1854438D01*
X29119047Y-1854438D02*
X29166666Y-1902057D01*
X29166666Y-1902057D02*
X29214285Y-1997295D01*
X29214285Y-1997295D02*
X29214285Y-2140152D01*
X29214285Y-2140152D02*
X29166666Y-2235390D01*
X29166666Y-2235390D02*
X29119047Y-2283009D01*
X29119047Y-2283009D02*
X29023809Y-2330628D01*
X29023809Y-2330628D02*
X28642857Y-2330628D01*
X29547619Y-1806819D02*
X30214285Y-1806819D01*
X30214285Y-1806819D02*
X29785714Y-2806819D01*
X35357142Y-41929580D02*
X35309523Y-41977200D01*
X35309523Y-41977200D02*
X35166666Y-42024819D01*
X35166666Y-42024819D02*
X35071428Y-42024819D01*
X35071428Y-42024819D02*
X34928571Y-41977200D01*
X34928571Y-41977200D02*
X34833333Y-41881961D01*
X34833333Y-41881961D02*
X34785714Y-41786723D01*
X34785714Y-41786723D02*
X34738095Y-41596247D01*
X34738095Y-41596247D02*
X34738095Y-41453390D01*
X34738095Y-41453390D02*
X34785714Y-41262914D01*
X34785714Y-41262914D02*
X34833333Y-41167676D01*
X34833333Y-41167676D02*
X34928571Y-41072438D01*
X34928571Y-41072438D02*
X35071428Y-41024819D01*
X35071428Y-41024819D02*
X35166666Y-41024819D01*
X35166666Y-41024819D02*
X35309523Y-41072438D01*
X35309523Y-41072438D02*
X35357142Y-41120057D01*
X35690476Y-41024819D02*
X36309523Y-41024819D01*
X36309523Y-41024819D02*
X35976190Y-41405771D01*
X35976190Y-41405771D02*
X36119047Y-41405771D01*
X36119047Y-41405771D02*
X36214285Y-41453390D01*
X36214285Y-41453390D02*
X36261904Y-41501009D01*
X36261904Y-41501009D02*
X36309523Y-41596247D01*
X36309523Y-41596247D02*
X36309523Y-41834342D01*
X36309523Y-41834342D02*
X36261904Y-41929580D01*
X36261904Y-41929580D02*
X36214285Y-41977200D01*
X36214285Y-41977200D02*
X36119047Y-42024819D01*
X36119047Y-42024819D02*
X35833333Y-42024819D01*
X35833333Y-42024819D02*
X35738095Y-41977200D01*
X35738095Y-41977200D02*
X35690476Y-41929580D01*
X37166666Y-41024819D02*
X36976190Y-41024819D01*
X36976190Y-41024819D02*
X36880952Y-41072438D01*
X36880952Y-41072438D02*
X36833333Y-41120057D01*
X36833333Y-41120057D02*
X36738095Y-41262914D01*
X36738095Y-41262914D02*
X36690476Y-41453390D01*
X36690476Y-41453390D02*
X36690476Y-41834342D01*
X36690476Y-41834342D02*
X36738095Y-41929580D01*
X36738095Y-41929580D02*
X36785714Y-41977200D01*
X36785714Y-41977200D02*
X36880952Y-42024819D01*
X36880952Y-42024819D02*
X37071428Y-42024819D01*
X37071428Y-42024819D02*
X37166666Y-41977200D01*
X37166666Y-41977200D02*
X37214285Y-41929580D01*
X37214285Y-41929580D02*
X37261904Y-41834342D01*
X37261904Y-41834342D02*
X37261904Y-41596247D01*
X37261904Y-41596247D02*
X37214285Y-41501009D01*
X37214285Y-41501009D02*
X37166666Y-41453390D01*
X37166666Y-41453390D02*
X37071428Y-41405771D01*
X37071428Y-41405771D02*
X36880952Y-41405771D01*
X36880952Y-41405771D02*
X36785714Y-41453390D01*
X36785714Y-41453390D02*
X36738095Y-41501009D01*
X36738095Y-41501009D02*
X36690476Y-41596247D01*
X54261905Y-11454819D02*
X54261905Y-10454819D01*
X54261905Y-10454819D02*
X54500000Y-10454819D01*
X54500000Y-10454819D02*
X54642857Y-10502438D01*
X54642857Y-10502438D02*
X54738095Y-10597676D01*
X54738095Y-10597676D02*
X54785714Y-10692914D01*
X54785714Y-10692914D02*
X54833333Y-10883390D01*
X54833333Y-10883390D02*
X54833333Y-11026247D01*
X54833333Y-11026247D02*
X54785714Y-11216723D01*
X54785714Y-11216723D02*
X54738095Y-11311961D01*
X54738095Y-11311961D02*
X54642857Y-11407200D01*
X54642857Y-11407200D02*
X54500000Y-11454819D01*
X54500000Y-11454819D02*
X54261905Y-11454819D01*
X55690476Y-10788152D02*
X55690476Y-11454819D01*
X55452381Y-10407200D02*
X55214286Y-11121485D01*
X55214286Y-11121485D02*
X55833333Y-11121485D01*
X53238095Y-37724819D02*
X53238095Y-38534342D01*
X53238095Y-38534342D02*
X53285714Y-38629580D01*
X53285714Y-38629580D02*
X53333333Y-38677200D01*
X53333333Y-38677200D02*
X53428571Y-38724819D01*
X53428571Y-38724819D02*
X53619047Y-38724819D01*
X53619047Y-38724819D02*
X53714285Y-38677200D01*
X53714285Y-38677200D02*
X53761904Y-38629580D01*
X53761904Y-38629580D02*
X53809523Y-38534342D01*
X53809523Y-38534342D02*
X53809523Y-37724819D01*
X54714285Y-37724819D02*
X54523809Y-37724819D01*
X54523809Y-37724819D02*
X54428571Y-37772438D01*
X54428571Y-37772438D02*
X54380952Y-37820057D01*
X54380952Y-37820057D02*
X54285714Y-37962914D01*
X54285714Y-37962914D02*
X54238095Y-38153390D01*
X54238095Y-38153390D02*
X54238095Y-38534342D01*
X54238095Y-38534342D02*
X54285714Y-38629580D01*
X54285714Y-38629580D02*
X54333333Y-38677200D01*
X54333333Y-38677200D02*
X54428571Y-38724819D01*
X54428571Y-38724819D02*
X54619047Y-38724819D01*
X54619047Y-38724819D02*
X54714285Y-38677200D01*
X54714285Y-38677200D02*
X54761904Y-38629580D01*
X54761904Y-38629580D02*
X54809523Y-38534342D01*
X54809523Y-38534342D02*
X54809523Y-38296247D01*
X54809523Y-38296247D02*
X54761904Y-38201009D01*
X54761904Y-38201009D02*
X54714285Y-38153390D01*
X54714285Y-38153390D02*
X54619047Y-38105771D01*
X54619047Y-38105771D02*
X54428571Y-38105771D01*
X54428571Y-38105771D02*
X54333333Y-38153390D01*
X54333333Y-38153390D02*
X54285714Y-38201009D01*
X54285714Y-38201009D02*
X54238095Y-38296247D01*
X62833333Y-14024819D02*
X62500000Y-13548628D01*
X62261905Y-14024819D02*
X62261905Y-13024819D01*
X62261905Y-13024819D02*
X62642857Y-13024819D01*
X62642857Y-13024819D02*
X62738095Y-13072438D01*
X62738095Y-13072438D02*
X62785714Y-13120057D01*
X62785714Y-13120057D02*
X62833333Y-13215295D01*
X62833333Y-13215295D02*
X62833333Y-13358152D01*
X62833333Y-13358152D02*
X62785714Y-13453390D01*
X62785714Y-13453390D02*
X62738095Y-13501009D01*
X62738095Y-13501009D02*
X62642857Y-13548628D01*
X62642857Y-13548628D02*
X62261905Y-13548628D01*
X63785714Y-14024819D02*
X63214286Y-14024819D01*
X63500000Y-14024819D02*
X63500000Y-13024819D01*
X63500000Y-13024819D02*
X63404762Y-13167676D01*
X63404762Y-13167676D02*
X63309524Y-13262914D01*
X63309524Y-13262914D02*
X63214286Y-13310533D01*
X63833333Y-19679580D02*
X63785714Y-19727200D01*
X63785714Y-19727200D02*
X63642857Y-19774819D01*
X63642857Y-19774819D02*
X63547619Y-19774819D01*
X63547619Y-19774819D02*
X63404762Y-19727200D01*
X63404762Y-19727200D02*
X63309524Y-19631961D01*
X63309524Y-19631961D02*
X63261905Y-19536723D01*
X63261905Y-19536723D02*
X63214286Y-19346247D01*
X63214286Y-19346247D02*
X63214286Y-19203390D01*
X63214286Y-19203390D02*
X63261905Y-19012914D01*
X63261905Y-19012914D02*
X63309524Y-18917676D01*
X63309524Y-18917676D02*
X63404762Y-18822438D01*
X63404762Y-18822438D02*
X63547619Y-18774819D01*
X63547619Y-18774819D02*
X63642857Y-18774819D01*
X63642857Y-18774819D02*
X63785714Y-18822438D01*
X63785714Y-18822438D02*
X63833333Y-18870057D01*
X64214286Y-18870057D02*
X64261905Y-18822438D01*
X64261905Y-18822438D02*
X64357143Y-18774819D01*
X64357143Y-18774819D02*
X64595238Y-18774819D01*
X64595238Y-18774819D02*
X64690476Y-18822438D01*
X64690476Y-18822438D02*
X64738095Y-18870057D01*
X64738095Y-18870057D02*
X64785714Y-18965295D01*
X64785714Y-18965295D02*
X64785714Y-19060533D01*
X64785714Y-19060533D02*
X64738095Y-19203390D01*
X64738095Y-19203390D02*
X64166667Y-19774819D01*
X64166667Y-19774819D02*
X64785714Y-19774819D01*
X21238095Y-7054819D02*
X21238095Y-7864342D01*
X21238095Y-7864342D02*
X21285714Y-7959580D01*
X21285714Y-7959580D02*
X21333333Y-8007200D01*
X21333333Y-8007200D02*
X21428571Y-8054819D01*
X21428571Y-8054819D02*
X21619047Y-8054819D01*
X21619047Y-8054819D02*
X21714285Y-8007200D01*
X21714285Y-8007200D02*
X21761904Y-7959580D01*
X21761904Y-7959580D02*
X21809523Y-7864342D01*
X21809523Y-7864342D02*
X21809523Y-7054819D01*
X22761904Y-7054819D02*
X22285714Y-7054819D01*
X22285714Y-7054819D02*
X22238095Y-7531009D01*
X22238095Y-7531009D02*
X22285714Y-7483390D01*
X22285714Y-7483390D02*
X22380952Y-7435771D01*
X22380952Y-7435771D02*
X22619047Y-7435771D01*
X22619047Y-7435771D02*
X22714285Y-7483390D01*
X22714285Y-7483390D02*
X22761904Y-7531009D01*
X22761904Y-7531009D02*
X22809523Y-7626247D01*
X22809523Y-7626247D02*
X22809523Y-7864342D01*
X22809523Y-7864342D02*
X22761904Y-7959580D01*
X22761904Y-7959580D02*
X22714285Y-8007200D01*
X22714285Y-8007200D02*
X22619047Y-8054819D01*
X22619047Y-8054819D02*
X22380952Y-8054819D01*
X22380952Y-8054819D02*
X22285714Y-8007200D01*
X22285714Y-8007200D02*
X22238095Y-7959580D01*
X81833333Y-22254819D02*
X81357143Y-22254819D01*
X81357143Y-22254819D02*
X81357143Y-21254819D01*
X82690476Y-22254819D02*
X82119048Y-22254819D01*
X82404762Y-22254819D02*
X82404762Y-21254819D01*
X82404762Y-21254819D02*
X82309524Y-21397676D01*
X82309524Y-21397676D02*
X82214286Y-21492914D01*
X82214286Y-21492914D02*
X82119048Y-21540533D01*
X35357142Y-45929580D02*
X35309523Y-45977200D01*
X35309523Y-45977200D02*
X35166666Y-46024819D01*
X35166666Y-46024819D02*
X35071428Y-46024819D01*
X35071428Y-46024819D02*
X34928571Y-45977200D01*
X34928571Y-45977200D02*
X34833333Y-45881961D01*
X34833333Y-45881961D02*
X34785714Y-45786723D01*
X34785714Y-45786723D02*
X34738095Y-45596247D01*
X34738095Y-45596247D02*
X34738095Y-45453390D01*
X34738095Y-45453390D02*
X34785714Y-45262914D01*
X34785714Y-45262914D02*
X34833333Y-45167676D01*
X34833333Y-45167676D02*
X34928571Y-45072438D01*
X34928571Y-45072438D02*
X35071428Y-45024819D01*
X35071428Y-45024819D02*
X35166666Y-45024819D01*
X35166666Y-45024819D02*
X35309523Y-45072438D01*
X35309523Y-45072438D02*
X35357142Y-45120057D01*
X35690476Y-45024819D02*
X36309523Y-45024819D01*
X36309523Y-45024819D02*
X35976190Y-45405771D01*
X35976190Y-45405771D02*
X36119047Y-45405771D01*
X36119047Y-45405771D02*
X36214285Y-45453390D01*
X36214285Y-45453390D02*
X36261904Y-45501009D01*
X36261904Y-45501009D02*
X36309523Y-45596247D01*
X36309523Y-45596247D02*
X36309523Y-45834342D01*
X36309523Y-45834342D02*
X36261904Y-45929580D01*
X36261904Y-45929580D02*
X36214285Y-45977200D01*
X36214285Y-45977200D02*
X36119047Y-46024819D01*
X36119047Y-46024819D02*
X35833333Y-46024819D01*
X35833333Y-46024819D02*
X35738095Y-45977200D01*
X35738095Y-45977200D02*
X35690476Y-45929580D01*
X36642857Y-45024819D02*
X37309523Y-45024819D01*
X37309523Y-45024819D02*
X36880952Y-46024819D01*
X12166666Y-59234819D02*
X12166666Y-59949104D01*
X12166666Y-59949104D02*
X12119047Y-60091961D01*
X12119047Y-60091961D02*
X12023809Y-60187200D01*
X12023809Y-60187200D02*
X11880952Y-60234819D01*
X11880952Y-60234819D02*
X11785714Y-60234819D01*
X13071428Y-59568152D02*
X13071428Y-60234819D01*
X12833333Y-59187200D02*
X12595238Y-59901485D01*
X12595238Y-59901485D02*
X13214285Y-59901485D01*
X92261905Y-60454819D02*
X92261905Y-59454819D01*
X92261905Y-59454819D02*
X92500000Y-59454819D01*
X92500000Y-59454819D02*
X92642857Y-59502438D01*
X92642857Y-59502438D02*
X92738095Y-59597676D01*
X92738095Y-59597676D02*
X92785714Y-59692914D01*
X92785714Y-59692914D02*
X92833333Y-59883390D01*
X92833333Y-59883390D02*
X92833333Y-60026247D01*
X92833333Y-60026247D02*
X92785714Y-60216723D01*
X92785714Y-60216723D02*
X92738095Y-60311961D01*
X92738095Y-60311961D02*
X92642857Y-60407200D01*
X92642857Y-60407200D02*
X92500000Y-60454819D01*
X92500000Y-60454819D02*
X92261905Y-60454819D01*
X93738095Y-59454819D02*
X93261905Y-59454819D01*
X93261905Y-59454819D02*
X93214286Y-59931009D01*
X93214286Y-59931009D02*
X93261905Y-59883390D01*
X93261905Y-59883390D02*
X93357143Y-59835771D01*
X93357143Y-59835771D02*
X93595238Y-59835771D01*
X93595238Y-59835771D02*
X93690476Y-59883390D01*
X93690476Y-59883390D02*
X93738095Y-59931009D01*
X93738095Y-59931009D02*
X93785714Y-60026247D01*
X93785714Y-60026247D02*
X93785714Y-60264342D01*
X93785714Y-60264342D02*
X93738095Y-60359580D01*
X93738095Y-60359580D02*
X93690476Y-60407200D01*
X93690476Y-60407200D02*
X93595238Y-60454819D01*
X93595238Y-60454819D02*
X93357143Y-60454819D01*
X93357143Y-60454819D02*
X93261905Y-60407200D01*
X93261905Y-60407200D02*
X93214286Y-60359580D01*
X47261905Y-1806819D02*
X47833333Y-1806819D01*
X47547619Y-2806819D02*
X47547619Y-1806819D01*
X48166667Y-2806819D02*
X48166667Y-1806819D01*
X48166667Y-1806819D02*
X48547619Y-1806819D01*
X48547619Y-1806819D02*
X48642857Y-1854438D01*
X48642857Y-1854438D02*
X48690476Y-1902057D01*
X48690476Y-1902057D02*
X48738095Y-1997295D01*
X48738095Y-1997295D02*
X48738095Y-2140152D01*
X48738095Y-2140152D02*
X48690476Y-2235390D01*
X48690476Y-2235390D02*
X48642857Y-2283009D01*
X48642857Y-2283009D02*
X48547619Y-2330628D01*
X48547619Y-2330628D02*
X48166667Y-2330628D01*
X49690476Y-2806819D02*
X49119048Y-2806819D01*
X49404762Y-2806819D02*
X49404762Y-1806819D01*
X49404762Y-1806819D02*
X49309524Y-1949676D01*
X49309524Y-1949676D02*
X49214286Y-2044914D01*
X49214286Y-2044914D02*
X49119048Y-2092533D01*
X50071429Y-1902057D02*
X50119048Y-1854438D01*
X50119048Y-1854438D02*
X50214286Y-1806819D01*
X50214286Y-1806819D02*
X50452381Y-1806819D01*
X50452381Y-1806819D02*
X50547619Y-1854438D01*
X50547619Y-1854438D02*
X50595238Y-1902057D01*
X50595238Y-1902057D02*
X50642857Y-1997295D01*
X50642857Y-1997295D02*
X50642857Y-2092533D01*
X50642857Y-2092533D02*
X50595238Y-2235390D01*
X50595238Y-2235390D02*
X50023810Y-2806819D01*
X50023810Y-2806819D02*
X50642857Y-2806819D01*
X89238095Y-44054819D02*
X89238095Y-44864342D01*
X89238095Y-44864342D02*
X89285714Y-44959580D01*
X89285714Y-44959580D02*
X89333333Y-45007200D01*
X89333333Y-45007200D02*
X89428571Y-45054819D01*
X89428571Y-45054819D02*
X89619047Y-45054819D01*
X89619047Y-45054819D02*
X89714285Y-45007200D01*
X89714285Y-45007200D02*
X89761904Y-44959580D01*
X89761904Y-44959580D02*
X89809523Y-44864342D01*
X89809523Y-44864342D02*
X89809523Y-44054819D01*
X90190476Y-44054819D02*
X90809523Y-44054819D01*
X90809523Y-44054819D02*
X90476190Y-44435771D01*
X90476190Y-44435771D02*
X90619047Y-44435771D01*
X90619047Y-44435771D02*
X90714285Y-44483390D01*
X90714285Y-44483390D02*
X90761904Y-44531009D01*
X90761904Y-44531009D02*
X90809523Y-44626247D01*
X90809523Y-44626247D02*
X90809523Y-44864342D01*
X90809523Y-44864342D02*
X90761904Y-44959580D01*
X90761904Y-44959580D02*
X90714285Y-45007200D01*
X90714285Y-45007200D02*
X90619047Y-45054819D01*
X90619047Y-45054819D02*
X90333333Y-45054819D01*
X90333333Y-45054819D02*
X90238095Y-45007200D01*
X90238095Y-45007200D02*
X90190476Y-44959580D01*
X42357142Y-46024819D02*
X42023809Y-45548628D01*
X41785714Y-46024819D02*
X41785714Y-45024819D01*
X41785714Y-45024819D02*
X42166666Y-45024819D01*
X42166666Y-45024819D02*
X42261904Y-45072438D01*
X42261904Y-45072438D02*
X42309523Y-45120057D01*
X42309523Y-45120057D02*
X42357142Y-45215295D01*
X42357142Y-45215295D02*
X42357142Y-45358152D01*
X42357142Y-45358152D02*
X42309523Y-45453390D01*
X42309523Y-45453390D02*
X42261904Y-45501009D01*
X42261904Y-45501009D02*
X42166666Y-45548628D01*
X42166666Y-45548628D02*
X41785714Y-45548628D01*
X43309523Y-46024819D02*
X42738095Y-46024819D01*
X43023809Y-46024819D02*
X43023809Y-45024819D01*
X43023809Y-45024819D02*
X42928571Y-45167676D01*
X42928571Y-45167676D02*
X42833333Y-45262914D01*
X42833333Y-45262914D02*
X42738095Y-45310533D01*
X43642857Y-45024819D02*
X44261904Y-45024819D01*
X44261904Y-45024819D02*
X43928571Y-45405771D01*
X43928571Y-45405771D02*
X44071428Y-45405771D01*
X44071428Y-45405771D02*
X44166666Y-45453390D01*
X44166666Y-45453390D02*
X44214285Y-45501009D01*
X44214285Y-45501009D02*
X44261904Y-45596247D01*
X44261904Y-45596247D02*
X44261904Y-45834342D01*
X44261904Y-45834342D02*
X44214285Y-45929580D01*
X44214285Y-45929580D02*
X44166666Y-45977200D01*
X44166666Y-45977200D02*
X44071428Y-46024819D01*
X44071428Y-46024819D02*
X43785714Y-46024819D01*
X43785714Y-46024819D02*
X43690476Y-45977200D01*
X43690476Y-45977200D02*
X43642857Y-45929580D01*
X83904761Y-52150057D02*
X83809523Y-52102438D01*
X83809523Y-52102438D02*
X83714285Y-52007200D01*
X83714285Y-52007200D02*
X83571428Y-51864342D01*
X83571428Y-51864342D02*
X83476190Y-51816723D01*
X83476190Y-51816723D02*
X83380952Y-51816723D01*
X83428571Y-52054819D02*
X83333333Y-52007200D01*
X83333333Y-52007200D02*
X83238095Y-51911961D01*
X83238095Y-51911961D02*
X83190476Y-51721485D01*
X83190476Y-51721485D02*
X83190476Y-51388152D01*
X83190476Y-51388152D02*
X83238095Y-51197676D01*
X83238095Y-51197676D02*
X83333333Y-51102438D01*
X83333333Y-51102438D02*
X83428571Y-51054819D01*
X83428571Y-51054819D02*
X83619047Y-51054819D01*
X83619047Y-51054819D02*
X83714285Y-51102438D01*
X83714285Y-51102438D02*
X83809523Y-51197676D01*
X83809523Y-51197676D02*
X83857142Y-51388152D01*
X83857142Y-51388152D02*
X83857142Y-51721485D01*
X83857142Y-51721485D02*
X83809523Y-51911961D01*
X83809523Y-51911961D02*
X83714285Y-52007200D01*
X83714285Y-52007200D02*
X83619047Y-52054819D01*
X83619047Y-52054819D02*
X83428571Y-52054819D01*
X84190476Y-51054819D02*
X84809523Y-51054819D01*
X84809523Y-51054819D02*
X84476190Y-51435771D01*
X84476190Y-51435771D02*
X84619047Y-51435771D01*
X84619047Y-51435771D02*
X84714285Y-51483390D01*
X84714285Y-51483390D02*
X84761904Y-51531009D01*
X84761904Y-51531009D02*
X84809523Y-51626247D01*
X84809523Y-51626247D02*
X84809523Y-51864342D01*
X84809523Y-51864342D02*
X84761904Y-51959580D01*
X84761904Y-51959580D02*
X84714285Y-52007200D01*
X84714285Y-52007200D02*
X84619047Y-52054819D01*
X84619047Y-52054819D02*
X84333333Y-52054819D01*
X84333333Y-52054819D02*
X84238095Y-52007200D01*
X84238095Y-52007200D02*
X84190476Y-51959580D01*
X19261905Y-52806819D02*
X19833333Y-52806819D01*
X19547619Y-53806819D02*
X19547619Y-52806819D01*
X20166667Y-53806819D02*
X20166667Y-52806819D01*
X20166667Y-52806819D02*
X20547619Y-52806819D01*
X20547619Y-52806819D02*
X20642857Y-52854438D01*
X20642857Y-52854438D02*
X20690476Y-52902057D01*
X20690476Y-52902057D02*
X20738095Y-52997295D01*
X20738095Y-52997295D02*
X20738095Y-53140152D01*
X20738095Y-53140152D02*
X20690476Y-53235390D01*
X20690476Y-53235390D02*
X20642857Y-53283009D01*
X20642857Y-53283009D02*
X20547619Y-53330628D01*
X20547619Y-53330628D02*
X20166667Y-53330628D01*
X21690476Y-53806819D02*
X21119048Y-53806819D01*
X21404762Y-53806819D02*
X21404762Y-52806819D01*
X21404762Y-52806819D02*
X21309524Y-52949676D01*
X21309524Y-52949676D02*
X21214286Y-53044914D01*
X21214286Y-53044914D02*
X21119048Y-53092533D01*
X22023810Y-52806819D02*
X22690476Y-52806819D01*
X22690476Y-52806819D02*
X22261905Y-53806819D01*
X58416666Y-59234819D02*
X58416666Y-59949104D01*
X58416666Y-59949104D02*
X58369047Y-60091961D01*
X58369047Y-60091961D02*
X58273809Y-60187200D01*
X58273809Y-60187200D02*
X58130952Y-60234819D01*
X58130952Y-60234819D02*
X58035714Y-60234819D01*
X59321428Y-59234819D02*
X59130952Y-59234819D01*
X59130952Y-59234819D02*
X59035714Y-59282438D01*
X59035714Y-59282438D02*
X58988095Y-59330057D01*
X58988095Y-59330057D02*
X58892857Y-59472914D01*
X58892857Y-59472914D02*
X58845238Y-59663390D01*
X58845238Y-59663390D02*
X58845238Y-60044342D01*
X58845238Y-60044342D02*
X58892857Y-60139580D01*
X58892857Y-60139580D02*
X58940476Y-60187200D01*
X58940476Y-60187200D02*
X59035714Y-60234819D01*
X59035714Y-60234819D02*
X59226190Y-60234819D01*
X59226190Y-60234819D02*
X59321428Y-60187200D01*
X59321428Y-60187200D02*
X59369047Y-60139580D01*
X59369047Y-60139580D02*
X59416666Y-60044342D01*
X59416666Y-60044342D02*
X59416666Y-59806247D01*
X59416666Y-59806247D02*
X59369047Y-59711009D01*
X59369047Y-59711009D02*
X59321428Y-59663390D01*
X59321428Y-59663390D02*
X59226190Y-59615771D01*
X59226190Y-59615771D02*
X59035714Y-59615771D01*
X59035714Y-59615771D02*
X58940476Y-59663390D01*
X58940476Y-59663390D02*
X58892857Y-59711009D01*
X58892857Y-59711009D02*
X58845238Y-59806247D01*
X39261905Y-1806819D02*
X39833333Y-1806819D01*
X39547619Y-2806819D02*
X39547619Y-1806819D01*
X40166667Y-2806819D02*
X40166667Y-1806819D01*
X40166667Y-1806819D02*
X40547619Y-1806819D01*
X40547619Y-1806819D02*
X40642857Y-1854438D01*
X40642857Y-1854438D02*
X40690476Y-1902057D01*
X40690476Y-1902057D02*
X40738095Y-1997295D01*
X40738095Y-1997295D02*
X40738095Y-2140152D01*
X40738095Y-2140152D02*
X40690476Y-2235390D01*
X40690476Y-2235390D02*
X40642857Y-2283009D01*
X40642857Y-2283009D02*
X40547619Y-2330628D01*
X40547619Y-2330628D02*
X40166667Y-2330628D01*
X41690476Y-2806819D02*
X41119048Y-2806819D01*
X41404762Y-2806819D02*
X41404762Y-1806819D01*
X41404762Y-1806819D02*
X41309524Y-1949676D01*
X41309524Y-1949676D02*
X41214286Y-2044914D01*
X41214286Y-2044914D02*
X41119048Y-2092533D01*
X42309524Y-1806819D02*
X42404762Y-1806819D01*
X42404762Y-1806819D02*
X42500000Y-1854438D01*
X42500000Y-1854438D02*
X42547619Y-1902057D01*
X42547619Y-1902057D02*
X42595238Y-1997295D01*
X42595238Y-1997295D02*
X42642857Y-2187771D01*
X42642857Y-2187771D02*
X42642857Y-2425866D01*
X42642857Y-2425866D02*
X42595238Y-2616342D01*
X42595238Y-2616342D02*
X42547619Y-2711580D01*
X42547619Y-2711580D02*
X42500000Y-2759200D01*
X42500000Y-2759200D02*
X42404762Y-2806819D01*
X42404762Y-2806819D02*
X42309524Y-2806819D01*
X42309524Y-2806819D02*
X42214286Y-2759200D01*
X42214286Y-2759200D02*
X42166667Y-2711580D01*
X42166667Y-2711580D02*
X42119048Y-2616342D01*
X42119048Y-2616342D02*
X42071429Y-2425866D01*
X42071429Y-2425866D02*
X42071429Y-2187771D01*
X42071429Y-2187771D02*
X42119048Y-1997295D01*
X42119048Y-1997295D02*
X42166667Y-1902057D01*
X42166667Y-1902057D02*
X42214286Y-1854438D01*
X42214286Y-1854438D02*
X42309524Y-1806819D01*
X35357142Y-53929580D02*
X35309523Y-53977200D01*
X35309523Y-53977200D02*
X35166666Y-54024819D01*
X35166666Y-54024819D02*
X35071428Y-54024819D01*
X35071428Y-54024819D02*
X34928571Y-53977200D01*
X34928571Y-53977200D02*
X34833333Y-53881961D01*
X34833333Y-53881961D02*
X34785714Y-53786723D01*
X34785714Y-53786723D02*
X34738095Y-53596247D01*
X34738095Y-53596247D02*
X34738095Y-53453390D01*
X34738095Y-53453390D02*
X34785714Y-53262914D01*
X34785714Y-53262914D02*
X34833333Y-53167676D01*
X34833333Y-53167676D02*
X34928571Y-53072438D01*
X34928571Y-53072438D02*
X35071428Y-53024819D01*
X35071428Y-53024819D02*
X35166666Y-53024819D01*
X35166666Y-53024819D02*
X35309523Y-53072438D01*
X35309523Y-53072438D02*
X35357142Y-53120057D01*
X35690476Y-53024819D02*
X36309523Y-53024819D01*
X36309523Y-53024819D02*
X35976190Y-53405771D01*
X35976190Y-53405771D02*
X36119047Y-53405771D01*
X36119047Y-53405771D02*
X36214285Y-53453390D01*
X36214285Y-53453390D02*
X36261904Y-53501009D01*
X36261904Y-53501009D02*
X36309523Y-53596247D01*
X36309523Y-53596247D02*
X36309523Y-53834342D01*
X36309523Y-53834342D02*
X36261904Y-53929580D01*
X36261904Y-53929580D02*
X36214285Y-53977200D01*
X36214285Y-53977200D02*
X36119047Y-54024819D01*
X36119047Y-54024819D02*
X35833333Y-54024819D01*
X35833333Y-54024819D02*
X35738095Y-53977200D01*
X35738095Y-53977200D02*
X35690476Y-53929580D01*
X36785714Y-54024819D02*
X36976190Y-54024819D01*
X36976190Y-54024819D02*
X37071428Y-53977200D01*
X37071428Y-53977200D02*
X37119047Y-53929580D01*
X37119047Y-53929580D02*
X37214285Y-53786723D01*
X37214285Y-53786723D02*
X37261904Y-53596247D01*
X37261904Y-53596247D02*
X37261904Y-53215295D01*
X37261904Y-53215295D02*
X37214285Y-53120057D01*
X37214285Y-53120057D02*
X37166666Y-53072438D01*
X37166666Y-53072438D02*
X37071428Y-53024819D01*
X37071428Y-53024819D02*
X36880952Y-53024819D01*
X36880952Y-53024819D02*
X36785714Y-53072438D01*
X36785714Y-53072438D02*
X36738095Y-53120057D01*
X36738095Y-53120057D02*
X36690476Y-53215295D01*
X36690476Y-53215295D02*
X36690476Y-53453390D01*
X36690476Y-53453390D02*
X36738095Y-53548628D01*
X36738095Y-53548628D02*
X36785714Y-53596247D01*
X36785714Y-53596247D02*
X36880952Y-53643866D01*
X36880952Y-53643866D02*
X37071428Y-53643866D01*
X37071428Y-53643866D02*
X37166666Y-53596247D01*
X37166666Y-53596247D02*
X37214285Y-53548628D01*
X37214285Y-53548628D02*
X37261904Y-53453390D01*
X57833333Y-19059580D02*
X57785714Y-19107200D01*
X57785714Y-19107200D02*
X57642857Y-19154819D01*
X57642857Y-19154819D02*
X57547619Y-19154819D01*
X57547619Y-19154819D02*
X57404762Y-19107200D01*
X57404762Y-19107200D02*
X57309524Y-19011961D01*
X57309524Y-19011961D02*
X57261905Y-18916723D01*
X57261905Y-18916723D02*
X57214286Y-18726247D01*
X57214286Y-18726247D02*
X57214286Y-18583390D01*
X57214286Y-18583390D02*
X57261905Y-18392914D01*
X57261905Y-18392914D02*
X57309524Y-18297676D01*
X57309524Y-18297676D02*
X57404762Y-18202438D01*
X57404762Y-18202438D02*
X57547619Y-18154819D01*
X57547619Y-18154819D02*
X57642857Y-18154819D01*
X57642857Y-18154819D02*
X57785714Y-18202438D01*
X57785714Y-18202438D02*
X57833333Y-18250057D01*
X58785714Y-19154819D02*
X58214286Y-19154819D01*
X58500000Y-19154819D02*
X58500000Y-18154819D01*
X58500000Y-18154819D02*
X58404762Y-18297676D01*
X58404762Y-18297676D02*
X58309524Y-18392914D01*
X58309524Y-18392914D02*
X58214286Y-18440533D01*
X67833333Y-34024819D02*
X67500000Y-33548628D01*
X67261905Y-34024819D02*
X67261905Y-33024819D01*
X67261905Y-33024819D02*
X67642857Y-33024819D01*
X67642857Y-33024819D02*
X67738095Y-33072438D01*
X67738095Y-33072438D02*
X67785714Y-33120057D01*
X67785714Y-33120057D02*
X67833333Y-33215295D01*
X67833333Y-33215295D02*
X67833333Y-33358152D01*
X67833333Y-33358152D02*
X67785714Y-33453390D01*
X67785714Y-33453390D02*
X67738095Y-33501009D01*
X67738095Y-33501009D02*
X67642857Y-33548628D01*
X67642857Y-33548628D02*
X67261905Y-33548628D01*
X68166667Y-33024819D02*
X68833333Y-33024819D01*
X68833333Y-33024819D02*
X68404762Y-34024819D01*
X71238095Y-20954819D02*
X71238095Y-21764342D01*
X71238095Y-21764342D02*
X71285714Y-21859580D01*
X71285714Y-21859580D02*
X71333333Y-21907200D01*
X71333333Y-21907200D02*
X71428571Y-21954819D01*
X71428571Y-21954819D02*
X71619047Y-21954819D01*
X71619047Y-21954819D02*
X71714285Y-21907200D01*
X71714285Y-21907200D02*
X71761904Y-21859580D01*
X71761904Y-21859580D02*
X71809523Y-21764342D01*
X71809523Y-21764342D02*
X71809523Y-20954819D01*
X72238095Y-21050057D02*
X72285714Y-21002438D01*
X72285714Y-21002438D02*
X72380952Y-20954819D01*
X72380952Y-20954819D02*
X72619047Y-20954819D01*
X72619047Y-20954819D02*
X72714285Y-21002438D01*
X72714285Y-21002438D02*
X72761904Y-21050057D01*
X72761904Y-21050057D02*
X72809523Y-21145295D01*
X72809523Y-21145295D02*
X72809523Y-21240533D01*
X72809523Y-21240533D02*
X72761904Y-21383390D01*
X72761904Y-21383390D02*
X72190476Y-21954819D01*
X72190476Y-21954819D02*
X72809523Y-21954819D01*
X89904761Y-51150057D02*
X89809523Y-51102438D01*
X89809523Y-51102438D02*
X89714285Y-51007200D01*
X89714285Y-51007200D02*
X89571428Y-50864342D01*
X89571428Y-50864342D02*
X89476190Y-50816723D01*
X89476190Y-50816723D02*
X89380952Y-50816723D01*
X89428571Y-51054819D02*
X89333333Y-51007200D01*
X89333333Y-51007200D02*
X89238095Y-50911961D01*
X89238095Y-50911961D02*
X89190476Y-50721485D01*
X89190476Y-50721485D02*
X89190476Y-50388152D01*
X89190476Y-50388152D02*
X89238095Y-50197676D01*
X89238095Y-50197676D02*
X89333333Y-50102438D01*
X89333333Y-50102438D02*
X89428571Y-50054819D01*
X89428571Y-50054819D02*
X89619047Y-50054819D01*
X89619047Y-50054819D02*
X89714285Y-50102438D01*
X89714285Y-50102438D02*
X89809523Y-50197676D01*
X89809523Y-50197676D02*
X89857142Y-50388152D01*
X89857142Y-50388152D02*
X89857142Y-50721485D01*
X89857142Y-50721485D02*
X89809523Y-50911961D01*
X89809523Y-50911961D02*
X89714285Y-51007200D01*
X89714285Y-51007200D02*
X89619047Y-51054819D01*
X89619047Y-51054819D02*
X89428571Y-51054819D01*
X90714285Y-50388152D02*
X90714285Y-51054819D01*
X90476190Y-50007200D02*
X90238095Y-50721485D01*
X90238095Y-50721485D02*
X90857142Y-50721485D01*
X19738095Y-1806819D02*
X20309523Y-1806819D01*
X20023809Y-2806819D02*
X20023809Y-1806819D01*
X20642857Y-2806819D02*
X20642857Y-1806819D01*
X20642857Y-1806819D02*
X21023809Y-1806819D01*
X21023809Y-1806819D02*
X21119047Y-1854438D01*
X21119047Y-1854438D02*
X21166666Y-1902057D01*
X21166666Y-1902057D02*
X21214285Y-1997295D01*
X21214285Y-1997295D02*
X21214285Y-2140152D01*
X21214285Y-2140152D02*
X21166666Y-2235390D01*
X21166666Y-2235390D02*
X21119047Y-2283009D01*
X21119047Y-2283009D02*
X21023809Y-2330628D01*
X21023809Y-2330628D02*
X20642857Y-2330628D01*
X22119047Y-1806819D02*
X21642857Y-1806819D01*
X21642857Y-1806819D02*
X21595238Y-2283009D01*
X21595238Y-2283009D02*
X21642857Y-2235390D01*
X21642857Y-2235390D02*
X21738095Y-2187771D01*
X21738095Y-2187771D02*
X21976190Y-2187771D01*
X21976190Y-2187771D02*
X22071428Y-2235390D01*
X22071428Y-2235390D02*
X22119047Y-2283009D01*
X22119047Y-2283009D02*
X22166666Y-2378247D01*
X22166666Y-2378247D02*
X22166666Y-2616342D01*
X22166666Y-2616342D02*
X22119047Y-2711580D01*
X22119047Y-2711580D02*
X22071428Y-2759200D01*
X22071428Y-2759200D02*
X21976190Y-2806819D01*
X21976190Y-2806819D02*
X21738095Y-2806819D01*
X21738095Y-2806819D02*
X21642857Y-2759200D01*
X21642857Y-2759200D02*
X21595238Y-2711580D01*
X67833333Y-14024819D02*
X67500000Y-13548628D01*
X67261905Y-14024819D02*
X67261905Y-13024819D01*
X67261905Y-13024819D02*
X67642857Y-13024819D01*
X67642857Y-13024819D02*
X67738095Y-13072438D01*
X67738095Y-13072438D02*
X67785714Y-13120057D01*
X67785714Y-13120057D02*
X67833333Y-13215295D01*
X67833333Y-13215295D02*
X67833333Y-13358152D01*
X67833333Y-13358152D02*
X67785714Y-13453390D01*
X67785714Y-13453390D02*
X67738095Y-13501009D01*
X67738095Y-13501009D02*
X67642857Y-13548628D01*
X67642857Y-13548628D02*
X67261905Y-13548628D01*
X68214286Y-13120057D02*
X68261905Y-13072438D01*
X68261905Y-13072438D02*
X68357143Y-13024819D01*
X68357143Y-13024819D02*
X68595238Y-13024819D01*
X68595238Y-13024819D02*
X68690476Y-13072438D01*
X68690476Y-13072438D02*
X68738095Y-13120057D01*
X68738095Y-13120057D02*
X68785714Y-13215295D01*
X68785714Y-13215295D02*
X68785714Y-13310533D01*
X68785714Y-13310533D02*
X68738095Y-13453390D01*
X68738095Y-13453390D02*
X68166667Y-14024819D01*
X68166667Y-14024819D02*
X68785714Y-14024819D01*
X79904761Y-6150057D02*
X79809523Y-6102438D01*
X79809523Y-6102438D02*
X79714285Y-6007200D01*
X79714285Y-6007200D02*
X79571428Y-5864342D01*
X79571428Y-5864342D02*
X79476190Y-5816723D01*
X79476190Y-5816723D02*
X79380952Y-5816723D01*
X79428571Y-6054819D02*
X79333333Y-6007200D01*
X79333333Y-6007200D02*
X79238095Y-5911961D01*
X79238095Y-5911961D02*
X79190476Y-5721485D01*
X79190476Y-5721485D02*
X79190476Y-5388152D01*
X79190476Y-5388152D02*
X79238095Y-5197676D01*
X79238095Y-5197676D02*
X79333333Y-5102438D01*
X79333333Y-5102438D02*
X79428571Y-5054819D01*
X79428571Y-5054819D02*
X79619047Y-5054819D01*
X79619047Y-5054819D02*
X79714285Y-5102438D01*
X79714285Y-5102438D02*
X79809523Y-5197676D01*
X79809523Y-5197676D02*
X79857142Y-5388152D01*
X79857142Y-5388152D02*
X79857142Y-5721485D01*
X79857142Y-5721485D02*
X79809523Y-5911961D01*
X79809523Y-5911961D02*
X79714285Y-6007200D01*
X79714285Y-6007200D02*
X79619047Y-6054819D01*
X79619047Y-6054819D02*
X79428571Y-6054819D01*
X80809523Y-6054819D02*
X80238095Y-6054819D01*
X80523809Y-6054819D02*
X80523809Y-5054819D01*
X80523809Y-5054819D02*
X80428571Y-5197676D01*
X80428571Y-5197676D02*
X80333333Y-5292914D01*
X80333333Y-5292914D02*
X80238095Y-5340533D01*
X73761905Y-52254819D02*
X73761905Y-51254819D01*
X74333333Y-52254819D02*
X73904762Y-51683390D01*
X74333333Y-51254819D02*
X73761905Y-51826247D01*
X75285714Y-52254819D02*
X74714286Y-52254819D01*
X75000000Y-52254819D02*
X75000000Y-51254819D01*
X75000000Y-51254819D02*
X74904762Y-51397676D01*
X74904762Y-51397676D02*
X74809524Y-51492914D01*
X74809524Y-51492914D02*
X74714286Y-51540533D01*
X3261905Y-52806819D02*
X3833333Y-52806819D01*
X3547619Y-53806819D02*
X3547619Y-52806819D01*
X4166667Y-53806819D02*
X4166667Y-52806819D01*
X4166667Y-52806819D02*
X4547619Y-52806819D01*
X4547619Y-52806819D02*
X4642857Y-52854438D01*
X4642857Y-52854438D02*
X4690476Y-52902057D01*
X4690476Y-52902057D02*
X4738095Y-52997295D01*
X4738095Y-52997295D02*
X4738095Y-53140152D01*
X4738095Y-53140152D02*
X4690476Y-53235390D01*
X4690476Y-53235390D02*
X4642857Y-53283009D01*
X4642857Y-53283009D02*
X4547619Y-53330628D01*
X4547619Y-53330628D02*
X4166667Y-53330628D01*
X5690476Y-53806819D02*
X5119048Y-53806819D01*
X5404762Y-53806819D02*
X5404762Y-52806819D01*
X5404762Y-52806819D02*
X5309524Y-52949676D01*
X5309524Y-52949676D02*
X5214286Y-53044914D01*
X5214286Y-53044914D02*
X5119048Y-53092533D01*
X6023810Y-52806819D02*
X6642857Y-52806819D01*
X6642857Y-52806819D02*
X6309524Y-53187771D01*
X6309524Y-53187771D02*
X6452381Y-53187771D01*
X6452381Y-53187771D02*
X6547619Y-53235390D01*
X6547619Y-53235390D02*
X6595238Y-53283009D01*
X6595238Y-53283009D02*
X6642857Y-53378247D01*
X6642857Y-53378247D02*
X6642857Y-53616342D01*
X6642857Y-53616342D02*
X6595238Y-53711580D01*
X6595238Y-53711580D02*
X6547619Y-53759200D01*
X6547619Y-53759200D02*
X6452381Y-53806819D01*
X6452381Y-53806819D02*
X6166667Y-53806819D01*
X6166667Y-53806819D02*
X6071429Y-53759200D01*
X6071429Y-53759200D02*
X6023810Y-53711580D01*
X11738095Y-1806819D02*
X12309523Y-1806819D01*
X12023809Y-2806819D02*
X12023809Y-1806819D01*
X12642857Y-2806819D02*
X12642857Y-1806819D01*
X12642857Y-1806819D02*
X13023809Y-1806819D01*
X13023809Y-1806819D02*
X13119047Y-1854438D01*
X13119047Y-1854438D02*
X13166666Y-1902057D01*
X13166666Y-1902057D02*
X13214285Y-1997295D01*
X13214285Y-1997295D02*
X13214285Y-2140152D01*
X13214285Y-2140152D02*
X13166666Y-2235390D01*
X13166666Y-2235390D02*
X13119047Y-2283009D01*
X13119047Y-2283009D02*
X13023809Y-2330628D01*
X13023809Y-2330628D02*
X12642857Y-2330628D01*
X13547619Y-1806819D02*
X14166666Y-1806819D01*
X14166666Y-1806819D02*
X13833333Y-2187771D01*
X13833333Y-2187771D02*
X13976190Y-2187771D01*
X13976190Y-2187771D02*
X14071428Y-2235390D01*
X14071428Y-2235390D02*
X14119047Y-2283009D01*
X14119047Y-2283009D02*
X14166666Y-2378247D01*
X14166666Y-2378247D02*
X14166666Y-2616342D01*
X14166666Y-2616342D02*
X14119047Y-2711580D01*
X14119047Y-2711580D02*
X14071428Y-2759200D01*
X14071428Y-2759200D02*
X13976190Y-2806819D01*
X13976190Y-2806819D02*
X13690476Y-2806819D01*
X13690476Y-2806819D02*
X13595238Y-2759200D01*
X13595238Y-2759200D02*
X13547619Y-2711580D01*
X65238095Y-6004819D02*
X65238095Y-6814342D01*
X65238095Y-6814342D02*
X65285714Y-6909580D01*
X65285714Y-6909580D02*
X65333333Y-6957200D01*
X65333333Y-6957200D02*
X65428571Y-7004819D01*
X65428571Y-7004819D02*
X65619047Y-7004819D01*
X65619047Y-7004819D02*
X65714285Y-6957200D01*
X65714285Y-6957200D02*
X65761904Y-6909580D01*
X65761904Y-6909580D02*
X65809523Y-6814342D01*
X65809523Y-6814342D02*
X65809523Y-6004819D01*
X66809523Y-7004819D02*
X66238095Y-7004819D01*
X66523809Y-7004819D02*
X66523809Y-6004819D01*
X66523809Y-6004819D02*
X66428571Y-6147676D01*
X66428571Y-6147676D02*
X66333333Y-6242914D01*
X66333333Y-6242914D02*
X66238095Y-6290533D01*
X85833333Y-46929580D02*
X85785714Y-46977200D01*
X85785714Y-46977200D02*
X85642857Y-47024819D01*
X85642857Y-47024819D02*
X85547619Y-47024819D01*
X85547619Y-47024819D02*
X85404762Y-46977200D01*
X85404762Y-46977200D02*
X85309524Y-46881961D01*
X85309524Y-46881961D02*
X85261905Y-46786723D01*
X85261905Y-46786723D02*
X85214286Y-46596247D01*
X85214286Y-46596247D02*
X85214286Y-46453390D01*
X85214286Y-46453390D02*
X85261905Y-46262914D01*
X85261905Y-46262914D02*
X85309524Y-46167676D01*
X85309524Y-46167676D02*
X85404762Y-46072438D01*
X85404762Y-46072438D02*
X85547619Y-46024819D01*
X85547619Y-46024819D02*
X85642857Y-46024819D01*
X85642857Y-46024819D02*
X85785714Y-46072438D01*
X85785714Y-46072438D02*
X85833333Y-46120057D01*
X86166667Y-46024819D02*
X86833333Y-46024819D01*
X86833333Y-46024819D02*
X86404762Y-47024819D01*
X35357142Y-49929580D02*
X35309523Y-49977200D01*
X35309523Y-49977200D02*
X35166666Y-50024819D01*
X35166666Y-50024819D02*
X35071428Y-50024819D01*
X35071428Y-50024819D02*
X34928571Y-49977200D01*
X34928571Y-49977200D02*
X34833333Y-49881961D01*
X34833333Y-49881961D02*
X34785714Y-49786723D01*
X34785714Y-49786723D02*
X34738095Y-49596247D01*
X34738095Y-49596247D02*
X34738095Y-49453390D01*
X34738095Y-49453390D02*
X34785714Y-49262914D01*
X34785714Y-49262914D02*
X34833333Y-49167676D01*
X34833333Y-49167676D02*
X34928571Y-49072438D01*
X34928571Y-49072438D02*
X35071428Y-49024819D01*
X35071428Y-49024819D02*
X35166666Y-49024819D01*
X35166666Y-49024819D02*
X35309523Y-49072438D01*
X35309523Y-49072438D02*
X35357142Y-49120057D01*
X35690476Y-49024819D02*
X36309523Y-49024819D01*
X36309523Y-49024819D02*
X35976190Y-49405771D01*
X35976190Y-49405771D02*
X36119047Y-49405771D01*
X36119047Y-49405771D02*
X36214285Y-49453390D01*
X36214285Y-49453390D02*
X36261904Y-49501009D01*
X36261904Y-49501009D02*
X36309523Y-49596247D01*
X36309523Y-49596247D02*
X36309523Y-49834342D01*
X36309523Y-49834342D02*
X36261904Y-49929580D01*
X36261904Y-49929580D02*
X36214285Y-49977200D01*
X36214285Y-49977200D02*
X36119047Y-50024819D01*
X36119047Y-50024819D02*
X35833333Y-50024819D01*
X35833333Y-50024819D02*
X35738095Y-49977200D01*
X35738095Y-49977200D02*
X35690476Y-49929580D01*
X36880952Y-49453390D02*
X36785714Y-49405771D01*
X36785714Y-49405771D02*
X36738095Y-49358152D01*
X36738095Y-49358152D02*
X36690476Y-49262914D01*
X36690476Y-49262914D02*
X36690476Y-49215295D01*
X36690476Y-49215295D02*
X36738095Y-49120057D01*
X36738095Y-49120057D02*
X36785714Y-49072438D01*
X36785714Y-49072438D02*
X36880952Y-49024819D01*
X36880952Y-49024819D02*
X37071428Y-49024819D01*
X37071428Y-49024819D02*
X37166666Y-49072438D01*
X37166666Y-49072438D02*
X37214285Y-49120057D01*
X37214285Y-49120057D02*
X37261904Y-49215295D01*
X37261904Y-49215295D02*
X37261904Y-49262914D01*
X37261904Y-49262914D02*
X37214285Y-49358152D01*
X37214285Y-49358152D02*
X37166666Y-49405771D01*
X37166666Y-49405771D02*
X37071428Y-49453390D01*
X37071428Y-49453390D02*
X36880952Y-49453390D01*
X36880952Y-49453390D02*
X36785714Y-49501009D01*
X36785714Y-49501009D02*
X36738095Y-49548628D01*
X36738095Y-49548628D02*
X36690476Y-49643866D01*
X36690476Y-49643866D02*
X36690476Y-49834342D01*
X36690476Y-49834342D02*
X36738095Y-49929580D01*
X36738095Y-49929580D02*
X36785714Y-49977200D01*
X36785714Y-49977200D02*
X36880952Y-50024819D01*
X36880952Y-50024819D02*
X37071428Y-50024819D01*
X37071428Y-50024819D02*
X37166666Y-49977200D01*
X37166666Y-49977200D02*
X37214285Y-49929580D01*
X37214285Y-49929580D02*
X37261904Y-49834342D01*
X37261904Y-49834342D02*
X37261904Y-49643866D01*
X37261904Y-49643866D02*
X37214285Y-49548628D01*
X37214285Y-49548628D02*
X37166666Y-49501009D01*
X37166666Y-49501009D02*
X37071428Y-49453390D01*
X72833333Y-14024819D02*
X72500000Y-13548628D01*
X72261905Y-14024819D02*
X72261905Y-13024819D01*
X72261905Y-13024819D02*
X72642857Y-13024819D01*
X72642857Y-13024819D02*
X72738095Y-13072438D01*
X72738095Y-13072438D02*
X72785714Y-13120057D01*
X72785714Y-13120057D02*
X72833333Y-13215295D01*
X72833333Y-13215295D02*
X72833333Y-13358152D01*
X72833333Y-13358152D02*
X72785714Y-13453390D01*
X72785714Y-13453390D02*
X72738095Y-13501009D01*
X72738095Y-13501009D02*
X72642857Y-13548628D01*
X72642857Y-13548628D02*
X72261905Y-13548628D01*
X73166667Y-13024819D02*
X73785714Y-13024819D01*
X73785714Y-13024819D02*
X73452381Y-13405771D01*
X73452381Y-13405771D02*
X73595238Y-13405771D01*
X73595238Y-13405771D02*
X73690476Y-13453390D01*
X73690476Y-13453390D02*
X73738095Y-13501009D01*
X73738095Y-13501009D02*
X73785714Y-13596247D01*
X73785714Y-13596247D02*
X73785714Y-13834342D01*
X73785714Y-13834342D02*
X73738095Y-13929580D01*
X73738095Y-13929580D02*
X73690476Y-13977200D01*
X73690476Y-13977200D02*
X73595238Y-14024819D01*
X73595238Y-14024819D02*
X73309524Y-14024819D01*
X73309524Y-14024819D02*
X73214286Y-13977200D01*
X73214286Y-13977200D02*
X73166667Y-13929580D01*
X77238095Y-38054819D02*
X77238095Y-38864342D01*
X77238095Y-38864342D02*
X77285714Y-38959580D01*
X77285714Y-38959580D02*
X77333333Y-39007200D01*
X77333333Y-39007200D02*
X77428571Y-39054819D01*
X77428571Y-39054819D02*
X77619047Y-39054819D01*
X77619047Y-39054819D02*
X77714285Y-39007200D01*
X77714285Y-39007200D02*
X77761904Y-38959580D01*
X77761904Y-38959580D02*
X77809523Y-38864342D01*
X77809523Y-38864342D02*
X77809523Y-38054819D01*
X78714285Y-38388152D02*
X78714285Y-39054819D01*
X78476190Y-38007200D02*
X78238095Y-38721485D01*
X78238095Y-38721485D02*
X78857142Y-38721485D01*
X7738095Y-1806819D02*
X8309523Y-1806819D01*
X8023809Y-2806819D02*
X8023809Y-1806819D01*
X8642857Y-2806819D02*
X8642857Y-1806819D01*
X8642857Y-1806819D02*
X9023809Y-1806819D01*
X9023809Y-1806819D02*
X9119047Y-1854438D01*
X9119047Y-1854438D02*
X9166666Y-1902057D01*
X9166666Y-1902057D02*
X9214285Y-1997295D01*
X9214285Y-1997295D02*
X9214285Y-2140152D01*
X9214285Y-2140152D02*
X9166666Y-2235390D01*
X9166666Y-2235390D02*
X9119047Y-2283009D01*
X9119047Y-2283009D02*
X9023809Y-2330628D01*
X9023809Y-2330628D02*
X8642857Y-2330628D01*
X9595238Y-1902057D02*
X9642857Y-1854438D01*
X9642857Y-1854438D02*
X9738095Y-1806819D01*
X9738095Y-1806819D02*
X9976190Y-1806819D01*
X9976190Y-1806819D02*
X10071428Y-1854438D01*
X10071428Y-1854438D02*
X10119047Y-1902057D01*
X10119047Y-1902057D02*
X10166666Y-1997295D01*
X10166666Y-1997295D02*
X10166666Y-2092533D01*
X10166666Y-2092533D02*
X10119047Y-2235390D01*
X10119047Y-2235390D02*
X9547619Y-2806819D01*
X9547619Y-2806819D02*
X10166666Y-2806819D01*
X15261905Y-52806819D02*
X15833333Y-52806819D01*
X15547619Y-53806819D02*
X15547619Y-52806819D01*
X16166667Y-53806819D02*
X16166667Y-52806819D01*
X16166667Y-52806819D02*
X16547619Y-52806819D01*
X16547619Y-52806819D02*
X16642857Y-52854438D01*
X16642857Y-52854438D02*
X16690476Y-52902057D01*
X16690476Y-52902057D02*
X16738095Y-52997295D01*
X16738095Y-52997295D02*
X16738095Y-53140152D01*
X16738095Y-53140152D02*
X16690476Y-53235390D01*
X16690476Y-53235390D02*
X16642857Y-53283009D01*
X16642857Y-53283009D02*
X16547619Y-53330628D01*
X16547619Y-53330628D02*
X16166667Y-53330628D01*
X17690476Y-53806819D02*
X17119048Y-53806819D01*
X17404762Y-53806819D02*
X17404762Y-52806819D01*
X17404762Y-52806819D02*
X17309524Y-52949676D01*
X17309524Y-52949676D02*
X17214286Y-53044914D01*
X17214286Y-53044914D02*
X17119048Y-53092533D01*
X18547619Y-52806819D02*
X18357143Y-52806819D01*
X18357143Y-52806819D02*
X18261905Y-52854438D01*
X18261905Y-52854438D02*
X18214286Y-52902057D01*
X18214286Y-52902057D02*
X18119048Y-53044914D01*
X18119048Y-53044914D02*
X18071429Y-53235390D01*
X18071429Y-53235390D02*
X18071429Y-53616342D01*
X18071429Y-53616342D02*
X18119048Y-53711580D01*
X18119048Y-53711580D02*
X18166667Y-53759200D01*
X18166667Y-53759200D02*
X18261905Y-53806819D01*
X18261905Y-53806819D02*
X18452381Y-53806819D01*
X18452381Y-53806819D02*
X18547619Y-53759200D01*
X18547619Y-53759200D02*
X18595238Y-53711580D01*
X18595238Y-53711580D02*
X18642857Y-53616342D01*
X18642857Y-53616342D02*
X18642857Y-53378247D01*
X18642857Y-53378247D02*
X18595238Y-53283009D01*
X18595238Y-53283009D02*
X18547619Y-53235390D01*
X18547619Y-53235390D02*
X18452381Y-53187771D01*
X18452381Y-53187771D02*
X18261905Y-53187771D01*
X18261905Y-53187771D02*
X18166667Y-53235390D01*
X18166667Y-53235390D02*
X18119048Y-53283009D01*
X18119048Y-53283009D02*
X18071429Y-53378247D01*
X3738095Y-1806819D02*
X4309523Y-1806819D01*
X4023809Y-2806819D02*
X4023809Y-1806819D01*
X4642857Y-2806819D02*
X4642857Y-1806819D01*
X4642857Y-1806819D02*
X5023809Y-1806819D01*
X5023809Y-1806819D02*
X5119047Y-1854438D01*
X5119047Y-1854438D02*
X5166666Y-1902057D01*
X5166666Y-1902057D02*
X5214285Y-1997295D01*
X5214285Y-1997295D02*
X5214285Y-2140152D01*
X5214285Y-2140152D02*
X5166666Y-2235390D01*
X5166666Y-2235390D02*
X5119047Y-2283009D01*
X5119047Y-2283009D02*
X5023809Y-2330628D01*
X5023809Y-2330628D02*
X4642857Y-2330628D01*
X6166666Y-2806819D02*
X5595238Y-2806819D01*
X5880952Y-2806819D02*
X5880952Y-1806819D01*
X5880952Y-1806819D02*
X5785714Y-1949676D01*
X5785714Y-1949676D02*
X5690476Y-2044914D01*
X5690476Y-2044914D02*
X5595238Y-2092533D01*
X17357142Y-37024819D02*
X17023809Y-36548628D01*
X16785714Y-37024819D02*
X16785714Y-36024819D01*
X16785714Y-36024819D02*
X17166666Y-36024819D01*
X17166666Y-36024819D02*
X17261904Y-36072438D01*
X17261904Y-36072438D02*
X17309523Y-36120057D01*
X17309523Y-36120057D02*
X17357142Y-36215295D01*
X17357142Y-36215295D02*
X17357142Y-36358152D01*
X17357142Y-36358152D02*
X17309523Y-36453390D01*
X17309523Y-36453390D02*
X17261904Y-36501009D01*
X17261904Y-36501009D02*
X17166666Y-36548628D01*
X17166666Y-36548628D02*
X16785714Y-36548628D01*
X18309523Y-37024819D02*
X17738095Y-37024819D01*
X18023809Y-37024819D02*
X18023809Y-36024819D01*
X18023809Y-36024819D02*
X17928571Y-36167676D01*
X17928571Y-36167676D02*
X17833333Y-36262914D01*
X17833333Y-36262914D02*
X17738095Y-36310533D01*
X19166666Y-36358152D02*
X19166666Y-37024819D01*
X18928571Y-35977200D02*
X18690476Y-36691485D01*
X18690476Y-36691485D02*
X19309523Y-36691485D01*
X61833333Y-26929580D02*
X61785714Y-26977200D01*
X61785714Y-26977200D02*
X61642857Y-27024819D01*
X61642857Y-27024819D02*
X61547619Y-27024819D01*
X61547619Y-27024819D02*
X61404762Y-26977200D01*
X61404762Y-26977200D02*
X61309524Y-26881961D01*
X61309524Y-26881961D02*
X61261905Y-26786723D01*
X61261905Y-26786723D02*
X61214286Y-26596247D01*
X61214286Y-26596247D02*
X61214286Y-26453390D01*
X61214286Y-26453390D02*
X61261905Y-26262914D01*
X61261905Y-26262914D02*
X61309524Y-26167676D01*
X61309524Y-26167676D02*
X61404762Y-26072438D01*
X61404762Y-26072438D02*
X61547619Y-26024819D01*
X61547619Y-26024819D02*
X61642857Y-26024819D01*
X61642857Y-26024819D02*
X61785714Y-26072438D01*
X61785714Y-26072438D02*
X61833333Y-26120057D01*
X62166667Y-26024819D02*
X62785714Y-26024819D01*
X62785714Y-26024819D02*
X62452381Y-26405771D01*
X62452381Y-26405771D02*
X62595238Y-26405771D01*
X62595238Y-26405771D02*
X62690476Y-26453390D01*
X62690476Y-26453390D02*
X62738095Y-26501009D01*
X62738095Y-26501009D02*
X62785714Y-26596247D01*
X62785714Y-26596247D02*
X62785714Y-26834342D01*
X62785714Y-26834342D02*
X62738095Y-26929580D01*
X62738095Y-26929580D02*
X62690476Y-26977200D01*
X62690476Y-26977200D02*
X62595238Y-27024819D01*
X62595238Y-27024819D02*
X62309524Y-27024819D01*
X62309524Y-27024819D02*
X62214286Y-26977200D01*
X62214286Y-26977200D02*
X62166667Y-26929580D01*
X31738095Y-1806819D02*
X32309523Y-1806819D01*
X32023809Y-2806819D02*
X32023809Y-1806819D01*
X32642857Y-2806819D02*
X32642857Y-1806819D01*
X32642857Y-1806819D02*
X33023809Y-1806819D01*
X33023809Y-1806819D02*
X33119047Y-1854438D01*
X33119047Y-1854438D02*
X33166666Y-1902057D01*
X33166666Y-1902057D02*
X33214285Y-1997295D01*
X33214285Y-1997295D02*
X33214285Y-2140152D01*
X33214285Y-2140152D02*
X33166666Y-2235390D01*
X33166666Y-2235390D02*
X33119047Y-2283009D01*
X33119047Y-2283009D02*
X33023809Y-2330628D01*
X33023809Y-2330628D02*
X32642857Y-2330628D01*
X33785714Y-2235390D02*
X33690476Y-2187771D01*
X33690476Y-2187771D02*
X33642857Y-2140152D01*
X33642857Y-2140152D02*
X33595238Y-2044914D01*
X33595238Y-2044914D02*
X33595238Y-1997295D01*
X33595238Y-1997295D02*
X33642857Y-1902057D01*
X33642857Y-1902057D02*
X33690476Y-1854438D01*
X33690476Y-1854438D02*
X33785714Y-1806819D01*
X33785714Y-1806819D02*
X33976190Y-1806819D01*
X33976190Y-1806819D02*
X34071428Y-1854438D01*
X34071428Y-1854438D02*
X34119047Y-1902057D01*
X34119047Y-1902057D02*
X34166666Y-1997295D01*
X34166666Y-1997295D02*
X34166666Y-2044914D01*
X34166666Y-2044914D02*
X34119047Y-2140152D01*
X34119047Y-2140152D02*
X34071428Y-2187771D01*
X34071428Y-2187771D02*
X33976190Y-2235390D01*
X33976190Y-2235390D02*
X33785714Y-2235390D01*
X33785714Y-2235390D02*
X33690476Y-2283009D01*
X33690476Y-2283009D02*
X33642857Y-2330628D01*
X33642857Y-2330628D02*
X33595238Y-2425866D01*
X33595238Y-2425866D02*
X33595238Y-2616342D01*
X33595238Y-2616342D02*
X33642857Y-2711580D01*
X33642857Y-2711580D02*
X33690476Y-2759200D01*
X33690476Y-2759200D02*
X33785714Y-2806819D01*
X33785714Y-2806819D02*
X33976190Y-2806819D01*
X33976190Y-2806819D02*
X34071428Y-2759200D01*
X34071428Y-2759200D02*
X34119047Y-2711580D01*
X34119047Y-2711580D02*
X34166666Y-2616342D01*
X34166666Y-2616342D02*
X34166666Y-2425866D01*
X34166666Y-2425866D02*
X34119047Y-2330628D01*
X34119047Y-2330628D02*
X34071428Y-2283009D01*
X34071428Y-2283009D02*
X33976190Y-2235390D01*
X42357142Y-54024819D02*
X42023809Y-53548628D01*
X41785714Y-54024819D02*
X41785714Y-53024819D01*
X41785714Y-53024819D02*
X42166666Y-53024819D01*
X42166666Y-53024819D02*
X42261904Y-53072438D01*
X42261904Y-53072438D02*
X42309523Y-53120057D01*
X42309523Y-53120057D02*
X42357142Y-53215295D01*
X42357142Y-53215295D02*
X42357142Y-53358152D01*
X42357142Y-53358152D02*
X42309523Y-53453390D01*
X42309523Y-53453390D02*
X42261904Y-53501009D01*
X42261904Y-53501009D02*
X42166666Y-53548628D01*
X42166666Y-53548628D02*
X41785714Y-53548628D01*
X43309523Y-54024819D02*
X42738095Y-54024819D01*
X43023809Y-54024819D02*
X43023809Y-53024819D01*
X43023809Y-53024819D02*
X42928571Y-53167676D01*
X42928571Y-53167676D02*
X42833333Y-53262914D01*
X42833333Y-53262914D02*
X42738095Y-53310533D01*
X43642857Y-53024819D02*
X44309523Y-53024819D01*
X44309523Y-53024819D02*
X43880952Y-54024819D01*
X93833333Y-46929580D02*
X93785714Y-46977200D01*
X93785714Y-46977200D02*
X93642857Y-47024819D01*
X93642857Y-47024819D02*
X93547619Y-47024819D01*
X93547619Y-47024819D02*
X93404762Y-46977200D01*
X93404762Y-46977200D02*
X93309524Y-46881961D01*
X93309524Y-46881961D02*
X93261905Y-46786723D01*
X93261905Y-46786723D02*
X93214286Y-46596247D01*
X93214286Y-46596247D02*
X93214286Y-46453390D01*
X93214286Y-46453390D02*
X93261905Y-46262914D01*
X93261905Y-46262914D02*
X93309524Y-46167676D01*
X93309524Y-46167676D02*
X93404762Y-46072438D01*
X93404762Y-46072438D02*
X93547619Y-46024819D01*
X93547619Y-46024819D02*
X93642857Y-46024819D01*
X93642857Y-46024819D02*
X93785714Y-46072438D01*
X93785714Y-46072438D02*
X93833333Y-46120057D01*
X94404762Y-46453390D02*
X94309524Y-46405771D01*
X94309524Y-46405771D02*
X94261905Y-46358152D01*
X94261905Y-46358152D02*
X94214286Y-46262914D01*
X94214286Y-46262914D02*
X94214286Y-46215295D01*
X94214286Y-46215295D02*
X94261905Y-46120057D01*
X94261905Y-46120057D02*
X94309524Y-46072438D01*
X94309524Y-46072438D02*
X94404762Y-46024819D01*
X94404762Y-46024819D02*
X94595238Y-46024819D01*
X94595238Y-46024819D02*
X94690476Y-46072438D01*
X94690476Y-46072438D02*
X94738095Y-46120057D01*
X94738095Y-46120057D02*
X94785714Y-46215295D01*
X94785714Y-46215295D02*
X94785714Y-46262914D01*
X94785714Y-46262914D02*
X94738095Y-46358152D01*
X94738095Y-46358152D02*
X94690476Y-46405771D01*
X94690476Y-46405771D02*
X94595238Y-46453390D01*
X94595238Y-46453390D02*
X94404762Y-46453390D01*
X94404762Y-46453390D02*
X94309524Y-46501009D01*
X94309524Y-46501009D02*
X94261905Y-46548628D01*
X94261905Y-46548628D02*
X94214286Y-46643866D01*
X94214286Y-46643866D02*
X94214286Y-46834342D01*
X94214286Y-46834342D02*
X94261905Y-46929580D01*
X94261905Y-46929580D02*
X94309524Y-46977200D01*
X94309524Y-46977200D02*
X94404762Y-47024819D01*
X94404762Y-47024819D02*
X94595238Y-47024819D01*
X94595238Y-47024819D02*
X94690476Y-46977200D01*
X94690476Y-46977200D02*
X94738095Y-46929580D01*
X94738095Y-46929580D02*
X94785714Y-46834342D01*
X94785714Y-46834342D02*
X94785714Y-46643866D01*
X94785714Y-46643866D02*
X94738095Y-46548628D01*
X94738095Y-46548628D02*
X94690476Y-46501009D01*
X94690476Y-46501009D02*
X94595238Y-46453390D01*
D11*
%TO.C,C4*%
X57288748Y-29640000D02*
X58711252Y-29640000D01*
X57288748Y-32360000D02*
X58711252Y-32360000D01*
%TO.C,R4*%
X16762742Y-13477500D02*
X17237258Y-13477500D01*
X16762742Y-14522500D02*
X17237258Y-14522500D01*
%TO.C,R8*%
X71762742Y-34477500D02*
X72237258Y-34477500D01*
X71762742Y-35522500D02*
X72237258Y-35522500D01*
%TO.C,R10*%
X79762742Y-34477500D02*
X80237258Y-34477500D01*
X79762742Y-35522500D02*
X80237258Y-35522500D01*
%TO.C,J5*%
X23130000Y-60780000D02*
X30370000Y-60780000D01*
X23130000Y-67000000D02*
X30370000Y-67000000D01*
X23130000Y-68100000D02*
X30370000Y-68100000D01*
X23130000Y-68620000D02*
X23130000Y-60780000D01*
X24700000Y-68620000D02*
X23130000Y-68620000D01*
X30370000Y-60780000D02*
X30370000Y-68620000D01*
X30370000Y-68620000D02*
X25300000Y-68620000D01*
X25440000Y-69230000D02*
X24560000Y-69230000D01*
X25000000Y-68620000D01*
X25440000Y-69230000D01*
G36*
X25440000Y-69230000D02*
G01*
X24560000Y-69230000D01*
X25000000Y-68620000D01*
X25440000Y-69230000D01*
G37*
%TO.C,R19*%
X42762742Y-62477500D02*
X43237258Y-62477500D01*
X42762742Y-63522500D02*
X43237258Y-63522500D01*
%TO.C,JP1*%
X41600000Y-38000000D02*
X44400000Y-38000000D01*
X41600000Y-40000000D02*
X41600000Y-38000000D01*
X44400000Y-38000000D02*
X44400000Y-40000000D01*
X44400000Y-40000000D02*
X41600000Y-40000000D01*
%TO.C,TP4*%
X17950000Y-4000000D02*
G75*
G02*
X16050000Y-4000000I-950000J0D01*
G01*
X16050000Y-4000000D02*
G75*
G02*
X17950000Y-4000000I950000J0D01*
G01*
%TO.C,D2*%
X79490000Y-60350000D02*
X79490000Y-63650000D01*
X79490000Y-60350000D02*
X85000000Y-60350000D01*
X79490000Y-63650000D02*
X85000000Y-63650000D01*
%TO.C,R16*%
X42762742Y-50477500D02*
X43237258Y-50477500D01*
X42762742Y-51522500D02*
X43237258Y-51522500D01*
%TO.C,R5*%
X20762742Y-13477500D02*
X21237258Y-13477500D01*
X20762742Y-14522500D02*
X21237258Y-14522500D01*
%TO.C,R18*%
X42762742Y-58477500D02*
X43237258Y-58477500D01*
X42762742Y-59522500D02*
X43237258Y-59522500D01*
%TO.C,D1*%
X87240000Y-18440000D02*
X88760000Y-18440000D01*
X87240000Y-18490000D02*
X87240000Y-18440000D01*
X87240000Y-20390000D02*
X87240000Y-19610000D01*
X87240000Y-21560000D02*
X87240000Y-21510000D01*
X88760000Y-18440000D02*
X88760000Y-19440000D01*
X88760000Y-20560000D02*
X88760000Y-21560000D01*
X88760000Y-21560000D02*
X87240000Y-21560000D01*
X86940000Y-19950000D02*
X86460000Y-19950000D01*
X86700000Y-19620000D01*
X86940000Y-19950000D01*
G36*
X86940000Y-19950000D02*
G01*
X86460000Y-19950000D01*
X86700000Y-19620000D01*
X86940000Y-19950000D01*
G37*
%TO.C,R6*%
X24762742Y-13477500D02*
X25237258Y-13477500D01*
X24762742Y-14522500D02*
X25237258Y-14522500D01*
%TO.C,TP11*%
X45950000Y-4000000D02*
G75*
G02*
X44050000Y-4000000I-950000J0D01*
G01*
X44050000Y-4000000D02*
G75*
G02*
X45950000Y-4000000I950000J0D01*
G01*
%TO.C,TP14*%
X9950000Y-55000000D02*
G75*
G02*
X8050000Y-55000000I-950000J0D01*
G01*
X8050000Y-55000000D02*
G75*
G02*
X9950000Y-55000000I950000J0D01*
G01*
%TO.C,J3*%
X90780000Y-17630000D02*
X98620000Y-17630000D01*
X90780000Y-31870000D02*
X90780000Y-17630000D01*
X97000000Y-31870000D02*
X97000000Y-17630000D01*
X98100000Y-31870000D02*
X98100000Y-17630000D01*
X98620000Y-17630000D02*
X98620000Y-29700000D01*
X98620000Y-30300000D02*
X98620000Y-31870000D01*
X98620000Y-31870000D02*
X90780000Y-31870000D01*
X99230000Y-30440000D02*
X98620000Y-30000000D01*
X99230000Y-29560000D01*
X99230000Y-30440000D01*
G36*
X99230000Y-30440000D02*
G01*
X98620000Y-30000000D01*
X99230000Y-29560000D01*
X99230000Y-30440000D01*
G37*
%TO.C,TP15*%
X13950000Y-55000000D02*
G75*
G02*
X12050000Y-55000000I-950000J0D01*
G01*
X12050000Y-55000000D02*
G75*
G02*
X13950000Y-55000000I950000J0D01*
G01*
%TO.C,C6*%
X93859420Y-36490000D02*
X94140580Y-36490000D01*
X93859420Y-37510000D02*
X94140580Y-37510000D01*
%TO.C,J2*%
X4940000Y-24440000D02*
X4940000Y-48560000D01*
X4940000Y-24440000D02*
X7000000Y-24440000D01*
X4940000Y-48560000D02*
X9060000Y-48560000D01*
X7000000Y-24440000D02*
X7000000Y-26500000D01*
X7000000Y-26500000D02*
X9060000Y-26500000D01*
X8000000Y-24440000D02*
X9060000Y-24440000D01*
X9060000Y-24440000D02*
X9060000Y-25500000D01*
X9060000Y-26500000D02*
X9060000Y-48560000D01*
%TO.C,J1*%
X92780000Y-4630000D02*
X100620000Y-4630000D01*
X92780000Y-11870000D02*
X92780000Y-4630000D01*
X99000000Y-11870000D02*
X99000000Y-4630000D01*
X100100000Y-11870000D02*
X100100000Y-4630000D01*
X100620000Y-4630000D02*
X100620000Y-9700000D01*
X100620000Y-10300000D02*
X100620000Y-11870000D01*
X100620000Y-11870000D02*
X92780000Y-11870000D01*
X101230000Y-10440000D02*
X100620000Y-10000000D01*
X101230000Y-9560000D01*
X101230000Y-10440000D01*
G36*
X101230000Y-10440000D02*
G01*
X100620000Y-10000000D01*
X101230000Y-9560000D01*
X101230000Y-10440000D01*
G37*
%TO.C,Q2*%
X85940000Y-2440000D02*
X90060000Y-2440000D01*
X85940000Y-2535000D02*
X85940000Y-2440000D01*
X85940000Y-7560000D02*
X85940000Y-7465000D01*
X90060000Y-2440000D02*
X90060000Y-2535000D01*
X90060000Y-7465000D02*
X90060000Y-7560000D01*
X90060000Y-7560000D02*
X85940000Y-7560000D01*
X85400000Y-2530000D02*
X85160000Y-2200000D01*
X85640000Y-2200000D01*
X85400000Y-2530000D01*
G36*
X85400000Y-2530000D02*
G01*
X85160000Y-2200000D01*
X85640000Y-2200000D01*
X85400000Y-2530000D01*
G37*
%TO.C,TP6*%
X25950000Y-4000000D02*
G75*
G02*
X24050000Y-4000000I-950000J0D01*
G01*
X24050000Y-4000000D02*
G75*
G02*
X25950000Y-4000000I950000J0D01*
G01*
%TO.C,F1*%
X54397936Y-7090000D02*
X55602064Y-7090000D01*
X54397936Y-8910000D02*
X55602064Y-8910000D01*
%TO.C,TP9*%
X37950000Y-4000000D02*
G75*
G02*
X36050000Y-4000000I-950000J0D01*
G01*
X36050000Y-4000000D02*
G75*
G02*
X37950000Y-4000000I950000J0D01*
G01*
%TO.C,R15*%
X23762742Y-37477500D02*
X24237258Y-37477500D01*
X23762742Y-38522500D02*
X24237258Y-38522500D01*
%TO.C,R12*%
X42762742Y-42477500D02*
X43237258Y-42477500D01*
X42762742Y-43522500D02*
X43237258Y-43522500D01*
%TO.C,TP7*%
X29950000Y-4000000D02*
G75*
G02*
X28050000Y-4000000I-950000J0D01*
G01*
X28050000Y-4000000D02*
G75*
G02*
X29950000Y-4000000I950000J0D01*
G01*
%TO.C,C36*%
X35859420Y-42490000D02*
X36140580Y-42490000D01*
X35859420Y-43510000D02*
X36140580Y-43510000D01*
%TO.C,D4*%
X51340000Y-11850000D02*
X51340000Y-16150000D01*
X51340000Y-11850000D02*
X57150000Y-11850000D01*
X51340000Y-16150000D02*
X57150000Y-16150000D01*
%TO.C,U6*%
X50140000Y-39115000D02*
X57860000Y-39115000D01*
X50140000Y-39360000D02*
X50140000Y-39115000D01*
X50140000Y-50885000D02*
X50140000Y-50640000D01*
X57860000Y-39115000D02*
X57860000Y-39360000D01*
X57860000Y-50640000D02*
X57860000Y-50885000D01*
X57860000Y-50885000D02*
X50140000Y-50885000D01*
X49350000Y-39360000D02*
X49010000Y-38890000D01*
X49690000Y-38890000D01*
X49350000Y-39360000D01*
G36*
X49350000Y-39360000D02*
G01*
X49010000Y-38890000D01*
X49690000Y-38890000D01*
X49350000Y-39360000D01*
G37*
%TO.C,R1*%
X62762742Y-14477500D02*
X63237258Y-14477500D01*
X62762742Y-15522500D02*
X63237258Y-15522500D01*
%TO.C,C2*%
X63738748Y-20265000D02*
X64261252Y-20265000D01*
X63738748Y-21735000D02*
X64261252Y-21735000D01*
%TO.C,U5*%
X21090000Y-8440000D02*
X22910000Y-8440000D01*
X21090000Y-8490000D02*
X21090000Y-8440000D01*
X21090000Y-11560000D02*
X21090000Y-11510000D01*
X22910000Y-8440000D02*
X22910000Y-8490000D01*
X22910000Y-9610000D02*
X22910000Y-10390000D01*
X22910000Y-11510000D02*
X22910000Y-11560000D01*
X22910000Y-11560000D02*
X21090000Y-11560000D01*
X20550000Y-8490000D02*
X20310000Y-8160000D01*
X20790000Y-8160000D01*
X20550000Y-8490000D01*
G36*
X20550000Y-8490000D02*
G01*
X20310000Y-8160000D01*
X20790000Y-8160000D01*
X20550000Y-8490000D01*
G37*
%TO.C,L1*%
X76690000Y-22640000D02*
X76690000Y-24140000D01*
X76690000Y-22640000D02*
X78190000Y-22640000D01*
X76690000Y-33360000D02*
X76690000Y-31860000D01*
X76690000Y-33360000D02*
X78190000Y-33360000D01*
X87310000Y-22640000D02*
X85810000Y-22640000D01*
X87310000Y-22640000D02*
X87310000Y-24140000D01*
X87310000Y-33360000D02*
X85810000Y-33360000D01*
X87310000Y-33360000D02*
X87310000Y-31860000D01*
%TO.C,C37*%
X35859420Y-46490000D02*
X36140580Y-46490000D01*
X35859420Y-47510000D02*
X36140580Y-47510000D01*
%TO.C,J4*%
X7130000Y-60780000D02*
X17870000Y-60780000D01*
X7130000Y-67000000D02*
X17870000Y-67000000D01*
X7130000Y-68100000D02*
X17870000Y-68100000D01*
X7130000Y-68620000D02*
X7130000Y-60780000D01*
X8700000Y-68620000D02*
X7130000Y-68620000D01*
X17870000Y-60780000D02*
X17870000Y-68620000D01*
X17870000Y-68620000D02*
X9300000Y-68620000D01*
X9440000Y-69230000D02*
X8560000Y-69230000D01*
X9000000Y-68620000D01*
X9440000Y-69230000D01*
G36*
X9440000Y-69230000D02*
G01*
X8560000Y-69230000D01*
X9000000Y-68620000D01*
X9440000Y-69230000D01*
G37*
%TO.C,D5*%
X90640000Y-61000000D02*
X90640000Y-63000000D01*
X90640000Y-61000000D02*
X94650000Y-61000000D01*
X90640000Y-63000000D02*
X94650000Y-63000000D01*
%TO.C,TP12*%
X49950000Y-4000000D02*
G75*
G02*
X48050000Y-4000000I-950000J0D01*
G01*
X48050000Y-4000000D02*
G75*
G02*
X49950000Y-4000000I950000J0D01*
G01*
%TO.C,U3*%
X89090000Y-45440000D02*
X90910000Y-45440000D01*
X89090000Y-45490000D02*
X89090000Y-45440000D01*
X89090000Y-48560000D02*
X89090000Y-48510000D01*
X90910000Y-45440000D02*
X90910000Y-45490000D01*
X90910000Y-46610000D02*
X90910000Y-47390000D01*
X90910000Y-48510000D02*
X90910000Y-48560000D01*
X90910000Y-48560000D02*
X89090000Y-48560000D01*
X88550000Y-45490000D02*
X88310000Y-45160000D01*
X88790000Y-45160000D01*
X88550000Y-45490000D01*
G36*
X88550000Y-45490000D02*
G01*
X88310000Y-45160000D01*
X88790000Y-45160000D01*
X88550000Y-45490000D01*
G37*
%TO.C,R13*%
X42762742Y-46477500D02*
X43237258Y-46477500D01*
X42762742Y-47522500D02*
X43237258Y-47522500D01*
%TO.C,Q3*%
X83240000Y-52440000D02*
X84760000Y-52440000D01*
X83240000Y-52490000D02*
X83240000Y-52440000D01*
X83240000Y-54390000D02*
X83240000Y-53610000D01*
X83240000Y-55560000D02*
X83240000Y-55510000D01*
X84760000Y-52440000D02*
X84760000Y-53440000D01*
X84760000Y-54560000D02*
X84760000Y-55560000D01*
X84760000Y-55560000D02*
X83240000Y-55560000D01*
X82940000Y-53950000D02*
X82460000Y-53950000D01*
X82700000Y-53620000D01*
X82940000Y-53950000D01*
G36*
X82940000Y-53950000D02*
G01*
X82460000Y-53950000D01*
X82700000Y-53620000D01*
X82940000Y-53950000D01*
G37*
%TO.C,TP17*%
X21950000Y-55000000D02*
G75*
G02*
X20050000Y-55000000I-950000J0D01*
G01*
X20050000Y-55000000D02*
G75*
G02*
X21950000Y-55000000I950000J0D01*
G01*
%TO.C,J6*%
X48130000Y-60780000D02*
X69370000Y-60780000D01*
X48130000Y-67000000D02*
X69370000Y-67000000D01*
X48130000Y-68100000D02*
X69370000Y-68100000D01*
X48130000Y-68620000D02*
X48130000Y-60780000D01*
X49700000Y-68620000D02*
X48130000Y-68620000D01*
X69370000Y-60780000D02*
X69370000Y-68620000D01*
X69370000Y-68620000D02*
X50300000Y-68620000D01*
X50440000Y-69230000D02*
X49560000Y-69230000D01*
X50000000Y-68620000D01*
X50440000Y-69230000D01*
G36*
X50440000Y-69230000D02*
G01*
X49560000Y-69230000D01*
X50000000Y-68620000D01*
X50440000Y-69230000D01*
G37*
%TO.C,TP10*%
X41950000Y-4000000D02*
G75*
G02*
X40050000Y-4000000I-950000J0D01*
G01*
X40050000Y-4000000D02*
G75*
G02*
X41950000Y-4000000I950000J0D01*
G01*
%TO.C,C39*%
X35859420Y-54490000D02*
X36140580Y-54490000D01*
X35859420Y-55510000D02*
X36140580Y-55510000D01*
%TO.C,C1*%
X57288748Y-19640000D02*
X58711252Y-19640000D01*
X57288748Y-22360000D02*
X58711252Y-22360000D01*
%TO.C,R7*%
X67762742Y-34477500D02*
X68237258Y-34477500D01*
X67762742Y-35522500D02*
X68237258Y-35522500D01*
D10*
%TO.C,U2*%
X69925000Y-22425000D02*
X74075000Y-22425000D01*
X69925000Y-27575000D02*
X74075000Y-27575000D01*
D11*
X69325000Y-22525000D02*
X69085000Y-22195000D01*
X69565000Y-22195000D01*
X69325000Y-22525000D01*
G36*
X69325000Y-22525000D02*
G01*
X69085000Y-22195000D01*
X69565000Y-22195000D01*
X69325000Y-22525000D01*
G37*
%TO.C,Q4*%
X87940000Y-51440000D02*
X92060000Y-51440000D01*
X87940000Y-51535000D02*
X87940000Y-51440000D01*
X87940000Y-56560000D02*
X87940000Y-56465000D01*
X92060000Y-51440000D02*
X92060000Y-51535000D01*
X92060000Y-56465000D02*
X92060000Y-56560000D01*
X92060000Y-56560000D02*
X87940000Y-56560000D01*
X87400000Y-51530000D02*
X87160000Y-51200000D01*
X87640000Y-51200000D01*
X87400000Y-51530000D01*
G36*
X87400000Y-51530000D02*
G01*
X87160000Y-51200000D01*
X87640000Y-51200000D01*
X87400000Y-51530000D01*
G37*
%TO.C,TP5*%
X21950000Y-4000000D02*
G75*
G02*
X20050000Y-4000000I-950000J0D01*
G01*
X20050000Y-4000000D02*
G75*
G02*
X21950000Y-4000000I950000J0D01*
G01*
%TO.C,R2*%
X67762742Y-14477500D02*
X68237258Y-14477500D01*
X67762742Y-15522500D02*
X68237258Y-15522500D01*
%TO.C,Q1*%
X77940000Y-6440000D02*
X82060000Y-6440000D01*
X77940000Y-6535000D02*
X77940000Y-6440000D01*
X77940000Y-11560000D02*
X77940000Y-11465000D01*
X82060000Y-6440000D02*
X82060000Y-6535000D01*
X82060000Y-11465000D02*
X82060000Y-11560000D01*
X82060000Y-11560000D02*
X77940000Y-11560000D01*
X77400000Y-6530000D02*
X77160000Y-6200000D01*
X77640000Y-6200000D01*
X77400000Y-6530000D01*
G36*
X77400000Y-6530000D02*
G01*
X77160000Y-6200000D01*
X77640000Y-6200000D01*
X77400000Y-6530000D01*
G37*
%TO.C,K1*%
X70400000Y-52500000D02*
X72600000Y-52500000D01*
X70400000Y-54600000D02*
X70400000Y-52500000D01*
X70600000Y-52700000D02*
X78400000Y-52700000D01*
X70600000Y-65400000D02*
X70600000Y-52700000D01*
X72762000Y-57683000D02*
X72762000Y-58318000D01*
X72762000Y-58318000D02*
X73422000Y-58318000D01*
X73422000Y-57810000D02*
X73422000Y-58826000D01*
X73422000Y-58826000D02*
X75327000Y-58826000D01*
X74946000Y-57810000D02*
X74311000Y-58826000D01*
X75327000Y-57810000D02*
X73422000Y-57810000D01*
X75327000Y-57810000D02*
X75327000Y-58826000D01*
X75962000Y-57683000D02*
X75962000Y-58318000D01*
X75962000Y-58318000D02*
X75327000Y-58318000D01*
X78400000Y-52700000D02*
X78400000Y-65400000D01*
X78400000Y-65400000D02*
X70600000Y-65400000D01*
%TO.C,TP13*%
X5950000Y-55000000D02*
G75*
G02*
X4050000Y-55000000I-950000J0D01*
G01*
X4050000Y-55000000D02*
G75*
G02*
X5950000Y-55000000I950000J0D01*
G01*
%TO.C,TP3*%
X13950000Y-4000000D02*
G75*
G02*
X12050000Y-4000000I-950000J0D01*
G01*
X12050000Y-4000000D02*
G75*
G02*
X13950000Y-4000000I950000J0D01*
G01*
%TO.C,U1*%
X64390000Y-7390000D02*
X67610000Y-7390000D01*
X64390000Y-7565000D02*
X64390000Y-7390000D01*
X64390000Y-10610000D02*
X64390000Y-10435000D01*
X67610000Y-7390000D02*
X67610000Y-7565000D01*
X67610000Y-10435000D02*
X67610000Y-10610000D01*
X67610000Y-10610000D02*
X64390000Y-10610000D01*
X63840000Y-7560000D02*
X63600000Y-7230000D01*
X64080000Y-7230000D01*
X63840000Y-7560000D01*
G36*
X63840000Y-7560000D02*
G01*
X63600000Y-7230000D01*
X64080000Y-7230000D01*
X63840000Y-7560000D01*
G37*
%TO.C,C7*%
X85859420Y-47490000D02*
X86140580Y-47490000D01*
X85859420Y-48510000D02*
X86140580Y-48510000D01*
%TO.C,C38*%
X35859420Y-50490000D02*
X36140580Y-50490000D01*
X35859420Y-51510000D02*
X36140580Y-51510000D01*
%TO.C,R3*%
X72762742Y-14477500D02*
X73237258Y-14477500D01*
X72762742Y-15522500D02*
X73237258Y-15522500D01*
%TO.C,U4*%
X75940000Y-39440000D02*
X80060000Y-39440000D01*
X75940000Y-39535000D02*
X75940000Y-39440000D01*
X75940000Y-44560000D02*
X75940000Y-44465000D01*
X80060000Y-39440000D02*
X80060000Y-39535000D01*
X80060000Y-44465000D02*
X80060000Y-44560000D01*
X80060000Y-44560000D02*
X75940000Y-44560000D01*
X75400000Y-39530000D02*
X75160000Y-39200000D01*
X75640000Y-39200000D01*
X75400000Y-39530000D01*
G36*
X75400000Y-39530000D02*
G01*
X75160000Y-39200000D01*
X75640000Y-39200000D01*
X75400000Y-39530000D01*
G37*
%TO.C,TP2*%
X9950000Y-4000000D02*
G75*
G02*
X8050000Y-4000000I-950000J0D01*
G01*
X8050000Y-4000000D02*
G75*
G02*
X9950000Y-4000000I950000J0D01*
G01*
%TO.C,R11*%
X83762742Y-34477500D02*
X84237258Y-34477500D01*
X83762742Y-35522500D02*
X84237258Y-35522500D01*
%TO.C,TP16*%
X17950000Y-55000000D02*
G75*
G02*
X16050000Y-55000000I-950000J0D01*
G01*
X16050000Y-55000000D02*
G75*
G02*
X17950000Y-55000000I950000J0D01*
G01*
%TO.C,TP1*%
X5950000Y-4000000D02*
G75*
G02*
X4050000Y-4000000I-950000J0D01*
G01*
X4050000Y-4000000D02*
G75*
G02*
X5950000Y-4000000I950000J0D01*
G01*
%TO.C,C5*%
X87288748Y-33640000D02*
X88711252Y-33640000D01*
X87288748Y-36360000D02*
X88711252Y-36360000D01*
%TO.C,R9*%
X75762742Y-34477500D02*
X76237258Y-34477500D01*
X75762742Y-35522500D02*
X76237258Y-35522500D01*
%TO.C,R14*%
X17762742Y-37477500D02*
X18237258Y-37477500D01*
X17762742Y-38522500D02*
X18237258Y-38522500D01*
%TO.C,C3*%
X61859420Y-27490000D02*
X62140580Y-27490000D01*
X61859420Y-28510000D02*
X62140580Y-28510000D01*
%TO.C,TP8*%
X33950000Y-4000000D02*
G75*
G02*
X32050000Y-4000000I-950000J0D01*
G01*
X32050000Y-4000000D02*
G75*
G02*
X33950000Y-4000000I950000J0D01*
G01*
%TO.C,R17*%
X42762742Y-54477500D02*
X43237258Y-54477500D01*
X42762742Y-55522500D02*
X43237258Y-55522500D01*
%TO.C,C8*%
X93859420Y-47490000D02*
X94140580Y-47490000D01*
X93859420Y-48510000D02*
X94140580Y-48510000D01*
%TD*%
M02*
