%TF.GenerationSoftware,KiCad,Pcbnew,9.0.7*%
%TF.CreationDate,2026-05-12T17:37:55+02:00*%
%TF.ProjectId,twn4_access_system_rev_f_compact_power_cleanup,74776e34-5f61-4636-9365-73735f737973,Rev F*%
%TF.SameCoordinates,Original*%
%TF.FileFunction,Soldermask,Bot*%
%TF.FilePolarity,Negative*%
%FSLAX46Y46*%
G04 Gerber Fmt 4.6, Leading zero omitted, Abs format (unit mm)*
G04 Created by KiCad (PCBNEW 9.0.7) date 2026-05-12 17:37:55*
%MOMM*%
%LPD*%
G01*
G04 APERTURE LIST*
G04 Aperture macros list*
%AMRoundRect*
0 Rectangle with rounded corners*
0 $1 Rounding radius*
0 $2 $3 $4 $5 $6 $7 $8 $9 X,Y pos of 4 corners*
0 Add a 4 corners polygon primitive as box body*
4,1,4,$2,$3,$4,$5,$6,$7,$8,$9,$2,$3,0*
0 Add four circle primitives for the rounded corners*
1,1,$1+$1,$2,$3*
1,1,$1+$1,$4,$5*
1,1,$1+$1,$6,$7*
1,1,$1+$1,$8,$9*
0 Add four rect primitives between the rounded corners*
20,1,$1+$1,$2,$3,$4,$5,0*
20,1,$1+$1,$4,$5,$6,$7,0*
20,1,$1+$1,$6,$7,$8,$9,0*
20,1,$1+$1,$8,$9,$2,$3,0*%
G04 Aperture macros list end*
%ADD10RoundRect,0.260418X-0.989582X-0.989582X0.989582X-0.989582X0.989582X0.989582X-0.989582X0.989582X0*%
%ADD11C,2.500000*%
%ADD12RoundRect,0.260418X0.989582X-0.989582X0.989582X0.989582X-0.989582X0.989582X-0.989582X-0.989582X0*%
%ADD13RoundRect,0.050000X-0.675000X-0.675000X0.675000X-0.675000X0.675000X0.675000X-0.675000X0.675000X0*%
%ADD14C,1.450000*%
%ADD15RoundRect,0.050000X-1.000000X-1.000000X1.000000X-1.000000X1.000000X1.000000X-1.000000X1.000000X0*%
%ADD16C,2.100000*%
G04 APERTURE END LIST*
D10*
%TO.C,J5*%
X25000000Y-64000000D03*
D11*
X28500000Y-64000000D03*
%TD*%
D12*
%TO.C,J3*%
X94000000Y-30000000D03*
D11*
X94000000Y-26500000D03*
X94000000Y-23000000D03*
X94000000Y-19500000D03*
%TD*%
D13*
%TO.C,J2*%
X8000000Y-25500000D03*
D14*
X6000000Y-25500000D03*
X8000000Y-27500000D03*
X6000000Y-27500000D03*
X8000000Y-29500000D03*
X6000000Y-29500000D03*
X8000000Y-31500000D03*
X6000000Y-31500000D03*
X8000000Y-33500000D03*
X6000000Y-33500000D03*
X8000000Y-35500000D03*
X6000000Y-35500000D03*
X8000000Y-37500000D03*
X6000000Y-37500000D03*
X8000000Y-39500000D03*
X6000000Y-39500000D03*
X8000000Y-41500000D03*
X6000000Y-41500000D03*
X8000000Y-43500000D03*
X6000000Y-43500000D03*
X8000000Y-45500000D03*
X6000000Y-45500000D03*
X8000000Y-47500000D03*
X6000000Y-47500000D03*
%TD*%
D12*
%TO.C,J1*%
X96000000Y-10000000D03*
D11*
X96000000Y-6500000D03*
%TD*%
D10*
%TO.C,J4*%
X9000000Y-64000000D03*
D11*
X12500000Y-64000000D03*
X16000000Y-64000000D03*
%TD*%
D10*
%TO.C,J6*%
X50000000Y-64000000D03*
D11*
X53500000Y-64000000D03*
X57000000Y-64000000D03*
X60500000Y-64000000D03*
X64000000Y-64000000D03*
X67500000Y-64000000D03*
%TD*%
D15*
%TO.C,K1*%
X72000000Y-54000000D03*
D16*
X72000000Y-56540000D03*
X72000000Y-64160000D03*
X77080000Y-64160000D03*
X77080000Y-56540000D03*
X77080000Y-54000000D03*
%TD*%
M02*
